<svg width="250" height="350" viewBox="0 0 250 350" fill="none" xmlns="http://www.w3.org/2000/svg">
<g clip-path="url(#clip0_222_134)">
<path d="M235 0H15C6.71573 0 0 6.71573 0 15V335C0 343.284 6.71573 350 15 350H235C243.284 350 250 343.284 250 335V15C250 6.71573 243.284 0 235 0Z" fill="#CC33EA"/>
<path d="M230 8H20C13.3726 8 8 13.3726 8 20V330C8 336.627 13.3726 342 20 342H230C236.627 342 242 336.627 242 330V20C242 13.3726 236.627 8 230 8Z" fill="#0F0F1A"/>
<path opacity="0.9" d="M230 15H20C17.2386 15 15 17.2386 15 20V38C15 40.7614 17.2386 43 20 43H230C232.761 43 235 40.7614 235 38V20C235 17.2386 232.761 15 230 15Z" fill="#CC33EA"/>
<text fill="white" text-anchor="middle" font-family="Neucha" font-size="16" letter-spacing="0em"><tspan x="125" y="35.8672">{{HEADER}}</tspan></text>
<text fill="#CD96FF" text-anchor="middle" font-family="Neucha" font-size="17" letter-spacing="0em"><tspan x="125" y="64.6089">{{TITLE}}</tspan></text>
<path d="M222 75H28C23.5817 75 20 78.5817 20 83V207C20 211.418 23.5817 215 28 215H222C226.418 215 230 211.418 230 207V83C230 78.5817 226.418 75 222 75Z" fill="#0F0F1A" stroke="#CC33EA" stroke-width="2"/>
<path d="M207 90H43C41.3431 90 40 91.3431 40 93V197C40 198.657 41.3431 200 43 200H207C208.657 200 210 198.657 210 197V93C210 91.3431 208.657 90 207 90Z" fill="#1E5631" stroke="white"/>
<path opacity="0.7" d="M125 90V200" stroke="white"/>
<path opacity="0.7" d="M125 163C134.941 163 143 154.941 143 145C143 135.059 134.941 127 125 127C115.059 127 107 135.059 107 145C107 154.941 115.059 163 125 163Z" stroke="white"/>
<path opacity="0.7" d="M125 147C126.105 147 127 146.105 127 145C127 143.895 126.105 143 125 143C123.895 143 123 143.895 123 145C123 146.105 123.895 147 125 147Z" fill="white"/>
<path opacity="0.5" d="M65 125H40V165H65V125Z" stroke="white"/>
<path opacity="0.5" d="M210 125H185V165H210V125Z" stroke="white"/>
<path d="M75 135C80.5228 135 85 130.523 85 125C85 119.477 80.5228 115 75 115C69.4772 115 65 119.477 65 125C65 130.523 69.4772 135 75 135Z" fill="#CC33EA"/>
<path d="M75 131C78.3137 131 81 128.314 81 125C81 121.686 78.3137 119 75 119C71.6863 119 69 121.686 69 125C69 128.314 71.6863 131 75 131Z" fill="#CC33EA"/>
<path opacity="0.8" d="M175 175C180.523 175 185 170.523 185 165C185 159.477 180.523 155 175 155C169.477 155 165 159.477 165 165C165 170.523 169.477 175 175 175Z" stroke="#CC33EA" stroke-width="2" stroke-dasharray="3 2"/>
<path opacity="0.4" d="M175 171C178.314 171 181 168.314 181 165C181 161.686 178.314 159 175 159C171.686 159 169 161.686 169 165C169 168.314 171.686 171 175 171Z" fill="#CC33EA"/>
<path d="M77.5 123.5C102.167 104.833 137.333 119.333 162 158" stroke="white" stroke-width="2.5" stroke-linecap="round"/>
<path d="M165 155L175 165H162L165 155Z" fill="white"/>
<path opacity="0.8" d="M100 120C101.105 120 102 119.105 102 118C102 116.895 101.105 116 100 116C98.8954 116 98 116.895 98 118C98 119.105 98.8954 120 100 120Z" fill="#CC33EA"/>
<path opacity="0.6" d="M115 113.5C115.828 113.5 116.5 112.828 116.5 112C116.5 111.172 115.828 110.5 115 110.5C114.172 110.5 113.5 111.172 113.5 112C113.5 112.828 114.172 113.5 115 113.5Z" fill="#CC33EA"/>
<path opacity="0.7" d="M130 117C131.105 117 132 116.105 132 115C132 113.895 131.105 113 130 113C128.895 113 128 113.895 128 115C128 116.105 128.895 117 130 117Z" fill="#CC33EA"/>
<path opacity="0.5" d="M145 126.5C145.828 126.5 146.5 125.828 146.5 125C146.5 124.172 145.828 123.5 145 123.5C144.172 123.5 143.5 124.172 143.5 125C143.5 125.828 144.172 126.5 145 126.5Z" fill="#CC33EA"/>
<path opacity="0.6" d="M155 142C156.105 142 157 141.105 157 140C157 138.895 156.105 138 155 138C153.895 138 153 138.895 153 140C153 141.105 153.895 142 155 142Z" fill="#CC33EA"/>
<path d="M45 185L60 175V180H80V190H60V195L45 185Z" fill="#CC33EA"/>
<path d="M205 105L190 115V110H170V100H190V95L205 105Z" fill="#CC33EA"/>
<path opacity="0.7" d="M55 100L58 105L55 110L52 105L55 100Z" fill="white"/>
<path opacity="0.6" d="M195 180L198 185L195 190L192 185L195 180Z" fill="white"/>
<path d="M35 151.5C35.8284 151.5 36.5 150.828 36.5 150C36.5 149.172 35.8284 148.5 35 148.5C34.1716 148.5 33.5 149.172 33.5 150C33.5 150.828 34.1716 151.5 35 151.5Z" fill="#CC33EA"/>
<path d="M215 141.5C215.828 141.5 216.5 140.828 216.5 140C216.5 139.172 215.828 138.5 215 138.5C214.172 138.5 213.5 139.172 213.5 140C213.5 140.828 214.172 141.5 215 141.5Z" fill="#CC33EA"/>
<path d="M222 225H28C23.5817 225 20 228.582 20 233V297C20 301.418 23.5817 305 28 305H222C226.418 305 230 301.418 230 297V233C230 228.582 226.418 225 222 225Z" fill="#0F0F1A" stroke="#CC33EA"/>
<text fill="white" text-anchor="middle" font-family="Neucha" font-size="15" letter-spacing="0em"><tspan x="125" y="248.125">{{BODY1}}</tspan><tspan x="125" y="265.125">{{BODY2}}</tspan></text>
<text fill="#CD96FF" text-anchor="middle" font-family="Neucha" font-size="22" letter-spacing="0em"><tspan x="125" y="293.317">{{FOOTER}}</tspan></text>
<path opacity="0.7" d="M98 315L101 322H109L103 327L106 335L98 330L90 335L93 327L87 322H95L98 315Z" fill="#CD96FF"/>
<path opacity="0.7" d="M126 315L129 322H137L131 327L134 335L126 330L118 335L121 327L115 322H123L126 315Z" fill="#CD96FF"/>
<path opacity="0.7" d="M152 315L155 322H163L157 327L160 335L152 330L144 335L147 327L141 322H149L152 315Z" fill="#CD96FF"/>
</g>
<defs>
<clipPath id="clip0_222_134">
<rect width="250" height="350" fill="white"/>
</clipPath>
</defs>
</svg>
