<svg width="250" height="350" viewBox="0 0 250 350" fill="none" xmlns="http://www.w3.org/2000/svg">
<g clip-path="url(#clip0_222_53)">
<path d="M235 0H15C6.71573 0 0 6.71573 0 15V335C0 343.284 6.71573 350 15 350H235C243.284 350 250 343.284 250 335V15C250 6.71573 243.284 0 235 0Z" fill="#3EE9DA"/>
<path d="M230 8H20C13.3726 8 8 13.3726 8 20V330C8 336.627 13.3726 342 20 342H230C236.627 342 242 336.627 242 330V20C242 13.3726 236.627 8 230 8Z" fill="#0F0F1A"/>
<path opacity="0.9" d="M230 15H20C17.2386 15 15 17.2386 15 20V38C15 40.7614 17.2386 43 20 43H230C232.761 43 235 40.7614 235 38V20C235 17.2386 232.761 15 230 15Z" fill="#3EE9DA"/>
<text fill="#0F0F1A" text-anchor="middle" font-family="Neucha" font-size="16" letter-spacing="0em"><tspan x="125" y="35.8672">{{HEADER}}</tspan></text>
<text fill="#C47446" text-anchor="middle" font-family="Neucha" font-size="17" letter-spacing="0em"><tspan x="125" y="64.6089">{{TITLE}}</tspan></text>
<path d="M222 75H28C23.5817 75 20 78.5817 20 83V207C20 211.418 23.5817 215 28 215H222C226.418 215 230 211.418 230 207V83C230 78.5817 226.418 75 222 75Z" fill="#0F0F1A" stroke="#3EE9DA" stroke-width="2"/>
<path d="M70 100L73 105L70 110L67 105L70 100Z" fill="white" fill-opacity="0.5"/>
<path d="M185 120L188 125L185 130L182 125L185 120Z" fill="white" fill-opacity="0.5"/>
<path d="M222 225H28C23.5817 225 20 228.582 20 233V297C20 301.418 23.5817 305 28 305H222C226.418 305 230 301.418 230 297V233C230 228.582 226.418 225 222 225Z" fill="#0F0F1A" stroke="#3EE9DA"/>
<text fill="white" text-anchor="middle" font-family="Neucha" font-size="15" letter-spacing="0em"><tspan x="125" y="248.125">{{BODY1}}</tspan><tspan x="125" y="265.125">{{BODY2}}</tspan></text>
<text fill="#C47446" text-anchor="middle" font-family="Neucha" font-size="22" letter-spacing="0em"><tspan x="125" y="291.317">{{FOOTER}}</tspan></text>
<path d="M124.6 312L127.8 321.6H138.2L130.2 328L133.4 337.6L124.6 331.2L115.8 337.6L119 328L111 321.6H121.4L124.6 312Z" fill="#C47446"/>
<path d="M120.073 199.663L142.272 141.058L123.302 143.507L140.331 97.1741L108.644 103.766L107.998 158.009L126.363 152.869L120.073 199.663Z" fill="#C47446"/>
<path d="M168.689 107.623L135.408 136.083L166.962 105.724L168.689 107.623Z" fill="white" fill-opacity="0.5"/>
<path d="M157.593 182.012L140.887 164.809L159.338 180.131L157.593 182.012Z" fill="white" fill-opacity="0.5"/>
<path d="M76.9832 116.421L101.392 131.524L75.7295 118.66L76.9832 116.421Z" fill="white" fill-opacity="0.5"/>
<path d="M79.9497 167.817L101.62 156.146L81.285 170.008L79.9497 167.817Z" fill="white" fill-opacity="0.5"/>
<path d="M174.793 135.266L150.019 140.871L174.099 132.797L174.793 135.266Z" fill="white" fill-opacity="0.5"/>
<path d="M95.3319 100.418L104.36 114.197L93.2988 101.985L95.3319 100.418Z" fill="white" fill-opacity="0.5"/>
<path d="M136.5 196.479L134.723 177.804L139.034 196.062L136.5 196.479Z" fill="white" fill-opacity="0.5"/>
<path d="M203 121C212.941 121 221 112.941 221 103C221 93.0589 212.941 85 203 85C193.059 85 185 93.0589 185 103C185 112.941 193.059 121 203 121Z" fill="#0F0F1A" stroke="#3EE9DA" stroke-width="2"/>
<text fill="#3EE9DA" style="white-space: pre" xml:space="preserve" font-family="Inter" font-size="14" font-weight="bold" letter-spacing="0em"><tspan x="193.23" y="107.591">+5</tspan></text>
</g>
<defs>
<clipPath id="clip0_222_53">
<rect width="250" height="350" fill="white"/>
</clipPath>
</defs>
</svg>
