<svg width="250" height="350" viewBox="0 0 250 350" fill="none" xmlns="http://www.w3.org/2000/svg">
<g clip-path="url(#clip0_226_664)">
<path d="M235 0H15C6.71573 0 0 6.71573 0 15V335C0 343.284 6.71573 350 15 350H235C243.284 350 250 343.284 250 335V15C250 6.71573 243.284 0 235 0Z" fill="#E65E57"/>
<path d="M230 8H20C13.3726 8 8 13.3726 8 20V330C8 336.627 13.3726 342 20 342H230C236.627 342 242 336.627 242 330V20C242 13.3726 236.627 8 230 8Z" fill="#0F0F1A"/>
<path opacity="0.9" d="M230 15H20C17.2386 15 15 17.2386 15 20V38C15 40.7614 17.2386 43 20 43H230C232.761 43 235 40.7614 235 38V20C235 17.2386 232.761 15 230 15Z" fill="#E65E57"/>
<path d="M85.0636 34H83.0863L86.0991 25.2727H88.4769L91.4854 34H89.5082L87.3221 27.267H87.2539L85.0636 34ZM84.94 30.5696H89.6104V32.0099H84.94V30.5696ZM99.826 28.3281H97.9595C97.9254 28.0866 97.8558 27.8722 97.7507 27.6847C97.6456 27.4943 97.5107 27.3324 97.3459 27.1989C97.1811 27.0653 96.9908 26.9631 96.7749 26.892C96.5618 26.821 96.3303 26.7855 96.0803 26.7855C95.6286 26.7855 95.2351 26.8977 94.8999 27.1222C94.5646 27.3437 94.3047 27.6676 94.12 28.0938C93.9354 28.517 93.843 29.0312 93.843 29.6364C93.843 30.2585 93.9354 30.7812 94.12 31.2045C94.3075 31.6278 94.5689 31.9474 94.9041 32.1634C95.2393 32.3793 95.6271 32.4872 96.0675 32.4872C96.3146 32.4872 96.5433 32.4545 96.7536 32.3892C96.9666 32.3239 97.1555 32.2287 97.3203 32.1037C97.4851 31.9759 97.6214 31.821 97.7294 31.6392C97.8402 31.4574 97.9169 31.25 97.9595 31.017L99.826 31.0256C99.7777 31.4261 99.657 31.8125 99.4638 32.1847C99.2734 32.554 99.0163 32.8849 98.6925 33.1776C98.3714 33.4673 97.9879 33.6974 97.5419 33.8679C97.0987 34.0355 96.5973 34.1193 96.0376 34.1193C95.2592 34.1193 94.5632 33.9432 93.9496 33.5909C93.3388 33.2386 92.8558 32.7287 92.5007 32.0611C92.1484 31.3935 91.9723 30.5852 91.9723 29.6364C91.9723 28.6847 92.1513 27.875 92.5092 27.2074C92.8672 26.5398 93.353 26.0312 93.9666 25.6818C94.5803 25.3295 95.2706 25.1534 96.0376 25.1534C96.5433 25.1534 97.0121 25.2244 97.4439 25.3665C97.8786 25.5085 98.2635 25.7159 98.5987 25.9886C98.9339 26.2585 99.2067 26.5895 99.4169 26.9815C99.63 27.3736 99.7663 27.8224 99.826 28.3281ZM100.817 26.794V25.2727H107.984V26.794H105.312V34H103.489V26.794H100.817ZM111.01 25.2727V34H109.165V25.2727H111.01ZM120.548 29.6364C120.548 30.5881 120.368 31.3977 120.007 32.0653C119.649 32.733 119.16 33.2429 118.541 33.5952C117.924 33.9446 117.231 34.1193 116.461 34.1193C115.686 34.1193 114.99 33.9432 114.373 33.5909C113.757 33.2386 113.27 32.7287 112.912 32.0611C112.554 31.3935 112.375 30.5852 112.375 29.6364C112.375 28.6847 112.554 27.875 112.912 27.2074C113.27 26.5398 113.757 26.0312 114.373 25.6818C114.99 25.3295 115.686 25.1534 116.461 25.1534C117.231 25.1534 117.924 25.3295 118.541 25.6818C119.16 26.0312 119.649 26.5398 120.007 27.2074C120.368 27.875 120.548 28.6847 120.548 29.6364ZM118.677 29.6364C118.677 29.0199 118.585 28.5 118.4 28.0767C118.218 27.6534 117.961 27.3324 117.629 27.1136C117.297 26.8949 116.907 26.7855 116.461 26.7855C116.015 26.7855 115.626 26.8949 115.294 27.1136C114.961 27.3324 114.703 27.6534 114.518 28.0767C114.336 28.5 114.245 29.0199 114.245 29.6364C114.245 30.2528 114.336 30.7727 114.518 31.196C114.703 31.6193 114.961 31.9403 115.294 32.1591C115.626 32.3778 116.015 32.4872 116.461 32.4872C116.907 32.4872 117.297 32.3778 117.629 32.1591C117.961 31.9403 118.218 31.6193 118.4 31.196C118.585 30.7727 118.677 30.2528 118.677 29.6364ZM129.214 25.2727V34H127.621L123.824 28.5071H123.76V34H121.915V25.2727H123.534L127.301 30.7614H127.378V25.2727H129.214ZM141.217 28.3281H139.35C139.316 28.0866 139.246 27.8722 139.141 27.6847C139.036 27.4943 138.901 27.3324 138.737 27.1989C138.572 27.0653 138.381 26.9631 138.165 26.892C137.952 26.821 137.721 26.7855 137.471 26.7855C137.019 26.7855 136.626 26.8977 136.29 27.1222C135.955 27.3437 135.695 27.6676 135.511 28.0938C135.326 28.517 135.234 29.0312 135.234 29.6364C135.234 30.2585 135.326 30.7812 135.511 31.2045C135.698 31.6278 135.96 31.9474 136.295 32.1634C136.63 32.3793 137.018 32.4872 137.458 32.4872C137.705 32.4872 137.934 32.4545 138.144 32.3892C138.357 32.3239 138.546 32.2287 138.711 32.1037C138.876 31.9759 139.012 31.821 139.12 31.6392C139.231 31.4574 139.308 31.25 139.35 31.017L141.217 31.0256C141.168 31.4261 141.048 31.8125 140.854 32.1847C140.664 32.554 140.407 32.8849 140.083 33.1776C139.762 33.4673 139.379 33.6974 138.933 33.8679C138.489 34.0355 137.988 34.1193 137.428 34.1193C136.65 34.1193 135.954 33.9432 135.34 33.5909C134.729 33.2386 134.246 32.7287 133.891 32.0611C133.539 31.3935 133.363 30.5852 133.363 29.6364C133.363 28.6847 133.542 27.875 133.9 27.2074C134.258 26.5398 134.744 26.0312 135.357 25.6818C135.971 25.3295 136.661 25.1534 137.428 25.1534C137.934 25.1534 138.403 25.2244 138.835 25.3665C139.269 25.5085 139.654 25.7159 139.989 25.9886C140.325 26.2585 140.597 26.5895 140.808 26.9815C141.021 27.3736 141.157 27.8224 141.217 28.3281ZM143.88 34H141.903L144.915 25.2727H147.293L150.302 34H148.325L146.138 27.267H146.07L143.88 34ZM143.756 30.5696H148.427V32.0099H143.756V30.5696ZM151.352 34V25.2727H154.795C155.455 25.2727 156.017 25.3906 156.483 25.6264C156.952 25.8594 157.308 26.1903 157.553 26.6193C157.8 27.0455 157.923 27.5469 157.923 28.1236C157.923 28.7031 157.798 29.2017 157.548 29.6193C157.298 30.0341 156.936 30.3523 156.462 30.5739C155.99 30.7955 155.419 30.9062 154.749 30.9062H152.443V29.4233H154.45C154.803 29.4233 155.095 29.375 155.328 29.2784C155.561 29.1818 155.734 29.0369 155.848 28.8438C155.964 28.6506 156.023 28.4105 156.023 28.1236C156.023 27.8338 155.964 27.5895 155.848 27.3906C155.734 27.1918 155.56 27.0412 155.324 26.9389C155.091 26.8338 154.797 26.7812 154.442 26.7812H153.197V34H151.352ZM156.065 30.0284L158.234 34H156.197L154.075 30.0284H156.065ZM162.321 34H159.227V25.2727H162.347C163.224 25.2727 163.98 25.4474 164.614 25.7969C165.247 26.1435 165.734 26.642 166.075 27.2926C166.419 27.9432 166.591 28.7216 166.591 29.6278C166.591 30.5369 166.419 31.3182 166.075 31.9716C165.734 32.625 165.244 33.1264 164.605 33.4759C163.969 33.8253 163.207 34 162.321 34ZM161.072 32.419H162.244C162.79 32.419 163.249 32.3224 163.621 32.1293C163.996 31.9332 164.277 31.6307 164.464 31.2216C164.655 30.8097 164.75 30.2784 164.75 29.6278C164.75 28.983 164.655 28.456 164.464 28.0469C164.277 27.6378 163.997 27.3366 163.625 27.1435C163.253 26.9503 162.794 26.8537 162.249 26.8537H161.072V32.419Z" fill="white"/>
<path d="M60.5471 54.8182H63.2019L66.0059 61.6591H66.1252L68.9292 54.8182H71.584V65H69.4959V58.3729H69.4114L66.7765 64.9503H65.3546L62.7196 58.348H62.6351V65H60.5471V54.8182ZM75.1126 65H72.8058L76.3207 54.8182H79.0948L82.6048 65H80.2979L77.7475 57.1449H77.668L75.1126 65ZM74.9684 60.9979H80.4173V62.6783H74.9684V60.9979ZM89.1213 57.7464C89.0815 57.3454 88.9108 57.0339 88.6092 56.8118C88.3076 56.5897 87.8983 56.4787 87.3812 56.4787C87.0299 56.4787 86.7333 56.5284 86.4913 56.6278C86.2493 56.724 86.0637 56.8582 85.9345 57.0305C85.8085 57.2029 85.7456 57.3984 85.7456 57.6172C85.7389 57.7995 85.777 57.9586 85.8599 58.0945C85.9461 58.2304 86.0637 58.348 86.2129 58.4474C86.362 58.5436 86.5344 58.6281 86.7299 58.701C86.9255 58.7706 87.1343 58.8303 87.3564 58.88L88.2711 59.0987C88.7153 59.1982 89.1229 59.3307 89.4941 59.4964C89.8654 59.6622 90.1868 59.866 90.4586 60.108C90.7304 60.3499 90.9409 60.6349 91.09 60.9631C91.2425 61.2912 91.3204 61.6674 91.3237 62.0916C91.3204 62.7147 91.1613 63.255 90.8464 63.7124C90.5349 64.1664 90.0841 64.5194 89.4941 64.7713C88.9075 65.0199 88.1999 65.1442 87.3713 65.1442C86.5493 65.1442 85.8334 65.0182 85.2235 64.7663C84.617 64.5144 84.1431 64.1416 83.8017 63.6477C83.4636 63.1506 83.2863 62.5357 83.2697 61.8033H85.3528C85.376 62.1446 85.4738 62.4297 85.6461 62.6584C85.8218 62.8838 86.0555 63.0545 86.3471 63.1705C86.6421 63.2831 86.9752 63.3395 87.3464 63.3395C87.711 63.3395 88.0275 63.2865 88.296 63.1804C88.5678 63.0743 88.7782 62.9268 88.9274 62.7379C89.0765 62.549 89.1511 62.3319 89.1511 62.0866C89.1511 61.858 89.0832 61.6657 88.9473 61.5099C88.8147 61.3542 88.6191 61.2216 88.3606 61.1122C88.1054 61.0028 87.7922 60.9034 87.421 60.8139L86.3123 60.5355C85.4539 60.3267 84.7761 60.0002 84.2789 59.5561C83.7818 59.112 83.5349 58.5137 83.5382 57.7614C83.5349 57.1449 83.6989 56.6063 84.0304 56.1456C84.3651 55.6849 84.8242 55.3253 85.4075 55.0668C85.9908 54.8082 86.6537 54.679 87.3961 54.679C88.1518 54.679 88.8114 54.8082 89.3748 55.0668C89.9416 55.3253 90.3824 55.6849 90.6973 56.1456C91.0121 56.6063 91.1745 57.1399 91.1845 57.7464H89.1213ZM92.3839 56.593V54.8182H100.746V56.593H97.6289V65H95.5011V56.593H92.3839ZM102.123 65V54.8182H108.984V56.593H104.276V59.0192H108.631V60.794H104.276V63.2251H109.004V65H102.123ZM110.695 65V54.8182H114.713C115.481 54.8182 116.138 54.9557 116.681 55.2308C117.228 55.5026 117.644 55.8887 117.929 56.3892C118.218 56.8864 118.362 57.4714 118.362 58.1442C118.362 58.8203 118.216 59.402 117.924 59.8892C117.633 60.3731 117.21 60.7443 116.656 61.0028C116.106 61.2614 115.44 61.3906 114.658 61.3906H111.968V59.6605H114.31C114.721 59.6605 115.062 59.6042 115.334 59.4915C115.606 59.3788 115.808 59.2098 115.941 58.9844C116.076 58.759 116.144 58.4789 116.144 58.1442C116.144 57.8061 116.076 57.5211 115.941 57.2891C115.808 57.0571 115.604 56.8814 115.329 56.7621C115.057 56.6394 114.714 56.5781 114.3 56.5781H112.848V65H110.695ZM116.194 60.3665L118.725 65H116.348L113.872 60.3665H116.194ZM122.735 56.593V54.8182H131.098V56.593H127.98V65H125.853V56.593H122.735ZM132.475 65V54.8182H136.492C137.261 54.8182 137.917 54.9557 138.461 55.2308C139.007 55.5026 139.423 55.8887 139.708 56.3892C139.997 56.8864 140.141 57.4714 140.141 58.1442C140.141 58.8203 139.995 59.402 139.703 59.8892C139.412 60.3731 138.989 60.7443 138.436 61.0028C137.886 61.2614 137.219 61.3906 136.437 61.3906H133.748V59.6605H136.089C136.5 59.6605 136.842 59.6042 137.113 59.4915C137.385 59.3788 137.587 59.2098 137.72 58.9844C137.856 58.759 137.924 58.4789 137.924 58.1442C137.924 57.8061 137.856 57.5211 137.72 57.2891C137.587 57.0571 137.383 56.8814 137.108 56.7621C136.837 56.6394 136.493 56.5781 136.079 56.5781H134.627V65H132.475ZM137.973 60.3665L140.504 65H138.127L135.652 60.3665H137.973ZM143.417 65H141.11L144.625 54.8182H147.4L150.909 65H148.603L146.052 57.1449H145.973L143.417 65ZM143.273 60.9979H148.722V62.6783H143.273V60.9979ZM154.288 54.8182V65H152.135V54.8182H154.288ZM164.575 54.8182V65H162.716L158.286 58.5916H158.211V65H156.059V54.8182H157.948L162.343 61.2216H162.432V54.8182H164.575ZM168.506 54.8182V65H166.354V54.8182H168.506ZM178.794 54.8182V65H176.934L172.505 58.5916H172.43V65H170.278V54.8182H172.167L176.562 61.2216H176.651V54.8182H178.794ZM187.324 58.1094C187.254 57.8674 187.156 57.6536 187.031 57.468C186.905 57.2791 186.75 57.12 186.568 56.9908C186.389 56.8582 186.184 56.7571 185.952 56.6875C185.723 56.6179 185.469 56.5831 185.191 56.5831C184.671 56.5831 184.213 56.7124 183.819 56.9709C183.428 57.2294 183.123 57.6056 182.904 58.0994C182.685 58.59 182.576 59.1899 182.576 59.8991C182.576 60.6084 182.684 61.2116 182.899 61.7088C183.115 62.206 183.42 62.5855 183.814 62.8473C184.208 63.1058 184.674 63.2351 185.211 63.2351C185.698 63.2351 186.114 63.1489 186.459 62.9766C186.807 62.8009 187.072 62.554 187.254 62.2358C187.44 61.9176 187.533 61.5414 187.533 61.1072L187.97 61.1719H185.345V59.5511H189.606V60.8338C189.606 61.7287 189.417 62.4976 189.039 63.1406C188.661 63.7803 188.141 64.2741 187.478 64.6222C186.815 64.9669 186.056 65.1392 185.201 65.1392C184.246 65.1392 183.408 64.9287 182.685 64.5078C181.963 64.0836 181.399 63.482 180.995 62.7031C180.594 61.9209 180.393 60.9929 180.393 59.919C180.393 59.0937 180.513 58.358 180.751 57.7116C180.993 57.062 181.331 56.5118 181.766 56.0611C182.2 55.6103 182.705 55.2673 183.282 55.032C183.859 54.7966 184.483 54.679 185.156 54.679C185.733 54.679 186.27 54.7635 186.767 54.9325C187.264 55.0982 187.705 55.3336 188.089 55.6385C188.477 55.9434 188.794 56.3063 189.039 56.7273C189.284 57.1449 189.442 57.6056 189.511 58.1094H187.324Z" fill="#FFD700"/>
<path d="M222 75H28C23.5817 75 20 78.5817 20 83V207C20 211.418 23.5817 215 28 215H222C226.418 215 230 211.418 230 207V83C230 78.5817 226.418 75 222 75Z" fill="#0F0F1A" stroke="#E65E57" stroke-width="2"/>
<path opacity="0.3" d="M125 180C144.33 180 160 164.33 160 145C160 125.67 144.33 110 125 110C105.67 110 90 125.67 90 145C90 164.33 105.67 180 125 180Z" stroke="#E65E57"/>
<path opacity="0.2" d="M125 195C152.614 195 175 172.614 175 145C175 117.386 152.614 95 125 95C97.3858 95 75 117.386 75 145C75 172.614 97.3858 195 125 195Z" stroke="#FFD700"/>
<path opacity="0.3" d="M125 185C147.091 185 165 167.091 165 145C165 122.909 147.091 105 125 105C102.909 105 85 122.909 85 145C85 167.091 102.909 185 125 185Z" stroke="#FFD700"/>
<path opacity="0.35" d="M125 175C141.569 175 155 161.569 155 145C155 128.431 141.569 115 125 115C108.431 115 95 128.431 95 145C95 161.569 108.431 175 125 175Z" stroke="#FFD700"/>
<path d="M125 76L142.875 119.875H190L151 152.375L167.25 206L125 176.75L82.75 206L99 152.375L60 119.875H107.125L125 76Z" fill="#FFD700"/>
<path d="M125 167C137.15 167 147 157.15 147 145C147 132.85 137.15 123 125 123C112.85 123 103 132.85 103 145C103 157.15 112.85 167 125 167Z" fill="#0F0F1A" stroke="#FFD700" stroke-width="3"/>
<path d="M114.46 143.909V157H111.693V146.536H111.616L108.618 148.415V145.961L111.859 143.909H114.46ZM122.705 157.288C121.605 157.283 120.659 157.013 119.867 156.476C119.078 155.939 118.471 155.161 118.045 154.143C117.623 153.124 117.414 151.899 117.418 150.467C117.418 149.04 117.629 147.823 118.051 146.817C118.477 145.812 119.085 145.047 119.873 144.523C120.666 143.994 121.609 143.73 122.705 143.73C123.8 143.73 124.742 143.994 125.53 144.523C126.323 145.051 126.932 145.818 127.358 146.824C127.784 147.825 127.995 149.04 127.991 150.467C127.991 151.903 127.778 153.131 127.352 154.149C126.93 155.168 126.325 155.945 125.536 156.482C124.748 157.019 123.804 157.288 122.705 157.288ZM122.705 154.993C123.455 154.993 124.053 154.616 124.501 153.862C124.948 153.107 125.17 151.976 125.166 150.467C125.166 149.474 125.063 148.648 124.859 147.987C124.658 147.327 124.373 146.83 124.002 146.498C123.636 146.165 123.203 145.999 122.705 145.999C121.959 145.999 121.362 146.372 120.915 147.118C120.467 147.864 120.242 148.98 120.237 150.467C120.237 151.473 120.337 152.312 120.538 152.986C120.742 153.655 121.03 154.158 121.401 154.494C121.771 154.827 122.206 154.993 122.705 154.993ZM135.097 157.288C133.998 157.283 133.052 157.013 132.259 156.476C131.471 155.939 130.864 155.161 130.437 154.143C130.016 153.124 129.807 151.899 129.811 150.467C129.811 149.04 130.022 147.823 130.444 146.817C130.87 145.812 131.477 145.047 132.266 144.523C133.058 143.994 134.002 143.73 135.097 143.73C136.192 143.73 137.134 143.994 137.922 144.523C138.715 145.051 139.324 145.818 139.751 146.824C140.177 147.825 140.388 149.04 140.383 150.467C140.383 151.903 140.17 153.131 139.744 154.149C139.322 155.168 138.717 155.945 137.929 156.482C137.141 157.019 136.197 157.288 135.097 157.288ZM135.097 154.993C135.847 154.993 136.446 154.616 136.893 153.862C137.341 153.107 137.562 151.976 137.558 150.467C137.558 149.474 137.456 148.648 137.251 147.987C137.051 147.327 136.766 146.83 136.395 146.498C136.028 146.165 135.596 145.999 135.097 145.999C134.351 145.999 133.755 146.372 133.307 147.118C132.86 147.864 132.634 148.98 132.63 150.467C132.63 151.473 132.73 152.312 132.93 152.986C133.135 153.655 133.422 154.158 133.793 154.494C134.164 154.827 134.599 154.993 135.097 154.993Z" fill="#FFD700"/>
<path d="M125 126L117 134H121V140H129V134H133L125 126Z" fill="#FFD700"/>
<path opacity="0.7" d="M60 102C61.1046 102 62 101.105 62 100C62 98.8954 61.1046 98 60 98C58.8954 98 58 98.8954 58 100C58 101.105 58.8954 102 60 102Z" fill="white"/>
<path opacity="0.6" d="M190 109.8C190.994 109.8 191.8 108.994 191.8 108C191.8 107.006 190.994 106.2 190 106.2C189.006 106.2 188.2 107.006 188.2 108C188.2 108.994 189.006 109.8 190 109.8Z" fill="white"/>
<path opacity="0.65" d="M180 182C181.105 182 182 181.105 182 180C182 178.895 181.105 178 180 178C178.895 178 178 178.895 178 180C178 181.105 178.895 182 180 182Z" fill="white"/>
<path opacity="0.5" d="M70 186.5C70.8284 186.5 71.5 185.828 71.5 185C71.5 184.172 70.8284 183.5 70 183.5C69.1716 183.5 68.5 184.172 68.5 185C68.5 185.828 69.1716 186.5 70 186.5Z" fill="white"/>
<path opacity="0.7" d="M50 146.5C50.8284 146.5 51.5 145.828 51.5 145C51.5 144.172 50.8284 143.5 50 143.5C49.1716 143.5 48.5 144.172 48.5 145C48.5 145.828 49.1716 146.5 50 146.5Z" fill="#E65E57"/>
<path opacity="0.6" d="M200 136.5C200.828 136.5 201.5 135.828 201.5 135C201.5 134.172 200.828 133.5 200 133.5C199.172 133.5 198.5 134.172 198.5 135C198.5 135.828 199.172 136.5 200 136.5Z" fill="#E65E57"/>
<path opacity="0.6" d="M55 128L58 132L55 136L52 132L55 128Z" fill="white"/>
<path opacity="0.5" d="M195 152L198 156L195 160L192 156L195 152Z" fill="white"/>
<path d="M75 168L77 171L75 174L73 171L75 168Z" fill="#E65E57"/>
<path d="M88 93C88.5523 93 89 92.5523 89 92C89 91.4477 88.5523 91 88 91C87.4477 91 87 91.4477 87 92C87 92.5523 87.4477 93 88 93Z" fill="white"/>
<path d="M162 193C162.552 193 163 192.552 163 192C163 191.448 162.552 191 162 191C161.448 191 161 191.448 161 192C161 192.552 161.448 193 162 193Z" fill="white"/>
<path opacity="0.6" d="M42 166C42.5523 166 43 165.552 43 165C43 164.448 42.5523 164 42 164C41.4477 164 41 164.448 41 165C41 165.552 41.4477 166 42 166Z" fill="#E65E57"/>
<path opacity="0.6" d="M208 119C208.552 119 209 118.552 209 118C209 117.448 208.552 117 208 117C207.448 117 207 117.448 207 118C207 118.552 207.448 119 208 119Z" fill="#E65E57"/>
<path opacity="0.7" d="M79.32 82.4693C80.2897 82.9981 81.5046 82.6406 82.0334 81.6709C82.5622 80.7011 82.2047 79.4863 81.2349 78.9575C80.2652 78.4287 79.0503 78.7862 78.5215 79.7559C77.9927 80.7257 78.3502 81.9405 79.32 82.4693Z" fill="white"/>
<path opacity="0.6" d="M189.72 151.553C190.593 152.029 191.686 151.707 192.162 150.835C192.638 149.962 192.316 148.868 191.444 148.393C190.571 147.917 189.477 148.238 189.002 149.111C188.526 149.984 188.847 151.077 189.72 151.553Z" fill="white"/>
<path opacity="0.65" d="M146.376 210.154C147.346 210.683 148.561 210.326 149.09 209.356C149.618 208.386 149.261 207.171 148.291 206.643C147.321 206.114 146.106 206.471 145.578 207.441C145.049 208.411 145.406 209.626 146.376 210.154Z" fill="white"/>
<path opacity="0.5" d="M47.6464 161.444C48.3737 161.841 49.2848 161.573 49.6814 160.845C50.078 160.118 49.8099 159.207 49.0826 158.81C48.3552 158.414 47.4441 158.682 47.0475 159.409C46.6509 160.136 46.919 161.048 47.6464 161.444Z" fill="white"/>
<path opacity="0.7" d="M49.2367 116.751C49.964 117.148 50.8751 116.88 51.2717 116.152C51.6683 115.425 51.4002 114.514 50.6729 114.117C49.9456 113.721 49.0345 113.989 48.6379 114.716C48.2413 115.443 48.5094 116.355 49.2367 116.751Z" fill="#E65E57"/>
<path opacity="0.6" d="M185.718 179.782C186.445 180.179 187.356 179.911 187.753 179.183C188.149 178.456 187.881 177.545 187.154 177.148C186.427 176.752 185.515 177.02 185.119 177.747C184.722 178.474 184.99 179.385 185.718 179.782Z" fill="#E65E57"/>
<path opacity="0.6" d="M62.483 102.903L63.2019 107.851L58.6531 109.926L57.9342 104.978L62.483 102.903Z" fill="white"/>
<path opacity="0.5" d="M173.907 190.997L174.626 195.945L170.077 198.02L169.358 193.072L173.907 190.997Z" fill="white"/>
<path d="M60.8926 147.596L61.2123 151.187L58.0202 152.863L57.7005 149.272L60.8926 147.596Z" fill="#E65E57"/>
<path d="M108.212 87.9722C108.696 88.2366 109.304 88.0579 109.568 87.573C109.833 87.0881 109.654 86.4807 109.169 86.2163C108.684 85.9519 108.077 86.1306 107.812 86.6155C107.548 87.1004 107.727 87.7078 108.212 87.9722Z" fill="white"/>
<path d="M125.306 211.195C125.791 211.459 126.399 211.28 126.663 210.796C126.927 210.311 126.749 209.703 126.264 209.439C125.779 209.174 125.171 209.353 124.907 209.838C124.643 210.323 124.821 210.93 125.306 211.195Z" fill="white"/>
<path opacity="0.6" d="M32.878 130.041C33.3629 130.306 33.9703 130.127 34.2347 129.642C34.4991 129.157 34.3204 128.55 33.8355 128.286C33.3506 128.021 32.7432 128.2 32.4788 128.685C32.2144 129.17 32.3931 129.777 32.878 130.041Z" fill="#E65E57"/>
<path opacity="0.6" d="M201.119 168.248C201.604 168.512 202.211 168.333 202.475 167.848C202.74 167.364 202.561 166.756 202.076 166.492C201.591 166.227 200.984 166.406 200.72 166.891C200.455 167.376 200.634 167.983 201.119 168.248Z" fill="#E65E57"/>
<path opacity="0.7" d="M106.895 101.158C107.797 101.24 108.594 100.575 108.676 99.673C108.758 98.7711 108.092 97.9739 107.191 97.8924C106.289 97.8109 105.492 98.4759 105.41 99.3778C105.329 100.28 105.994 101.077 106.895 101.158Z" fill="white"/>
<path opacity="0.6" d="M212.465 117.12C213.276 117.194 213.994 116.595 214.067 115.784C214.141 114.972 213.542 114.254 212.73 114.181C211.919 114.108 211.201 114.706 211.128 115.518C211.055 116.33 211.653 117.047 212.465 117.12Z" fill="white"/>
<path opacity="0.65" d="M198.971 175.333C199.872 175.415 200.67 174.75 200.751 173.848C200.833 172.946 200.168 172.149 199.266 172.067C198.364 171.986 197.567 172.651 197.485 173.553C197.404 174.455 198.069 175.252 198.971 175.333Z" fill="white"/>
<path opacity="0.6" d="M218.659 139.659C219.335 139.72 219.933 139.221 219.994 138.545C220.055 137.868 219.556 137.271 218.88 137.209C218.204 137.148 217.606 137.647 217.545 138.323C217.483 139 217.982 139.598 218.659 139.659Z" fill="#E65E57"/>
<path opacity="0.5" d="M213.433 151.946L215.587 155.433L212.843 158.477L210.688 154.99L213.433 151.946Z" fill="white"/>
<path d="M130.422 95.8763C130.873 95.917 131.271 95.5845 131.312 95.1336C131.353 94.6826 131.02 94.284 130.569 94.2433C130.118 94.2025 129.72 94.5351 129.679 94.986C129.638 95.4369 129.971 95.8355 130.422 95.8763Z" fill="white"/>
<path d="M183.463 182.986C183.914 183.027 184.312 182.695 184.353 182.244C184.394 181.793 184.061 181.394 183.61 181.353C183.16 181.313 182.761 181.645 182.72 182.096C182.679 182.547 183.012 182.946 183.463 182.986Z" fill="white"/>
<path opacity="0.6" d="M87.4755 152.086C87.9265 152.127 88.3251 151.794 88.3658 151.343C88.4066 150.892 88.0741 150.494 87.6231 150.453C87.1722 150.412 86.7736 150.745 86.7328 151.195C86.6921 151.646 87.0246 152.045 87.4755 152.086Z" fill="#E65E57"/>
<path opacity="0.6" d="M226.482 125.961C226.933 126.001 227.332 125.669 227.373 125.218C227.413 124.767 227.081 124.368 226.63 124.328C226.179 124.287 225.78 124.619 225.74 125.07C225.699 125.521 226.031 125.92 226.482 125.961Z" fill="#E65E57"/>
<path opacity="0.6" d="M209.155 151.191C209.832 151.644 210.749 151.462 211.202 150.784C211.655 150.107 211.473 149.191 210.795 148.738C210.118 148.285 209.201 148.467 208.748 149.144C208.295 149.822 208.477 150.738 209.155 151.191Z" fill="white"/>
<path opacity="0.65" d="M169.44 195.84C170.193 196.343 171.211 196.141 171.714 195.388C172.217 194.636 172.015 193.617 171.262 193.114C170.51 192.611 169.491 192.813 168.988 193.566C168.485 194.318 168.687 195.337 169.44 195.84Z" fill="white"/>
<path opacity="0.5" d="M92.4223 148.783C92.9869 149.16 93.7506 149.008 94.1281 148.444C94.5056 147.879 94.354 147.115 93.7894 146.738C93.2248 146.36 92.4611 146.512 92.0836 147.077C91.7061 147.641 91.8578 148.405 92.4223 148.783Z" fill="white"/>
<path opacity="0.7" d="M97.019 112.408C97.5836 112.786 98.3473 112.634 98.7248 112.07C99.1023 111.505 98.9506 110.741 98.386 110.364C97.8215 109.986 97.0578 110.138 96.6803 110.703C96.3028 111.267 96.4544 112.031 97.019 112.408Z" fill="#E65E57"/>
<path opacity="0.6" d="M203.803 173.944C204.367 174.322 205.131 174.17 205.509 173.606C205.886 173.041 205.734 172.277 205.17 171.9C204.605 171.522 203.841 171.674 203.464 172.239C203.086 172.803 203.238 173.567 203.803 173.944Z" fill="#E65E57"/>
<path opacity="0.6" d="M108.857 102.079L109.078 106.172L105.211 107.531L104.989 103.438L108.857 102.079Z" fill="white"/>
<path opacity="0.5" d="M193.333 182.23L193.555 186.323L189.687 187.682L189.465 183.589L193.333 182.23Z" fill="white"/>
<path d="M147.295 93.2626C147.671 93.5143 148.18 93.4132 148.432 93.0368C148.683 92.6604 148.582 92.1512 148.206 91.8996C147.83 91.6479 147.32 91.749 147.069 92.1254C146.817 92.5018 146.918 93.011 147.295 93.2626Z" fill="white"/>
<path d="M152.159 195.134C152.535 195.386 153.044 195.285 153.296 194.909C153.548 194.532 153.447 194.023 153.07 193.771C152.694 193.52 152.185 193.621 151.933 193.997C151.681 194.374 151.782 194.883 152.159 195.134Z" fill="white"/>
<path opacity="0.6" d="M217.23 165.663C217.607 165.915 218.116 165.814 218.367 165.437C218.619 165.061 218.518 164.552 218.141 164.3C217.765 164.048 217.256 164.15 217.004 164.526C216.753 164.902 216.854 165.411 217.23 165.663Z" fill="#E65E57"/>
<path d="M222 225H28C23.5817 225 20 228.582 20 233V297C20 301.418 23.5817 305 28 305H222C226.418 305 230 301.418 230 297V233C230 228.582 226.418 225 222 225Z" fill="#0F0F1A" stroke="#E65E57"/>
<path d="M32.0685 248V239.273H37.3356V240.21H33.1254V243.159H37.0629V244.097H33.1254V247.062H37.4038V248H32.0685ZM39.104 248V241.455H40.1097V248H39.104ZM39.6154 240.364C39.4194 240.364 39.2504 240.297 39.1083 240.163C38.9691 240.03 38.8995 239.869 38.8995 239.682C38.8995 239.494 38.9691 239.334 39.1083 239.2C39.2504 239.067 39.4194 239 39.6154 239C39.8114 239 39.979 239.067 40.1183 239.2C40.2603 239.334 40.3313 239.494 40.3313 239.682C40.3313 239.869 40.2603 240.03 40.1183 240.163C39.979 240.297 39.8114 240.364 39.6154 240.364ZM42.9574 244.062V248H41.9517V241.455H42.9233V242.477H43.0085C43.1619 242.145 43.3949 241.878 43.7074 241.676C44.0199 241.472 44.4233 241.369 44.9176 241.369C45.3608 241.369 45.7486 241.46 46.081 241.642C46.4134 241.821 46.6719 242.094 46.8565 242.46C47.0412 242.824 47.1335 243.284 47.1335 243.841V248H46.1278V243.909C46.1278 243.395 45.9943 242.994 45.7273 242.707C45.4602 242.418 45.0938 242.273 44.6278 242.273C44.3068 242.273 44.0199 242.342 43.767 242.482C43.517 242.621 43.3196 242.824 43.1747 243.091C43.0298 243.358 42.9574 243.682 42.9574 244.062ZM57.2553 241.455C57.2042 241.023 56.9968 240.688 56.6332 240.449C56.2695 240.21 55.8235 240.091 55.2951 240.091C54.9087 240.091 54.5707 240.153 54.2809 240.278C53.994 240.403 53.7695 240.575 53.6076 240.794C53.4485 241.013 53.369 241.261 53.369 241.54C53.369 241.773 53.4244 241.973 53.5352 242.141C53.6488 242.305 53.7937 242.443 53.9698 242.554C54.146 242.662 54.3306 242.751 54.5238 242.822C54.717 242.891 54.8945 242.946 55.0565 242.989L55.9428 243.227C56.1701 243.287 56.4229 243.369 56.7013 243.474C56.9826 243.58 57.2511 243.723 57.5067 243.905C57.7653 244.084 57.9783 244.314 58.146 244.595C58.3136 244.876 58.3974 245.222 58.3974 245.631C58.3974 246.102 58.2738 246.528 58.0266 246.909C57.7823 247.29 57.4244 247.592 56.9528 247.817C56.484 248.041 55.9144 248.153 55.244 248.153C54.619 248.153 54.0778 248.053 53.6204 247.851C53.1658 247.649 52.8079 247.368 52.5465 247.007C52.288 246.646 52.1417 246.227 52.1076 245.75H53.1985C53.2269 246.08 53.3377 246.352 53.5309 246.568C53.7269 246.781 53.9741 246.94 54.2724 247.045C54.5735 247.148 54.8974 247.199 55.244 247.199C55.6474 247.199 56.0096 247.134 56.3306 247.003C56.6516 246.869 56.9059 246.685 57.0934 246.449C57.2809 246.21 57.3746 245.932 57.3746 245.614C57.3746 245.324 57.2937 245.088 57.1317 244.906C56.9698 244.724 56.7567 244.577 56.4925 244.463C56.2283 244.349 55.9428 244.25 55.636 244.165L54.5621 243.858C53.8803 243.662 53.3406 243.382 52.9428 243.018C52.5451 242.655 52.3462 242.179 52.3462 241.591C52.3462 241.102 52.4783 240.676 52.7425 240.312C53.0096 239.946 53.3675 239.662 53.8164 239.46C54.2681 239.256 54.7724 239.153 55.3292 239.153C55.8917 239.153 56.3917 239.254 56.8292 239.456C57.2667 239.655 57.6133 239.928 57.869 240.274C58.1275 240.621 58.2638 241.014 58.2781 241.455H57.2553ZM59.9986 250.455V241.455H60.9702V242.494H61.0895C61.1634 242.381 61.2656 242.236 61.3963 242.06C61.5298 241.881 61.7202 241.722 61.9673 241.582C62.2173 241.44 62.5554 241.369 62.9815 241.369C63.5327 241.369 64.0185 241.507 64.4389 241.783C64.8594 242.058 65.1875 242.449 65.4233 242.955C65.6591 243.46 65.777 244.057 65.777 244.744C65.777 245.438 65.6591 246.038 65.4233 246.547C65.1875 247.053 64.8608 247.445 64.4432 247.723C64.0256 247.999 63.544 248.136 62.9986 248.136C62.5781 248.136 62.2415 248.067 61.9886 247.928C61.7358 247.786 61.5412 247.625 61.4048 247.446C61.2685 247.264 61.1634 247.114 61.0895 246.994H61.0043V250.455H59.9986ZM60.9872 244.727C60.9872 245.222 61.0597 245.658 61.2045 246.036C61.3494 246.411 61.5611 246.705 61.8395 246.918C62.1179 247.128 62.4588 247.233 62.8622 247.233C63.2827 247.233 63.6335 247.122 63.9148 246.901C64.1989 246.676 64.4119 246.375 64.554 245.997C64.6989 245.616 64.7713 245.193 64.7713 244.727C64.7713 244.267 64.7003 243.852 64.5582 243.483C64.419 243.111 64.2074 242.817 63.9233 242.601C63.642 242.382 63.2884 242.273 62.8622 242.273C62.4531 242.273 62.1094 242.376 61.831 242.584C61.5526 242.788 61.3423 243.075 61.2003 243.445C61.0582 243.811 60.9872 244.239 60.9872 244.727ZM67.3111 248V241.455H68.3168V248H67.3111ZM67.8224 240.364C67.6264 240.364 67.4574 240.297 67.3153 240.163C67.1761 240.03 67.1065 239.869 67.1065 239.682C67.1065 239.494 67.1761 239.334 67.3153 239.2C67.4574 239.067 67.6264 239 67.8224 239C68.0185 239 68.1861 239.067 68.3253 239.2C68.4673 239.334 68.5384 239.494 68.5384 239.682C68.5384 239.869 68.4673 240.03 68.3253 240.163C68.1861 240.297 68.0185 240.364 67.8224 240.364ZM72.9031 248.136C72.2724 248.136 71.7283 247.997 71.271 247.719C70.8164 247.438 70.4656 247.045 70.2184 246.543C69.9741 246.037 69.8519 245.449 69.8519 244.778C69.8519 244.108 69.9741 243.517 70.2184 243.006C70.4656 242.491 70.8093 242.091 71.2496 241.804C71.6928 241.514 72.2099 241.369 72.8008 241.369C73.1417 241.369 73.4783 241.426 73.8107 241.54C74.1431 241.653 74.4457 241.838 74.7184 242.094C74.9911 242.347 75.2085 242.682 75.3704 243.099C75.5323 243.517 75.6133 244.031 75.6133 244.642V245.068H70.5678V244.199H74.5906C74.5906 243.83 74.5167 243.5 74.369 243.21C74.2241 242.92 74.0167 242.692 73.7468 242.524C73.4798 242.357 73.1644 242.273 72.8008 242.273C72.4002 242.273 72.0536 242.372 71.761 242.571C71.4712 242.767 71.2482 243.023 71.092 243.338C70.9357 243.653 70.8576 243.991 70.8576 244.352V244.932C70.8576 245.426 70.9428 245.845 71.1133 246.189C71.2866 246.53 71.5266 246.79 71.8335 246.969C72.1403 247.145 72.4968 247.233 72.9031 247.233C73.1673 247.233 73.4059 247.196 73.619 247.122C73.8349 247.045 74.021 246.932 74.1772 246.781C74.3335 246.628 74.4542 246.437 74.5394 246.21L75.511 246.483C75.4087 246.812 75.2369 247.102 74.9954 247.352C74.7539 247.599 74.4556 247.793 74.1005 247.932C73.7454 248.068 73.3462 248.136 72.9031 248.136ZM78.1488 239.273V248H77.1431V239.273H78.1488ZM82.7351 248.136C82.1044 248.136 81.5604 247.997 81.103 247.719C80.6484 247.438 80.2976 247.045 80.0504 246.543C79.8061 246.037 79.6839 245.449 79.6839 244.778C79.6839 244.108 79.8061 243.517 80.0504 243.006C80.2976 242.491 80.6413 242.091 81.0817 241.804C81.5249 241.514 82.0419 241.369 82.6328 241.369C82.9737 241.369 83.3104 241.426 83.6428 241.54C83.9751 241.653 84.2777 241.838 84.5504 242.094C84.8232 242.347 85.0405 242.682 85.2024 243.099C85.3643 243.517 85.4453 244.031 85.4453 244.642V245.068H80.3999V244.199H84.4226C84.4226 243.83 84.3487 243.5 84.201 243.21C84.0561 242.92 83.8487 242.692 83.5788 242.524C83.3118 242.357 82.9964 242.273 82.6328 242.273C82.2322 242.273 81.8857 242.372 81.593 242.571C81.3033 242.767 81.0803 243.023 80.924 243.338C80.7678 243.653 80.6896 243.991 80.6896 244.352V244.932C80.6896 245.426 80.7749 245.845 80.9453 246.189C81.1186 246.53 81.3587 246.79 81.6655 246.969C81.9723 247.145 82.3288 247.233 82.7351 247.233C82.9993 247.233 83.2379 247.196 83.451 247.122C83.6669 247.045 83.853 246.932 84.0092 246.781C84.1655 246.628 84.2862 246.437 84.3714 246.21L85.343 246.483C85.2408 246.812 85.0689 247.102 84.8274 247.352C84.5859 247.599 84.2876 247.793 83.9325 247.932C83.5774 248.068 83.1783 248.136 82.7351 248.136ZM86.9751 248V241.455H87.9467V242.443H88.0149C88.1342 242.119 88.3501 241.857 88.6626 241.655C88.9751 241.453 89.3274 241.352 89.7195 241.352C89.7933 241.352 89.8857 241.354 89.9964 241.357C90.1072 241.359 90.1911 241.364 90.2479 241.369V242.392C90.2138 242.384 90.1357 242.371 90.0135 242.354C89.8942 242.334 89.7678 242.324 89.6342 242.324C89.3161 242.324 89.032 242.391 88.782 242.524C88.5348 242.655 88.3388 242.837 88.1939 243.07C88.0518 243.3 87.9808 243.562 87.9808 243.858V248H86.9751ZM97.2866 248.136C96.7411 248.136 96.2596 247.999 95.842 247.723C95.4244 247.445 95.0977 247.053 94.8619 246.547C94.6261 246.038 94.5082 245.438 94.5082 244.744C94.5082 244.057 94.6261 243.46 94.8619 242.955C95.0977 242.449 95.4258 242.058 95.8462 241.783C96.2667 241.507 96.7525 241.369 97.3036 241.369C97.7298 241.369 98.0664 241.44 98.3136 241.582C98.5636 241.722 98.7539 241.881 98.8846 242.06C99.0181 242.236 99.1218 242.381 99.1957 242.494H99.2809V239.273H100.287V248H99.315V246.994H99.1957C99.1218 247.114 99.0167 247.264 98.8803 247.446C98.744 247.625 98.5494 247.786 98.2965 247.928C98.0437 248.067 97.707 248.136 97.2866 248.136ZM97.4229 247.233C97.8263 247.233 98.1673 247.128 98.4457 246.918C98.7241 246.705 98.9357 246.411 99.0806 246.036C99.2255 245.658 99.2979 245.222 99.2979 244.727C99.2979 244.239 99.2269 243.811 99.0849 243.445C98.9428 243.075 98.7326 242.788 98.4542 242.584C98.1758 242.376 97.832 242.273 97.4229 242.273C96.9968 242.273 96.6417 242.382 96.3576 242.601C96.0763 242.817 95.8647 243.111 95.7227 243.483C95.5835 243.852 95.5138 244.267 95.5138 244.727C95.5138 245.193 95.5849 245.616 95.7269 245.997C95.8718 246.375 96.0849 246.676 96.3661 246.901C96.6502 247.122 97.0025 247.233 97.4229 247.233ZM105.012 248.136C104.382 248.136 103.838 247.997 103.38 247.719C102.926 247.438 102.575 247.045 102.328 246.543C102.083 246.037 101.961 245.449 101.961 244.778C101.961 244.108 102.083 243.517 102.328 243.006C102.575 242.491 102.919 242.091 103.359 241.804C103.802 241.514 104.319 241.369 104.91 241.369C105.251 241.369 105.588 241.426 105.92 241.54C106.252 241.653 106.555 241.838 106.828 242.094C107.1 242.347 107.318 242.682 107.48 243.099C107.642 243.517 107.723 244.031 107.723 244.642V245.068H102.677V244.199H106.7C106.7 243.83 106.626 243.5 106.478 243.21C106.333 242.92 106.126 242.692 105.856 242.524C105.589 242.357 105.274 242.273 104.91 242.273C104.51 242.273 104.163 242.372 103.87 242.571C103.581 242.767 103.358 243.023 103.201 243.338C103.045 243.653 102.967 243.991 102.967 244.352V244.932C102.967 245.426 103.052 245.845 103.223 246.189C103.396 246.53 103.636 246.79 103.943 246.969C104.25 247.145 104.606 247.233 105.012 247.233C105.277 247.233 105.515 247.196 105.728 247.122C105.944 247.045 106.13 246.932 106.287 246.781C106.443 246.628 106.564 246.437 106.649 246.21L107.62 246.483C107.518 246.812 107.346 247.102 107.105 247.352C106.863 247.599 106.565 247.793 106.21 247.932C105.855 248.068 105.456 248.136 105.012 248.136ZM109.252 248V241.455H110.258V248H109.252ZM109.764 240.364C109.568 240.364 109.399 240.297 109.257 240.163C109.118 240.03 109.048 239.869 109.048 239.682C109.048 239.494 109.118 239.334 109.257 239.2C109.399 239.067 109.568 239 109.764 239C109.96 239 110.127 239.067 110.267 239.2C110.409 239.334 110.48 239.494 110.48 239.682C110.48 239.869 110.409 240.03 110.267 240.163C110.127 240.297 109.96 240.364 109.764 240.364ZM113.106 244.062V248H112.1V241.455H113.072V242.477H113.157C113.31 242.145 113.543 241.878 113.856 241.676C114.168 241.472 114.572 241.369 115.066 241.369C115.509 241.369 115.897 241.46 116.229 241.642C116.562 241.821 116.82 242.094 117.005 242.46C117.19 242.824 117.282 243.284 117.282 243.841V248H116.276V243.909C116.276 243.395 116.143 242.994 115.876 242.707C115.609 242.418 115.242 242.273 114.776 242.273C114.455 242.273 114.168 242.342 113.915 242.482C113.665 242.621 113.468 242.824 113.323 243.091C113.178 243.358 113.106 243.682 113.106 244.062ZM121.864 248.136C121.233 248.136 120.689 247.997 120.232 247.719C119.777 247.438 119.426 247.045 119.179 246.543C118.935 246.037 118.813 245.449 118.813 244.778C118.813 244.108 118.935 243.517 119.179 243.006C119.426 242.491 119.77 242.091 120.211 241.804C120.654 241.514 121.171 241.369 121.762 241.369C122.103 241.369 122.439 241.426 122.772 241.54C123.104 241.653 123.407 241.838 123.679 242.094C123.952 242.347 124.169 242.682 124.331 243.099C124.493 243.517 124.574 244.031 124.574 244.642V245.068H119.529V244.199H123.551C123.551 243.83 123.478 243.5 123.33 243.21C123.185 242.92 122.978 242.692 122.708 242.524C122.441 242.357 122.125 242.273 121.762 242.273C121.361 242.273 121.015 242.372 120.722 242.571C120.432 242.767 120.209 243.023 120.053 243.338C119.897 243.653 119.819 243.991 119.819 244.352V244.932C119.819 245.426 119.904 245.845 120.074 246.189C120.248 246.53 120.488 246.79 120.794 246.969C121.101 247.145 121.458 247.233 121.864 247.233C122.128 247.233 122.367 247.196 122.58 247.122C122.796 247.045 122.982 246.932 123.138 246.781C123.294 246.628 123.415 246.437 123.5 246.21L124.472 246.483C124.37 246.812 124.198 247.102 123.956 247.352C123.715 247.599 123.417 247.793 123.061 247.932C122.706 248.068 122.307 248.136 121.864 248.136ZM126.104 248V241.455H127.076V242.443H127.144C127.263 242.119 127.479 241.857 127.792 241.655C128.104 241.453 128.456 241.352 128.848 241.352C128.922 241.352 129.015 241.354 129.125 241.357C129.236 241.359 129.32 241.364 129.377 241.369V242.392C129.343 242.384 129.265 242.371 129.142 242.354C129.023 242.334 128.897 242.324 128.763 242.324C128.445 242.324 128.161 242.391 127.911 242.524C127.664 242.655 127.468 242.837 127.323 243.07C127.181 243.3 127.11 243.562 127.11 243.858V248H126.104ZM135.665 248L133.279 239.273H134.353L136.177 246.381H136.262L138.12 239.273H139.313L141.171 246.381H141.256L143.08 239.273H144.154L141.768 248H140.677L138.751 241.045H138.683L136.756 248H135.665ZM146.651 248.153C146.237 248.153 145.86 248.075 145.522 247.919C145.184 247.76 144.915 247.531 144.717 247.233C144.518 246.932 144.418 246.568 144.418 246.142C144.418 245.767 144.492 245.463 144.64 245.23C144.788 244.994 144.985 244.81 145.232 244.676C145.479 244.543 145.752 244.443 146.05 244.378C146.352 244.31 146.654 244.256 146.958 244.216C147.356 244.165 147.678 244.126 147.925 244.101C148.175 244.072 148.357 244.026 148.471 243.96C148.587 243.895 148.646 243.781 148.646 243.619V243.585C148.646 243.165 148.531 242.838 148.3 242.605C148.073 242.372 147.728 242.256 147.265 242.256C146.785 242.256 146.408 242.361 146.136 242.571C145.863 242.781 145.671 243.006 145.56 243.244L144.606 242.903C144.776 242.506 145.004 242.196 145.288 241.974C145.575 241.75 145.887 241.594 146.225 241.506C146.566 241.415 146.901 241.369 147.231 241.369C147.441 241.369 147.683 241.395 147.955 241.446C148.231 241.494 148.496 241.595 148.752 241.749C149.011 241.902 149.225 242.134 149.396 242.443C149.566 242.753 149.651 243.168 149.651 243.688V248H148.646V247.114H148.594C148.526 247.256 148.413 247.408 148.254 247.57C148.094 247.732 147.883 247.869 147.619 247.983C147.354 248.097 147.032 248.153 146.651 248.153ZM146.805 247.25C147.202 247.25 147.538 247.172 147.81 247.016C148.086 246.859 148.293 246.658 148.433 246.411C148.575 246.163 148.646 245.903 148.646 245.631V244.71C148.603 244.761 148.509 244.808 148.364 244.851C148.222 244.891 148.058 244.926 147.87 244.957C147.685 244.986 147.505 245.011 147.329 245.034C147.156 245.054 147.015 245.071 146.907 245.085C146.646 245.119 146.401 245.175 146.174 245.251C145.95 245.325 145.768 245.437 145.629 245.588C145.492 245.736 145.424 245.937 145.424 246.193C145.424 246.543 145.553 246.807 145.812 246.986C146.073 247.162 146.404 247.25 146.805 247.25ZM152.493 244.062V248H151.487V239.273H152.493V242.477H152.578C152.731 242.139 152.961 241.871 153.268 241.672C153.578 241.47 153.99 241.369 154.504 241.369C154.95 241.369 155.341 241.459 155.676 241.638C156.011 241.814 156.271 242.085 156.456 242.452C156.643 242.815 156.737 243.278 156.737 243.841V248H155.731V243.909C155.731 243.389 155.596 242.987 155.326 242.703C155.059 242.416 154.689 242.273 154.214 242.273C153.885 242.273 153.589 242.342 153.328 242.482C153.069 242.621 152.865 242.824 152.714 243.091C152.566 243.358 152.493 243.682 152.493 244.062ZM159.582 239.273V248H158.577V239.273H159.582ZM167.544 248.136C166.913 248.136 166.369 247.997 165.912 247.719C165.457 247.438 165.106 247.045 164.859 246.543C164.615 246.037 164.493 245.449 164.493 244.778C164.493 244.108 164.615 243.517 164.859 243.006C165.106 242.491 165.45 242.091 165.89 241.804C166.333 241.514 166.85 241.369 167.441 241.369C167.782 241.369 168.119 241.426 168.451 241.54C168.784 241.653 169.086 241.838 169.359 242.094C169.632 242.347 169.849 242.682 170.011 243.099C170.173 243.517 170.254 244.031 170.254 244.642V245.068H165.208V244.199H169.231C169.231 243.83 169.157 243.5 169.01 243.21C168.865 242.92 168.657 242.692 168.387 242.524C168.12 242.357 167.805 242.273 167.441 242.273C167.041 242.273 166.694 242.372 166.402 242.571C166.112 242.767 165.889 243.023 165.733 243.338C165.576 243.653 165.498 243.991 165.498 244.352V244.932C165.498 245.426 165.583 245.845 165.754 246.189C165.927 246.53 166.167 246.79 166.474 246.969C166.781 247.145 167.137 247.233 167.544 247.233C167.808 247.233 168.047 247.196 168.26 247.122C168.475 247.045 168.662 246.932 168.818 246.781C168.974 246.628 169.095 246.437 169.18 246.21L170.152 246.483C170.049 246.812 169.877 247.102 169.636 247.352C169.395 247.599 169.096 247.793 168.741 247.932C168.386 248.068 167.987 248.136 167.544 248.136ZM171.784 248V241.455H172.755V242.443H172.824C172.943 242.119 173.159 241.857 173.471 241.655C173.784 241.453 174.136 241.352 174.528 241.352C174.602 241.352 174.694 241.354 174.805 241.357C174.916 241.359 175 241.364 175.056 241.369V242.392C175.022 242.384 174.944 242.371 174.822 242.354C174.703 242.334 174.576 242.324 174.443 242.324C174.125 242.324 173.841 242.391 173.591 242.524C173.343 242.655 173.147 242.837 173.002 243.07C172.86 243.3 172.789 243.562 172.789 243.858V248H171.784ZM177.254 244.062V248H176.249V239.273H177.254V242.477H177.339C177.493 242.139 177.723 241.871 178.03 241.672C178.339 241.47 178.751 241.369 179.266 241.369C179.712 241.369 180.102 241.459 180.438 241.638C180.773 241.814 181.033 242.085 181.217 242.452C181.405 242.815 181.499 243.278 181.499 243.841V248H180.493V243.909C180.493 243.389 180.358 242.987 180.088 242.703C179.821 242.416 179.45 242.273 178.976 242.273C178.646 242.273 178.351 242.342 178.089 242.482C177.831 242.621 177.626 242.824 177.476 243.091C177.328 243.358 177.254 243.682 177.254 244.062ZM185.265 248.153C184.85 248.153 184.473 248.075 184.135 247.919C183.797 247.76 183.529 247.531 183.33 247.233C183.131 246.932 183.032 246.568 183.032 246.142C183.032 245.767 183.105 245.463 183.253 245.23C183.401 244.994 183.598 244.81 183.846 244.676C184.093 244.543 184.365 244.443 184.664 244.378C184.965 244.31 185.267 244.256 185.571 244.216C185.969 244.165 186.292 244.126 186.539 244.101C186.789 244.072 186.971 244.026 187.084 243.96C187.201 243.895 187.259 243.781 187.259 243.619V243.585C187.259 243.165 187.144 242.838 186.914 242.605C186.686 242.372 186.341 242.256 185.878 242.256C185.398 242.256 185.022 242.361 184.749 242.571C184.476 242.781 184.284 243.006 184.174 243.244L183.219 242.903C183.39 242.506 183.617 242.196 183.901 241.974C184.188 241.75 184.5 241.594 184.838 241.506C185.179 241.415 185.515 241.369 185.844 241.369C186.054 241.369 186.296 241.395 186.569 241.446C186.844 241.494 187.11 241.595 187.365 241.749C187.624 241.902 187.838 242.134 188.009 242.443C188.179 242.753 188.265 243.168 188.265 243.688V248H187.259V247.114H187.208C187.14 247.256 187.026 247.408 186.867 247.57C186.708 247.732 186.496 247.869 186.232 247.983C185.968 248.097 185.645 248.153 185.265 248.153ZM185.418 247.25C185.816 247.25 186.151 247.172 186.424 247.016C186.699 246.859 186.907 246.658 187.046 246.411C187.188 246.163 187.259 245.903 187.259 245.631V244.71C187.216 244.761 187.123 244.808 186.978 244.851C186.836 244.891 186.671 244.926 186.483 244.957C186.299 244.986 186.118 245.011 185.942 245.034C185.769 245.054 185.628 245.071 185.52 245.085C185.259 245.119 185.015 245.175 184.787 245.251C184.563 245.325 184.381 245.437 184.242 245.588C184.105 245.736 184.037 245.937 184.037 246.193C184.037 246.543 184.167 246.807 184.425 246.986C184.686 247.162 185.017 247.25 185.418 247.25ZM184.685 240.364C184.506 240.364 184.347 240.295 184.208 240.159C184.071 240.02 184.003 239.861 184.003 239.682C184.003 239.486 184.071 239.324 184.208 239.196C184.347 239.065 184.506 239 184.685 239C184.881 239 185.043 239.065 185.171 239.196C185.301 239.324 185.367 239.486 185.367 239.682C185.367 239.861 185.301 240.02 185.171 240.159C185.043 240.295 184.881 240.364 184.685 240.364ZM187.14 240.364C186.961 240.364 186.801 240.295 186.662 240.159C186.526 240.02 186.458 239.861 186.458 239.682C186.458 239.486 186.526 239.324 186.662 239.196C186.801 239.065 186.961 239 187.14 239C187.336 239 187.498 239.065 187.625 239.196C187.756 239.324 187.821 239.486 187.821 239.682C187.821 239.861 187.756 240.02 187.625 240.159C187.498 240.295 187.336 240.364 187.14 240.364ZM191.106 239.273V248H190.1V239.273H191.106ZM195.794 241.455V242.307H192.402V241.455H195.794ZM193.391 239.886H194.397V246.125C194.397 246.409 194.438 246.622 194.52 246.764C194.605 246.903 194.713 246.997 194.844 247.045C194.978 247.091 195.118 247.114 195.266 247.114C195.377 247.114 195.468 247.108 195.539 247.097C195.61 247.082 195.667 247.071 195.709 247.062L195.914 247.966C195.846 247.991 195.75 248.017 195.628 248.043C195.506 248.071 195.351 248.085 195.164 248.085C194.88 248.085 194.601 248.024 194.328 247.902C194.059 247.78 193.834 247.594 193.655 247.344C193.479 247.094 193.391 246.778 193.391 246.398V239.886ZM203.426 248.136C202.796 248.136 202.252 247.997 201.794 247.719C201.34 247.438 200.989 247.045 200.742 246.543C200.498 246.037 200.375 245.449 200.375 244.778C200.375 244.108 200.498 243.517 200.742 243.006C200.989 242.491 201.333 242.091 201.773 241.804C202.216 241.514 202.733 241.369 203.324 241.369C203.665 241.369 204.002 241.426 204.334 241.54C204.667 241.653 204.969 241.838 205.242 242.094C205.515 242.347 205.732 242.682 205.894 243.099C206.056 243.517 206.137 244.031 206.137 244.642V245.068H201.091V244.199H205.114C205.114 243.83 205.04 243.5 204.892 243.21C204.748 242.92 204.54 242.692 204.27 242.524C204.003 242.357 203.688 242.273 203.324 242.273C202.924 242.273 202.577 242.372 202.284 242.571C201.995 242.767 201.772 243.023 201.615 243.338C201.459 243.653 201.381 243.991 201.381 244.352V244.932C201.381 245.426 201.466 245.845 201.637 246.189C201.81 246.53 202.05 246.79 202.357 246.969C202.664 247.145 203.02 247.233 203.426 247.233C203.691 247.233 203.929 247.196 204.142 247.122C204.358 247.045 204.544 246.932 204.701 246.781C204.857 246.628 204.978 246.437 205.063 246.21L206.034 246.483C205.932 246.812 205.76 247.102 205.519 247.352C205.277 247.599 204.979 247.793 204.624 247.932C204.269 248.068 203.87 248.136 203.426 248.136ZM207.667 248V241.455H208.672V248H207.667ZM208.178 240.364C207.982 240.364 207.813 240.297 207.671 240.163C207.532 240.03 207.462 239.869 207.462 239.682C207.462 239.494 207.532 239.334 207.671 239.2C207.813 239.067 207.982 239 208.178 239C208.374 239 208.542 239.067 208.681 239.2C208.823 239.334 208.894 239.494 208.894 239.682C208.894 239.869 208.823 240.03 208.681 240.163C208.542 240.297 208.374 240.364 208.178 240.364ZM211.52 244.062V248H210.514V241.455H211.486V242.477H211.571C211.724 242.145 211.957 241.878 212.27 241.676C212.582 241.472 212.986 241.369 213.48 241.369C213.923 241.369 214.311 241.46 214.643 241.642C214.976 241.821 215.234 242.094 215.419 242.46C215.604 242.824 215.696 243.284 215.696 243.841V248H214.69V243.909C214.69 243.395 214.557 242.994 214.29 242.707C214.023 242.418 213.656 242.273 213.19 242.273C212.869 242.273 212.582 242.342 212.33 242.482C212.08 242.621 211.882 242.824 211.737 243.091C211.592 243.358 211.52 243.682 211.52 244.062ZM34.0021 263V254.273H35.0589V262.062H39.1158V263H34.0021ZM43.3601 263.136C42.7294 263.136 42.1854 262.997 41.728 262.719C41.2734 262.438 40.9226 262.045 40.6754 261.543C40.4311 261.037 40.3089 260.449 40.3089 259.778C40.3089 259.108 40.4311 258.517 40.6754 258.006C40.9226 257.491 41.2663 257.091 41.7067 256.804C42.1499 256.514 42.6669 256.369 43.2578 256.369C43.5987 256.369 43.9354 256.426 44.2678 256.54C44.6001 256.653 44.9027 256.838 45.1754 257.094C45.4482 257.347 45.6655 257.682 45.8274 258.099C45.9893 258.517 46.0703 259.031 46.0703 259.642V260.068H41.0249V259.199H45.0476C45.0476 258.83 44.9737 258.5 44.826 258.21C44.6811 257.92 44.4737 257.692 44.2038 257.524C43.9368 257.357 43.6214 257.273 43.2578 257.273C42.8572 257.273 42.5107 257.372 42.218 257.571C41.9283 257.767 41.7053 258.023 41.549 258.338C41.3928 258.653 41.3146 258.991 41.3146 259.352V259.932C41.3146 260.426 41.3999 260.845 41.5703 261.189C41.7436 261.53 41.9837 261.79 42.2905 261.969C42.5973 262.145 42.9538 262.233 43.3601 262.233C43.6243 262.233 43.8629 262.196 44.076 262.122C44.2919 262.045 44.478 261.932 44.6342 261.781C44.7905 261.628 44.9112 261.437 44.9964 261.21L45.968 261.483C45.8658 261.812 45.6939 262.102 45.4524 262.352C45.2109 262.599 44.9126 262.793 44.5575 262.932C44.2024 263.068 43.8033 263.136 43.3601 263.136ZM52.7532 256.455L50.3327 263H49.31L46.8896 256.455H47.9805L49.7873 261.67H49.8555L51.6623 256.455H52.7532ZM56.5906 263.136C55.9599 263.136 55.4158 262.997 54.9585 262.719C54.5039 262.438 54.1531 262.045 53.9059 261.543C53.6616 261.037 53.5394 260.449 53.5394 259.778C53.5394 259.108 53.6616 258.517 53.9059 258.006C54.1531 257.491 54.4968 257.091 54.9371 256.804C55.3803 256.514 55.8974 256.369 56.4883 256.369C56.8292 256.369 57.1658 256.426 57.4982 256.54C57.8306 256.653 58.1332 256.838 58.4059 257.094C58.6786 257.347 58.896 257.682 59.0579 258.099C59.2198 258.517 59.3008 259.031 59.3008 259.642V260.068H54.2553V259.199H58.2781C58.2781 258.83 58.2042 258.5 58.0565 258.21C57.9116 257.92 57.7042 257.692 57.4343 257.524C57.1673 257.357 56.8519 257.273 56.4883 257.273C56.0877 257.273 55.7411 257.372 55.4485 257.571C55.1587 257.767 54.9357 258.023 54.7795 258.338C54.6232 258.653 54.5451 258.991 54.5451 259.352V259.932C54.5451 260.426 54.6303 260.845 54.8008 261.189C54.9741 261.53 55.2141 261.79 55.521 261.969C55.8278 262.145 56.1843 262.233 56.5906 262.233C56.8548 262.233 57.0934 262.196 57.3065 262.122C57.5224 262.045 57.7085 261.932 57.8647 261.781C58.021 261.628 58.1417 261.437 58.2269 261.21L59.1985 261.483C59.0962 261.812 58.9244 262.102 58.6829 262.352C58.4414 262.599 58.1431 262.793 57.788 262.932C57.4329 263.068 57.0337 263.136 56.5906 263.136ZM61.8363 254.273V263H60.8306V254.273H61.8363ZM67.4283 258.79V259.727H63.6101V258.79H67.4283ZM75.0614 254.273H76.1183V260.051C76.1183 260.648 75.9776 261.18 75.6964 261.649C75.418 262.115 75.0245 262.483 74.516 262.753C74.0075 263.02 73.4109 263.153 72.7262 263.153C72.0415 263.153 71.445 263.02 70.9364 262.753C70.4279 262.483 70.033 262.115 69.7518 261.649C69.4734 261.18 69.3342 260.648 69.3342 260.051V254.273H70.391V259.966C70.391 260.392 70.4847 260.771 70.6722 261.104C70.8597 261.433 71.1268 261.693 71.4734 261.884C71.8228 262.071 72.2404 262.165 72.7262 262.165C73.212 262.165 73.6296 262.071 73.979 261.884C74.3285 261.693 74.5955 261.433 74.7802 261.104C74.9677 260.771 75.0614 260.392 75.0614 259.966V254.273ZM78.0923 265.455V256.455H79.0639V257.494H79.1832C79.2571 257.381 79.3594 257.236 79.4901 257.06C79.6236 256.881 79.8139 256.722 80.0611 256.582C80.3111 256.44 80.6491 256.369 81.0753 256.369C81.6264 256.369 82.1122 256.507 82.5327 256.783C82.9531 257.058 83.2813 257.449 83.517 257.955C83.7528 258.46 83.8707 259.057 83.8707 259.744C83.8707 260.438 83.7528 261.038 83.517 261.547C83.2813 262.053 82.9545 262.445 82.5369 262.723C82.1193 262.999 81.6378 263.136 81.0923 263.136C80.6719 263.136 80.3352 263.067 80.0824 262.928C79.8295 262.786 79.6349 262.625 79.4986 262.446C79.3622 262.264 79.2571 262.114 79.1832 261.994H79.098V265.455H78.0923ZM79.081 259.727C79.081 260.222 79.1534 260.658 79.2983 261.036C79.4432 261.411 79.6548 261.705 79.9332 261.918C80.2116 262.128 80.5526 262.233 80.956 262.233C81.3764 262.233 81.7273 262.122 82.0085 261.901C82.2926 261.676 82.5057 261.375 82.6477 260.997C82.7926 260.616 82.8651 260.193 82.8651 259.727C82.8651 259.267 82.794 258.852 82.652 258.483C82.5128 258.111 82.3011 257.817 82.017 257.601C81.7358 257.382 81.3821 257.273 80.956 257.273C80.5469 257.273 80.2031 257.376 79.9247 257.584C79.6463 257.788 79.4361 258.075 79.294 258.445C79.152 258.811 79.081 259.239 79.081 259.727ZM86.1378 263.068C85.9276 263.068 85.7472 262.993 85.5966 262.842C85.446 262.692 85.3707 262.511 85.3707 262.301C85.3707 262.091 85.446 261.911 85.5966 261.76C85.7472 261.609 85.9276 261.534 86.1378 261.534C86.348 261.534 86.5284 261.609 86.679 261.76C86.8295 261.911 86.9048 262.091 86.9048 262.301C86.9048 262.44 86.8693 262.568 86.7983 262.685C86.7301 262.801 86.6378 262.895 86.5213 262.966C86.4077 263.034 86.2798 263.068 86.1378 263.068ZM92.2209 254.273H93.4822L96.4482 261.517H96.5504L99.5163 254.273H100.778V263H99.7891V256.369H99.7038L96.9766 263H96.022L93.2947 256.369H93.2095V263H92.2209V254.273ZM104.686 263.153C104.272 263.153 103.895 263.075 103.557 262.919C103.219 262.76 102.951 262.531 102.752 262.233C102.553 261.932 102.453 261.568 102.453 261.142C102.453 260.767 102.527 260.463 102.675 260.23C102.823 259.994 103.02 259.81 103.267 259.676C103.515 259.543 103.787 259.443 104.086 259.378C104.387 259.31 104.689 259.256 104.993 259.216C105.391 259.165 105.713 259.126 105.961 259.101C106.211 259.072 106.392 259.026 106.506 258.96C106.623 258.895 106.681 258.781 106.681 258.619V258.585C106.681 258.165 106.566 257.838 106.336 257.605C106.108 257.372 105.763 257.256 105.3 257.256C104.82 257.256 104.444 257.361 104.171 257.571C103.898 257.781 103.706 258.006 103.596 258.244L102.641 257.903C102.811 257.506 103.039 257.196 103.323 256.974C103.61 256.75 103.922 256.594 104.26 256.506C104.601 256.415 104.936 256.369 105.266 256.369C105.476 256.369 105.718 256.395 105.99 256.446C106.266 256.494 106.532 256.595 106.787 256.749C107.046 256.902 107.26 257.134 107.431 257.443C107.601 257.753 107.686 258.168 107.686 258.688V263H106.681V262.114H106.63C106.561 262.256 106.448 262.408 106.289 262.57C106.13 262.732 105.918 262.869 105.654 262.983C105.39 263.097 105.067 263.153 104.686 263.153ZM104.84 262.25C105.238 262.25 105.573 262.172 105.846 262.016C106.121 261.859 106.328 261.658 106.468 261.411C106.61 261.163 106.681 260.903 106.681 260.631V259.71C106.638 259.761 106.544 259.808 106.4 259.851C106.257 259.891 106.093 259.926 105.905 259.957C105.721 259.986 105.54 260.011 105.364 260.034C105.191 260.054 105.05 260.071 104.942 260.085C104.681 260.119 104.436 260.175 104.209 260.251C103.985 260.325 103.803 260.437 103.664 260.588C103.527 260.736 103.459 260.937 103.459 261.193C103.459 261.543 103.588 261.807 103.847 261.986C104.108 262.162 104.439 262.25 104.84 262.25ZM110.272 256.455L111.84 259.131L113.408 256.455H114.567L112.454 259.727L114.567 263H113.408L111.84 260.46L110.272 263H109.113L111.192 259.727L109.113 256.455H110.272ZM116.002 263V256.455H117.008V263H116.002ZM116.514 255.364C116.318 255.364 116.149 255.297 116.007 255.163C115.868 255.03 115.798 254.869 115.798 254.682C115.798 254.494 115.868 254.334 116.007 254.2C116.149 254.067 116.318 254 116.514 254C116.71 254 116.877 254.067 117.017 254.2C117.159 254.334 117.23 254.494 117.23 254.682C117.23 254.869 117.159 255.03 117.017 255.163C116.877 255.297 116.71 255.364 116.514 255.364ZM118.85 263V256.455H119.822V257.477H119.907C120.043 257.128 120.263 256.857 120.567 256.663C120.871 256.467 121.237 256.369 121.663 256.369C122.094 256.369 122.454 256.467 122.741 256.663C123.031 256.857 123.256 257.128 123.418 257.477H123.487C123.654 257.139 123.906 256.871 124.241 256.672C124.576 256.47 124.978 256.369 125.447 256.369C126.032 256.369 126.511 256.553 126.883 256.919C127.255 257.283 127.441 257.849 127.441 258.619V263H126.435V258.619C126.435 258.136 126.303 257.791 126.039 257.584C125.775 257.376 125.464 257.273 125.106 257.273C124.646 257.273 124.289 257.412 124.036 257.69C123.783 257.966 123.657 258.315 123.657 258.739V263H122.634V258.517C122.634 258.145 122.513 257.845 122.272 257.618C122.031 257.388 121.719 257.273 121.339 257.273C121.077 257.273 120.833 257.342 120.606 257.482C120.381 257.621 120.2 257.814 120.06 258.061C119.924 258.305 119.856 258.588 119.856 258.909V263H118.85ZM131.206 263.153C130.791 263.153 130.415 263.075 130.077 262.919C129.739 262.76 129.47 262.531 129.271 262.233C129.072 261.932 128.973 261.568 128.973 261.142C128.973 260.767 129.047 260.463 129.195 260.23C129.342 259.994 129.54 259.81 129.787 259.676C130.034 259.543 130.307 259.443 130.605 259.378C130.906 259.31 131.209 259.256 131.513 259.216C131.911 259.165 132.233 259.126 132.48 259.101C132.73 259.072 132.912 259.026 133.026 258.96C133.142 258.895 133.2 258.781 133.2 258.619V258.585C133.2 258.165 133.085 257.838 132.855 257.605C132.628 257.372 132.283 257.256 131.82 257.256C131.339 257.256 130.963 257.361 130.69 257.571C130.418 257.781 130.226 258.006 130.115 258.244L129.161 257.903C129.331 257.506 129.558 257.196 129.842 256.974C130.129 256.75 130.442 256.594 130.78 256.506C131.121 256.415 131.456 256.369 131.786 256.369C131.996 256.369 132.237 256.395 132.51 256.446C132.786 256.494 133.051 256.595 133.307 256.749C133.565 256.902 133.78 257.134 133.95 257.443C134.121 257.753 134.206 258.168 134.206 258.688V263H133.2V262.114H133.149C133.081 262.256 132.967 262.408 132.808 262.57C132.649 262.732 132.438 262.869 132.173 262.983C131.909 263.097 131.587 263.153 131.206 263.153ZM131.359 262.25C131.757 262.25 132.092 262.172 132.365 262.016C132.641 261.859 132.848 261.658 132.987 261.411C133.129 261.163 133.2 260.903 133.2 260.631V259.71C133.158 259.761 133.064 259.808 132.919 259.851C132.777 259.891 132.612 259.926 132.425 259.957C132.24 259.986 132.06 260.011 131.884 260.034C131.71 260.054 131.57 260.071 131.462 260.085C131.2 260.119 130.956 260.175 130.729 260.251C130.504 260.325 130.322 260.437 130.183 260.588C130.047 260.736 129.979 260.937 129.979 261.193C129.979 261.543 130.108 261.807 130.366 261.986C130.628 262.162 130.959 262.25 131.359 262.25ZM137.047 254.273V263H136.042V254.273H137.047ZM142.401 263V254.273H143.406V257.494H143.491C143.565 257.381 143.668 257.236 143.798 257.06C143.932 256.881 144.122 256.722 144.369 256.582C144.619 256.44 144.957 256.369 145.384 256.369C145.935 256.369 146.42 256.507 146.841 256.783C147.261 257.058 147.589 257.449 147.825 257.955C148.061 258.46 148.179 259.057 148.179 259.744C148.179 260.438 148.061 261.038 147.825 261.547C147.589 262.053 147.263 262.445 146.845 262.723C146.428 262.999 145.946 263.136 145.401 263.136C144.98 263.136 144.643 263.067 144.391 262.928C144.138 262.786 143.943 262.625 143.807 262.446C143.67 262.264 143.565 262.114 143.491 261.994H143.372V263H142.401ZM143.389 259.727C143.389 260.222 143.462 260.658 143.607 261.036C143.751 261.411 143.963 261.705 144.241 261.918C144.52 262.128 144.861 262.233 145.264 262.233C145.685 262.233 146.036 262.122 146.317 261.901C146.601 261.676 146.814 261.375 146.956 260.997C147.101 260.616 147.173 260.193 147.173 259.727C147.173 259.267 147.102 258.852 146.96 258.483C146.821 258.111 146.609 257.817 146.325 257.601C146.044 257.382 145.69 257.273 145.264 257.273C144.855 257.273 144.511 257.376 144.233 257.584C143.955 257.788 143.744 258.075 143.602 258.445C143.46 258.811 143.389 259.239 143.389 259.727ZM149.717 263V256.455H150.723V263H149.717ZM150.229 255.364C150.033 255.364 149.864 255.297 149.722 255.163C149.582 255.03 149.513 254.869 149.513 254.682C149.513 254.494 149.582 254.334 149.722 254.2C149.864 254.067 150.033 254 150.229 254C150.425 254 150.592 254.067 150.732 254.2C150.874 254.334 150.945 254.494 150.945 254.682C150.945 254.869 150.874 255.03 150.732 255.163C150.592 255.297 150.425 255.364 150.229 255.364ZM157.201 257.92L156.298 258.176C156.241 258.026 156.157 257.879 156.047 257.737C155.939 257.592 155.791 257.473 155.603 257.379C155.416 257.286 155.176 257.239 154.883 257.239C154.483 257.239 154.149 257.331 153.882 257.516C153.618 257.697 153.485 257.929 153.485 258.21C153.485 258.46 153.576 258.658 153.758 258.803C153.94 258.947 154.224 259.068 154.61 259.165L155.582 259.403C156.167 259.545 156.603 259.763 156.89 260.055C157.177 260.345 157.321 260.719 157.321 261.176C157.321 261.551 157.213 261.886 156.997 262.182C156.784 262.477 156.485 262.71 156.102 262.881C155.718 263.051 155.272 263.136 154.764 263.136C154.096 263.136 153.544 262.991 153.106 262.702C152.669 262.412 152.392 261.989 152.275 261.432L153.23 261.193C153.321 261.545 153.493 261.81 153.745 261.986C154.001 262.162 154.335 262.25 154.747 262.25C155.216 262.25 155.588 262.151 155.863 261.952C156.142 261.75 156.281 261.509 156.281 261.227C156.281 261 156.201 260.81 156.042 260.656C155.883 260.5 155.639 260.384 155.309 260.307L154.218 260.051C153.619 259.909 153.179 259.689 152.897 259.391C152.619 259.089 152.48 258.713 152.48 258.261C152.48 257.892 152.583 257.565 152.791 257.281C153.001 256.997 153.287 256.774 153.647 256.612C154.011 256.45 154.423 256.369 154.883 256.369C155.531 256.369 156.039 256.511 156.409 256.795C156.781 257.08 157.045 257.455 157.201 257.92ZM162.346 263V254.273H163.403V262.062H167.46V263H162.346ZM171.704 263.136C171.073 263.136 170.529 262.997 170.072 262.719C169.617 262.438 169.266 262.045 169.019 261.543C168.775 261.037 168.653 260.449 168.653 259.778C168.653 259.108 168.775 258.517 169.019 258.006C169.266 257.491 169.61 257.091 170.05 256.804C170.494 256.514 171.011 256.369 171.602 256.369C171.942 256.369 172.279 256.426 172.612 256.54C172.944 256.653 173.246 256.838 173.519 257.094C173.792 257.347 174.009 257.682 174.171 258.099C174.333 258.517 174.414 259.031 174.414 259.642V260.068H169.369V259.199H173.391C173.391 258.83 173.317 258.5 173.17 258.21C173.025 257.92 172.817 257.692 172.548 257.524C172.281 257.357 171.965 257.273 171.602 257.273C171.201 257.273 170.854 257.372 170.562 257.571C170.272 257.767 170.049 258.023 169.893 258.338C169.737 258.653 169.658 258.991 169.658 259.352V259.932C169.658 260.426 169.744 260.845 169.914 261.189C170.087 261.53 170.327 261.79 170.634 261.969C170.941 262.145 171.298 262.233 171.704 262.233C171.968 262.233 172.207 262.196 172.42 262.122C172.636 262.045 172.822 261.932 172.978 261.781C173.134 261.628 173.255 261.437 173.34 261.21L174.312 261.483C174.21 261.812 174.038 262.102 173.796 262.352C173.555 262.599 173.256 262.793 172.901 262.932C172.546 263.068 172.147 263.136 171.704 263.136ZM181.097 256.455L178.676 263H177.654L175.233 256.455H176.324L178.131 261.67H178.199L180.006 256.455H181.097ZM184.934 263.136C184.304 263.136 183.76 262.997 183.302 262.719C182.848 262.438 182.497 262.045 182.25 261.543C182.005 261.037 181.883 260.449 181.883 259.778C181.883 259.108 182.005 258.517 182.25 258.006C182.497 257.491 182.841 257.091 183.281 256.804C183.724 256.514 184.241 256.369 184.832 256.369C185.173 256.369 185.51 256.426 185.842 256.54C186.174 256.653 186.477 256.838 186.75 257.094C187.022 257.347 187.24 257.682 187.402 258.099C187.564 258.517 187.645 259.031 187.645 259.642V260.068H182.599V259.199H186.622C186.622 258.83 186.548 258.5 186.4 258.21C186.255 257.92 186.048 257.692 185.778 257.524C185.511 257.357 185.196 257.273 184.832 257.273C184.431 257.273 184.085 257.372 183.792 257.571C183.502 257.767 183.279 258.023 183.123 258.338C182.967 258.653 182.889 258.991 182.889 259.352V259.932C182.889 260.426 182.974 260.845 183.145 261.189C183.318 261.53 183.558 261.79 183.865 261.969C184.172 262.145 184.528 262.233 184.934 262.233C185.199 262.233 185.437 262.196 185.65 262.122C185.866 262.045 186.052 261.932 186.208 261.781C186.365 261.628 186.485 261.437 186.571 261.21L187.542 261.483C187.44 261.812 187.268 262.102 187.027 262.352C186.785 262.599 186.487 262.793 186.132 262.932C185.777 263.068 185.377 263.136 184.934 263.136ZM190.18 254.273V263H189.174V254.273H190.18ZM198.448 254.273V263H197.391V255.381H197.34L195.21 256.795V255.722L197.391 254.273H198.448ZM203.805 263.119C203.163 263.119 202.616 262.945 202.164 262.595C201.712 262.243 201.367 261.733 201.129 261.065C200.89 260.395 200.771 259.585 200.771 258.636C200.771 257.693 200.89 256.888 201.129 256.22C201.37 255.55 201.717 255.038 202.168 254.686C202.623 254.331 203.168 254.153 203.805 254.153C204.441 254.153 204.985 254.331 205.437 254.686C205.891 255.038 206.238 255.55 206.477 256.22C206.718 256.888 206.839 257.693 206.839 258.636C206.839 259.585 206.719 260.395 206.481 261.065C206.242 261.733 205.897 262.243 205.445 262.595C204.994 262.945 204.447 263.119 203.805 263.119ZM203.805 262.182C204.441 262.182 204.935 261.875 205.288 261.261C205.64 260.648 205.816 259.773 205.816 258.636C205.816 257.881 205.735 257.237 205.573 256.706C205.414 256.175 205.184 255.77 204.883 255.491C204.585 255.213 204.225 255.074 203.805 255.074C203.174 255.074 202.681 255.385 202.326 256.007C201.971 256.626 201.793 257.503 201.793 258.636C201.793 259.392 201.873 260.034 202.032 260.562C202.191 261.091 202.42 261.493 202.718 261.768C203.019 262.044 203.381 262.182 203.805 262.182ZM211.305 263.119C210.663 263.119 210.116 262.945 209.664 262.595C209.212 262.243 208.867 261.733 208.629 261.065C208.39 260.395 208.271 259.585 208.271 258.636C208.271 257.693 208.39 256.888 208.629 256.22C208.87 255.55 209.217 255.038 209.668 254.686C210.123 254.331 210.668 254.153 211.305 254.153C211.941 254.153 212.485 254.331 212.937 254.686C213.391 255.038 213.738 255.55 213.977 256.22C214.218 256.888 214.339 257.693 214.339 258.636C214.339 259.585 214.219 260.395 213.981 261.065C213.742 261.733 213.397 262.243 212.945 262.595C212.494 262.945 211.947 263.119 211.305 263.119ZM211.305 262.182C211.941 262.182 212.435 261.875 212.788 261.261C213.14 260.648 213.316 259.773 213.316 258.636C213.316 257.881 213.235 257.237 213.073 256.706C212.914 256.175 212.684 255.77 212.383 255.491C212.085 255.213 211.725 255.074 211.305 255.074C210.674 255.074 210.181 255.385 209.826 256.007C209.471 256.626 209.293 257.503 209.293 258.636C209.293 259.392 209.373 260.034 209.532 260.562C209.691 261.091 209.92 261.493 210.218 261.768C210.519 262.044 210.881 262.182 211.305 262.182ZM216.403 263.068C216.193 263.068 216.013 262.993 215.862 262.842C215.712 262.692 215.636 262.511 215.636 262.301C215.636 262.091 215.712 261.911 215.862 261.76C216.013 261.609 216.193 261.534 216.403 261.534C216.614 261.534 216.794 261.609 216.945 261.76C217.095 261.911 217.17 262.091 217.17 262.301C217.17 262.44 217.135 262.568 217.064 262.685C216.996 262.801 216.903 262.895 216.787 262.966C216.673 263.034 216.545 263.068 216.403 263.068Z" fill="white"/>
<path d="M88.2848 289V277.364H90.745V286.972H95.7337V289H88.2848ZM97.3629 289V277.364H105.204V279.392H99.8232V282.165H104.8V284.193H99.8232V286.972H105.227V289H97.3629ZM109.262 277.364L112.075 286.205H112.183L115.001 277.364H117.728L113.717 289H110.546L106.529 277.364H109.262ZM119.129 289V277.364H126.969V279.392H121.589V282.165H126.566V284.193H121.589V286.972H126.992V289H119.129ZM128.925 289V277.364H131.386V286.972H136.374V289H128.925ZM148.894 277.364H151.354V284.92C151.354 285.769 151.152 286.511 150.746 287.148C150.345 287.784 149.782 288.28 149.059 288.636C148.335 288.989 147.493 289.165 146.531 289.165C145.565 289.165 144.72 288.989 143.996 288.636C143.273 288.28 142.71 287.784 142.309 287.148C141.907 286.511 141.707 285.769 141.707 284.92V277.364H144.167V284.71C144.167 285.153 144.263 285.547 144.457 285.892C144.654 286.237 144.93 286.508 145.286 286.705C145.642 286.902 146.057 287 146.531 287C147.008 287 147.423 286.902 147.775 286.705C148.131 286.508 148.406 286.237 148.599 285.892C148.796 285.547 148.894 285.153 148.894 284.71V277.364ZM153.379 289V277.364H157.969C158.852 277.364 159.604 277.532 160.225 277.869C160.846 278.203 161.32 278.667 161.646 279.261C161.975 279.852 162.14 280.534 162.14 281.307C162.14 282.08 161.973 282.761 161.64 283.352C161.307 283.943 160.824 284.403 160.191 284.733C159.562 285.062 158.801 285.227 157.907 285.227H154.981V283.256H157.509C157.983 283.256 158.373 283.174 158.68 283.011C158.99 282.845 159.221 282.616 159.373 282.324C159.528 282.028 159.606 281.689 159.606 281.307C159.606 280.92 159.528 280.583 159.373 280.295C159.221 280.004 158.99 279.778 158.68 279.619C158.369 279.456 157.975 279.375 157.498 279.375H155.839V289H153.379Z" fill="#FFD700"/>
<path d="M95.7321 312L99.2688 320.625H108.464L101.391 326.375L104.22 335L95.7321 329.25L87.244 335L90.0734 326.375L83 320.625H92.1954L95.7321 312Z" fill="#FFD700"/>
<path d="M124.732 312L128.269 320.625H137.464L130.391 326.375L133.22 335L124.732 329.25L116.244 335L119.073 326.375L112 320.625H121.195L124.732 312Z" fill="#FFD700"/>
<path d="M153.732 312L157.269 320.625H166.464L159.391 326.375L162.22 335L153.732 329.25L145.244 335L148.073 326.375L141 320.625H150.195L153.732 312Z" fill="#FFD700"/>
</g>
<defs>
<clipPath id="clip0_226_664">
<rect width="250" height="350" fill="white"/>
</clipPath>
</defs>
</svg>
