<svg width="250" height="350" viewBox="0 0 250 350" fill="none" xmlns="http://www.w3.org/2000/svg">
    <g clip-path="url(#clip0_237_76)">
        <path d="M235 0H15C6.71573 0 0 6.71573 0 15V335C0 343.284 6.71573 350 15 350H235C243.284 350 250 343.284 250 335V15C250 6.71573 243.284 0 235 0Z"
              fill="#28A745"/>
        <path d="M230 8H20C13.3726 8 8 13.3726 8 20V330C8 336.627 13.3726 342 20 342H230C236.627 342 242 336.627 242 330V20C242 13.3726 236.627 8 230 8Z"
              fill="#0F0F1A"/>
        <path opacity="0.9"
              d="M230 15H20C17.2386 15 15 17.2386 15 20V38C15 40.7614 17.2386 43 20 43H230C232.761 43 235 40.7614 235 38V20C235 17.2386 232.761 15 230 15Z"
              fill="#28A745"/>
        <text fill="#0F0F1A" style="white-space: pre" xml:space="preserve" font-family="Neucha" font-size="16"
              letter-spacing="0em"><tspan text-anchor="middle" x="125" y="34.8672">ACTION CARD </tspan></text>
        <text fill="#FFD700" style="white-space: pre" xml:space="preserve" font-family="Neucha" font-size="17"
              letter-spacing="0em"><tspan text-anchor="middle" x="125" y="64.6089">{{TITLE}}</tspan></text>
        <path d="M222 75H28C23.5817 75 20 78.5817 20 83V207C20 211.418 23.5817 215 28 215H222C226.418 215 230 211.418 230 207V83C230 78.5817 226.418 75 222 75Z"
              fill="#0F0F1A" stroke="#28A745" stroke-width="2"/>
        <path opacity="0.5"
              d="M125 183C151.51 183 173 161.51 173 135C173 108.49 151.51 87 125 87C98.4903 87 77 108.49 77 135C77 161.51 98.4903 183 125 183Z"
              stroke="#28A745" stroke-width="2"/>
        <path d="M125 180C149.853 180 170 159.853 170 135C170 110.147 149.853 90 125 90C100.147 90 80 110.147 80 135C80 159.853 100.147 180 125 180Z"
              fill="#FFD700"/>
        <path d="M125 149C134.941 149 143 140.941 143 131C143 121.059 134.941 113 125 113C115.059 113 107 121.059 107 131C107 140.941 115.059 149 125 149Z"
              fill="#0F0F1A"/>
        <mask id="mask0_237_76" style="mask-type:luminance" maskUnits="userSpaceOnUse" x="80" y="90" width="90"
              height="90">
            <path d="M125 180C149.853 180 170 159.853 170 135C170 110.147 149.853 90 125 90C100.147 90 80 110.147 80 135C80 159.853 100.147 180 125 180Z"
                  fill="white"/>
        </mask>
        <g mask="url(#mask0_237_76)">
            <path d="M125 190C142.673 190 157 181.046 157 170C157 158.954 142.673 150 125 150C107.327 150 93 158.954 93 170C93 181.046 107.327 190 125 190Z"
                  fill="#0F0F1A"/>
        </g>
        <text fill="white" style="white-space: pre" xml:space="preserve" font-family="Neucha" font-size="99"
              letter-spacing="0em"><tspan x="167.341" y="136.428">? </tspan></text>
        <path d="M60 102C61.1046 102 62 101.105 62 100C62 98.8954 61.1046 98 60 98C58.8954 98 58 98.8954 58 100C58 101.105 58.8954 102 60 102Z"
              fill="#FFD700"/>
        <path d="M190 110C191.105 110 192 109.105 192 108C192 106.895 191.105 106 190 106C188.895 106 188 106.895 188 108C188 109.105 188.895 110 190 110Z"
              fill="#FFD700"/>
        <path d="M180 182C181.105 182 182 181.105 182 180C182 178.895 181.105 178 180 178C178.895 178 178 178.895 178 180C178 181.105 178.895 182 180 182Z"
              fill="#FFD700"/>
        <path d="M70 176.5C70.8284 176.5 71.5 175.828 71.5 175C71.5 174.172 70.8284 173.5 70 173.5C69.1716 173.5 68.5 174.172 68.5 175C68.5 175.828 69.1716 176.5 70 176.5Z"
              fill="#FFD700"/>
        <path opacity="0.7" d="M55 130L58 135L55 140L52 135L55 130Z" fill="#28A745"/>
        <path opacity="0.6" d="M195 140L198 145L195 150L192 145L195 140Z" fill="#28A745"/>
        <path d="M39.5 95L43.0714 103.846H52L44.8571 109.154L48.4286 118L39.5 112.692L30.5714 118L34.1429 109.154L27 103.846H35.9286L39.5 95Z"
              fill="#FFD700"/>
        <path d="M209.5 87L212.786 95.0769H221L214.429 99.9231L217.714 108L209.5 103.154L201.286 108L204.571 99.9231L198 95.0769H206.214L209.5 87Z"
              fill="#FFD700"/>
        <path d="M208.5 155L211.5 162.308H219L213 166.692L216 174L208.5 169.615L201 174L204 166.692L198 162.308H205.5L208.5 155Z"
              fill="#FFD700"/>
        <path d="M55.5 167L59.6429 178.154H70L61.7143 184.846L65.8571 196L55.5 189.308L45.1429 196L49.2857 184.846L41 178.154H51.3571L55.5 167Z"
              fill="#FFD700"/>
        <path d="M86.5 73L91.2143 85.6923H103L93.5714 93.3077L98.2857 106L86.5 98.3846L74.7143 106L79.4286 93.3077L70 85.6923H81.7857L86.5 73Z"
              fill="#FFD700"/>
        <path d="M222 225H28C23.5817 225 20 228.582 20 233V297C20 301.418 23.5817 305 28 305H222C226.418 305 230 301.418 230 297V233C230 228.582 226.418 225 222 225Z"
              fill="#0F0F1A" stroke="#28A745"/>
        <text fill="white" style="white-space: pre" xml:space="preserve" font-family="Neucha" font-size="15"
              letter-spacing="0em"><tspan x="125" y="248.125" text-anchor="middle">{{BODY1}}</tspan><tspan x="125" y="265.125" text-anchor="middle">{{BODY2}}</tspan></text>
        <text fill="#FFD700" style="white-space: pre" xml:space="preserve" font-family="Neucha" font-size="22"
              letter-spacing="0em"><tspan x="125" y="292.317" text-anchor="middle">{{FOOTER}}</tspan></text>
        <path d="M95.6 310L98.8 319.6H109.2L101.2 326L104.4 335.6L95.6 329.2L86.8 335.6L90 326L82 319.6H92.4L95.6 310Z"
              fill="#FFD700"/>
        <path d="M125.6 310L128.8 319.6H139.2L131.2 326L134.4 335.6L125.6 329.2L116.8 335.6L120 326L112 319.6H122.4L125.6 310Z"
              fill="#FFD700"/>
        <path d="M155.6 310L158.8 319.6H169.2L161.2 326L164.4 335.6L155.6 329.2L146.8 335.6L150 326L142 319.6H152.4L155.6 310Z"
              fill="#FFD700"/>
    </g>
    <defs>
        <clipPath id="clip0_237_76">
            <rect width="250" height="350" fill="white"/>
        </clipPath>
    </defs>
</svg>
