<svg width="224" height="234" viewBox="0 0 224 234" fill="none" xmlns="http://www.w3.org/2000/svg">
<g clip-path="url(#clip0_1_1358)">
<path fill-rule="evenodd" clip-rule="evenodd" d="M42.8486 199.787C39.9712 200.089 36.0552 199.292 35.7566 195.033C35.4552 190.775 39.8352 190.525 39.9179 190.656C40.0032 190.789 43.0286 196.201 43.0286 196.316L42.8486 199.787Z" fill="#FF818F"/>
<path fill-rule="evenodd" clip-rule="evenodd" d="M93.9899 138.087H128.607V121.471C130.739 120.764 132.989 119.901 132.989 119.901L131.551 118.089C131.551 118.089 128.607 116.803 128.607 113.043V81.0627H93.9899V113.043C93.9899 116.803 91.0445 118.089 91.0445 118.089L89.6085 119.901C89.6085 119.901 91.8565 120.764 93.9899 121.471V138.087Z" fill="#FCD1C8"/>
<path fill-rule="evenodd" clip-rule="evenodd" d="M93.9898 102.745V113.043C93.9898 114.637 93.4578 115.789 92.8458 116.584C98.2298 121.107 111.987 129.407 126.327 111.945L104.35 99.088C104.35 99.088 98.6072 101.144 93.9898 102.745Z" fill="#F9A8A1"/>
<path fill-rule="evenodd" clip-rule="evenodd" d="M58.5912 129.469C59.9685 128.803 77.9032 121.839 91.0445 118.092C94.8818 121.92 105.666 130.917 111.297 130.917C116.661 130.917 127.717 121.92 131.551 118.092L162.654 126.044V187.823L161.622 199.657H63.4925L58.5912 129.469Z" fill="#FF0000"/>
<path fill-rule="evenodd" clip-rule="evenodd" d="M75.0019 199.657H63.4925L62.0059 178.365C62.6592 177.188 63.0699 176.473 63.0699 176.473C63.0699 176.473 66.9419 169.931 88.5285 177.887C110.115 185.843 132.842 186.276 148.966 171.192C165.089 156.105 162.354 190.237 161.411 190.237C160.469 190.237 120.869 194.952 115.778 195.895C112.734 196.459 91.7779 198.639 75.0019 199.657Z" fill="#CC0001"/>
<path fill-rule="evenodd" clip-rule="evenodd" d="M94.3966 182.027C94.3966 182.027 89.3912 181.169 83.5766 181.576C77.7606 181.98 69.5126 183.425 69.5126 183.425L66.5833 188.336L69.6486 197.893C69.6486 197.893 73.0286 199.38 74.6953 198.253C76.3646 197.125 94.8913 187.164 94.3966 182.027Z" fill="#FCD1C8"/>
<path fill-rule="evenodd" clip-rule="evenodd" d="M69.2912 189.443C69.2912 189.443 69.6938 192.847 72.6672 196.452L81.0525 194.016L109.179 195.729L123.354 214.32C123.354 214.32 121.078 214.571 108.73 218.627C96.3779 222.684 87.1819 227.732 69.7832 229.084C52.3845 230.436 47.9659 227.732 46.2539 219.709C44.5405 211.685 37.6898 200.508 38.1405 189.779C38.5912 179.051 55.9912 178.96 55.9912 178.96C55.9912 178.96 69.6045 181.035 69.2912 189.443Z" fill="#FCD1C8"/>
<path fill-rule="evenodd" clip-rule="evenodd" d="M110.963 198.069L123.354 214.32C123.354 214.32 121.307 214.545 110.579 218.023C109.146 207.597 96.2953 202.284 96.2953 202.284L109.493 197.724C109.995 197.836 110.485 197.952 110.963 198.069Z" fill="#F9A8A1"/>
<path fill-rule="evenodd" clip-rule="evenodd" d="M38.6339 196.167C38.2486 194.04 38.0526 191.9 38.1406 189.779C38.4686 181.956 47.8099 179.789 52.8459 179.191L57.8286 185.44C57.8286 185.44 44.4606 188.32 38.6339 196.167Z" fill="#F9A8A1"/>
<path fill-rule="evenodd" clip-rule="evenodd" d="M132.437 188.877L135.694 186.919C135.694 186.919 139.647 184.82 144.065 181.576C148.483 178.328 152.179 177.428 156.867 178.509C161.555 179.592 162.654 185.092 162.654 185.092C162.654 185.092 159.482 193.204 156.597 191.852C153.711 190.5 132.437 188.877 132.437 188.877Z" fill="#FCD1C8"/>
<path fill-rule="evenodd" clip-rule="evenodd" d="M185.586 181.737C185.586 181.737 182.787 203.265 175.643 213.156L152.105 186.827C152.105 186.827 151.017 180.904 152.094 175.787C153.173 170.668 153.173 170.668 153.173 170.668C153.173 170.668 174.087 166.972 175.079 167.513C176.07 168.053 185.537 176.167 185.586 181.737Z" fill="#FCD1C8"/>
<path fill-rule="evenodd" clip-rule="evenodd" d="M185.586 181.737C185.586 181.737 185.438 182.871 185.125 184.735C176.171 174.483 163.953 173.847 163.953 173.847L167.774 168.264C171.567 167.699 174.71 167.313 175.079 167.513C176.07 168.053 185.537 176.167 185.586 181.737Z" fill="#F9A8A1"/>
<path fill-rule="evenodd" clip-rule="evenodd" d="M186.805 181.016C186.693 164.175 181.031 130.985 162.654 126.044C162.654 126.044 154.891 137.203 154.349 159.74C154.349 159.74 150.383 168.213 151.105 174.524C151.105 174.524 151.149 175.425 152.094 175.787C152.094 175.787 174.407 168.573 185.586 181.737C185.586 181.737 186.826 181.985 186.805 181.016Z" fill="#FF0000"/>
<path fill-rule="evenodd" clip-rule="evenodd" d="M186.805 181.016C186.797 179.653 186.75 178.183 186.665 176.628C170.717 163.42 151.042 172.473 151.021 172.483C151.006 173.177 151.029 173.863 151.105 174.524C151.105 174.524 151.149 175.428 152.094 175.787C152.094 175.787 174.407 168.573 185.586 181.737C185.586 181.737 186.826 181.985 186.805 181.016Z" fill="#00FF00"/>
<path fill-rule="evenodd" clip-rule="evenodd" d="M58.5912 129.469C58.5912 129.469 43.6272 135.86 41.0125 149.832C38.3992 163.805 35.1245 189.175 35.7565 195.033C39.5912 186.893 66.2339 181.131 69.2912 189.443C69.2912 189.443 71.0032 188.745 71.0032 187.303C71.0032 185.86 71.4059 162.909 66.5365 154.345C66.5365 154.345 66.8992 134.337 58.5912 129.469Z" fill="#FF0000"/>
<path fill-rule="evenodd" clip-rule="evenodd" d="M35.8939 188.155C35.6752 191.245 35.6099 193.669 35.7566 195.033C39.5912 186.893 66.2339 181.131 69.2912 189.443C69.2912 189.443 71.0032 188.745 71.0032 187.303C71.0032 187.027 71.0179 185.968 71.0086 184.376C50.6579 175.8 35.9032 188.147 35.8939 188.155Z" fill="#00FF00"/>
<path fill-rule="evenodd" clip-rule="evenodd" d="M94.3966 182.027C94.3966 182.027 109.81 185.633 122.161 186.896C134.51 188.157 153.714 183.831 164.351 190.141C174.99 196.452 177.154 204.655 177.154 208.351C177.154 212.047 173.906 217.997 165.523 219.169C157.139 220.343 136.586 219.62 120.627 213.311C104.671 207 90.6099 197.084 72.6672 196.452L94.3966 182.027Z" fill="#FCD1C8"/>
<path d="M164.351 190.588L164.123 190.525C160.815 188.563 156.679 187.645 152.153 187.271L151.982 187.256C147.11 186.869 141.789 187.101 136.563 187.325L135.654 187.367H135.634C135.398 187.367 135.199 187.18 135.187 186.94C135.178 186.693 135.369 186.487 135.615 186.475L136.523 186.435C141.61 186.213 146.779 185.989 151.571 186.331C151.326 184.707 150.759 179.967 151.659 175.695C151.709 175.456 151.939 175.3 152.187 175.351C152.427 175.401 152.581 175.639 152.531 175.877C151.63 180.156 152.281 185.079 152.485 186.404C157.031 186.801 161.198 187.753 164.578 189.759C164.79 189.883 164.859 190.157 164.734 190.369C164.651 190.508 164.503 190.588 164.351 190.588ZM123.323 214.756L123.177 214.731C122.261 214.412 121.357 214.076 120.465 213.725C115.85 211.9 111.337 209.747 106.97 207.664C95.8419 202.357 85.3312 197.344 72.6579 196.899C72.5179 196.915 67.3859 196.863 62.5912 199.409C62.3766 199.524 62.1046 199.443 61.9899 199.224C61.8739 199.007 61.9552 198.737 62.1739 198.623C66.0432 196.565 70.0259 196.123 71.7712 196.029C69.2472 192.641 68.8646 189.631 68.8486 189.495C68.8206 189.251 68.9952 189.029 69.2392 189C69.4872 188.967 69.7059 189.145 69.7339 189.389C69.7366 189.423 70.1539 192.62 72.8859 196.016C85.6619 196.515 96.6872 201.773 107.354 206.86C111.706 208.936 116.206 211.083 120.791 212.896C121.671 213.243 122.565 213.575 123.469 213.888C123.703 213.969 123.826 214.224 123.745 214.456C123.679 214.641 123.509 214.756 123.323 214.756Z" fill="#F9A8A1"/>
<path d="M152.094 176.232L151.937 176.204C150.731 175.745 150.662 174.595 150.659 174.544C149.963 168.479 153.466 160.597 153.906 159.636C153.957 157.597 154.069 155.579 154.242 153.599L153.342 152.144C153.211 151.933 153.277 151.66 153.486 151.531C153.698 151.405 153.969 151.467 154.099 151.675L154.381 152.132C154.469 151.284 154.567 150.443 154.677 149.613C154.709 149.373 154.902 149.201 155.177 149.231C155.421 149.264 155.593 149.487 155.561 149.732C155.134 152.951 154.877 156.321 154.794 159.751L154.753 159.929C154.714 160.012 150.847 168.363 151.547 174.473C151.554 174.56 151.614 175.128 152.253 175.371C152.482 175.457 152.599 175.715 152.51 175.945C152.443 176.123 152.274 176.232 152.094 176.232ZM69.2912 189.888C69.1179 189.888 68.9512 189.784 68.8806 189.612C68.7859 189.385 68.8966 189.125 69.1219 189.032C69.1366 189.027 70.5579 188.423 70.5579 187.303L70.5606 186.98C70.6152 179.661 70.2939 161.857 66.1499 154.565L66.0912 154.336C66.0926 154.305 66.1432 151.103 65.6872 147.021C65.6619 146.776 65.8392 146.557 66.0819 146.529C66.3366 146.527 66.5472 146.68 66.5752 146.923C66.6979 148.037 66.7859 149.087 66.8459 150.028L67.4486 149.193C67.5912 148.991 67.8699 148.947 68.0685 149.095C68.2685 149.237 68.3152 149.516 68.1699 149.713L66.9232 151.443C66.9859 152.879 66.9859 153.893 66.9846 154.231C71.1779 161.771 71.5059 179.632 71.4512 186.987L71.4486 187.303C71.4486 189.024 69.5419 189.823 69.4592 189.856L69.2912 189.888Z" fill="#CC0001"/>
<path fill-rule="evenodd" clip-rule="evenodd" d="M86.7272 119.38C88.3365 121.888 90.9738 124.707 93.9898 127.352C100.018 132.64 107.545 137.227 111.297 137.227C114.933 137.227 122.411 132.417 128.607 126.973C131.551 124.385 134.206 121.656 136.02 119.233L131.551 118.089C127.716 121.92 116.661 130.917 111.297 130.917C105.666 130.917 94.8818 121.92 91.0445 118.089C89.6512 118.487 88.2032 118.923 86.7272 119.38Z" fill="#00FF00"/>
<path fill-rule="evenodd" clip-rule="evenodd" d="M79.3419 88.5627C69.0606 88.0293 68.1926 69.808 74.1273 70.2107C79.0699 70.5413 80.1073 73.6947 80.4326 75.016C80.7606 76.3387 79.3419 88.5627 79.3419 88.5627Z" fill="#FCD1C8"/>
<path fill-rule="evenodd" clip-rule="evenodd" d="M143.157 88.5627C153.438 88.0293 154.306 69.808 148.37 70.2107C143.429 70.5413 142.394 73.6947 142.065 75.016C141.737 76.3387 143.157 88.5627 143.157 88.5627Z" fill="#FCD1C8"/>
<path fill-rule="evenodd" clip-rule="evenodd" d="M145.01 52.8921V76.2107C145.01 95.864 131.617 117.363 111.253 117.363C90.8885 117.363 77.4926 95.864 77.4926 76.2107V52.8921C77.4926 8.5294 145.01 8.5294 145.01 52.8921Z" fill="#FCD1C8"/>
<path fill-rule="evenodd" clip-rule="evenodd" d="M107.104 37.7947L111.219 41.4027C111.219 41.4027 126.911 49.2761 134.427 40.8281C141.946 32.3787 107.104 37.7947 107.104 37.7947Z" fill="#F9A8A1"/>
<path fill-rule="evenodd" clip-rule="evenodd" d="M109.901 64.268C109.974 64.5773 109.969 64.9173 109.878 65.164C109.226 66.9173 106.357 74.4347 106.446 75.408C106.633 76.652 110.19 77.328 112.07 77.2893C113.237 77.264 112.091 81.3787 110.162 80.9333C108.105 80.464 104.963 78.0773 104.611 75.6947C104.441 74.5453 106.261 69.308 107.591 65.7707C107.934 64.8653 107.639 63.9773 107.461 63.3933C107.001 61.8733 109.665 63.2453 109.901 64.268Z" fill="#F9A8A1"/>
<path d="M146.418 82.7734C146.201 82.7734 146.01 82.6147 145.977 82.3947C145.766 80.9827 145.875 79.1507 146.255 77.2947L146.261 77.2707C146.411 76.5347 146.606 75.792 146.842 75.0734C147.603 72.7374 148.478 72.3787 149.063 72.4894C149.993 72.6587 150.559 74.0867 150.471 76.0414C150.461 76.2814 150.263 76.468 150.026 76.468L150.007 76.4667C149.761 76.456 149.57 76.248 149.581 76.0027C149.657 74.344 149.186 73.4174 148.903 73.3667C148.762 73.3307 148.241 73.6494 147.687 75.3507C147.506 75.9067 147.349 76.4827 147.219 77.06C147.87 77.32 148.929 78.0894 148.886 80.3027C148.881 80.5454 148.682 80.74 148.441 80.74H148.431C148.185 80.7347 147.99 80.532 147.995 80.2854C148.023 78.748 147.445 78.1653 147.039 77.9467C146.757 79.5374 146.682 81.0867 146.859 82.2627C146.895 82.5054 146.727 82.732 146.485 82.768L146.418 82.7734Z" fill="#F9A8A1"/>
<path d="M76.0859 82.7734L76.0179 82.768C75.7766 82.732 75.6086 82.5054 75.6446 82.2627C75.8219 81.0867 75.7472 79.5387 75.4659 77.948C75.0579 78.1694 74.4792 78.7534 74.5086 80.2854C74.5139 80.532 74.3179 80.7347 74.0726 80.74H74.0646C73.8219 80.74 73.6219 80.5454 73.6179 80.3027C73.5753 78.0867 74.6353 77.32 75.2859 77.06C75.1566 76.4827 74.9992 75.9067 74.8179 75.3507C74.2606 73.6494 73.7299 73.3307 73.6019 73.3667C73.3179 73.4174 72.8459 74.344 72.9219 76.0027C72.9353 76.248 72.7432 76.456 72.4979 76.4667C72.2446 76.5227 72.0432 76.2867 72.0339 76.0414C71.9459 74.0867 72.5099 72.6587 73.4406 72.4894C74.0286 72.3774 74.9006 72.74 75.6646 75.0734C76.4926 77.612 76.8233 80.4174 76.5259 82.3947C76.4926 82.6147 76.3019 82.7734 76.0859 82.7734Z" fill="#F9A8A1"/>
<path d="M109.474 101.601C108.573 101.601 107.686 101.559 106.834 101.475C106.345 101.427 105.987 100.989 106.037 100.499C106.086 100.011 106.51 99.6507 107.01 99.7014C108.594 99.8587 110.354 99.8587 111.939 99.7014C112.429 99.6334 112.865 100.009 112.914 100.499C112.962 100.989 112.605 101.427 112.115 101.475C111.263 101.559 110.375 101.601 109.474 101.601Z" fill="#F9A8A1"/>
<path fill-rule="evenodd" clip-rule="evenodd" d="M130.167 38.7707C130.167 38.7707 138.951 38.0227 138.951 46.4707C138.951 54.9187 138.951 53.8227 138.951 56.5453C138.951 59.268 139.878 61.4534 141.866 63.4774C141.866 63.4774 142.679 64.0374 142.643 65.828C142.607 67.6174 142.555 80.4147 142.555 80.4147C142.555 80.4147 143.751 71.756 146.597 70.4827C146.597 70.4827 147.018 51.0947 147.055 45.7453C147.091 40.396 145.995 35.5987 139.898 32.08L130.167 38.7707Z" fill="#3E3155"/>
<path fill-rule="evenodd" clip-rule="evenodd" d="M92.3365 38.7707C92.3365 38.7707 83.5525 38.0227 83.5525 46.4707C83.5525 54.9187 83.5525 53.8227 83.5525 56.5453C83.5525 59.268 82.6245 61.4534 80.6365 63.4774C80.6365 63.4774 79.8232 64.0374 79.8579 65.828C79.8965 67.6174 79.9485 80.4147 79.9485 80.4147C79.9485 80.4147 78.7525 71.756 75.9059 70.4827C75.9059 70.4827 75.4819 51.0947 75.4485 45.7453C75.4112 40.396 76.5085 35.5987 82.6045 32.08L92.3365 38.7707Z" fill="#3E3155"/>
<path fill-rule="evenodd" clip-rule="evenodd" d="M76.9273 30.6094C78.4526 39.0734 89.4219 38.724 92.3366 38.7707C102.258 38.9254 114.761 42.9174 123.778 42.8281C147.263 42.6041 146.842 22.1387 130.789 14.5467C130.789 14.5467 130.141 15.6774 131.405 17.7134C131.405 17.7134 118.643 4.78138 101.977 9.15605C101.977 9.15605 102.086 10.9641 105.702 12.6614C105.702 12.6614 99.8819 12.3414 94.1152 14.1694C88.3499 15.9974 83.0699 15.9227 83.0699 15.9227C83.0699 15.9227 83.0913 19.2974 86.9953 20.7867C82.3273 21.3947 78.6352 25.4854 74.6859 25.3654C74.6859 25.3654 75.3726 28.7587 79.4939 30.2654C79.4939 30.2654 78.2459 30.776 76.9273 30.6094Z" fill="#3E3155"/>
<path fill-rule="evenodd" clip-rule="evenodd" d="M118.222 42.4827C120.175 42.7094 122.042 42.8454 123.778 42.828C124.074 42.8254 124.365 42.8187 124.654 42.8081C136.615 40.3134 112.553 15.4227 86.9953 20.7867C82.3273 21.3947 78.6352 25.4854 74.6859 25.3654C74.6859 25.3654 75.3726 28.7587 79.4939 30.2654C91.7499 35.0894 130.879 36.5161 118.222 42.4827Z" fill="#595176"/>
<path d="M135.906 40.5346C135.753 40.5346 135.602 40.452 135.518 40.3066C135.398 40.092 135.474 39.82 135.687 39.7C138.482 38.1227 140.411 35.8707 141.266 33.188C141.342 32.956 141.597 32.828 141.826 32.8986C142.061 32.9746 142.19 33.224 142.115 33.4586C141.19 36.36 139.119 38.7867 136.125 40.4747L135.906 40.5346ZM86.0473 40.9827L85.8646 40.9426C82.2259 39.3026 78.7886 35.3253 78.6459 35.156C78.4846 34.972 78.5073 34.6906 78.6926 34.5306C78.8779 34.368 79.1619 34.388 79.3206 34.5786C79.3539 34.6173 82.7766 38.5733 86.2299 40.1306C86.4539 40.232 86.5553 40.4947 86.4526 40.7187C86.3779 40.884 86.2166 40.9827 86.0473 40.9827ZM138.951 56.5133C138.799 56.5133 138.654 56.436 138.57 56.3C138.442 56.092 138.509 55.816 138.717 55.688L146.747 50.7667C146.959 50.6387 147.231 50.7053 147.359 50.9133C147.489 51.1227 147.422 51.3986 147.214 51.5266L139.182 56.4453L138.951 56.5133ZM139.627 60.636C139.478 60.636 139.333 60.56 139.247 60.4253C139.119 60.2133 139.185 59.94 139.395 59.8107L146.665 55.3599C146.878 55.2293 147.15 55.296 147.278 55.5053C147.406 55.7133 147.341 55.9893 147.131 56.1173L139.861 60.5706L139.627 60.636Z" fill="#FCD1C8"/>
<path fill-rule="evenodd" clip-rule="evenodd" d="M109.474 83.1093C112.561 83.1093 115.083 85.6347 115.083 88.7187V91.3307C115.083 94.4173 112.561 96.9413 109.474 96.9413C106.389 96.9413 103.865 94.4173 103.865 91.3307V88.7187C103.865 85.6347 106.389 83.1093 109.474 83.1093Z" fill="#3E3155"/>
<path fill-rule="evenodd" clip-rule="evenodd" d="M114.63 93.5347C113.127 92.6187 111.362 92.0947 109.474 92.0947C107.586 92.0947 105.821 92.6187 104.318 93.5347C105.177 95.532 107.169 96.9413 109.474 96.9413C111.779 96.9413 113.771 95.532 114.63 93.5347Z" fill="#E95A59"/>
<path fill-rule="evenodd" clip-rule="evenodd" d="M105.507 84.7641C106.003 85.4321 106.798 85.8707 107.693 85.8707H111.255C112.15 85.8707 112.946 85.4321 113.442 84.7641C112.425 83.7441 111.021 83.1094 109.474 83.1094C107.93 83.1094 106.525 83.7441 105.507 84.7641Z" fill="white"/>
<path fill-rule="evenodd" clip-rule="evenodd" d="M127.45 59.5626H127.453C130.179 59.5626 132.413 61.7947 132.413 64.524V67.9587C132.413 70.6893 130.179 72.9213 127.453 72.9213H127.45C124.722 72.9213 122.489 70.6893 122.489 67.9587V64.524C122.489 61.7947 124.722 59.5626 127.45 59.5626Z" fill="#3E3155"/>
<path fill-rule="evenodd" clip-rule="evenodd" d="M94.1006 60.1614H94.0979C91.6379 60.1614 89.6219 62.1761 89.6219 64.6387V67.7361C89.6219 70.1987 91.6379 72.2107 94.0979 72.2107H94.1006C96.5606 72.2107 98.5753 70.1987 98.5753 67.7361V64.6387C98.5753 62.1761 96.5606 60.1614 94.1006 60.1614Z" fill="#3E3155"/>
<path fill-rule="evenodd" clip-rule="evenodd" d="M120.326 63.232C119.286 62.764 118.426 61.04 118.477 60.644C118.498 60.4774 118.607 60.4893 118.867 60.496C119.995 60.524 120.917 60.0347 121.93 59.6307C123.785 58.8934 127.282 57.5654 129.853 56.9827C133.515 56.152 135.399 58.888 136.443 60.4347C136.443 60.4347 136.782 61.0614 136.034 60.9254C135.283 60.7894 134.091 59.2094 132.286 59.3907C130.97 59.5214 126.377 61.5867 123.977 62.7013C122.687 63.2987 121.818 63.9013 120.326 63.232Z" fill="#3E3155"/>
<path fill-rule="evenodd" clip-rule="evenodd" d="M100.723 62.972C101.626 62.48 102.282 60.8733 102.209 60.5173C102.177 60.3706 102.081 60.388 101.843 60.412C100.837 60.5133 99.9712 60.1387 99.0312 59.8467C97.3126 59.308 94.0766 58.356 91.7246 58.0093C88.3726 57.5133 86.8672 60.104 86.0339 61.568C86.0339 61.568 85.7739 62.156 86.4379 61.9827C87.1033 61.808 88.0646 60.304 89.7032 60.3413C90.8966 60.3707 95.1699 61.912 97.4032 62.748C98.6046 63.196 99.4273 63.6787 100.723 62.972Z" fill="#3E3155"/>
<path fill-rule="evenodd" clip-rule="evenodd" d="M121.638 82.0493C122.236 82.0493 122.722 82.5347 122.722 83.1334C122.722 83.732 122.236 84.2173 121.638 84.2173C121.039 84.2173 120.555 83.732 120.555 83.1334C120.555 82.5347 121.039 82.0493 121.638 82.0493Z" fill="#F9A8A1"/>
<path d="M139.271 37.904L138.969 37.7867C138.787 37.6213 138.777 37.3387 138.943 37.1587C141.321 34.5693 142.242 31.1613 141.538 27.564C140.563 22.5707 136.667 17.972 131.074 15.18C131.031 15.6147 131.107 16.388 131.783 17.48C131.903 17.6693 131.859 17.9226 131.681 18.0626C131.501 18.204 131.246 18.1853 131.089 18.0266C130.961 17.8973 118.299 5.31998 102.09 9.58665C101.849 9.65199 101.61 9.5053 101.547 9.26797C101.485 9.0293 101.626 8.78669 101.865 8.72402C115.327 5.18802 126.393 12.8933 130.253 16.092C130.034 14.9907 130.383 14.3627 130.403 14.3253C130.519 14.1227 130.769 14.044 130.979 14.144C137.081 17.0293 141.354 21.9827 142.414 27.392C143.173 31.276 142.173 34.9587 139.599 37.7613L139.271 37.904ZM100.674 115.733L100.506 115.701C89.2219 111.089 80.5366 99.1987 77.8406 84.672C77.7952 84.4307 77.9552 84.1987 78.1979 84.1533C78.4379 84.108 78.6726 84.268 78.7166 84.5106C81.3166 98.5253 90.0032 110.445 100.842 114.876C101.07 114.969 101.179 115.229 101.086 115.456C101.015 115.629 100.849 115.733 100.674 115.733Z" fill="white"/>
</g>
<defs>
<clipPath id="clip0_1_1358">
<rect width="224" height="234" fill="white"/>
</clipPath>
</defs>
</svg>
