<svg width="224" height="234" viewBox="0 0 224 234" fill="none" xmlns="http://www.w3.org/2000/svg">
<g clip-path="url(#clip0_1_1358)">
<path fill-rule="evenodd" clip-rule="evenodd" d="M44.5339 206.995C41.6595 207.297 37.7428 206.5 37.4443 202.241C37.1433 197.984 41.5224 197.733 41.6057 197.865C41.6891 197.997 44.7161 203.409 44.7161 203.523L44.5339 206.995Z" fill="#4C466A"/>
<path fill-rule="evenodd" clip-rule="evenodd" d="M95.6775 145.293H130.295V128.676C132.427 127.971 134.675 127.109 134.675 127.109L133.239 125.299C133.239 125.299 130.295 124.009 130.295 120.248V88.2707H95.6775V120.248C95.6775 124.009 92.7321 125.299 92.7321 125.299L91.2961 127.109C91.2961 127.109 93.5415 127.971 95.6775 128.676V145.293Z" fill="#FCD1C8"/>
<path fill-rule="evenodd" clip-rule="evenodd" d="M95.6776 109.952V120.248C95.6776 121.845 95.1456 122.999 94.5336 123.793C99.9162 128.315 113.675 136.613 128.015 119.153L106.036 106.296C106.036 106.296 100.295 108.351 95.6776 109.952Z" fill="#F9A8A1"/>
<path fill-rule="evenodd" clip-rule="evenodd" d="M60.2787 136.679C61.6563 136.012 79.5902 129.047 92.7323 125.299C96.5696 129.127 107.354 138.124 112.984 138.124C118.348 138.124 129.402 129.127 133.239 125.299L164.339 133.252V195.032L163.31 206.867H65.1803L60.2787 136.679Z" fill="#FF0001"/>
<path fill-rule="evenodd" clip-rule="evenodd" d="M164.339 175.58V195.032L164.102 197.76C154.611 198.831 125.766 202.309 121.472 203.104C118.43 203.667 97.4723 205.845 80.6963 206.867H65.1803L64.1562 192.236C66.5032 187.611 68.7656 183.679 68.7656 183.679C68.7656 183.679 72.636 177.139 94.2229 185.093C115.808 193.049 138.536 193.485 154.66 178.4C159.266 174.092 162.331 173.801 164.339 175.58Z" fill="#CC0001"/>
<path fill-rule="evenodd" clip-rule="evenodd" d="M96.0842 189.236C96.0842 189.236 91.0788 188.377 85.2628 188.783C79.4484 189.189 71.2004 190.631 71.2004 190.631L68.2698 195.544L71.3364 205.101C71.3364 205.101 74.716 206.588 76.3827 205.46C78.0494 204.333 96.5788 194.373 96.0842 189.236Z" fill="#FCD1C8"/>
<path fill-rule="evenodd" clip-rule="evenodd" d="M70.9781 196.651C70.9781 196.651 71.3808 200.055 74.3543 203.661L82.7403 201.224L110.867 202.937L125.042 221.528C125.042 221.528 122.766 221.777 110.418 225.835C98.0656 229.892 88.8696 234.94 71.4704 236.293C54.0719 237.645 49.6543 234.94 47.9407 226.917C46.2281 218.892 39.3776 207.716 39.8281 196.988C40.2776 186.26 57.6771 186.168 57.6771 186.168C57.6771 186.168 71.2891 188.241 70.9781 196.651Z" fill="#FCD1C8"/>
<path fill-rule="evenodd" clip-rule="evenodd" d="M112.651 205.277L125.042 221.528C125.042 221.528 122.995 221.755 112.267 225.231C110.832 214.804 97.9829 209.492 97.9829 209.492L111.18 204.932C111.683 205.045 112.172 205.161 112.651 205.277Z" fill="#F9A8A1"/>
<path fill-rule="evenodd" clip-rule="evenodd" d="M40.3218 203.376C39.9365 201.247 39.7385 199.109 39.8281 196.988C40.1562 189.164 49.498 186.997 54.5318 186.397L59.5156 192.647C59.5156 192.647 46.1489 195.527 40.3218 203.376Z" fill="#F9A8A1"/>
<path fill-rule="evenodd" clip-rule="evenodd" d="M134.124 196.085L137.382 194.127C137.382 194.127 141.335 192.028 145.752 188.783C150.171 185.537 153.866 184.636 158.555 185.719C163.243 186.799 164.339 192.299 164.339 192.299C164.339 192.299 161.17 200.411 158.284 199.059C155.399 197.708 134.124 196.085 134.124 196.085Z" fill="#FCD1C8"/>
<path fill-rule="evenodd" clip-rule="evenodd" d="M187.273 188.944C187.273 188.944 184.475 210.473 177.331 220.364L153.792 194.033C153.792 194.033 152.704 188.111 153.781 182.995C154.86 177.877 154.86 177.877 154.86 177.877C154.86 177.877 175.775 174.179 176.765 174.721C177.757 175.263 187.224 183.375 187.273 188.944Z" fill="#FCD1C8"/>
<path fill-rule="evenodd" clip-rule="evenodd" d="M187.274 188.944C187.274 188.944 187.126 190.077 186.812 191.943C177.858 181.689 165.64 181.055 165.64 181.055L169.462 175.471C173.255 174.907 176.396 174.519 176.766 174.721C177.758 175.263 187.224 183.375 187.274 188.944Z" fill="#F9A8A1"/>
<path fill-rule="evenodd" clip-rule="evenodd" d="M188.492 188.224C188.38 171.381 182.718 138.192 164.339 133.252C164.339 133.252 156.579 144.411 156.036 166.947C156.036 166.947 152.071 175.423 152.792 181.732C152.792 181.732 152.836 182.633 153.782 182.995C153.782 182.995 176.094 175.781 187.274 188.944C187.274 188.944 188.512 189.192 188.492 188.224Z" fill="#FF0001"/>
<path fill-rule="evenodd" clip-rule="evenodd" d="M188.492 188.224C188.482 186.604 188.419 184.829 188.299 182.944C175.506 170.029 152.727 180.119 152.704 180.128C152.704 180.673 152.732 181.211 152.792 181.732C152.792 181.732 152.836 182.633 153.782 182.995C153.782 182.995 176.094 175.781 187.272 188.944C187.272 188.944 188.512 189.192 188.492 188.224Z" fill="#00FF00"/>
<path fill-rule="evenodd" clip-rule="evenodd" d="M60.2786 136.679C60.2786 136.679 45.3155 143.068 42.7005 157.041C40.0875 171.013 36.813 196.383 37.4442 202.241C41.2786 194.104 67.9218 188.34 70.9781 196.651C70.9781 196.651 72.6906 195.952 72.6906 194.509C72.6906 193.067 73.0917 170.116 68.2245 161.555C68.2245 161.555 68.5875 141.547 60.2786 136.679Z" fill="#FF0001"/>
<path fill-rule="evenodd" clip-rule="evenodd" d="M37.638 194.564C37.374 198.036 37.2838 200.763 37.4442 202.241C41.2786 194.101 67.9218 188.34 70.9781 196.651C70.9781 196.651 72.6906 195.952 72.6906 194.509C72.6906 194.203 72.7089 192.912 72.6906 190.993C55.5937 180.517 37.638 194.564 37.638 194.564Z" fill="#00FF00"/>
<path fill-rule="evenodd" clip-rule="evenodd" d="M96.0842 189.236C96.0842 189.236 111.498 192.84 123.848 194.104C136.198 195.367 155.402 191.039 166.039 197.348C176.678 203.661 178.842 211.864 178.842 215.559C178.842 219.255 175.594 225.205 167.211 226.379C158.827 227.549 138.274 226.829 122.315 220.517C106.359 214.208 92.2949 204.289 74.3542 203.661L96.0842 189.236Z" fill="#FCD1C8"/>
<path d="M166.039 197.793L165.811 197.731C162.502 195.769 158.364 194.851 153.836 194.477L153.675 194.465C148.796 194.072 143.472 194.305 138.242 194.536L137.342 194.575C137.044 194.591 136.887 194.395 136.875 194.149C136.866 193.903 137.056 193.695 137.303 193.684L138.203 193.645C143.292 193.424 148.466 193.197 153.259 193.539C153.016 191.915 152.447 187.175 153.347 182.903C153.396 182.664 153.632 182.505 153.875 182.559C154.115 182.609 154.268 182.845 154.219 183.087C153.318 187.364 153.968 192.287 154.172 193.611C158.719 194.009 162.886 194.96 166.266 196.965C166.476 197.091 166.547 197.364 166.422 197.575C166.339 197.716 166.191 197.793 166.039 197.793ZM125.011 221.963L124.864 221.939C123.948 221.619 123.042 221.284 122.151 220.932C117.536 219.107 113.022 216.953 108.654 214.872C97.5269 209.564 87.0163 204.552 74.3437 204.107C74.2005 204.109 69.0729 204.069 64.2776 206.617C64.0641 206.733 63.7923 206.653 63.6761 206.435C63.56 206.216 63.6433 205.947 63.86 205.833C67.7308 203.773 71.7141 203.332 73.4589 203.237C70.9339 199.849 70.5527 196.839 70.5371 196.705C70.5068 196.46 70.6813 196.239 70.9251 196.211C71.1615 196.179 71.3912 196.353 71.4199 196.599C71.4235 196.629 71.8401 199.829 74.5729 203.223C87.3469 203.721 98.3723 208.981 109.036 214.067C113.391 216.143 117.892 218.288 122.479 220.104C123.359 220.452 124.252 220.783 125.156 221.096C125.388 221.176 125.511 221.432 125.432 221.664C125.367 221.847 125.196 221.963 125.011 221.963Z" fill="#F9A8A1"/>
<path d="M70.9781 197.097C70.8037 197.097 70.638 196.993 70.5666 196.821C70.4745 196.593 70.5813 196.333 70.8089 196.239C70.8229 196.233 72.2448 195.631 72.2448 194.509L72.248 194.189C72.3026 186.871 71.9808 169.063 67.8376 161.773L67.7786 161.545C67.7802 161.512 67.8313 158.312 67.3756 154.231C67.3489 153.987 67.5266 153.767 67.7698 153.737C68.0188 153.725 68.2344 153.888 68.2636 154.132C68.386 155.245 68.4745 156.295 68.5338 157.236L69.136 156.401C69.2786 156.2 69.5589 156.156 69.7568 156.301C69.9557 156.444 70.0032 156.723 69.8573 156.923L68.6109 158.651C68.6734 160.088 68.6734 161.101 68.6718 161.44C72.8652 168.98 73.1933 186.84 73.138 194.195L73.136 194.509C73.136 196.232 71.2266 197.031 71.1464 197.064L70.9781 197.097Z" fill="#CC0001"/>
<path fill-rule="evenodd" clip-rule="evenodd" d="M88.4149 126.588C90.0243 129.097 92.6616 131.916 95.6776 134.557C101.706 139.847 109.23 144.436 112.984 144.436C116.62 144.436 124.099 139.624 130.295 134.181C133.239 131.595 135.894 128.865 137.708 126.443L133.239 125.299C129.402 129.127 118.348 138.124 112.984 138.124C107.354 138.124 96.5696 129.127 92.7323 125.299C91.3389 125.697 89.8909 126.129 88.4149 126.588Z" fill="#00FF00"/>
<path d="M153.782 183.44L153.624 183.411C152.419 182.952 152.35 181.803 152.347 181.755C151.651 175.687 155.154 167.804 155.594 166.844C155.643 164.809 155.756 162.791 155.928 160.808L155.03 159.353C154.899 159.143 154.964 158.869 155.174 158.739C155.386 158.613 155.659 158.676 155.787 158.885L156.068 159.34C156.156 158.493 156.255 157.652 156.364 156.82C156.396 156.579 156.596 156.4 156.864 156.437C157.108 156.471 157.28 156.695 157.248 156.939C156.82 160.169 156.563 163.541 156.482 166.959L156.44 167.137C156.402 167.221 152.535 175.572 153.235 181.681C153.242 181.771 153.302 182.333 153.94 182.579C154.172 182.667 154.287 182.924 154.198 183.153C154.131 183.332 153.962 183.44 153.782 183.44Z" fill="#CC0001"/>
<path d="M164.342 133.699L164.23 133.684L138.156 127.016C137.919 126.955 137.775 126.712 137.835 126.473C137.896 126.236 138.135 126.101 138.378 126.152L164.451 132.821C164.69 132.883 164.834 133.124 164.772 133.364C164.722 133.564 164.539 133.699 164.342 133.699ZM162.172 135.012L162.06 135L137.087 128.613C136.85 128.552 136.706 128.309 136.766 128.071C136.826 127.833 137.068 127.695 137.307 127.749L162.282 134.135C162.52 134.197 162.664 134.44 162.603 134.679C162.552 134.88 162.37 135.012 162.172 135.012ZM60.2786 137.124C60.1152 137.124 59.9546 137.032 59.8776 136.872C59.7709 136.651 59.862 136.385 60.0849 136.277C61.3989 135.64 75.8828 130.031 88.0389 126.239C88.2762 126.16 88.5255 126.296 88.5975 126.531C88.6722 126.765 88.5389 127.016 88.3056 127.088C76.1854 130.869 61.7766 136.447 60.4729 137.077L60.2786 137.124ZM62.4999 138.293C62.3365 138.293 62.177 138.203 62.0989 138.043C61.9927 137.821 62.0849 137.555 62.3078 137.447C63.5729 136.833 77.4641 131.455 89.0856 127.833C89.3189 127.755 89.5709 127.889 89.6416 128.124C89.7162 128.359 89.5856 128.611 89.3509 128.681C77.7656 132.293 63.9494 137.64 62.6953 138.249L62.4999 138.293Z" fill="#4C466A"/>
<path fill-rule="evenodd" clip-rule="evenodd" d="M147.398 58.9001V82.3121C147.398 102.044 133.948 123.627 113.503 123.627C93.0576 123.627 79.6084 102.044 79.6084 82.3121V58.9001C79.6084 14.3588 147.398 14.3588 147.398 58.9001Z" fill="#FCD1C8"/>
<path fill-rule="evenodd" clip-rule="evenodd" d="M91.0309 49.2361C104.39 47.0294 135.152 59.9108 139.088 50.0974C140.368 46.9054 104.515 39.9974 91.0309 49.2361Z" fill="#F9A8A1"/>
<path fill-rule="evenodd" clip-rule="evenodd" d="M81.4642 94.7134C71.1433 94.176 70.2709 75.8827 76.2322 76.2854C81.1936 76.6187 82.2322 79.7827 82.5616 81.112C82.8909 82.44 81.4642 94.7134 81.4642 94.7134Z" fill="#FCD1C8"/>
<path fill-rule="evenodd" clip-rule="evenodd" d="M145.536 94.7134C155.858 94.176 156.73 75.8827 150.768 76.2854C145.807 76.6187 144.768 79.7827 144.438 81.112C144.111 82.44 145.536 94.7134 145.536 94.7134Z" fill="#FCD1C8"/>
<path fill-rule="evenodd" clip-rule="evenodd" d="M114.843 75.2361C114.93 75.6067 114.927 76.0148 114.815 76.3121C114.034 78.4134 110.595 87.4321 110.698 88.5961C110.922 90.0867 115.19 90.8974 117.444 90.8507C118.844 90.8227 117.472 95.7561 115.156 95.2227C112.688 94.6587 108.924 91.7961 108.5 88.9401C108.295 87.5641 110.479 81.2814 112.075 77.0414C112.483 75.9521 112.134 74.8881 111.918 74.1907C111.364 72.3667 114.56 74.0107 114.843 75.2361Z" fill="#F9A8A1"/>
<path d="M148.808 88.8987C148.591 88.8987 148.402 88.7413 148.367 88.52C148.071 86.5333 148.404 83.7187 149.235 81.1667C149.998 78.8333 150.87 78.4614 151.464 78.5774C152.399 78.7467 152.967 80.1787 152.878 82.14C152.867 82.38 152.67 82.5667 152.432 82.5667L152.415 82.5653C152.168 82.5547 151.976 82.3467 151.988 82.1014C152.063 80.4347 151.591 79.5053 151.306 79.4533C151.158 79.412 150.639 79.736 150.083 81.4454C149.899 82.0054 149.742 82.584 149.611 83.164C150.263 83.4267 151.328 84.1933 151.286 86.4187C151.28 86.664 151.071 86.88 150.831 86.856C150.586 86.8507 150.388 86.6467 150.394 86.4C150.424 84.856 149.839 84.2707 149.431 84.052C149.146 85.6507 149.074 87.2067 149.251 88.388C149.286 88.632 149.119 88.8573 148.875 88.8947L148.808 88.8987Z" fill="#F9A8A1"/>
<path d="M78.1953 88.8987L78.1292 88.8947C77.886 88.8573 77.7177 88.6293 77.7552 88.388C77.9322 87.2067 77.86 85.6507 77.5745 84.0547C77.1646 84.276 76.5813 84.8613 76.61 86.4C76.6152 86.6467 76.4198 86.8507 76.1734 86.856C75.9505 86.8867 75.7245 86.664 75.7193 86.4187C75.6761 84.1933 76.7428 83.4267 77.3948 83.164C77.2656 82.584 77.1073 82.0054 76.9234 81.4454C76.3661 79.736 75.8229 79.412 75.7005 79.4533C75.4146 79.5053 74.9433 80.4347 75.0172 82.1014C75.0286 82.3467 74.8385 82.5547 74.5917 82.5653C74.3297 82.628 74.138 82.388 74.1276 82.14C74.039 80.1787 74.6073 78.7467 75.5422 78.5774C76.1433 78.4614 77.0084 78.8333 77.7709 81.1667C78.6021 83.7187 78.9322 86.5347 78.636 88.52C78.6032 88.7413 78.413 88.8987 78.1953 88.8987Z" fill="#F9A8A1"/>
<path fill-rule="evenodd" clip-rule="evenodd" d="M130.318 72.8307H130.32C132.783 72.8307 134.8 74.8454 134.8 77.3094V80.0347C134.8 82.4974 132.783 84.5121 130.32 84.5121H130.318C127.855 84.5121 125.839 82.4974 125.839 80.0347V77.3094C125.839 74.8454 127.855 72.8307 130.318 72.8307Z" fill="#4C466A"/>
<path fill-rule="evenodd" clip-rule="evenodd" d="M96.6856 72.8307H96.6882C99.1482 72.8307 101.166 74.8454 101.166 77.3094V80.0347C101.166 82.4974 99.1482 84.5121 96.6882 84.5121H96.6856C94.2229 84.5121 92.2069 82.4974 92.2069 80.0347V77.3094C92.2069 74.8454 94.2229 72.8307 96.6856 72.8307Z" fill="#4C466A"/>
<path d="M113.503 101.304C110.055 101.304 106.805 100.94 104.099 100.255C103.623 100.133 103.333 99.6494 103.456 99.1721C103.576 98.6947 104.073 98.3987 104.536 98.5281C109.596 99.8121 117.427 99.8094 122.467 98.5281C122.937 98.3987 123.429 98.6947 123.549 99.1707C123.672 99.6494 123.383 100.133 122.907 100.255C120.205 100.94 116.955 101.304 113.503 101.304Z" fill="#F9A8A1"/>
<path d="M113.503 105.159C112.273 105.159 111.052 105.109 109.872 105.015C109.383 104.977 109.019 104.548 109.058 104.056C109.096 103.564 109.536 103.195 110.016 103.239C112.281 103.419 114.73 103.419 116.99 103.239C117.468 103.191 117.909 103.564 117.948 104.056C117.988 104.548 117.623 104.977 117.133 105.015C115.953 105.109 114.732 105.159 113.503 105.159Z" fill="#F9A8A1"/>
<path fill-rule="evenodd" clip-rule="evenodd" d="M146.885 34.5801C164.153 36.2267 149.848 68.04 148.763 76.6187C146.193 77.8974 145.112 86.5907 145.112 86.5907C145.112 86.5907 145.458 75.3627 145.49 73.5667C145.49 73.5667 145.36 71.8307 144.869 70.9587C144.383 70.0867 141.682 65.992 141.342 64.856C140.998 63.704 141.844 53.4 138.568 51.7054C138.307 51.568 145.185 34.7374 146.885 34.5801Z" fill="#DD8C79"/>
<path fill-rule="evenodd" clip-rule="evenodd" d="M121.265 70.1467C121.204 69.9894 121.17 69.828 121.159 69.684C121.148 69.5227 121.166 69.3747 121.207 69.264C121.279 69.0747 121.404 68.976 121.572 69.0107C121.691 69.036 122.145 68.9321 122.76 68.7627C126.299 67.7907 130.24 65.9427 133.787 66.1241C136.672 66.2707 139.391 68.948 139.399 68.9547L139.468 69.2654C139.425 69.4054 139.303 69.4774 139.19 69.4241C138.594 69.1481 137.951 69 137.18 68.992C133.755 68.952 127.913 70.5574 124.663 71.0414C123.664 71.192 121.797 71.544 121.265 70.1467Z" fill="#DD8C79"/>
<path fill-rule="evenodd" clip-rule="evenodd" d="M105.742 70.1467C105.802 69.9894 105.836 69.828 105.846 69.684C105.858 69.5227 105.84 69.3747 105.799 69.264C105.727 69.0747 105.602 68.976 105.432 69.0107C105.315 69.036 104.86 68.9321 104.246 68.7627C100.708 67.7907 96.7656 65.9427 93.2189 66.1241C90.3336 66.2707 87.6149 68.948 87.6069 68.9547H87.6083L87.5376 69.2654C87.5803 69.4054 87.7029 69.4774 87.8149 69.4241C88.4096 69.1481 89.0549 69 89.8256 68.992C93.2509 68.952 99.0936 70.5574 102.343 71.0414C103.344 71.192 105.208 71.544 105.742 70.1467Z" fill="#DD8C79"/>
<path fill-rule="evenodd" clip-rule="evenodd" d="M129.104 116.872H129.102C127.25 118.069 124.622 119.452 121.571 120.452C120.283 120.716 117.156 120.069 115.696 120.069C114.235 120.069 113.503 120.069 113.503 120.069C113.503 120.069 112.771 120.069 111.31 120.069C109.85 120.069 106.723 120.716 105.434 120.452C102.384 119.452 99.7576 118.069 97.9016 116.872H97.9002C97.8482 116.845 97.0136 116.428 96.0869 116.46C95.6376 116.479 95.0816 116.479 94.6202 116.476C99.8322 120.889 106.224 123.627 113.503 123.627C120.782 123.627 127.172 120.889 132.386 116.476C131.924 116.479 131.368 116.479 130.918 116.46C129.992 116.428 129.156 116.845 129.104 116.872Z" fill="#DD8C79"/>
<path fill-rule="evenodd" clip-rule="evenodd" d="M75.498 44.4814C70.11 48.3907 77.1562 68.04 78.2412 76.6187C80.8096 77.8974 81.8922 86.5907 81.8922 86.5907C81.8922 86.5907 81.5469 75.3627 81.5136 73.5667C81.5136 73.5667 81.6456 71.8307 82.1336 70.9587C82.6202 70.0867 85.6962 65.1427 86.0349 64.0054C86.3802 62.8534 85.0682 53.3774 85.8429 50.784C85.9269 50.5027 77.1985 44.6374 75.498 44.4814Z" fill="#DD8C79"/>
<path fill-rule="evenodd" clip-rule="evenodd" d="M75.4979 44.4813C74.1255 45.4787 73.5599 47.4973 73.4979 50.0973C75.6119 52.1587 79.326 54.1733 85.5935 53.4947C85.5962 52.3507 85.6642 51.3827 85.8429 50.784C85.9269 50.5027 77.1985 44.6373 75.4979 44.4813Z" fill="#9D5851"/>
<path fill-rule="evenodd" clip-rule="evenodd" d="M85.5936 53.4948C104.456 42.3361 121.044 53.8748 138.568 51.7054L142.422 48.6401L146.886 34.5801C145.076 12.2041 115.506 4.08012 125.546 12.7628C122.307 11.6241 96.5443 2.19077 101.244 12.8828C89.7776 8.95211 70.7943 12.4294 78.3808 27.8481C67.5032 25.0201 69.1552 49.4174 85.5936 53.4948Z" fill="#DD8C79"/>
<path fill-rule="evenodd" clip-rule="evenodd" d="M138.568 51.7054C127.088 49.6267 121.763 21.2161 101.244 12.8827C89.7776 8.95205 70.7943 12.4294 78.3808 27.848C92.3349 31.5547 102.499 45.7787 118.49 50.1787C121.29 50.664 124.08 51.1574 126.876 51.5054C130.751 51.988 134.638 52.1907 138.568 51.7054Z" fill="#D69283"/>
<path d="M145.339 34.3147L145.291 34.312C145.047 34.284 144.87 34.064 144.896 33.82C146.36 20.6494 137.063 13.6481 136.97 13.5774C136.771 13.4334 136.727 13.1534 136.874 12.9547C137.019 12.7547 137.298 12.7134 137.496 12.8614C137.594 12.9334 147.303 20.2427 145.783 33.9187C145.758 34.1454 145.564 34.3147 145.339 34.3147Z" fill="#DD8C79"/>
<path d="M77.1119 49.0614L76.7932 48.9268C71.0187 42.9935 69.7603 34.0988 72.2427 29.8281C73.4114 27.8201 75.289 26.9295 77.6021 27.2388C74.9797 21.3361 76.5171 17.6761 78.327 15.6215C82.9508 10.3721 93.8962 9.89348 101.388 12.4601C101.62 12.5415 101.746 12.7934 101.664 13.0254C101.586 13.2574 101.331 13.3855 101.099 13.3028C93.8495 10.8148 83.2348 11.3935 78.9947 16.2108C76.5083 19.0361 76.4354 22.8855 78.7802 27.6521C78.8557 27.8068 78.8349 27.9948 78.7245 28.1295C78.6151 28.2655 78.4365 28.3228 78.2687 28.2788C75.9365 27.6748 74.1223 28.3668 73.0135 30.2761C70.6906 34.2708 71.9354 42.6588 77.4322 48.3068C77.6042 48.4841 77.5989 48.7654 77.4234 48.9374L77.1119 49.0614ZM94.2855 116.637L93.9922 116.528C87.9815 111.307 83.3575 103.659 80.9629 95.1188C77.8989 94.7934 75.3427 92.8761 73.7307 89.6761C71.6984 85.6428 71.5155 80.1481 73.3209 77.4268C74.063 76.3094 75.0848 75.7628 76.2603 75.8401C76.5051 75.8561 76.6933 76.0695 76.675 76.3148C76.6594 76.5601 76.4505 76.7521 76.2021 76.7281C75.3437 76.6721 74.6255 77.0721 74.063 77.9188C72.6203 80.0948 72.4624 85.1761 74.5266 89.2761C75.5422 91.2921 77.4234 93.7028 80.7122 94.1908C80.4402 93.1401 80.2002 92.0775 79.9975 91.0041C79.9508 90.7628 80.1095 90.5308 80.3522 90.4841C80.6015 90.4294 80.8255 90.5975 80.8722 90.8375C81.0949 92.0095 81.3602 93.1708 81.6668 94.3161C81.8175 94.3921 81.9175 94.5548 81.9082 94.7361L81.8415 94.9495C84.1948 103.295 88.7108 110.76 94.5788 115.856C94.7628 116.016 94.7829 116.299 94.6229 116.484C94.5335 116.585 94.4095 116.637 94.2855 116.637Z" fill="white"/>
<path d="M187.598 189.419C187.386 189.419 187.223 189.389 187.187 189.381C186.946 189.333 186.79 189.1 186.838 188.859C186.884 188.616 187.12 188.468 187.36 188.507C187.544 188.541 187.868 188.539 187.987 188.439C188.004 188.424 188.05 188.385 188.047 188.233C187.958 174.813 183.503 138.864 164.224 133.681L133.128 125.731C132.89 125.668 132.747 125.427 132.807 125.188C132.867 124.951 133.104 124.815 133.35 124.867L164.45 132.821C184.271 138.149 188.847 174.619 188.938 188.223C188.948 188.693 188.738 188.972 188.559 189.121C188.268 189.363 187.888 189.419 187.598 189.419ZM37.4442 202.688C37.2193 202.688 37.0266 202.517 36.9999 202.291C36.3521 196.264 39.7213 170.549 42.2635 156.957C44.8911 142.915 59.9521 136.333 60.1031 136.268C61.4693 135.607 79.3469 128.653 92.6095 124.871C92.8495 124.804 93.0909 124.94 93.1615 125.176C93.2295 125.413 93.0909 125.66 92.8549 125.727C79.6359 129.497 61.8489 136.413 60.4729 137.08C60.3046 137.151 45.677 143.555 43.1379 157.121C40.6073 170.661 37.2463 196.24 37.887 202.195C37.913 202.44 37.7359 202.659 37.4927 202.685L37.4442 202.688Z" fill="white"/>
</g>
<defs>
<clipPath id="clip0_1_1358">
<rect width="224" height="234" fill="white"/>
</clipPath>
</defs>
</svg>
