<svg width="224" height="234" viewBox="0 0 224 234" fill="none" xmlns="http://www.w3.org/2000/svg">
<g clip-path="url(#clip0_1_1358)">
<path fill-rule="evenodd" clip-rule="evenodd" d="M94.7369 145.085H129.354V128.468C131.486 127.763 133.734 126.901 133.734 126.901L132.298 125.091C132.298 125.091 129.354 123.801 129.354 120.041V88.0627H94.7369V120.041C94.7369 123.801 91.7916 125.091 91.7916 125.091L90.3556 126.901C90.3556 126.901 92.6009 127.763 94.7369 128.468V145.085Z" fill="#DD8C79"/>
<path fill-rule="evenodd" clip-rule="evenodd" d="M94.737 109.744V120.041C94.737 121.637 94.205 122.791 93.593 123.585C98.9757 128.107 112.734 136.407 127.074 118.947L105.096 106.088C105.096 106.088 99.3543 108.143 94.737 109.744Z" fill="#BC6D69"/>
<path fill-rule="evenodd" clip-rule="evenodd" d="M144.72 57.896C144.72 65.5413 144.874 76.0987 144.709 83.772C144.674 90.3493 144.77 90.6013 141.846 97.1293C133.392 116.008 128.089 119.125 112.477 119.125C96.8623 119.125 91.5597 116.008 83.1037 97.1293C80.1823 90.6013 80.2783 90.3493 80.2423 83.772C80.0757 76.0987 80.2317 65.5413 80.2317 57.896C80.2317 36.7347 96.3543 26.152 112.477 26.152C128.596 26.152 144.72 36.7347 144.72 57.896Z" fill="#DD8C79"/>
<path fill-rule="evenodd" clip-rule="evenodd" d="M81.997 90.656C72.1766 90.1227 71.3485 71.828 77.0184 72.2293C81.7397 72.5653 82.7277 75.7293 83.0384 77.0573C83.353 78.3853 81.997 90.656 81.997 90.656Z" fill="#DD8C79"/>
<path fill-rule="evenodd" clip-rule="evenodd" d="M142.949 90.656C152.766 90.1227 153.596 71.828 147.926 72.2293C143.208 72.5653 142.217 75.7293 141.906 77.0573C141.593 78.3853 142.949 90.656 142.949 90.656Z" fill="#DD8C79"/>
<path d="M146.064 84.844C145.846 84.844 145.654 84.6814 145.622 84.46C145.341 82.4787 145.654 79.664 146.445 77.1187C147.026 75.2507 147.734 74.36 148.581 74.5187C149.628 74.7 150.026 76.4427 149.956 78.0853C149.945 78.3307 149.773 78.5307 149.489 78.512C149.245 78.5 149.054 78.292 149.065 78.0467C149.141 76.276 148.641 75.4334 148.426 75.3974L148.42 75.396C148.297 75.396 147.814 75.7107 147.297 77.3827C147.121 77.948 146.97 78.5294 146.845 79.116C147.472 79.3827 148.48 80.1534 148.44 82.3614C148.436 82.6067 148.237 82.7987 147.994 82.7987H147.986C147.741 82.7934 147.545 82.592 147.549 82.3467C147.577 80.8467 147.056 80.2494 146.673 80.0147C146.406 81.608 146.336 83.1574 146.505 84.336C146.54 84.5774 146.37 84.804 146.128 84.8387L146.064 84.844Z" fill="#BC6D69"/>
<path d="M78.8875 84.844L78.825 84.8387C78.5803 84.804 78.4116 84.5774 78.4474 84.336C78.6141 83.1574 78.5454 81.608 78.2787 80.0147C77.8959 80.2494 77.375 80.844 77.4012 82.3467C77.4048 82.592 77.2094 82.7934 76.9637 82.7987H76.9558C76.7121 82.7987 76.5152 82.6067 76.51 82.3614C76.4709 80.1534 77.4793 79.3827 78.1069 79.116C77.9803 78.5294 77.8293 77.948 77.6531 77.3827C77.1355 75.7107 76.6532 75.396 76.5308 75.396L76.5235 75.3974C76.311 75.4334 75.8094 76.276 75.8856 78.0467C75.896 78.292 75.7058 78.5 75.4605 78.512C75.1563 78.5294 75.0048 78.3307 74.9949 78.0854C74.9246 76.4427 75.323 74.7 76.3694 74.5187C77.2277 74.3627 77.9256 75.2493 78.5048 77.1187C79.2957 79.6667 79.6117 82.48 79.3277 84.46C79.297 84.6814 79.1063 84.844 78.8875 84.844Z" fill="#BC6D69"/>
<path fill-rule="evenodd" clip-rule="evenodd" d="M112.477 20.8054C150.65 20.8054 145.812 47.8174 145.812 72.632C145.812 72.632 144.72 72.58 144.72 76.508C143.233 71.9014 145.461 62.1947 141.9 59.4294C139.382 57.4734 139.213 54.26 140.005 51C140.562 48.7 140.213 42.5174 136.385 42.5174C135.734 42.5174 123.926 42.3774 112.477 42.38C101.024 42.3774 89.217 42.5174 88.5676 42.5174C84.737 42.5174 84.3876 48.7 84.9463 51C85.7383 54.26 85.569 57.4734 83.0503 59.4294C79.4916 62.1947 81.7183 71.9014 80.2316 76.508C80.2316 72.58 79.141 72.632 79.141 72.632C79.141 47.8174 74.299 20.8054 112.477 20.8054Z" fill="#0000FF"/>
<path fill-rule="evenodd" clip-rule="evenodd" d="M131.784 42.4613C145.421 36.9347 143.82 15.9027 139.049 22.432C139.049 22.432 141.921 10.836 132.77 8.10134C123.622 5.36667 115.641 13.664 115.641 13.664C115.641 13.664 115.101 8.10135 110.885 10.7413C110.885 10.7413 104.338 4.42399 95.3677 8.85466C86.3984 13.288 87.1157 23.1867 87.1157 23.1867C80.5984 18.9707 79.7837 42.5027 91.5984 42.5027C99.7597 42.5027 131.784 42.4613 131.784 42.4613Z" fill="#0000FF"/>
<path fill-rule="evenodd" clip-rule="evenodd" d="M128.172 117.58C125.266 122.105 119.698 125.656 112.477 125.656C105.256 125.656 99.685 122.105 96.7796 117.58C96.3663 116.807 96.2596 115.383 98.1063 115.779C99.9503 116.176 102.322 117.899 102.322 117.899C103.538 116.556 107.109 118.804 107.109 118.804C107.412 117.249 110.817 118.819 110.817 118.819C111.569 117.823 113.382 117.823 114.133 118.819C114.133 118.819 117.54 117.249 117.844 118.804C117.844 118.804 121.412 116.556 122.629 117.899C122.629 117.899 125 116.176 126.846 115.779C128.692 115.383 128.585 116.807 128.172 117.58Z" fill="#3E3155"/>
<path fill-rule="evenodd" clip-rule="evenodd" d="M77.5594 86.3413L78.8589 86.7053C79.145 86.788 79.3197 87.088 79.2477 87.3747L78.549 90.1093C78.4761 90.3973 78.1834 90.5667 77.8959 90.4867L76.5965 90.12C76.3094 90.0387 76.1365 89.7387 76.2105 89.4507L76.9063 86.716C76.9803 86.4294 77.2735 86.26 77.5594 86.3413Z" fill="white"/>
<path fill-rule="evenodd" clip-rule="evenodd" d="M147.393 86.3413L146.09 86.7053C145.806 86.788 145.633 87.088 145.705 87.3747L146.404 90.1093C146.476 90.3973 146.768 90.5667 147.054 90.4867L148.354 90.12C148.641 90.0387 148.813 89.7387 148.742 89.4507L148.044 86.716C147.972 86.4294 147.677 86.26 147.393 86.3413Z" fill="white"/>
<path fill-rule="evenodd" clip-rule="evenodd" d="M139.049 22.432C139.049 22.432 141.425 12.8346 134.966 9.04398C134.966 9.04398 140.729 13.6373 133.874 25.464C133.644 25.8613 133.398 26.268 133.141 26.68C132.194 28.1893 131.169 29.5653 130.1 30.812C123.085 39.0067 114.109 41.8307 112.101 42.38C111.836 42.4533 111.692 42.4853 111.692 42.4853C119.716 42.4773 127.56 42.468 130.533 42.4627C131.336 42.4627 131.784 42.4613 131.784 42.4613C134.461 41.3773 136.549 39.6947 138.144 37.7413C139.454 36.1347 140.429 34.344 141.122 32.5493C143.869 25.4133 142.113 18.2387 139.049 22.432Z" fill="white" fill-opacity="0.2"/>
<path fill-rule="evenodd" clip-rule="evenodd" d="M128.434 69.5827H128.437C130.9 69.5827 132.916 71.5987 132.916 74.064V76.788C132.916 79.252 130.9 81.2667 128.437 81.2667H128.434C125.972 81.2667 123.956 79.252 123.956 76.788V74.064C123.956 71.5987 125.972 69.5827 128.434 69.5827Z" fill="#3E3155"/>
<path fill-rule="evenodd" clip-rule="evenodd" d="M96.5183 69.5827H96.5156C94.0516 69.5827 92.0356 71.5987 92.0356 74.064V76.788C92.0356 79.252 94.0516 81.2667 96.5156 81.2667H96.5183C98.9796 81.2667 100.996 79.252 100.996 76.788V74.064C100.996 71.5987 98.9796 69.5827 96.5183 69.5827Z" fill="#3E3155"/>
<path fill-rule="evenodd" clip-rule="evenodd" d="M113.009 73.232C113.081 73.5427 113.078 73.8854 112.985 74.1347C112.328 75.8987 109.44 83.4747 109.528 84.4534C109.716 85.7054 113.3 86.388 115.194 86.348C116.369 86.3227 115.217 90.468 113.273 90.0173C111.198 89.5467 108.036 87.14 107.681 84.7414C107.509 83.5854 109.341 78.3094 110.682 74.7454C111.028 73.8334 110.732 72.94 110.552 72.3507C110.088 70.82 112.772 72.2 113.009 73.232Z" fill="#BC6D69"/>
<path fill-rule="evenodd" clip-rule="evenodd" d="M102.31 66.8693C104.253 67.312 105.521 64.3387 105.597 64.172L105.622 64.0467C105.609 63.9213 105.453 63.3987 105.325 63.4107C105.325 63.4107 104.945 63.8613 104.12 63.6973C103.628 63.6 99.8196 62.6093 96.3783 61.716C94.8663 61.3227 91.3329 60.4227 89.8609 60.588C88.1996 60.7733 87.8769 62.4587 87.4236 63.8307L87.4849 64.0787L87.8063 64.06C88.4609 63.324 89.3049 63.236 90.2969 63.2787C92.7569 63.3813 99.1663 66.1533 102.31 66.8693Z" fill="#3E3155"/>
<path fill-rule="evenodd" clip-rule="evenodd" d="M90.3117 60.1533C90.141 60.008 89.8797 60.028 89.7344 60.2013C89.589 60.3747 89.6104 60.6333 89.7824 60.7813L95.217 65.3747C95.3904 65.52 95.649 65.5 95.7957 65.328C95.941 65.1533 95.921 64.896 95.7477 64.7493L90.3117 60.1533Z" fill="#DD8C79"/>
<path fill-rule="evenodd" clip-rule="evenodd" d="M122.641 67.3774C120.7 67.82 119.43 64.8467 119.357 64.68L119.33 64.5547C119.342 64.4293 119.5 63.9067 119.626 63.9187C119.628 63.9187 120.006 64.3694 120.83 64.2054C121.324 64.1094 125.133 63.1174 128.573 62.224C130.085 61.8307 133.617 60.932 135.09 61.096C136.753 61.2827 137.076 62.9654 137.529 64.3387L137.466 64.5853L137.145 64.568C136.492 63.8307 135.648 63.744 134.654 63.7867C132.196 63.888 125.785 66.6614 122.641 67.3774Z" fill="#3E3155"/>
<path d="M112.477 109.185C111.557 109.185 110.636 109.14 109.734 109.052C109.245 109.005 108.888 108.569 108.934 108.079C108.982 107.588 109.424 107.212 109.909 107.28C111.593 107.445 113.362 107.445 115.041 107.28C115.518 107.212 115.966 107.588 116.016 108.079C116.062 108.569 115.705 109.005 115.216 109.052C114.318 109.14 113.396 109.185 112.477 109.185Z" fill="#BC6D69"/>
<path fill-rule="evenodd" clip-rule="evenodd" d="M112.477 93.2013C115.148 93.2013 117.333 95.388 117.333 98.06V100.32C117.333 102.992 115.148 105.179 112.477 105.179C109.804 105.179 107.617 102.992 107.617 100.32V98.06C107.617 95.388 109.804 93.2013 112.477 93.2013Z" fill="#3E3155"/>
<path fill-rule="evenodd" clip-rule="evenodd" d="M116.941 102.227C115.641 101.436 114.112 100.979 112.477 100.979C110.841 100.979 109.312 101.436 108.01 102.227C108.756 103.959 110.478 105.179 112.477 105.179C114.472 105.179 116.198 103.959 116.941 102.227Z" fill="#E95A59"/>
<path fill-rule="evenodd" clip-rule="evenodd" d="M109.041 94.632C109.469 95.2133 110.158 95.5907 110.932 95.5907H114.018C114.793 95.5907 115.481 95.2133 115.912 94.632C115.032 93.7493 113.814 93.2013 112.477 93.2013H112.474C111.138 93.2013 109.922 93.7493 109.041 94.632Z" fill="white"/>
<path d="M87.601 25.052C87.421 25.052 87.253 24.9427 87.185 24.7627C87.0783 24.4867 84.653 17.8934 88.393 11.3267C88.517 11.1147 88.7876 11.0387 89.001 11.1614C89.2156 11.2827 89.289 11.5547 89.1663 11.768C85.641 17.96 87.993 24.3854 88.017 24.4507C88.1036 24.68 87.9863 24.9374 87.757 25.0227L87.601 25.052ZM114.024 41.6467C113.804 41.6467 113.612 41.4814 113.582 41.2574C113.552 41.0147 113.724 40.792 113.968 40.7587C114.084 40.744 125.669 39.112 134.354 26.568C134.494 26.368 134.773 26.3174 134.974 26.4574C135.174 26.596 135.224 26.8747 135.085 27.076C126.166 39.96 114.2 41.6267 114.081 41.6427L114.024 41.6467Z" fill="black" fill-opacity="0.2"/>
<path d="M138.844 23.708L138.586 23.6253C138.385 23.4813 138.34 23.2053 138.48 23.0053C138.508 22.9653 141.152 19.1253 139.221 12.9787C139.146 12.7427 139.277 12.4933 139.512 12.4187C139.742 12.34 139.997 12.476 140.07 12.7107C142.142 19.3053 139.328 23.3507 139.205 23.52C139.12 23.6427 138.982 23.708 138.844 23.708Z" fill="white" fill-opacity="0.2"/>
<path fill-rule="evenodd" clip-rule="evenodd" d="M43.5932 206.787C40.7188 207.089 36.8021 206.292 36.5036 202.033C36.2027 197.776 40.5817 197.525 40.6651 197.659C40.7484 197.79 43.7755 203.202 43.7755 203.314L43.5932 206.787Z" fill="#4599D9"/>
<path fill-rule="evenodd" clip-rule="evenodd" d="M59.338 136.471C60.7156 135.804 78.6495 128.839 91.7916 125.091C95.6289 128.919 106.413 137.916 112.044 137.916C117.408 137.916 128.461 128.919 132.298 125.091L163.398 133.044V194.824L162.369 206.659H64.2396L59.338 136.471Z" fill="#FF0001"/>
<path fill-rule="evenodd" clip-rule="evenodd" d="M75.7484 206.659H64.2396L62.7527 185.364C63.4063 184.187 63.8178 183.471 63.8178 183.471C63.8178 183.471 67.6885 176.931 89.2729 184.888C110.862 192.844 133.589 193.278 149.713 178.192C165.834 163.107 163.101 197.239 162.158 197.239C161.216 197.239 121.616 201.953 116.524 202.896C113.481 203.459 92.525 205.637 75.7484 206.659Z" fill="#CC0001"/>
<path fill-rule="evenodd" clip-rule="evenodd" d="M95.1436 189.028C95.1436 189.028 90.1383 188.171 84.3223 188.576C78.5079 188.981 70.2599 190.424 70.2599 190.424L67.3292 195.337L70.3959 204.893C70.3959 204.893 73.7755 206.38 75.4422 205.252C77.1088 204.125 95.6383 194.165 95.1436 189.028Z" fill="#DD8C79"/>
<path fill-rule="evenodd" clip-rule="evenodd" d="M70.0376 196.444C70.0376 196.444 70.4402 199.847 73.4137 203.453L81.7997 201.017L109.926 202.729L124.101 221.32C124.101 221.32 121.825 221.569 109.477 225.627C97.125 229.684 87.929 234.732 70.5298 236.085C53.1313 237.437 48.7137 234.732 47.0001 226.709C45.2876 218.687 38.437 207.508 38.8876 196.78C39.337 186.052 56.7365 185.96 56.7365 185.96C56.7365 185.96 70.3485 188.033 70.0376 196.444Z" fill="#DD8C79"/>
<path fill-rule="evenodd" clip-rule="evenodd" d="M111.71 205.069L124.101 221.32C124.101 221.32 122.054 221.547 111.326 225.023C109.892 214.597 97.0422 209.284 97.0422 209.284L110.24 204.724C110.742 204.837 111.232 204.953 111.71 205.069Z" fill="#BC6D69"/>
<path fill-rule="evenodd" clip-rule="evenodd" d="M39.3813 203.168C38.9959 201.039 38.7979 198.901 38.8875 196.78C39.2157 188.956 48.5574 186.789 53.5913 186.19L58.575 192.438C58.575 192.438 45.2083 195.32 39.3813 203.168Z" fill="#BC6D69"/>
<path fill-rule="evenodd" clip-rule="evenodd" d="M133.184 195.877L136.441 193.919C136.441 193.919 140.394 191.82 144.812 188.575C149.23 185.331 152.925 184.428 157.614 185.511C162.302 186.594 163.398 192.09 163.398 192.09C163.398 192.09 160.229 200.206 157.344 198.851C154.458 197.5 133.184 195.877 133.184 195.877Z" fill="#DD8C79"/>
<path fill-rule="evenodd" clip-rule="evenodd" d="M186.333 188.736C186.333 188.736 183.534 210.265 176.39 220.156L152.852 193.828C152.852 193.828 151.764 187.904 152.841 182.787C153.92 177.669 153.92 177.669 153.92 177.669C153.92 177.669 174.834 173.971 175.825 174.513C176.817 175.055 186.284 183.167 186.333 188.736Z" fill="#DD8C79"/>
<path fill-rule="evenodd" clip-rule="evenodd" d="M186.333 188.736C186.333 188.736 186.185 189.869 185.872 191.735C176.917 181.483 164.7 180.847 164.7 180.847L168.521 175.265C172.314 174.699 175.456 174.312 175.825 174.513C176.817 175.055 186.284 183.167 186.333 188.736Z" fill="#BC6D69"/>
<path fill-rule="evenodd" clip-rule="evenodd" d="M187.552 188.016C187.44 171.173 181.777 137.984 163.398 133.044C163.398 133.044 155.638 144.203 155.096 166.739C155.096 166.739 151.13 175.214 151.852 181.524C151.852 181.524 151.896 182.425 152.841 182.787C152.841 182.787 175.153 175.575 186.333 188.736C186.333 188.736 187.572 188.985 187.552 188.016Z" fill="#FF0001"/>
<path fill-rule="evenodd" clip-rule="evenodd" d="M187.552 188.016C187.541 186.653 187.497 185.181 187.412 183.628C171.464 170.421 151.789 179.473 151.768 179.483C151.75 180.18 151.776 180.864 151.852 181.524C151.852 181.524 151.896 182.425 152.841 182.787C152.841 182.787 175.153 175.575 186.332 188.736C186.332 188.736 187.572 188.985 187.552 188.016Z" fill="#00FF00"/>
<path fill-rule="evenodd" clip-rule="evenodd" d="M59.3381 136.471C59.3381 136.471 44.375 142.86 41.7599 156.833C39.147 170.807 35.8725 196.175 36.5037 202.033C40.3381 193.896 66.9813 188.132 70.0375 196.444C70.0375 196.444 71.7501 195.744 71.7501 194.301C71.7501 192.859 72.1511 169.909 67.2839 161.347C67.2839 161.347 67.647 141.339 59.3381 136.471Z" fill="#FF0001"/>
<path fill-rule="evenodd" clip-rule="evenodd" d="M36.6407 195.156C36.4213 198.245 36.3568 200.669 36.5036 202.033C40.338 193.896 66.9812 188.132 70.0375 196.444C70.0375 196.444 71.75 195.744 71.75 194.301C71.75 194.026 71.7631 192.968 71.7536 191.375C51.4047 182.801 36.6511 195.147 36.6407 195.156Z" fill="#00FF00"/>
<path fill-rule="evenodd" clip-rule="evenodd" d="M95.1437 189.028C95.1437 189.028 110.557 192.633 122.908 193.896C135.257 195.159 154.461 190.831 165.098 197.14C175.737 203.453 177.901 211.656 177.901 215.351C177.901 219.047 174.653 225 166.27 226.171C157.886 227.341 137.333 226.621 121.374 220.311C105.418 214 91.3544 204.083 73.4137 203.453L95.1437 189.028Z" fill="#DD8C79"/>
<path d="M165.098 197.585L164.87 197.523C161.562 195.563 157.428 194.643 152.901 194.271L152.729 194.255C147.852 193.867 142.532 194.099 137.301 194.328L136.401 194.367C136.104 194.375 135.946 194.187 135.934 193.941C135.925 193.695 136.116 193.487 136.362 193.476L137.262 193.437C142.352 193.216 147.525 192.989 152.318 193.331C152.073 191.706 151.506 186.967 152.406 182.695C152.456 182.455 152.692 182.302 152.934 182.351C153.174 182.401 153.328 182.637 153.278 182.878C152.377 187.156 153.028 192.077 153.232 193.402C157.777 193.801 161.945 194.752 165.325 196.757C165.536 196.883 165.606 197.156 165.481 197.367C165.398 197.508 165.25 197.585 165.098 197.585ZM124.07 221.755L123.924 221.731C123.008 221.411 122.101 221.076 121.21 220.724C116.597 218.901 112.084 216.747 107.717 214.664C96.5889 209.356 86.0783 204.345 73.4031 203.899C73.2755 203.885 68.1375 203.859 63.3369 206.409C63.1235 206.528 62.8516 206.445 62.7355 206.226C62.6193 206.008 62.7027 205.739 62.9193 205.625C66.7901 203.567 70.7735 203.124 72.5183 203.029C69.9932 199.641 69.612 196.631 69.5964 196.497C69.5661 196.252 69.7407 196.031 69.9844 196.002C70.2208 195.968 70.4505 196.145 70.4792 196.39C70.4828 196.421 70.8995 199.621 73.6323 203.014C86.4076 203.514 97.4343 208.775 108.101 213.86C112.453 215.937 116.953 218.083 121.538 219.897C122.418 220.244 123.312 220.575 124.216 220.888C124.448 220.968 124.57 221.224 124.492 221.456C124.426 221.639 124.256 221.755 124.07 221.755Z" fill="#BC6D69"/>
<path fill-rule="evenodd" clip-rule="evenodd" d="M87.4744 126.381C89.0837 128.889 91.721 131.708 94.737 134.351C100.765 139.64 108.289 144.228 112.044 144.228C115.68 144.228 123.158 139.416 129.354 133.973C132.298 131.387 134.953 128.659 136.768 126.235L132.298 125.091C128.461 128.919 117.408 137.917 112.044 137.917C106.413 137.917 95.629 128.919 91.7917 125.091C90.3984 125.489 88.9504 125.921 87.4744 126.381Z" fill="#00FF00"/>
<path d="M186.657 189.211C186.445 189.211 186.282 189.181 186.246 189.173C186.005 189.125 185.849 188.892 185.897 188.651C185.944 188.408 186.18 188.257 186.42 188.299C186.604 188.333 186.928 188.331 187.046 188.231C187.064 188.216 187.109 188.177 187.106 188.025C187.017 174.605 182.562 138.656 163.284 133.473L132.188 125.523C131.949 125.46 131.806 125.219 131.866 124.98C131.926 124.743 132.164 124.607 132.409 124.659L163.509 132.613C183.33 137.941 187.906 174.411 187.997 188.014C188.008 188.485 187.797 188.764 187.618 188.913C187.328 189.155 186.948 189.211 186.657 189.211ZM36.5037 202.48C36.2787 202.48 36.086 202.309 36.0594 202.083C35.4115 196.056 38.7807 170.341 41.323 156.749C43.9506 142.707 59.0115 136.125 59.1626 136.06C60.5287 135.399 78.4063 128.445 91.669 124.663C91.909 124.599 92.1503 124.732 92.221 124.968C92.289 125.205 92.1503 125.452 91.9143 125.519C78.6954 129.289 60.9083 136.205 59.5323 136.872C59.364 136.943 44.7365 143.347 42.1974 156.913C39.6667 170.453 36.3058 196.032 36.9465 201.987C36.9725 202.232 36.7954 202.451 36.5522 202.477L36.5037 202.48Z" fill="white"/>
</g>
<defs>
<clipPath id="clip0_1_1358">
<rect width="224" height="234" fill="white"/>
</clipPath>
</defs>
</svg>
