<svg width="224" height="234" viewBox="0 0 224 234" fill="none" xmlns="http://www.w3.org/2000/svg">
<g clip-path="url(#clip0_1_1358)">
<path fill-rule="evenodd" clip-rule="evenodd" d="M94.6775 143.292H129.295V126.677C131.427 125.969 133.675 125.108 133.675 125.108L132.239 123.299C132.239 123.299 129.295 122.009 129.295 118.248V86.2694H94.6775V118.248C94.6775 122.009 91.7321 123.299 91.7321 123.299L90.2961 125.108C90.2961 125.108 92.5415 125.969 94.6775 126.677V143.292Z" fill="#DD8C79"/>
<path fill-rule="evenodd" clip-rule="evenodd" d="M94.6776 107.952V118.248C94.6776 119.847 94.1456 120.999 93.5336 121.793C98.9162 126.316 112.675 134.613 127.015 117.153L105.036 104.295C105.036 104.295 99.2949 106.351 94.6776 107.952Z" fill="#BC6D69"/>
<path fill-rule="evenodd" clip-rule="evenodd" d="M43.5339 204.993C40.6595 205.297 36.7428 204.5 36.4443 200.243C36.1433 195.983 40.5224 195.735 40.6057 195.867C40.6891 195.997 43.7161 201.411 43.7161 201.523L43.5339 204.993Z" fill="#4599D9"/>
<path fill-rule="evenodd" clip-rule="evenodd" d="M59.2786 134.677C60.6562 134.011 78.59 127.048 91.7322 123.299C95.5695 127.128 106.354 136.124 111.984 136.124C117.348 136.124 128.402 127.128 132.239 123.299L163.339 131.253V193.032L162.31 204.865H64.1802L59.2786 134.677Z" fill="#FF0001"/>
<path fill-rule="evenodd" clip-rule="evenodd" d="M75.6891 204.865H64.1803L62.6934 183.573C63.347 182.395 63.7584 181.68 63.7584 181.68C63.7584 181.68 67.6292 175.139 89.2136 183.095C110.803 191.051 133.53 191.487 149.654 176.4C165.775 161.316 163.042 195.445 162.099 195.445C161.156 195.445 121.556 200.163 116.464 201.105C113.422 201.667 92.4656 203.847 75.6891 204.865Z" fill="#CC0001"/>
<path fill-rule="evenodd" clip-rule="evenodd" d="M95.0842 187.236C95.0842 187.236 90.0788 186.377 84.2628 186.783C78.4484 187.189 70.2004 188.631 70.2004 188.631L67.2698 193.545L70.3364 203.1C70.3364 203.1 73.716 204.588 75.3827 203.461C77.0494 202.333 95.5788 192.373 95.0842 187.236Z" fill="#DD8C79"/>
<path fill-rule="evenodd" clip-rule="evenodd" d="M69.9781 194.652C69.9781 194.652 70.3808 198.056 73.3543 201.66L81.7403 199.225L109.867 200.937L124.042 219.528C124.042 219.528 121.766 219.777 109.418 223.836C97.0656 227.891 87.8696 232.941 70.4704 234.292C53.0719 235.647 48.6543 232.941 46.9407 224.916C45.2281 216.893 38.3776 205.716 38.8281 194.988C39.2776 184.259 56.6771 184.169 56.6771 184.169C56.6771 184.169 70.2891 186.241 69.9781 194.652Z" fill="#DD8C79"/>
<path fill-rule="evenodd" clip-rule="evenodd" d="M111.651 203.277L124.042 219.528C124.042 219.528 121.995 219.753 111.267 223.232C109.832 212.804 96.9829 207.492 96.9829 207.492L110.18 202.933C110.683 203.045 111.172 203.16 111.651 203.277Z" fill="#BC6D69"/>
<path fill-rule="evenodd" clip-rule="evenodd" d="M39.3218 201.376C38.9365 199.247 38.7385 197.108 38.8281 194.988C39.1562 187.163 48.498 184.997 53.5318 184.397L58.5156 190.647C58.5156 190.647 45.1489 193.527 39.3218 201.376Z" fill="#BC6D69"/>
<path fill-rule="evenodd" clip-rule="evenodd" d="M133.124 194.085L136.382 192.127C136.382 192.127 140.335 190.028 144.752 186.783C149.171 183.537 152.866 182.636 157.555 183.717C162.243 184.8 163.339 190.3 163.339 190.3C163.339 190.3 160.17 198.412 157.284 197.06C154.399 195.707 133.124 194.085 133.124 194.085Z" fill="#DD8C79"/>
<path fill-rule="evenodd" clip-rule="evenodd" d="M186.273 186.944C186.273 186.944 183.475 208.472 176.331 218.363L152.792 192.035C152.792 192.035 151.704 186.111 152.781 180.996C153.86 175.876 153.86 175.876 153.86 175.876C153.86 175.876 174.775 172.18 175.765 172.72C176.757 173.264 186.224 181.376 186.273 186.944Z" fill="#DD8C79"/>
<path fill-rule="evenodd" clip-rule="evenodd" d="M186.274 186.944C186.274 186.944 186.126 188.079 185.812 189.943C176.858 179.691 164.64 179.056 164.64 179.056L168.462 173.472C172.255 172.907 175.396 172.519 175.766 172.72C176.758 173.264 186.224 181.376 186.274 186.944Z" fill="#BC6D69"/>
<path fill-rule="evenodd" clip-rule="evenodd" d="M187.492 186.224C187.38 169.381 181.718 136.193 163.339 131.253C163.339 131.253 155.579 142.409 155.036 164.948C155.036 164.948 151.071 173.423 151.792 179.732C151.792 179.732 151.836 180.633 152.782 180.996C152.782 180.996 175.094 173.783 186.274 186.944C186.274 186.944 187.512 187.192 187.492 186.224Z" fill="#FF0001"/>
<path fill-rule="evenodd" clip-rule="evenodd" d="M187.492 186.224C187.482 184.863 187.438 183.389 187.352 181.836C171.404 168.629 151.73 177.68 151.708 177.691C151.691 178.388 151.716 179.072 151.792 179.732C151.792 179.732 151.836 180.633 152.782 180.996C152.782 180.996 175.094 173.783 186.272 186.944C186.272 186.944 187.512 187.192 187.492 186.224Z" fill="#00FF00"/>
<path fill-rule="evenodd" clip-rule="evenodd" d="M59.2786 134.677C59.2786 134.677 44.3155 141.068 41.7005 155.043C39.0875 169.015 35.813 194.381 36.4442 200.243C40.2786 192.103 66.9218 186.339 69.9781 194.652C69.9781 194.652 71.6906 193.953 71.6906 192.511C71.6906 191.068 72.0917 168.116 67.2245 159.553C67.2245 159.553 67.5875 139.545 59.2786 134.677Z" fill="#FF0001"/>
<path fill-rule="evenodd" clip-rule="evenodd" d="M36.5813 193.363C36.362 196.453 36.2975 198.877 36.4443 200.243C40.2787 192.103 66.9219 186.339 69.9781 194.652C69.9781 194.652 71.6907 193.953 71.6907 192.511C71.6907 192.235 71.7037 191.175 71.6943 189.584C51.3453 181.008 36.5917 193.355 36.5813 193.363Z" fill="#00FF00"/>
<path fill-rule="evenodd" clip-rule="evenodd" d="M95.0842 187.236C95.0842 187.236 110.498 190.84 122.848 192.105C135.198 193.365 154.402 189.039 165.039 195.349C175.678 201.66 177.842 209.863 177.842 213.56C177.842 217.256 174.594 223.207 166.211 224.379C157.827 225.551 137.274 224.829 121.315 218.517C105.359 212.207 91.2949 202.289 73.3542 201.66L95.0842 187.236Z" fill="#DD8C79"/>
<path d="M165.039 195.795L164.811 195.732C161.501 193.769 157.364 192.852 152.836 192.477L152.675 192.464C147.796 192.072 142.472 192.307 137.241 192.536L136.341 192.576C136.044 192.56 135.887 192.395 135.875 192.149C135.865 191.901 136.056 191.696 136.303 191.684L137.203 191.647C142.292 191.424 147.465 191.196 152.259 191.54C152.016 189.915 151.447 185.175 152.347 180.901C152.396 180.664 152.632 180.508 152.875 180.557C153.115 180.611 153.268 180.847 153.219 181.087C152.317 185.364 152.968 190.287 153.172 191.611C157.719 192.008 161.885 192.959 165.265 194.965C165.476 195.092 165.547 195.365 165.421 195.576C165.339 195.716 165.191 195.795 165.039 195.795ZM124.011 219.961L123.864 219.939C122.948 219.62 122.041 219.284 121.151 218.931C116.537 217.108 112.024 214.953 107.657 212.871C96.5295 207.563 86.0188 202.552 73.3436 202.105C73.2151 202.087 68.0812 202.063 63.2775 204.617C63.064 204.732 62.7921 204.653 62.676 204.433C62.5599 204.217 62.6432 203.947 62.8599 203.832C66.7307 201.775 70.714 201.331 72.4588 201.236C69.9337 197.849 69.5525 194.839 69.5369 194.704C69.5067 194.459 69.6812 194.239 69.9249 194.209C70.1613 194.168 70.3911 194.355 70.4197 194.599C70.4233 194.631 70.84 197.829 73.5728 201.221C86.3481 201.723 97.3748 206.981 108.041 212.067C112.393 214.144 116.893 216.289 121.479 218.104C122.359 218.452 123.252 218.781 124.156 219.096C124.388 219.176 124.511 219.431 124.432 219.663C124.367 219.847 124.196 219.961 124.011 219.961Z" fill="#BC6D69"/>
<path fill-rule="evenodd" clip-rule="evenodd" d="M87.4149 124.588C89.0243 127.097 91.6616 129.916 94.6776 132.557C100.706 137.847 108.23 142.436 111.984 142.436C115.62 142.436 123.099 137.624 129.295 132.18C132.239 129.595 134.894 126.867 136.708 124.441L132.239 123.299C128.402 127.128 117.348 136.125 111.984 136.125C106.354 136.125 95.5696 127.128 91.7323 123.299C90.3389 123.696 88.8909 124.129 87.4149 124.588Z" fill="#00FF00"/>
<path fill-rule="evenodd" clip-rule="evenodd" d="M80.3776 93.2507C70.0578 92.7147 69.1854 74.4227 75.1433 74.8253C80.1069 75.16 81.1456 78.324 81.4749 79.652C81.8029 80.9773 80.3776 93.2507 80.3776 93.2507Z" fill="#DD8C79"/>
<path fill-rule="evenodd" clip-rule="evenodd" d="M144.448 93.2507C154.77 92.7147 155.64 74.4227 149.683 74.8253C144.722 75.16 143.683 78.324 143.352 79.652C143.024 80.9773 144.448 93.2507 144.448 93.2507Z" fill="#DD8C79"/>
<path fill-rule="evenodd" clip-rule="evenodd" d="M146.311 57.4387V80.8494C146.311 100.581 132.863 122.165 112.418 122.165C91.9722 122.165 78.5223 100.581 78.5223 80.8494V57.4387C78.5223 12.896 146.311 12.896 146.311 57.4387Z" fill="#DD8C79"/>
<path fill-rule="evenodd" clip-rule="evenodd" d="M128.375 68.336H128.378C130.84 68.336 132.856 70.352 132.856 72.816V75.54C132.856 78.0027 130.84 80.0187 128.378 80.0187H128.375C125.912 80.0187 123.898 78.0027 123.898 75.54V72.816C123.898 70.352 125.912 68.336 128.375 68.336Z" fill="#3E3155"/>
<path fill-rule="evenodd" clip-rule="evenodd" d="M96.4589 68.336H96.4562C93.9922 68.336 91.9762 70.352 91.9762 72.816V75.54C91.9762 78.0027 93.9922 80.0187 96.4562 80.0187H96.4589C98.9202 80.0187 100.936 78.0027 100.936 75.54V72.816C100.936 70.352 98.9202 68.336 96.4589 68.336Z" fill="#3E3155"/>
<path fill-rule="evenodd" clip-rule="evenodd" d="M113.323 73.2507C113.378 73.5573 113.356 73.888 113.252 74.128C112.519 75.8054 109.306 82.9987 109.336 83.9507C109.451 85.1773 112.891 86.0347 114.734 86.0974C115.872 86.1387 114.53 90.0973 112.668 89.5573C110.683 88.9853 107.744 86.48 107.53 84.1307C107.423 83 109.491 77.98 110.984 74.5974C111.367 73.7267 111.131 72.844 110.987 72.2667C110.62 70.7534 113.148 72.24 113.323 73.2507Z" fill="#BC6D69"/>
<path d="M147.723 87.4374C147.506 87.4374 147.315 87.2787 147.282 87.0573C146.984 85.072 147.318 82.256 148.148 79.708C148.912 77.368 149.784 77.0027 150.378 77.1147C151.312 77.2867 151.88 78.7187 151.791 80.6774C151.782 80.9254 151.56 81.1427 151.326 81.104C151.08 81.092 150.89 80.8854 150.902 80.6387C150.976 78.9734 150.504 78.0454 150.219 77.9934C150.091 77.9334 149.554 78.276 148.996 79.984C148.812 80.5453 148.656 81.1227 148.526 81.704C149.178 81.9654 150.243 82.732 150.199 84.956C150.195 85.2013 149.948 85.3814 149.746 85.3934C149.5 85.3894 149.303 85.1854 149.307 84.9414C149.339 83.3934 148.752 82.8107 148.346 82.5893C148.06 84.188 147.987 85.744 148.164 86.9254C148.2 87.1694 148.032 87.3947 147.79 87.4334L147.723 87.4374Z" fill="#BC6D69"/>
<path d="M77.11 87.4374L77.0433 87.4334C76.7995 87.3947 76.6319 87.1694 76.6699 86.9254C76.8469 85.744 76.7709 84.1907 76.4876 82.592C76.0781 82.816 75.4948 83.4 75.524 84.9414C75.5287 85.1854 75.3333 85.3894 75.0876 85.3934C74.8297 85.3894 74.638 85.2027 74.6328 84.956C74.5901 82.732 75.6563 81.9654 76.3079 81.704C76.1771 81.1227 76.0188 80.5453 75.8365 79.9853C75.2787 78.276 74.7229 77.9334 74.6136 77.9934C74.3281 78.0454 73.8573 78.9734 73.9313 80.6387C73.9433 80.8854 73.7532 81.092 73.5052 81.104C73.2819 81.1334 73.0527 80.9254 73.0423 80.6774C72.9537 78.7187 73.5199 77.2867 74.4537 77.1147C75.0527 77.0027 75.9199 77.368 76.6839 79.7094C77.5147 82.256 77.8469 85.072 77.5495 87.0573C77.5172 87.2787 77.3271 87.4374 77.11 87.4374Z" fill="#BC6D69"/>
<path d="M112.418 94.172C108.135 94.172 104.099 93.804 100.748 93.1053C100.266 93.0053 99.9562 92.5333 100.058 92.0533C100.156 91.5706 100.626 91.256 101.111 91.3626C107.487 92.688 117.346 92.688 123.722 91.3626C124.2 91.256 124.675 91.5706 124.776 92.0533C124.875 92.5333 124.567 93.0053 124.086 93.1053C120.735 93.804 116.698 94.172 112.418 94.172Z" fill="#BC6D69"/>
<path d="M112.418 98.1254C110.894 98.1254 109.378 98.076 107.91 97.9827C107.418 97.9494 107.044 97.5267 107.078 97.0347C107.11 96.5427 107.539 96.1667 108.024 96.204C110.888 96.3867 113.95 96.3867 116.808 96.204C117.295 96.1627 117.724 96.5427 117.755 97.0347C117.787 97.5267 117.416 97.9494 116.924 97.9827C115.456 98.076 113.94 98.1254 112.418 98.1254Z" fill="#BC6D69"/>
<path fill-rule="evenodd" clip-rule="evenodd" d="M112.418 17.6467C122.679 17.6467 130.53 20.9867 137.87 26.8627C155.694 41.1361 147.459 54.3413 147.459 75.224C147.459 75.224 146.31 75.1734 146.31 79.1C146.31 79.1 143.92 76.636 143.92 72.724C143.92 68.8107 144.91 64.7333 142.263 62.776C139.615 60.8227 139.014 56.948 139.846 53.6867C140.432 51.3853 141.574 46.524 137.548 46.524C136.864 46.524 124.455 46.3854 112.418 46.388C100.378 46.3854 87.9696 46.524 87.2843 46.524C83.2576 46.524 84.399 51.3853 84.987 53.6867C85.8176 56.948 85.2163 60.8227 82.571 62.776C79.923 64.7333 80.9123 68.8107 80.9123 72.724C80.9123 76.636 78.5224 79.1 78.5224 79.1C78.5224 75.1734 77.3756 75.224 77.3756 75.224C77.3756 54.3413 69.1396 41.1361 86.9643 26.8627C94.3029 20.9867 102.154 17.6467 112.418 17.6467Z" fill="#0000FF"/>
<path fill-rule="evenodd" clip-rule="evenodd" d="M112.417 15.7C123.023 15.7 131.138 19.264 138.723 25.54C144.706 30.4906 147.847 35.3213 149.361 40.3493C150.519 44.8707 147.669 46.5333 144.153 46.5333H138.406H138.399H138.393H138.391C137.683 46.5333 124.86 46.3853 112.417 46.388C99.9735 46.3853 87.1482 46.5333 86.4402 46.5333H86.4348H86.4268H80.6775C77.1614 46.5333 74.313 44.8707 75.4712 40.3493C76.9843 35.3213 80.1255 30.4906 86.1082 25.54C93.6962 19.264 101.809 15.7 112.417 15.7Z" fill="#0000FF"/>
<path fill-rule="evenodd" clip-rule="evenodd" d="M124.235 64.6854C124.235 64.6854 123.208 64.912 122.26 64.548C121.315 64.1827 120.536 62.8494 120.585 62.5441C120.635 62.2361 121.145 62.724 122.953 62.04C124.732 61.3654 131.3 59.7414 135.812 63.6907C136.588 64.3707 135.995 64.896 135.013 64.612C134.029 64.3334 129.848 62.5134 124.235 64.6854Z" fill="#3E3155"/>
<path fill-rule="evenodd" clip-rule="evenodd" d="M100.596 64.6854C100.596 64.6854 101.626 64.912 102.572 64.548C103.519 64.1827 104.295 62.8494 104.247 62.5441C104.198 62.2361 103.688 62.724 101.879 62.04C100.102 61.3654 93.5336 59.7414 89.0216 63.6907C88.2429 64.3707 88.8389 64.896 89.8202 64.612C90.8029 64.3334 94.9842 62.5134 100.596 64.6854Z" fill="#3E3155"/>
<path d="M80.6775 46.98C78.3651 46.98 76.6255 46.3107 75.6433 45.0453C74.7266 43.8653 74.5239 42.248 75.039 40.2387C76.7161 34.6734 80.1402 29.8987 85.8255 25.1961C86.0109 25.0401 86.2949 25.0654 86.4522 25.256C86.6082 25.4454 86.5829 25.7267 86.3922 25.8827C80.8509 30.4694 77.5155 35.1067 75.8963 40.4787C75.4599 42.1893 75.6083 43.548 76.3469 44.4974C77.1411 45.5227 78.6802 46.0881 80.6775 46.0881C80.9215 46.0881 81.1229 46.2867 81.1229 46.5334C81.1229 46.7787 80.9215 46.98 80.6775 46.98ZM102.79 120.913L102.636 120.887C91.1629 116.691 81.8775 104.536 78.9829 89.92C78.9349 89.6774 79.0909 89.444 79.3335 89.3947C79.5775 89.344 79.8095 89.504 79.8575 89.7454C82.6935 104.064 91.7549 115.959 102.943 120.049C103.174 120.133 103.292 120.389 103.207 120.62C103.14 120.801 102.972 120.913 102.79 120.913Z" fill="white"/>
<path d="M186.598 187.417C186.386 187.417 186.223 187.389 186.187 187.381C185.946 187.333 185.79 187.1 185.838 186.86C185.884 186.617 186.12 186.461 186.36 186.507C186.544 186.543 186.868 186.537 186.987 186.439C187.004 186.423 187.05 186.384 187.047 186.232C186.958 172.813 182.503 136.863 163.224 131.68L132.128 123.731C131.89 123.669 131.747 123.427 131.807 123.188C131.867 122.949 132.104 122.811 132.35 122.867L163.45 130.82C183.271 136.148 187.847 172.617 187.938 186.223C187.948 186.693 187.738 186.972 187.559 187.12C187.268 187.363 186.888 187.417 186.598 187.417ZM36.4442 200.687C36.2193 200.687 36.0266 200.516 35.9999 200.289C35.3521 194.264 38.7213 168.548 41.2635 154.959C43.8911 140.915 58.9521 134.333 59.1031 134.269C60.4713 133.607 78.3521 126.651 91.6109 122.871C91.8415 122.804 92.0909 122.939 92.1615 123.177C92.2295 123.412 92.0909 123.66 91.8549 123.727C78.6411 127.493 60.8505 134.412 59.4729 135.079C59.3046 135.151 44.677 141.553 42.1379 155.123C39.6073 168.663 36.2463 194.24 36.887 200.193C36.913 200.439 36.7359 200.657 36.4927 200.684L36.4442 200.687Z" fill="white"/>
</g>
<defs>
<clipPath id="clip0_1_1358">
<rect width="224" height="234" fill="white"/>
</clipPath>
</defs>
</svg>
