<svg width="224" height="234" viewBox="0 0 224 234" fill="none" xmlns="http://www.w3.org/2000/svg">
<path fill-rule="evenodd" clip-rule="evenodd" d="M42.5961 199.789C39.7188 200.091 35.8028 199.293 35.5041 195.036C35.2028 190.776 39.5828 190.528 39.6654 190.66C39.7508 190.792 42.7761 196.204 42.7761 196.317L42.5961 199.789Z" fill="#4C466A"/>
<path fill-rule="evenodd" clip-rule="evenodd" d="M93.7374 138.085H128.355V121.471C130.487 120.765 132.736 119.904 132.736 119.904L131.299 118.092C131.299 118.092 128.355 116.803 128.355 113.043V81.0627H93.7374V113.043C93.7374 116.803 90.7921 118.092 90.7921 118.092L89.3561 119.904C89.3561 119.904 91.6041 120.765 93.7374 121.471V138.085Z" fill="#FCD1C8"/>
<path fill-rule="evenodd" clip-rule="evenodd" d="M93.7374 102.745V113.043C93.7374 114.64 93.2054 115.792 92.5934 116.587C97.9774 121.109 111.735 129.408 126.075 111.948L104.097 99.0907C104.097 99.0907 98.3547 101.144 93.7374 102.745Z" fill="#F9A8A1"/>
<path fill-rule="evenodd" clip-rule="evenodd" d="M58.3387 129.472C59.7161 128.804 77.6507 121.841 90.7921 118.092C94.6294 121.921 105.413 130.919 111.044 130.919C116.408 130.919 127.464 121.921 131.299 118.092L162.401 126.047V187.827L161.369 199.658H63.2401L58.3387 129.472Z" fill="#FF0001"/>
<path fill-rule="evenodd" clip-rule="evenodd" d="M74.7494 199.658H63.2401L61.7534 178.367C62.4068 177.188 62.8174 176.474 62.8174 176.474C62.8174 176.474 66.6894 169.932 88.2761 177.888C109.863 185.844 132.589 186.28 148.713 171.193C164.836 156.109 162.101 190.239 161.159 190.239C160.216 190.239 120.616 194.956 115.525 195.899C112.481 196.46 91.5254 198.64 74.7494 199.658Z" fill="#CC0001"/>
<path fill-rule="evenodd" clip-rule="evenodd" d="M94.1442 182.029C94.1442 182.029 89.1388 181.172 83.3241 181.577C77.5081 181.982 69.2601 183.425 69.2601 183.425L66.3308 188.339L69.3961 197.893C69.3961 197.893 72.7762 199.381 74.4428 198.255C76.1122 197.127 94.6388 187.167 94.1442 182.029Z" fill="#FCD1C8"/>
<path fill-rule="evenodd" clip-rule="evenodd" d="M69.0388 189.445C69.0388 189.445 69.4414 192.849 72.4147 196.453L80.8001 194.019L108.927 195.731L123.101 214.323C123.101 214.323 120.825 214.57 108.477 218.629C96.1254 222.684 86.9294 227.735 69.5307 229.085C52.1321 230.44 47.7134 227.735 46.0014 219.711C44.2881 211.687 37.4374 200.509 37.8881 189.781C38.3387 179.055 55.7388 178.963 55.7388 178.963C55.7388 178.963 69.3521 181.035 69.0388 189.445Z" fill="#FCD1C8"/>
<path fill-rule="evenodd" clip-rule="evenodd" d="M110.711 198.07L123.102 214.323C123.102 214.323 121.055 214.546 110.327 218.025C108.893 207.599 96.0428 202.287 96.0428 202.287L109.24 197.727C109.743 197.84 110.232 197.956 110.711 198.07Z" fill="#F9A8A1"/>
<path fill-rule="evenodd" clip-rule="evenodd" d="M38.3815 196.169C37.9961 194.041 37.8001 191.904 37.8881 189.781C38.2161 181.956 47.5575 179.791 52.5935 179.192L57.5761 185.44C57.5761 185.44 44.2081 188.321 38.3815 196.169Z" fill="#F9A8A1"/>
<path fill-rule="evenodd" clip-rule="evenodd" d="M132.184 188.88L135.441 186.92C135.441 186.92 139.395 184.821 143.812 181.576C148.231 178.332 151.927 177.429 156.615 178.511C161.303 179.593 162.401 185.093 162.401 185.093C162.401 185.093 159.229 193.205 156.344 191.853C153.459 190.503 132.184 188.88 132.184 188.88Z" fill="#FCD1C8"/>
<path fill-rule="evenodd" clip-rule="evenodd" d="M185.334 181.737C185.334 181.737 182.535 203.268 175.391 213.157L151.852 186.828C151.852 186.828 150.764 180.905 151.842 175.789C152.92 170.672 152.92 170.672 152.92 170.672C152.92 170.672 173.835 166.974 174.827 167.516C175.818 168.057 185.284 176.169 185.334 181.737Z" fill="#FCD1C8"/>
<path fill-rule="evenodd" clip-rule="evenodd" d="M185.334 181.737C185.334 181.737 185.186 182.872 184.872 184.736C175.919 174.484 163.7 173.849 163.7 173.849L167.522 168.265C171.315 167.7 174.458 167.312 174.827 167.516C175.818 168.057 185.284 176.169 185.334 181.737Z" fill="#F9A8A1"/>
<path fill-rule="evenodd" clip-rule="evenodd" d="M186.552 181.017C186.44 164.175 180.779 130.987 162.401 126.047C162.401 126.047 154.639 137.203 154.096 159.741C154.096 159.741 150.131 168.216 150.852 174.525C150.852 174.525 150.896 175.427 151.841 175.789C151.841 175.789 174.155 168.576 185.333 181.737C185.333 181.737 186.573 181.987 186.552 181.017Z" fill="#FF0001"/>
<path fill-rule="evenodd" clip-rule="evenodd" d="M186.552 181.017C186.544 179.656 186.497 178.182 186.412 176.629C170.464 163.423 150.789 172.476 150.768 172.484C150.753 173.181 150.776 173.865 150.852 174.525C150.852 174.525 150.896 175.427 151.841 175.789C151.841 175.789 174.155 168.576 185.333 181.737C185.333 181.737 186.573 181.987 186.552 181.017Z" fill="#00FF00"/>
<path fill-rule="evenodd" clip-rule="evenodd" d="M58.3388 129.472C58.3388 129.472 43.3748 135.861 40.7601 149.836C38.1467 163.808 34.8721 189.177 35.5041 195.036C39.3388 186.896 65.9814 181.132 69.0388 189.445C69.0388 189.445 70.7507 188.746 70.7507 187.304C70.7507 185.861 71.1534 162.911 66.2841 154.349C66.2841 154.349 66.6468 134.339 58.3388 129.472Z" fill="#FF0001"/>
<path fill-rule="evenodd" clip-rule="evenodd" d="M35.6415 188.156C35.4228 191.246 35.3575 193.67 35.5041 195.036C39.3388 186.896 65.9815 181.132 69.0388 189.445C69.0388 189.445 70.7508 188.746 70.7508 187.304C70.7508 187.028 70.7655 185.968 70.7561 184.377C50.4055 175.801 35.6508 188.148 35.6415 188.156Z" fill="#00FF00"/>
<path fill-rule="evenodd" clip-rule="evenodd" d="M94.1442 182.029C94.1442 182.029 109.557 185.635 121.908 186.899C134.257 188.161 153.461 183.832 164.099 190.143C174.737 196.453 176.901 204.658 176.901 208.353C176.901 212.049 173.653 218 165.271 219.172C156.887 220.344 136.333 219.623 120.375 213.312C104.419 207 90.3575 197.084 72.4148 196.453L94.1442 182.029Z" fill="#FCD1C8"/>
<path d="M164.099 190.588L163.871 190.525C160.563 188.564 156.427 187.645 151.899 187.272L151.732 187.257C146.856 186.872 141.529 187.103 136.295 187.329L135.401 187.369H135.381C135.145 187.369 134.947 187.182 134.935 186.943C134.925 186.694 135.116 186.489 135.363 186.477L136.256 186.44C141.347 186.217 146.521 185.994 151.319 186.333C151.076 184.708 150.507 179.968 151.407 175.694C151.456 175.456 151.687 175.307 151.935 175.351C152.175 175.404 152.328 175.64 152.279 175.88C151.377 180.157 152.028 185.08 152.232 186.404C156.777 186.804 160.945 187.755 164.325 189.758C164.536 189.885 164.607 190.158 164.481 190.369C164.399 190.509 164.251 190.588 164.099 190.588ZM123.071 214.755L122.924 214.732C122.008 214.413 121.101 214.077 120.212 213.727C115.597 211.901 111.084 209.746 106.717 207.667C95.5895 202.358 85.0788 197.346 72.4041 196.9C72.2735 196.885 67.1388 196.858 62.3388 199.411C62.1241 199.528 61.8521 199.446 61.7375 199.227C61.6215 199.011 61.7028 198.74 61.9215 198.625C65.7921 196.568 69.7735 196.125 71.5188 196.031C68.9948 192.643 68.6121 189.632 68.5961 189.497C68.5681 189.252 68.7428 189.032 68.9868 189.003C69.2188 188.976 69.4535 189.148 69.4815 189.392C69.4841 189.424 69.9015 192.623 72.6335 196.016C85.4095 196.516 96.4348 201.776 107.101 206.861C111.453 208.937 115.953 211.082 120.539 212.899C121.42 213.245 122.312 213.575 123.216 213.889C123.448 213.969 123.571 214.224 123.492 214.456C123.427 214.64 123.256 214.755 123.071 214.755Z" fill="#F9A8A1"/>
<path d="M151.841 176.235L151.684 176.204C150.479 175.744 150.409 174.596 150.407 174.548C149.711 168.481 153.213 160.599 153.653 159.637C153.704 157.6 153.816 155.581 153.989 153.603L153.089 152.146C152.959 151.937 153.024 151.664 153.233 151.533C153.445 151.407 153.716 151.468 153.847 151.677L154.128 152.135C154.216 151.287 154.315 150.446 154.424 149.615C154.456 149.372 154.649 149.203 154.924 149.232C155.168 149.265 155.34 149.489 155.308 149.733C154.881 152.953 154.624 156.325 154.541 159.752L154.5 159.929C154.461 160.013 150.595 168.365 151.295 174.476C151.301 174.563 151.361 175.127 152 175.372C152.232 175.458 152.347 175.716 152.257 175.946C152.191 176.125 152.021 176.235 151.841 176.235ZM69.0388 189.891C68.8655 189.891 68.6988 189.787 68.6281 189.615C68.5334 189.388 68.6441 189.127 68.8695 189.032C68.8841 189.027 70.3055 188.425 70.3055 187.304L70.3081 186.981C70.3628 179.664 70.0414 161.857 65.8974 154.568L65.8388 154.34C65.8401 154.307 65.8908 151.107 65.4348 147.023C65.4094 146.779 65.5868 146.56 65.8294 146.531C66.0841 146.523 66.2948 146.681 66.3228 146.925C66.4454 148.039 66.5334 149.089 66.5934 150.031L67.1961 149.196C67.3388 148.995 67.6174 148.951 67.8161 149.096C68.0161 149.239 68.0628 149.517 67.9174 149.717L66.6708 151.445C66.7335 152.882 66.7334 153.896 66.7321 154.235C70.9254 161.773 71.2534 179.632 71.1988 186.988L71.1961 187.304C71.1961 189.027 69.2895 189.824 69.2068 189.856L69.0388 189.891Z" fill="#CC0001"/>
<path fill-rule="evenodd" clip-rule="evenodd" d="M86.4747 119.383C88.0841 121.891 90.7214 124.709 93.7374 127.352C99.7654 132.64 107.292 137.229 111.044 137.229C114.68 137.229 122.159 132.417 128.355 126.973C131.299 124.388 133.953 121.66 135.768 119.237L131.299 118.092C127.464 121.921 116.408 130.919 111.044 130.919C105.413 130.919 94.6294 121.921 90.792 118.092C89.3987 118.489 87.9507 118.923 86.4747 119.383Z" fill="#00FF00"/>
<path fill-rule="evenodd" clip-rule="evenodd" d="M80.0121 87.5253C69.6908 86.9893 68.8174 68.6973 74.7788 69.1013C79.7401 69.4347 80.7815 72.596 81.1095 73.9267C81.4375 75.2533 80.0121 87.5253 80.0121 87.5253Z" fill="#FCD1C8"/>
<path fill-rule="evenodd" clip-rule="evenodd" d="M144.084 87.5253C154.404 86.9893 155.276 68.6973 149.318 69.1013C144.355 69.4347 143.315 72.596 142.987 73.9267C142.658 75.2533 144.084 87.5253 144.084 87.5253Z" fill="#FCD1C8"/>
<path fill-rule="evenodd" clip-rule="evenodd" d="M145.944 51.7133V75.1267C145.944 94.856 132.495 116.44 112.051 116.44C91.6041 116.44 78.1561 94.856 78.1561 75.1267V51.7133C78.1561 7.172 145.944 7.172 145.944 51.7133Z" fill="#FCD1C8"/>
<path fill-rule="evenodd" clip-rule="evenodd" d="M145.944 53.04V56.176C145.705 56.164 145.451 56.148 145.18 56.128C128.587 54.904 112.781 42.9147 112.781 42.9147L119.628 42.08C119.628 42.08 138.385 48.8773 145.944 53.04Z" fill="#F9A8A1"/>
<path fill-rule="evenodd" clip-rule="evenodd" d="M112.685 67.532C112.763 67.8667 112.76 68.2373 112.661 68.5067C111.953 70.404 108.845 78.556 108.937 79.6067C109.143 80.956 112.997 81.6893 115.037 81.6453C116.301 81.62 115.06 86.0787 112.969 85.5987C110.737 85.0867 107.336 82.5 106.952 79.9187C106.767 78.6747 108.74 72.9973 110.183 69.164C110.552 68.18 110.235 67.2173 110.041 66.5867C109.541 64.9387 112.429 66.4253 112.685 67.532Z" fill="#F9A8A1"/>
<path d="M147.357 81.712C147.141 81.712 146.951 81.5546 146.917 81.3333C146.705 79.9146 146.812 78.0746 147.195 76.2146L147.2 76.1893C147.352 75.4506 147.547 74.7053 147.781 73.9826C148.547 71.6413 149.415 71.2813 150.013 71.3906C150.945 71.5626 151.515 72.9933 151.425 74.9546C151.417 75.2 151.197 75.4413 150.961 75.3786C150.715 75.3666 150.525 75.16 150.536 74.9133C150.612 73.248 150.139 72.32 149.855 72.268C149.668 72.2133 149.188 72.552 148.631 74.26C148.447 74.82 148.289 75.3986 148.157 75.9786C148.812 76.24 149.876 77.008 149.833 79.232C149.828 79.476 149.629 79.6693 149.387 79.6693H149.377C149.132 79.664 148.936 79.46 148.941 79.216C148.972 77.6693 148.385 77.0853 147.979 76.8653C147.696 78.4626 147.621 80.0173 147.799 81.2C147.835 81.4453 147.667 81.6706 147.424 81.708L147.357 81.712Z" fill="#F9A8A1"/>
<path d="M76.7442 81.712L76.6775 81.708C76.4349 81.6706 76.2655 81.4453 76.3028 81.2C76.4788 80.0173 76.4068 78.4626 76.1228 76.8666C75.7122 77.088 75.1308 77.6746 75.1588 79.216C75.1642 79.46 74.9682 79.664 74.7215 79.6693H74.7135C74.4722 79.6693 74.2735 79.476 74.2682 79.232C74.2242 77.008 75.2909 76.24 75.9429 75.9786C75.8122 75.3986 75.6535 74.82 75.4722 74.26C74.9189 72.5653 74.4108 72.2346 74.2482 72.268C73.9615 72.32 73.4895 73.248 73.5642 74.9133C73.5762 75.16 73.3855 75.3666 73.1402 75.3786C72.9175 75.432 72.6855 75.2 72.6749 74.9546C72.5869 72.9933 73.1535 71.5626 74.0895 71.3906C74.6855 71.28 75.5548 71.6453 76.3175 73.9826C77.1482 76.528 77.4815 79.3466 77.1855 81.3333C77.1508 81.5546 76.9615 81.712 76.7442 81.712Z" fill="#F9A8A1"/>
<path fill-rule="evenodd" clip-rule="evenodd" d="M75.7081 41.7467C75.7428 47.1173 77.9814 69.9733 77.9814 69.9733C80.7254 71.2533 81.8788 79.9453 81.8788 79.9453C81.8788 79.9453 81.8254 67.096 81.7921 65.2986C81.7921 65.2986 82.1441 63.2133 82.6188 62.3133C83.2774 61.0653 83.2268 44.1826 83.0548 43.856C82.3881 42.6 83.7628 42.448 83.7401 42.4453L75.7081 41.7467Z" fill="#0000FF"/>
<path d="M112.051 91.9293C108.779 91.9293 105.696 91.5933 103.135 90.9587C102.656 90.8413 102.365 90.356 102.484 89.8787C102.604 89.4013 103.091 89.1107 103.564 89.2293C108.339 90.4133 115.761 90.4133 120.537 89.2293C121.013 89.1093 121.499 89.4013 121.617 89.8787C121.736 90.356 121.445 90.8413 120.968 90.9587C118.407 91.5933 115.323 91.9293 112.051 91.9293Z" fill="#F9A8A1"/>
<path d="M112.052 95.7413C110.432 95.7413 108.815 95.6813 107.245 95.56C106.756 95.5227 106.388 95.0933 106.424 94.6027C106.465 94.1133 106.909 93.7733 107.383 93.784C110.431 94.0173 113.669 94.0173 116.716 93.784C117.22 93.7747 117.637 94.1133 117.675 94.6027C117.711 95.0933 117.344 95.5227 116.855 95.56C115.287 95.6813 113.669 95.7413 112.052 95.7413Z" fill="#F9A8A1"/>
<path fill-rule="evenodd" clip-rule="evenodd" d="M128.42 66.1573H128.423C131.115 66.1573 133.32 68.3613 133.32 71.0573V74.0387C133.32 76.7347 131.115 78.9373 128.423 78.9373H128.42C125.727 78.9373 123.521 76.7347 123.521 74.0387V71.0573C123.521 68.3613 125.727 66.1573 128.42 66.1573Z" fill="#4C466A"/>
<path d="M133.756 68.0026L133.539 67.976C130.661 67.264 126.18 67.264 123.303 67.976C122.82 68.096 122.343 67.804 122.224 67.3266C122.104 66.8493 122.396 66.364 122.872 66.2466C126.071 65.4546 130.771 65.4546 133.969 66.2466C134.445 66.364 134.737 66.8493 134.617 67.3266C134.517 67.732 134.153 68.0026 133.756 68.0026Z" fill="#4C466A"/>
<path d="M128.421 68.5827C126.383 68.5827 124.467 68.372 122.872 67.976C122.396 67.856 122.104 67.3747 122.224 66.8973C122.343 66.4187 122.823 66.1267 123.303 66.2467C126.169 66.96 130.671 66.96 133.539 66.2467C134.019 66.1253 134.499 66.4187 134.617 66.8973C134.737 67.3747 134.445 67.856 133.969 67.976C132.375 68.372 130.457 68.5827 128.421 68.5827Z" fill="#4C466A"/>
<path fill-rule="evenodd" clip-rule="evenodd" d="M95.6827 66.1573H95.68C92.9854 66.1573 90.7814 68.3613 90.7814 71.0573V74.0387C90.7814 76.7347 92.9854 78.9373 95.68 78.9373H95.6827C98.3747 78.9373 100.581 76.7347 100.581 74.0387V71.0573C100.581 68.3613 98.3747 66.1573 95.6827 66.1573Z" fill="#4C466A"/>
<path d="M101.016 68.0026L100.8 67.976C97.9227 67.264 93.4401 67.264 90.5627 67.976C90.0867 68.096 89.6014 67.804 89.484 67.3266C89.3654 66.8493 89.6561 66.364 90.1334 66.2466C93.3294 65.4546 98.0321 65.4546 101.229 66.2466C101.705 66.364 101.997 66.8493 101.877 67.3266C101.777 67.732 101.415 68.0026 101.016 68.0026Z" fill="#4C466A"/>
<path d="M95.6814 68.5827C93.644 68.5827 91.7267 68.372 90.1334 67.976C89.6561 67.856 89.3654 67.3747 89.484 66.8973C89.6014 66.4187 90.0881 66.1267 90.5627 66.2467C93.4294 66.96 97.9307 66.96 100.8 66.2467C101.273 66.1253 101.759 66.4187 101.877 66.8973C101.997 67.3747 101.705 67.856 101.229 67.976C99.6361 68.372 97.7174 68.5827 95.6814 68.5827Z" fill="#4C466A"/>
<path fill-rule="evenodd" clip-rule="evenodd" d="M148.415 41.7467C148.379 47.1173 146.14 69.9733 146.14 69.9733C143.397 71.2533 142.243 79.9453 142.243 79.9453C142.243 79.9453 142.295 67.096 142.328 65.2986C142.328 65.2986 141.979 63.2133 141.504 62.3133C140.844 61.0653 140.896 44.1826 141.068 43.856C141.732 42.6 140.357 42.448 140.381 42.4453L148.415 41.7467Z" fill="#0000FF"/>
<path d="M112.211 50.0133C110.188 50.0133 108.104 49.8667 106.079 49.5733L105.437 49.4813C103.477 49.1933 101.453 48.8933 98.9774 48.9973C98.7467 48.9693 98.5214 48.8147 98.512 48.5707C98.5027 48.3227 98.6934 48.1173 98.9387 48.1067C101.501 48.0133 103.565 48.3067 105.565 48.5987L106.205 48.692C109.753 49.2027 113.483 49.26 116.712 48.8533C117.328 48.776 117.928 48.6867 118.531 48.5987C120.533 48.3067 122.599 48.0147 125.161 48.1067C125.408 48.1173 125.599 48.3227 125.589 48.5707C125.58 48.8147 125.372 48.9653 125.125 48.9973C122.653 48.892 120.624 49.1947 118.66 49.4813C118.052 49.5707 117.444 49.6587 116.823 49.7373C115.365 49.9213 113.808 50.0133 112.211 50.0133Z" fill="#F9A8A1"/>
<path fill-rule="evenodd" clip-rule="evenodd" d="M147.74 52.2933C154.587 45.8093 149.232 38.3373 149.232 38.3373C152.812 37.68 156.789 27.6387 138.283 14.84C119.776 2.04133 94.4228 3.30133 86.6175 11.1027C78.8121 18.904 78.3841 30.4173 78.3841 30.4173C56.9295 48.96 82.2535 74.2613 88.9868 47.508C90.3801 41.9627 94.0455 39.0693 99.5841 39.0693C111.139 39.0693 139.417 59.1667 147.74 52.2933Z" fill="#0000FF"/>
<path fill-rule="evenodd" clip-rule="evenodd" d="M149.232 38.3373C152.812 37.68 156.789 27.6387 138.283 14.84C137.795 14.5027 137.303 14.18 136.808 13.8613C132.849 18.404 125.081 23.8093 111.263 21.6213C111.263 21.6213 125.159 40.7213 149.232 38.3373Z" fill="black" fill-opacity="0.2"/>
<path d="M78.8748 31.732C78.6855 31.732 78.5095 31.6093 78.4508 31.4187C78.3575 31.124 76.2401 24.056 81.4455 13.364C81.5548 13.1427 81.8242 13.0547 82.0388 13.16C82.2602 13.2667 82.3535 13.5333 82.2455 13.7547C77.1961 24.1293 79.2788 31.0827 79.3002 31.1507C79.3735 31.388 79.2442 31.636 79.0095 31.7107L78.8748 31.732ZM84.5322 59.3093L84.2135 59.176C84.0415 59 84.0441 58.7187 84.2201 58.5467C89.5135 53.344 88.7175 45.18 88.7082 45.096C88.6828 44.852 88.8602 44.632 89.1055 44.6067C89.3562 44.58 89.5682 44.7573 89.5948 45.0027C89.6335 45.3533 90.4508 53.672 84.8442 59.1827L84.5322 59.3093Z" fill="black" fill-opacity="0.2"/>
<path fill-rule="evenodd" clip-rule="evenodd" d="M120.115 61.232C120.067 61.0693 120.044 60.9053 120.043 60.7627C120.043 60.6 120.071 60.456 120.12 60.3467C120.205 60.164 120.336 60.072 120.503 60.1213C120.62 60.1533 121.082 60.084 121.706 59.96C125.304 59.244 129.368 57.6826 132.892 58.12C135.76 58.476 138.279 61.3413 138.287 61.3493L138.334 61.664C138.283 61.8 138.152 61.8613 138.044 61.8013C137.472 61.484 136.839 61.2893 136.072 61.2253C132.659 60.94 126.716 62.1187 123.44 62.3667C122.43 62.4467 120.544 62.6627 120.115 61.232Z" fill="#6D526F"/>
<path fill-rule="evenodd" clip-rule="evenodd" d="M103.992 60.98C104.036 60.8173 104.055 60.6533 104.051 60.5093C104.047 60.3493 104.015 60.2027 103.961 60.096C103.872 59.9147 103.739 59.8293 103.573 59.88C103.459 59.916 102.995 59.8613 102.365 59.752C98.7508 59.1386 94.6441 57.692 91.1335 58.2267C88.2761 58.66 85.8375 61.5933 85.8308 61.6026L85.7921 61.9186C85.8468 62.0546 85.9788 62.112 86.0868 62.0493C86.6481 61.7147 87.2748 61.5027 88.0415 61.4173C91.4441 61.036 97.4188 62.052 100.7 62.2107C101.709 62.2573 103.603 62.424 103.992 60.98Z" fill="#6D526F"/>
<path d="M142.935 54.1667C136.912 54.1667 128.148 50.2373 119.601 46.404C111.701 42.8613 104.243 39.516 99.5841 39.516C99.3387 39.516 99.1387 39.3146 99.1387 39.0693C99.1387 38.8226 99.3387 38.624 99.5841 38.624C104.432 38.624 111.979 42.008 119.967 45.5907C131.177 50.62 142.769 55.8173 147.457 51.9507C147.647 51.7933 147.925 51.82 148.084 52.0107C148.24 52.1987 148.213 52.48 148.024 52.6373C146.724 53.7106 144.988 54.1667 142.935 54.1667ZM103.407 115.528L103.268 115.505C91.1281 111.571 81.4174 99.0987 78.5281 83.7333C78.4814 83.492 78.6427 83.2573 78.8827 83.2133C79.1387 83.1693 79.3574 83.328 79.4041 83.5693C82.2347 98.6173 91.7081 110.823 103.543 114.659C103.777 114.735 103.905 114.984 103.828 115.219C103.768 115.407 103.593 115.528 103.407 115.528Z" fill="white"/>
</svg>
