<svg width="224" height="234" viewBox="0 0 224 234" fill="none" xmlns="http://www.w3.org/2000/svg">
<g clip-path="url(#clip0_1_1358)">
<path fill-rule="evenodd" clip-rule="evenodd" d="M42.596 205.787C39.7187 206.089 35.8027 205.292 35.5053 201.033C35.2053 196.776 39.584 196.525 39.6667 196.659C39.7507 196.79 42.7787 202.202 42.7787 202.314L42.596 205.787Z" fill="#FF818F"/>
<path fill-rule="evenodd" clip-rule="evenodd" d="M93.7373 144.085H128.355V127.468C130.489 126.763 132.735 125.901 132.735 125.901L131.3 124.091C131.3 124.091 128.355 122.801 128.355 119.041V87.0627H93.7373V119.041C93.7373 122.801 90.7946 124.091 90.7946 124.091L89.3573 125.901C89.3573 125.901 91.604 126.763 93.7373 127.468V144.085Z" fill="#FCD1C8"/>
<path fill-rule="evenodd" clip-rule="evenodd" d="M93.7373 108.744V119.041C93.7373 120.637 93.2053 121.791 92.5959 122.585C97.9773 127.107 111.735 135.407 126.076 117.947L104.099 105.088C104.099 105.088 98.3573 107.143 93.7373 108.744Z" fill="#F9A8A1"/>
<path fill-rule="evenodd" clip-rule="evenodd" d="M58.3413 135.471C59.716 134.804 77.6506 127.839 90.7946 124.091C94.6306 127.919 105.415 136.916 111.047 136.916C116.407 136.916 127.464 127.919 131.3 124.091L162.401 132.044V193.824L161.369 205.659H63.24L58.3413 135.471Z" fill="#FF0001"/>
<path fill-rule="evenodd" clip-rule="evenodd" d="M74.7506 205.659H63.24L61.7533 184.364C62.4066 183.187 62.82 182.471 62.82 182.471C62.82 182.471 66.6907 175.931 88.276 183.888C109.863 191.844 132.591 192.278 148.713 177.192C164.836 162.107 162.104 196.239 161.161 196.239C160.216 196.239 120.617 200.953 115.527 201.896C112.481 202.459 91.5266 204.637 74.7506 205.659Z" fill="#CC0001"/>
<path fill-rule="evenodd" clip-rule="evenodd" d="M94.144 188.028C94.144 188.028 89.1413 187.171 83.3227 187.576C77.5107 187.981 69.2627 189.424 69.2627 189.424L66.3307 194.337L69.396 203.893C69.396 203.893 72.776 205.38 74.4454 204.252C76.112 203.125 94.6387 193.165 94.144 188.028Z" fill="#FCD1C8"/>
<path fill-rule="evenodd" clip-rule="evenodd" d="M69.0387 195.444C69.0387 195.444 69.4401 198.847 72.4174 202.453L80.8027 200.017L108.927 201.729L123.101 220.32C123.101 220.32 120.828 220.569 108.477 224.627C96.1254 228.684 86.9294 233.732 69.5321 235.085C52.1334 236.437 47.7134 233.732 46.0027 225.709C44.2894 217.687 37.4374 206.508 37.8881 195.78C38.3387 185.052 55.7374 184.96 55.7374 184.96C55.7374 184.96 69.3521 187.033 69.0387 195.444Z" fill="#FCD1C8"/>
<path fill-rule="evenodd" clip-rule="evenodd" d="M110.711 204.069L123.101 220.32C123.101 220.32 121.057 220.547 110.328 224.023C108.893 213.597 96.0441 208.284 96.0441 208.284L109.243 203.724C109.743 203.837 110.232 203.953 110.711 204.069Z" fill="#F9A8A1"/>
<path fill-rule="evenodd" clip-rule="evenodd" d="M38.3827 202.168C37.9974 200.039 37.8 197.901 37.888 195.78C38.216 187.956 47.56 185.789 52.5934 185.19L57.5787 191.438C57.5787 191.438 44.208 194.32 38.3827 202.168Z" fill="#F9A8A1"/>
<path fill-rule="evenodd" clip-rule="evenodd" d="M132.185 194.877L135.44 192.919C135.44 192.919 139.396 190.82 143.815 187.575C148.232 184.331 151.927 183.428 156.617 184.511C161.305 185.594 162.401 191.09 162.401 191.09C162.401 191.09 159.229 199.206 156.344 197.851C153.461 196.5 132.185 194.877 132.185 194.877Z" fill="#FCD1C8"/>
<path fill-rule="evenodd" clip-rule="evenodd" d="M185.333 187.736C185.333 187.736 182.536 209.265 175.393 219.156L151.855 192.828C151.855 192.828 150.765 186.904 151.844 181.787C152.923 176.669 152.923 176.669 152.923 176.669C152.923 176.669 173.836 172.971 174.828 173.513C175.82 174.055 185.284 182.167 185.333 187.736Z" fill="#FCD1C8"/>
<path fill-rule="evenodd" clip-rule="evenodd" d="M185.333 187.736C185.333 187.736 185.188 188.869 184.875 190.735C175.917 180.483 163.703 179.847 163.703 179.847L167.524 174.265C171.317 173.699 174.459 173.312 174.828 173.513C175.82 174.055 185.284 182.167 185.333 187.736Z" fill="#F9A8A1"/>
<path fill-rule="evenodd" clip-rule="evenodd" d="M186.555 187.016C186.443 170.173 180.779 136.984 162.401 132.044C162.401 132.044 154.639 143.203 154.096 165.739C154.096 165.739 150.131 174.214 150.852 180.524C150.852 180.524 150.899 181.425 151.844 181.787C151.844 181.787 174.153 174.575 185.333 187.736C185.333 187.736 186.573 187.985 186.555 187.016Z" fill="#FF0001"/>
<path fill-rule="evenodd" clip-rule="evenodd" d="M186.555 187.016C186.544 185.653 186.497 184.181 186.412 182.628C170.464 169.421 150.792 178.473 150.771 178.483C150.753 179.18 150.779 179.864 150.852 180.524C150.852 180.524 150.899 181.425 151.844 181.787C151.844 181.787 174.153 174.575 185.333 187.736C185.333 187.736 186.573 187.985 186.555 187.016Z" fill="#00FF00"/>
<path fill-rule="evenodd" clip-rule="evenodd" d="M58.3387 135.471C58.3387 135.471 43.3773 141.86 40.7627 155.833C38.148 169.807 34.872 195.175 35.5054 201.033C39.3387 192.896 65.9814 187.132 69.0387 195.444C69.0387 195.444 70.7507 194.744 70.7507 193.301C70.7507 191.859 71.1533 168.909 66.2867 160.347C66.2867 160.347 66.648 140.339 58.3387 135.471Z" fill="#FF0001"/>
<path fill-rule="evenodd" clip-rule="evenodd" d="M35.6414 194.156C35.4227 197.245 35.3574 199.669 35.5054 201.033C39.3387 192.896 65.9814 187.132 69.0387 195.444C69.0387 195.444 70.7507 194.744 70.7507 193.301C70.7507 193.026 70.7654 191.968 70.756 190.375C50.4067 181.801 35.6507 194.147 35.6414 194.156Z" fill="#00FF00"/>
<path fill-rule="evenodd" clip-rule="evenodd" d="M94.144 188.028C94.144 188.028 109.56 191.633 121.909 192.896C134.26 194.159 153.464 189.831 164.099 196.14C174.737 202.453 176.901 210.656 176.901 214.351C176.901 218.047 173.656 224 165.271 225.171C156.888 226.341 136.333 225.621 120.377 219.311C104.42 213 90.3574 203.083 72.4174 202.453L94.144 188.028Z" fill="#FCD1C8"/>
<path d="M164.099 196.585L163.872 196.523C160.565 194.563 156.429 193.645 151.901 193.271L151.732 193.255C146.857 192.867 141.536 193.1 136.303 193.328L135.401 193.367C135.112 193.375 134.948 193.187 134.937 192.941C134.927 192.695 135.117 192.487 135.363 192.476L136.263 192.437C141.352 192.216 146.529 191.992 151.32 192.331C151.076 190.706 150.508 185.967 151.407 181.695C151.459 181.455 151.688 181.302 151.935 181.351C152.175 181.401 152.328 181.637 152.279 181.878C151.377 186.16 152.029 191.078 152.235 192.402C156.779 192.801 160.948 193.752 164.328 195.757C164.539 195.883 164.609 196.156 164.484 196.367C164.401 196.508 164.253 196.585 164.099 196.585ZM123.071 220.755L122.924 220.731C122.011 220.411 121.104 220.076 120.213 219.724C115.599 217.901 111.087 215.747 106.719 213.667C95.5907 208.356 85.0814 203.345 72.4067 202.899C72.2947 202.885 67.1414 202.859 62.3387 205.409C62.1254 205.528 61.852 205.445 61.7374 205.226C61.62 205.008 61.7027 204.739 61.92 204.625C65.792 202.567 69.7734 202.124 71.5214 202.029C68.9947 198.641 68.612 195.631 68.596 195.497C68.568 195.252 68.7427 195.031 68.9867 195.002C69.2214 194.968 69.4507 195.145 69.4813 195.39C69.484 195.421 69.9014 198.621 72.636 202.014C85.4094 202.514 96.4374 207.775 107.104 212.861C111.456 214.937 115.956 217.083 120.539 218.897C121.42 219.244 122.313 219.575 123.216 219.888C123.451 219.968 123.573 220.224 123.492 220.456C123.429 220.639 123.256 220.755 123.071 220.755Z" fill="#F9A8A1"/>
<path d="M151.844 182.232L151.685 182.202C150.481 181.744 150.412 180.596 150.409 180.547C149.711 174.478 153.213 166.596 153.653 165.636C153.705 163.597 153.817 161.578 153.989 159.6L153.089 158.145C152.961 157.935 153.027 157.661 153.235 157.531C153.445 157.406 153.719 157.468 153.849 157.677L154.131 158.132C154.216 157.285 154.315 156.445 154.424 155.614C154.456 155.372 154.648 155.2 154.924 155.232C155.169 155.264 155.341 155.487 155.311 155.732C154.883 158.951 154.625 162.323 154.541 165.751L154.5 165.929C154.461 166.013 150.596 174.364 151.295 180.473C151.303 180.56 151.363 181.125 152.003 181.371C152.232 181.459 152.347 181.716 152.26 181.945C152.193 182.124 152.024 182.232 151.844 182.232ZM69.0387 195.889C68.8653 195.889 68.6987 195.785 68.628 195.613C68.5347 195.385 68.644 195.125 68.8693 195.031C68.8827 195.025 70.3053 194.423 70.3053 193.301L70.308 192.981C70.3627 185.664 70.0413 167.856 65.8987 160.565L65.8413 160.339C65.8413 160.306 65.8933 157.104 65.4347 153.023C65.4093 152.778 65.5867 152.559 65.8307 152.529C66.084 152.523 66.2946 152.68 66.3226 152.924C66.4453 154.037 66.5347 155.087 66.5933 156.025L67.196 155.194C67.3387 154.992 67.6173 154.948 67.8146 155.094C68.016 155.236 68.0626 155.514 67.9173 155.714L66.672 157.443C66.7347 158.88 66.7347 159.893 66.732 160.232C70.924 167.773 71.2533 185.632 71.1987 192.987V193.301C71.1987 195.024 69.2893 195.823 69.2053 195.856L69.0387 195.889Z" fill="#CC0001"/>
<path fill-rule="evenodd" clip-rule="evenodd" d="M86.4747 125.381C88.0841 127.889 90.7241 130.708 93.7374 133.351C99.7681 138.64 107.292 143.228 111.047 143.228C114.683 143.228 122.159 138.416 128.355 132.973C131.3 130.387 133.953 127.659 135.771 125.235L131.3 124.091C127.464 127.919 116.407 136.917 111.047 136.917C105.415 136.917 94.6307 127.919 90.7947 124.091C89.3987 124.489 87.9534 124.921 86.4747 125.381Z" fill="#00FF00"/>
<path fill-rule="evenodd" clip-rule="evenodd" d="M87.8173 116.464C88.2346 118.159 89.5106 119.091 90.696 119.604C89.8933 118.872 89.336 117.911 89.1693 116.817L89.1413 116.601C88.6853 116.625 88.2373 116.575 87.8173 116.464ZM76.4013 91.26C74.8653 92.3466 74.4839 93.7386 74.5466 94.968C74.9839 93.888 75.9146 92.996 77.1253 92.5333C76.748 92.3227 76.48 91.9706 76.412 91.5466L76.4013 91.26ZM103.568 122.247C104.331 122.705 105.865 123.211 108.151 122.068L107.863 121.731C107.596 121.915 107.273 122.043 106.917 122.088C106.183 122.181 105.487 121.903 105.068 121.413C104.639 121.768 104.131 122.053 103.568 122.247ZM102.535 122.487C100.505 122.741 98.6066 121.804 97.7186 120.273C97.0519 120.664 96.2786 120.933 95.4346 121.04C94.2053 121.195 93.0186 120.979 92.008 120.489C90.5213 120.157 87.8106 119.164 87.276 116.284C86.104 115.799 85.224 114.807 85.036 113.577C84.9773 113.2 84.9893 112.829 85.06 112.473C83.9266 112.145 83.0466 111.265 82.8746 110.14C82.7706 109.468 82.9373 108.817 83.3 108.275C82.74 108.251 82.2626 107.875 82.1853 107.361L82.1773 107.143C80.648 107.077 79.3413 106.049 79.1253 104.644C78.984 103.729 79.3386 102.851 80.008 102.232C79.612 101.92 79.336 101.487 79.2573 100.984C79.2373 100.836 79.232 100.689 79.2453 100.547C76.8146 100.697 74.6413 99.148 74.308 96.9626C74.2733 96.7373 74.2573 96.5133 74.2653 96.2933C73.8653 94.808 73.8106 92.7013 75.8386 91.108C75.6826 88.3773 79.344 84.736 84.128 88.7453C87.144 86.164 90.708 87.3853 93.36 89.584C94.4893 88.8373 96.3693 88.26 99.196 89.3306C101.813 85.7293 107.451 85.7293 109.98 89.6813C110.183 89.6226 110.393 89.588 110.617 89.5826L110.969 89.6013C111.591 88.5706 112.972 86.8973 115.552 86.4186C115.721 86.388 115.883 86.4973 115.912 86.6667C115.943 86.8333 115.831 86.9946 115.664 87.024C113.432 87.44 112.193 88.828 111.593 89.7586C111.901 89.88 112.177 90.0626 112.412 90.2893C113.18 88.932 114.617 88.0026 116.287 87.9653C118.315 87.9186 120.063 89.2013 120.701 91.0146C122.699 88.7293 128.719 89.088 129.88 90.9026C140.352 81.372 152 92.18 148.144 95.2306C148.56 95.4733 148.863 95.872 148.932 96.348C149.019 96.8906 148.784 97.4093 148.36 97.7533C150.904 99.3386 149.688 103.284 149.685 103.296C149.651 103.413 149.516 103.484 149.383 103.453C149.253 103.423 149.175 103.301 149.208 103.185C149.213 103.175 150.38 99.3746 147.904 98.0226C147.789 98.0693 147.667 98.1066 147.539 98.1293C148.005 98.6453 148.325 99.2786 148.432 99.984C148.751 102.052 147.128 103.968 144.808 104.26L144.765 104.265C145.115 104.669 145.355 105.157 145.437 105.7C145.656 107.132 144.721 108.471 143.268 108.967C143.36 109.952 142.573 110.844 141.461 110.984C141.196 111.017 140.932 111.004 140.685 110.953C140.803 114.317 138.055 117.296 134.237 117.779C133.055 117.928 131.904 117.823 130.849 117.511C130.36 118.515 129.311 119.28 128.005 119.444C126.951 119.577 125.94 119.292 125.183 118.732C124.909 120.077 123.696 121.18 122.096 121.38C120.779 121.547 119.532 121.063 118.757 120.2C118.601 120.388 118.409 120.545 118.183 120.667C118.768 121.249 119.917 122.08 121.724 122.112C121.863 122.115 121.969 122.215 121.964 122.336C121.961 122.457 121.849 122.555 121.713 122.552C119.625 122.513 118.331 121.497 117.711 120.849L117.435 120.901C117.263 120.924 117.089 120.924 116.923 120.907C116.221 122.348 114.721 123.44 112.852 123.676C111.191 123.885 109.601 123.369 108.495 122.399C105.604 123.888 103.743 122.96 102.995 122.405C102.844 122.44 102.691 122.465 102.535 122.487ZM95.172 91.3986C95.584 90.632 96.3799 90.104 97.3133 90.084C97.7626 90.072 98.1933 90.184 98.5653 90.388C98.6506 90.204 98.7453 90.028 98.8466 89.8586C96.4506 88.9893 94.836 89.4053 93.8413 90.0053C94.3226 90.448 94.7706 90.9173 95.172 91.3986Z" fill="#DD8C79"/>
<path d="M155.948 54.872C155.792 54.872 155.641 54.792 155.56 54.6453C155.461 54.4653 153.052 50.284 148.891 51.588C148.656 51.6613 148.409 51.532 148.333 51.2974C148.26 51.064 148.391 50.812 148.625 50.7387C153.475 49.2053 156.311 54.1587 156.339 54.2107C156.456 54.424 156.38 54.6947 156.167 54.8147L155.948 54.872ZM152.265 82.9707C148.865 82.9707 146.461 82.1467 145.811 81.4947C145.516 81.1973 145.581 80.9187 145.623 80.812C145.713 80.584 145.975 80.4707 146.201 80.5613C146.352 80.6213 146.451 80.752 146.477 80.9013C147.172 81.5147 152.967 83.4467 160.693 80.4373C160.923 80.348 161.18 80.46 161.268 80.6893C161.36 80.9187 161.245 81.18 161.016 81.2667C157.765 82.5307 154.751 82.9707 152.265 82.9707Z" fill="#DD8C79"/>
<path fill-rule="evenodd" clip-rule="evenodd" d="M154.948 58.0987C155.529 54.652 153.203 51.3867 149.756 50.8054C146.311 50.2254 143.044 52.5494 142.464 55.9974C141.883 59.4454 144.205 62.7107 147.653 63.292C151.101 63.872 154.368 61.548 154.948 58.0987Z" fill="#DD8C79"/>
<path fill-rule="evenodd" clip-rule="evenodd" d="M162.063 72.4173C163.164 65.88 158.756 59.684 152.216 58.5827C145.675 57.4813 139.481 61.8907 138.38 68.4293C137.279 74.968 141.688 81.164 148.227 82.2653C154.768 83.3667 160.961 78.9587 162.063 72.4173Z" fill="#DD8C79"/>
<path fill-rule="evenodd" clip-rule="evenodd" d="M79.44 89.9347C69.1173 89.4013 68.2453 71.1067 74.2053 71.5107C79.1667 71.8453 80.208 75.008 80.5347 76.336C80.8653 77.664 79.44 89.9347 79.44 89.9347Z" fill="#FCD1C8"/>
<path fill-rule="evenodd" clip-rule="evenodd" d="M143.511 89.9347C153.831 89.4013 154.703 71.1067 148.745 71.5107C143.781 71.8453 142.743 75.008 142.415 76.336C142.087 77.664 143.511 89.9347 143.511 89.9347Z" fill="#FCD1C8"/>
<path fill-rule="evenodd" clip-rule="evenodd" d="M145.369 54.1253V77.5347C145.369 97.268 131.923 118.849 111.477 118.849C91.032 118.849 77.584 97.268 77.584 77.5347V54.1253C77.584 9.58267 145.369 9.58267 145.369 54.1253Z" fill="#FCD1C8"/>
<path fill-rule="evenodd" clip-rule="evenodd" d="M127.437 65.8213H127.44C129.901 65.8213 131.917 67.836 131.917 70.2987V73.024C131.917 75.4893 129.901 77.5053 127.44 77.5053H127.437C124.975 77.5053 122.959 75.4893 122.959 73.024V70.2987C122.959 67.836 124.975 65.8213 127.437 65.8213Z" fill="#3E3155"/>
<path fill-rule="evenodd" clip-rule="evenodd" d="M95.5213 65.8213H95.5187C93.0547 65.8213 91.0387 67.836 91.0387 70.2987V73.024C91.0387 75.4893 93.0547 77.5053 95.5187 77.5053H95.5213C97.9813 77.5053 99.9974 75.4893 99.9974 73.024V70.2987C99.9974 67.836 97.9813 65.8213 95.5213 65.8213Z" fill="#3E3155"/>
<path fill-rule="evenodd" clip-rule="evenodd" d="M112.032 67.232C112.117 67.6254 112.115 68.056 112.005 68.372C111.224 70.5933 108.257 78.1093 108.363 79.3413C108.587 80.9187 112.849 81.7787 115.104 81.728C116.5 81.696 115.131 86.916 112.817 86.3507C110.349 85.756 106.653 83.0854 106.229 80.0627C106.027 78.6054 108.271 73.8227 109.865 69.336C110.437 67.7987 109.323 66.864 109.109 66.1253C108.557 64.1973 111.751 65.9374 112.032 67.232Z" fill="#F9A8A1"/>
<path d="M146.784 84.1227C146.568 84.1227 146.377 83.9627 146.344 83.7427C146.047 81.76 146.377 78.9427 147.208 76.3934C147.975 74.0507 148.855 73.6893 149.44 73.8013C150.372 73.9707 150.94 75.4027 150.852 77.364C150.841 77.6094 150.628 77.8227 150.388 77.7893C150.141 77.7787 149.951 77.5694 149.964 77.3254C150.036 75.6587 149.565 74.7294 149.279 74.6774C149.125 74.6574 148.612 74.96 148.055 76.6693C147.872 77.2293 147.716 77.8067 147.584 78.388C148.237 78.6493 149.303 79.416 149.26 81.6427C149.256 81.8854 149.057 82.08 148.815 82.08H148.805C148.56 82.0747 148.365 81.8707 148.369 81.6254C148.399 80.0774 147.815 79.4947 147.407 79.2747C147.123 80.872 147.047 82.4294 147.227 83.6107C147.263 83.8534 147.093 84.08 146.852 84.1173L146.784 84.1227Z" fill="#F9A8A1"/>
<path d="M76.1693 84.1227L76.1039 84.1173C75.8626 84.08 75.6933 83.8534 75.7293 83.6107C75.9066 82.4307 75.8333 80.8747 75.5493 79.2774C75.1413 79.5 74.5573 80.084 74.5866 81.6254C74.5906 81.8707 74.3959 82.0747 74.1479 82.08C73.8879 82.0494 73.7013 81.888 73.6959 81.6427C73.6506 79.416 74.7186 78.6493 75.3693 78.388C75.2399 77.8067 75.0813 77.2293 74.8986 76.668C74.3413 74.96 73.792 74.6574 73.6746 74.6774C73.3906 74.7294 72.9173 75.6587 72.9919 77.3254C73.0053 77.5694 72.8133 77.7787 72.5679 77.7893C72.2999 77.8147 72.1119 77.6094 72.1039 77.364C72.0159 75.4027 72.5813 73.9707 73.5159 73.7987C74.1199 73.7 74.9813 74.0574 75.7453 76.392C76.576 78.9454 76.9093 81.76 76.612 83.7427C76.5786 83.9627 76.3879 84.1227 76.1693 84.1227Z" fill="#F9A8A1"/>
<path fill-rule="evenodd" clip-rule="evenodd" d="M143.503 26.4054C151.708 37.4107 149.519 54.7214 147.94 71.5814C147.94 71.5814 145.109 71.88 145.109 75.776C145.109 75.776 142.74 73.3307 142.74 69.448C142.74 65.5654 141.484 60.6534 138.86 58.7147C136.232 56.7734 135.091 55.06 136.461 49.6934C136.743 48.588 137.016 47.356 137.227 46.0614C137.263 45.796 138.024 39.736 134.183 39.2C125.76 38.0254 97.1907 38.0254 88.7681 39.2C84.9241 39.736 85.6854 45.796 85.7214 46.0614C85.9347 47.356 86.2054 48.588 86.4894 49.6934C87.86 55.06 86.7161 56.7734 84.0907 58.7147C81.4641 60.6534 80.2107 65.5654 80.2107 69.448C80.2107 73.3307 77.8414 75.776 77.8414 75.776C77.8414 71.88 75.0107 71.5814 75.0107 71.5814C73.4294 54.7214 71.2427 37.4107 79.448 26.4054C91.2787 10.5387 131.669 10.5387 143.503 26.4054Z" fill="#DD8C79"/>
<path fill-rule="evenodd" clip-rule="evenodd" d="M78.584 27.6494C78.8573 27.2267 79.1466 26.812 79.448 26.4053C79.8573 25.856 80.308 25.3267 80.784 24.8134C106.005 30.0747 122.112 22.7573 129.948 17.408C134.284 18.908 138.104 20.9907 141.003 23.656C112.992 41.216 85.5707 30.828 78.584 27.6494Z" fill="#ECA387"/>
<path fill-rule="evenodd" clip-rule="evenodd" d="M118.984 65.9294C117.211 65.7467 117.383 62.5907 117.383 62.5827L117.448 62.4774L117.617 62.5227C117.8 62.8547 118.696 62.9587 120.047 62.692C121.172 62.4734 122.596 61.9894 124.175 61.16C126.601 59.88 127.823 58.3854 128.355 57.7347C128.527 57.52 128.639 57.388 128.732 57.3574L128.737 57.356L128.748 57.3534L128.757 57.3507H128.76H128.763C128.865 57.3467 128.92 57.404 128.924 57.5307C128.932 57.7054 128.924 57.8507 128.909 57.968C129.557 57.536 131.256 56.588 132.776 57.3374C134.683 58.276 135.417 62.3427 135.42 62.3534L135.377 62.4694L135.203 62.4627C135.199 62.4587 134.032 61.18 132.948 61.4947L132.943 61.4974C132.672 61.5747 131.815 61.888 130.651 62.3067C126.981 63.6334 120.271 66.0627 118.984 65.9294Z" fill="#DD8C79"/>
<path fill-rule="evenodd" clip-rule="evenodd" d="M103.311 71.2C105.084 71.0174 104.912 67.8627 104.912 67.8533L104.847 67.7494L104.677 67.796C104.497 68.1267 103.599 68.2307 102.251 67.9654C101.125 67.744 99.6986 67.2614 98.1226 66.432C95.6933 65.1534 94.4746 63.6573 93.94 63.0053C93.768 62.792 93.6586 62.6613 93.5653 62.6293L93.56 62.6267L93.5466 62.6253H93.5386L93.5346 62.624C93.4293 62.6187 93.3773 62.6773 93.372 62.804C93.3626 62.9787 93.372 63.1253 93.3853 63.24C92.7373 62.8093 91.0413 61.8587 89.5213 62.6093C87.6146 63.5493 86.88 67.6147 86.8773 67.6253L86.9173 67.7413L87.0933 67.736C87.096 67.732 88.2626 66.452 89.3493 66.7667L89.3546 66.768C89.6226 66.848 90.4813 67.1587 91.6466 67.5773C95.3133 68.9053 102.024 71.3334 103.311 71.2Z" fill="#DD8C79"/>
<path d="M111.477 99.5147C110.647 99.5147 109.817 99.4733 109.016 99.3933C108.527 99.3453 108.169 98.9067 108.219 98.4187C108.268 97.9293 108.713 97.5627 109.193 97.6213C110.683 97.7707 112.273 97.7707 113.763 97.6213C114.232 97.544 114.691 97.9293 114.737 98.4187C114.787 98.908 114.429 99.3453 113.94 99.3933C113.139 99.4733 112.308 99.5147 111.477 99.5147Z" fill="#F9A8A1"/>
<path fill-rule="evenodd" clip-rule="evenodd" d="M111.477 95.112C111.477 95.112 108.555 95.112 106.341 95.112C104.128 95.112 103.256 96.236 102.568 97.072C101.877 97.9053 101.495 98.524 100.661 99.6667C99.8253 100.812 99.372 102.591 100.535 104.115C101.699 105.639 103.021 106.928 103.748 107.708C106.924 111.123 110.177 105.376 107.703 101.355H111.477H115.251C112.776 105.376 116.029 111.123 119.205 107.708C119.932 106.928 121.257 105.639 122.42 104.115C123.581 102.591 123.128 100.812 122.292 99.6667C121.459 98.524 121.079 97.9053 120.388 97.072C119.699 96.236 118.825 95.112 116.615 95.112C114.399 95.112 111.477 95.112 111.477 95.112ZM121.708 90.8413L121.711 90.844L121.865 90.9533C125.589 93.6253 129.524 96.476 129.524 96.476C129.524 96.476 131.699 97.9373 133.532 94.7653C135.368 91.5933 142.344 83.3307 143.039 80.732C143.617 78.568 143.039 62.6773 143.039 62.6773L145.369 71.2107C145.369 73.5973 145.365 80.7493 145.211 82.588C143.648 101.207 130.633 120.157 111.477 120.157C92.32 120.157 79.308 101.207 77.7427 82.588C77.5893 80.7493 77.584 73.5973 77.584 71.2107L79.9173 62.6773C79.9173 62.6773 79.336 78.568 79.9173 80.732C80.612 83.3307 87.5867 91.5933 89.4227 94.7653C91.256 97.9373 93.4293 96.476 93.4293 96.476C93.4293 96.476 97.368 93.6253 101.089 90.9533L101.245 90.844V90.8413C104.459 88.5467 105 88.7387 108.647 88.7387H111.477H114.311C117.953 88.7387 118.495 88.5467 121.708 90.8413Z" fill="#DD8C79"/>
<path d="M73.98 87.8467L73.656 87.708C70.0187 83.908 69.1933 77.0107 70.888 73.38C71.6307 71.7893 72.844 70.9653 74.2347 71.0653L74.516 71.0867L74.3054 68.856C72.792 53.0387 71.2293 36.6813 79.0893 26.14C86.7707 15.8413 105.691 12.5773 120.401 14.6853C120.647 14.7213 120.815 14.9467 120.779 15.1893C120.745 15.4347 120.516 15.6067 120.276 15.568C105.817 13.5053 87.276 16.6533 79.8054 26.6747C72.148 36.94 73.696 53.1227 75.1907 68.772L75.4507 71.492L75.456 71.6533C75.4227 71.896 75.2013 72.0787 74.9533 72.0334C74.7053 72 74.4454 71.972 74.1747 71.9533C72.8494 71.8627 72.104 72.8853 71.696 73.756C70.1534 77.056 70.956 83.6013 74.3 87.092C74.472 87.2707 74.4667 87.552 74.2867 87.7213L73.98 87.8467Z" fill="white"/>
</g>
<defs>
<clipPath id="clip0_1_1358">
<rect width="224" height="234" fill="white"/>
</clipPath>
</defs>
</svg>
