<svg width="224" height="234" viewBox="0 0 224 234" fill="none" xmlns="http://www.w3.org/2000/svg">
<path fill-rule="evenodd" clip-rule="evenodd" d="M42.6748 204.494C39.7921 204.79 35.8689 204.009 35.5697 199.838C35.2678 195.668 39.6559 195.423 39.7387 195.554C39.8242 195.683 42.8551 200.983 42.8551 201.093L42.6748 204.494Z" fill="#FF818F"/>
<path fill-rule="evenodd" clip-rule="evenodd" d="M93.9107 144.061H128.592V127.785C130.728 127.095 132.981 126.251 132.981 126.251L131.541 124.478C131.541 124.478 128.592 123.215 128.592 119.532V88.2109H93.9107V119.532C93.9107 123.215 90.9599 124.478 90.9599 124.478L89.5212 126.251C89.5212 126.251 91.7734 127.095 93.9107 127.785V144.061Z" fill="#FCD1C8"/>
<path fill-rule="evenodd" clip-rule="evenodd" d="M93.9107 109.446V119.532C93.9107 121.095 93.3777 122.225 92.7645 123.003C98.1585 127.432 111.941 135.561 126.308 118.46L104.29 105.866C104.29 105.866 98.5365 107.878 93.9107 109.446Z" fill="#F9A8A1"/>
<path fill-rule="evenodd" clip-rule="evenodd" d="M58.4465 135.624C59.8264 134.971 77.7942 128.149 90.9598 124.478C94.8043 128.227 105.608 137.039 111.249 137.039C116.623 137.039 127.7 128.227 131.541 124.478L162.702 132.267V192.777L161.668 204.368H63.3569L58.4465 135.624Z" fill="#FF0001"/>
<path fill-rule="evenodd" clip-rule="evenodd" d="M74.8876 204.368H63.357L61.8676 183.512C62.5221 182.359 62.9335 181.657 62.9335 181.657C62.9335 181.657 66.8127 175.252 88.4393 183.045C110.066 190.838 132.834 191.263 148.988 176.487C165.141 161.712 162.401 195.142 161.457 195.142C160.512 195.142 120.839 199.76 115.739 200.683C112.689 201.234 91.6946 203.368 74.8876 204.368Z" fill="#CC0001"/>
<path fill-rule="evenodd" clip-rule="evenodd" d="M94.3181 187.1C94.3181 187.1 89.3035 186.261 83.4781 186.657C77.6514 187.054 69.3881 188.467 69.3881 188.467L66.4534 193.28L69.5244 202.639C69.5244 202.639 72.9106 204.096 74.5804 202.991C76.2528 201.887 94.8137 192.132 94.3181 187.1Z" fill="#FCD1C8"/>
<path fill-rule="evenodd" clip-rule="evenodd" d="M69.1663 194.364C69.1663 194.364 69.5697 197.697 72.5485 201.229L80.9494 198.843L109.128 200.52L123.329 218.728C123.329 218.728 121.049 218.972 108.678 222.947C96.3031 226.921 87.09 231.865 69.6592 233.19C52.2284 234.514 47.8016 231.865 46.0864 224.007C44.3699 216.149 37.5066 205.2 37.9581 194.693C38.4096 184.185 55.8417 184.096 55.8417 184.096C55.8417 184.096 69.4802 186.126 69.1663 194.364Z" fill="#FCD1C8"/>
<path fill-rule="evenodd" clip-rule="evenodd" d="M110.915 202.812L123.329 218.728C123.329 218.728 121.278 218.95 110.531 222.355C109.095 212.144 96.2202 206.94 96.2202 206.94L109.442 202.473C109.946 202.585 110.436 202.698 110.915 202.812Z" fill="#F9A8A1"/>
<path fill-rule="evenodd" clip-rule="evenodd" d="M38.4522 200.95C38.0662 198.864 37.8698 196.771 37.958 194.693C38.2866 187.03 47.6452 184.908 52.6905 184.321L57.6824 190.441C57.6824 190.441 44.2897 193.263 38.4522 200.95Z" fill="#F9A8A1"/>
<path fill-rule="evenodd" clip-rule="evenodd" d="M132.428 193.809L135.692 191.89C135.692 191.89 139.652 189.835 144.078 186.656C148.505 183.479 152.208 182.595 156.904 183.655C161.601 184.716 162.702 190.1 162.702 190.1C162.702 190.1 159.524 198.048 156.633 196.721C153.742 195.398 132.428 193.809 132.428 193.809Z" fill="#FCD1C8"/>
<path fill-rule="evenodd" clip-rule="evenodd" d="M185.676 186.814C185.676 186.814 182.872 207.901 175.715 217.588L152.133 191.802C152.133 191.802 151.043 185.999 152.122 180.987C153.203 175.975 153.203 175.975 153.203 175.975C153.203 175.975 174.156 172.353 175.15 172.884C176.142 173.414 185.627 181.359 185.676 186.814Z" fill="#FCD1C8"/>
<path fill-rule="evenodd" clip-rule="evenodd" d="M185.676 186.814C185.676 186.814 185.528 187.924 185.214 189.751C176.244 179.71 164.003 179.087 164.003 179.087L167.831 173.621C171.631 173.066 174.78 172.687 175.15 172.884C176.142 173.414 185.627 181.359 185.676 186.814Z" fill="#F9A8A1"/>
<path fill-rule="evenodd" clip-rule="evenodd" d="M186.897 186.109C186.785 169.613 181.113 137.106 162.702 132.267C162.702 132.267 154.925 143.197 154.381 165.27C154.381 165.27 150.408 173.571 151.131 179.75C151.131 179.75 151.175 180.633 152.122 180.987C152.122 180.987 174.477 173.924 185.676 186.814C185.676 186.814 186.918 187.058 186.897 186.109Z" fill="#FF0001"/>
<path fill-rule="evenodd" clip-rule="evenodd" d="M186.897 186.109C186.889 184.775 186.842 183.332 186.757 181.811C170.779 168.876 151.068 177.742 151.047 177.751C151.032 178.434 151.055 179.104 151.131 179.75C151.131 179.75 151.175 180.633 152.122 180.987C152.122 180.987 174.477 173.924 185.676 186.814C185.676 186.814 186.918 187.058 186.897 186.109Z" fill="#00FF00"/>
<path fill-rule="evenodd" clip-rule="evenodd" d="M58.4465 135.624C58.4465 135.624 43.4549 141.882 40.8354 155.567C38.2172 169.253 34.9365 194.1 35.5697 199.838C39.4114 191.868 66.1033 186.223 69.1663 194.364C69.1663 194.364 70.8815 193.678 70.8815 192.265C70.8815 190.852 71.2849 168.375 66.4065 159.988C66.4065 159.988 66.7699 140.391 58.4465 135.624Z" fill="#FF0001"/>
<path fill-rule="evenodd" clip-rule="evenodd" d="M35.7073 193.102C35.4882 196.128 35.4228 198.502 35.5697 199.838C39.4115 191.868 66.1034 186.223 69.1664 194.364C69.1664 194.364 70.8815 193.678 70.8815 192.265C70.8815 191.996 70.8962 190.959 70.8869 189.399C50.4986 181.002 35.7167 193.093 35.7073 193.102Z" fill="#00FF00"/>
<path fill-rule="evenodd" clip-rule="evenodd" d="M94.3181 187.1C94.3181 187.1 109.76 190.631 122.133 191.868C134.506 193.105 153.745 188.866 164.402 195.045C175.06 201.229 177.228 209.263 177.228 212.882C177.228 216.502 173.974 222.333 165.576 223.479C157.177 224.626 136.585 223.921 120.597 217.74C104.612 211.559 90.5244 201.845 72.5486 201.229L94.3181 187.1Z" fill="#FCD1C8"/>
<path d="M164.402 195.482L164.174 195.42C160.86 193.501 156.717 192.599 152.182 192.235L152.01 192.219C147.125 191.839 141.791 192.067 136.553 192.291L135.652 192.329C135.346 192.337 135.196 192.153 135.184 191.913C135.175 191.671 135.366 191.467 135.613 191.457L136.515 191.419C141.612 191.202 146.796 190.98 151.598 191.314C151.353 189.723 150.785 185.081 151.687 180.897C151.736 180.662 151.967 180.513 152.216 180.56C152.456 180.61 152.61 180.841 152.56 181.077C151.657 185.267 152.309 190.087 152.514 191.385C157.069 191.775 161.243 192.706 164.629 194.67C164.84 194.793 164.911 195.061 164.785 195.267C164.703 195.406 164.554 195.482 164.402 195.482ZM123.298 219.154L123.151 219.13C122.234 218.817 121.325 218.489 120.434 218.144C115.811 216.359 111.289 214.249 106.915 212.209C95.7661 207.01 85.2361 202.102 72.538 201.665C72.4071 201.652 67.2629 201.626 62.454 204.124C62.239 204.24 61.9665 204.159 61.8516 203.945C61.7354 203.731 61.8168 203.468 62.0359 203.356C65.9137 201.34 69.9024 200.906 71.651 200.814C69.1223 197.496 68.739 194.546 68.7229 194.416C68.6949 194.176 68.8698 193.959 69.1143 193.931C69.3467 193.898 69.5818 194.071 69.6099 194.311C69.6125 194.341 70.0307 197.476 72.7677 200.799C85.5673 201.289 96.613 206.441 107.299 211.421C111.659 213.456 116.168 215.558 120.762 217.335C121.645 217.675 122.538 217.998 123.444 218.305C123.676 218.384 123.799 218.634 123.72 218.862C123.655 219.041 123.484 219.154 123.298 219.154Z" fill="#F9A8A1"/>
<path d="M152.122 181.424L151.965 181.394C150.757 180.946 150.688 179.82 150.685 179.773C149.988 173.829 153.497 166.109 153.937 165.168C153.988 163.172 154.1 161.195 154.274 159.257L153.372 157.832C153.242 157.626 153.307 157.358 153.517 157.23C153.729 157.108 154 157.169 154.131 157.374L154.413 157.819C154.501 156.99 154.6 156.167 154.71 155.353C154.742 155.116 154.935 154.947 155.21 154.979C155.455 155.01 155.627 155.228 155.595 155.468C155.168 158.621 154.91 161.924 154.827 165.281L154.786 165.456C154.747 165.538 150.873 173.717 151.574 179.701C151.581 179.789 151.641 180.34 152.281 180.58C152.514 180.666 152.628 180.918 152.539 181.142C152.472 181.317 152.302 181.424 152.122 181.424ZM69.1664 194.8C68.9928 194.8 68.8258 194.698 68.755 194.53C68.6601 194.306 68.771 194.052 68.9968 193.959C69.0115 193.954 70.4354 193.364 70.4354 192.265L70.4381 191.949C70.4929 184.784 70.1709 167.343 66.0193 160.202L65.9605 159.979C65.9618 159.946 66.0126 156.812 65.5558 152.815C65.5304 152.575 65.708 152.36 65.9511 152.332C66.2063 152.325 66.4173 152.479 66.4454 152.718C66.5683 153.809 66.6564 154.836 66.7166 155.758L67.3203 154.941C67.4633 154.744 67.7424 154.7 67.9415 154.843C68.1418 154.982 68.1886 155.255 68.043 155.451L66.794 157.144C66.8568 158.552 66.8568 159.544 66.8555 159.876C71.0566 167.261 71.3852 184.754 71.3304 191.957L71.3277 192.265C71.3277 193.952 69.4176 194.735 69.3347 194.767L69.1664 194.8Z" fill="#CC0001"/>
<path fill-rule="evenodd" clip-rule="evenodd" d="M86.6345 125.742C88.2468 128.198 90.889 130.959 93.9106 133.547C99.9497 138.728 107.49 143.221 111.249 143.221C114.892 143.221 122.384 138.508 128.592 133.178C131.541 130.644 134.201 127.972 136.019 125.598L131.541 124.478C127.7 128.227 116.623 137.04 111.249 137.04C105.608 137.04 94.8042 128.227 90.9598 124.478C89.5639 124.868 88.1132 125.291 86.6345 125.742Z" fill="#00FF00"/>
<path fill-rule="evenodd" clip-rule="evenodd" d="M79.5842 94.5381C69.2451 94.0157 68.3715 76.0985 74.3425 76.4929C79.313 76.8194 80.3536 79.9183 80.6835 81.219C81.0148 82.5197 79.5842 94.5381 79.5842 94.5381Z" fill="#FCD1C8"/>
<path fill-rule="evenodd" clip-rule="evenodd" d="M143.776 94.5381C154.114 94.0157 154.989 76.0985 149.019 76.4929C144.047 76.8194 143.007 79.9183 142.675 81.219C142.348 82.5197 143.776 94.5381 143.776 94.5381Z" fill="#FCD1C8"/>
<path fill-rule="evenodd" clip-rule="evenodd" d="M145.64 59.465V82.3957C145.64 101.721 132.167 122.86 111.684 122.86C91.2004 122.86 77.7262 101.721 77.7262 82.3957V59.465C77.7262 15.8395 145.64 15.8395 145.64 59.465Z" fill="#FCD1C8"/>
<path d="M147.054 88.8456C146.836 88.8456 146.645 88.6902 146.612 88.4747C146.314 86.5302 146.648 83.7721 147.48 81.2738C148.247 78.9872 149.122 78.6333 149.714 78.7378C150.65 78.9036 151.219 80.3062 151.131 82.2272C151.12 82.4688 150.892 82.6842 150.666 82.6425C150.419 82.632 150.228 82.4283 150.24 82.188C150.313 80.5556 149.842 79.6454 149.555 79.5957C149.42 79.5618 148.888 79.8726 148.33 81.5455C148.145 82.094 147.988 82.662 147.858 83.2301C148.511 83.4861 149.579 84.2383 149.535 86.4179C149.531 86.6542 149.33 86.8462 149.087 86.8462H149.08C148.835 86.841 148.637 86.6399 148.641 86.3996C148.673 84.8873 148.085 84.3127 147.678 84.0986C147.392 85.6644 147.319 87.1871 147.496 88.3441C147.532 88.5831 147.364 88.8051 147.121 88.8403L147.054 88.8456Z" fill="#F9A8A1"/>
<path d="M76.3103 88.8456L76.2435 88.8403C76.0004 88.8051 75.8321 88.5831 75.8695 88.3441C76.0472 87.1884 75.9737 85.6644 75.6878 84.1012C75.2791 84.318 74.6926 84.8926 74.7234 86.3996C74.7274 86.6399 74.531 86.841 74.2839 86.8462H74.2759C74.0341 86.8462 73.8351 86.6542 73.8297 86.4179C73.7856 84.2383 74.8543 83.4861 75.5075 83.2301C75.3793 82.662 75.2203 82.094 75.036 81.5455C74.4776 79.8726 73.9473 79.5618 73.811 79.5957C73.5238 79.6454 73.0523 80.5556 73.1258 82.188C73.1378 82.4283 72.9468 82.632 72.6996 82.6425C72.4672 82.6751 72.2455 82.4661 72.2348 82.2272C72.1466 80.3062 72.7157 78.9036 73.6521 78.7378C74.2451 78.6333 75.1201 78.9872 75.8855 81.2738C76.7177 83.7721 77.0517 86.5315 76.7511 88.4747C76.7191 88.6902 76.528 88.8456 76.3103 88.8456Z" fill="#F9A8A1"/>
<path fill-rule="evenodd" clip-rule="evenodd" d="M147.441 76.7123C147.441 76.7123 143.841 76.8155 143.696 87.302C142.15 86.2664 143.111 71.7054 143.194 69.2868C141.605 56.2564 143.877 62.3629 138.108 54.6162C138.108 54.6162 142.463 46.7597 145.082 45.6941C148.404 54.6997 148.919 65.6368 147.441 76.7123Z" fill="#0000FF"/>
<path fill-rule="evenodd" clip-rule="evenodd" d="M75.9242 76.7123C75.9242 76.7123 79.5215 76.8155 79.6684 87.302C81.2153 86.2664 80.2535 71.7054 80.172 69.2868C81.7603 56.2564 79.4881 62.3629 85.2588 54.6162C85.2588 54.6162 80.9027 46.7597 78.2832 45.6941C74.9611 54.6997 74.4481 65.6368 75.9242 76.7123Z" fill="#0000FF"/>
<path fill-rule="evenodd" clip-rule="evenodd" d="M127.67 73.9568H127.673C130.14 73.9568 132.16 75.93 132.16 78.3447V81.0127C132.16 83.426 130.14 85.3979 127.673 85.3979H127.67C125.206 85.3979 123.185 83.426 123.185 81.0127V78.3447C123.185 75.93 125.206 73.9568 127.67 73.9568Z" fill="#6D526F"/>
<path fill-rule="evenodd" clip-rule="evenodd" d="M95.6952 73.9568H95.6925C93.2239 73.9568 91.2056 75.93 91.2056 78.3447V81.0127C91.2056 83.426 93.2239 85.3979 95.6925 85.3979H95.6952C98.161 85.3979 100.181 83.426 100.181 81.0127V78.3447C100.181 75.93 98.161 73.9568 95.6952 73.9568Z" fill="#6D526F"/>
<path fill-rule="evenodd" clip-rule="evenodd" d="M112.054 77.7766C112.119 78.0456 112.116 78.3395 112.032 78.5562C111.455 80.0737 108.912 86.5929 108.988 87.4352C109.156 88.5126 112.309 89.0989 113.977 89.0663C115.012 89.0441 113.997 92.6105 112.286 92.2253C110.461 91.8179 107.676 89.748 107.362 87.682C107.211 86.6895 108.826 82.1475 110.006 79.0812C110.31 78.2964 110.05 77.5259 109.891 77.0218C109.482 75.7041 111.845 76.8938 112.054 77.7766Z" fill="#F9A8A1"/>
<path d="M111.681 98.2143C108.526 98.2143 105.549 97.8029 103.069 97.0311C102.599 96.8822 102.34 96.3925 102.492 95.9341C102.64 95.4745 103.136 95.2172 103.614 95.3674C108.161 96.7882 115.21 96.7869 119.749 95.3674C120.215 95.2172 120.72 95.4745 120.868 95.9341C121.021 96.3925 120.762 96.8822 120.293 97.0311C117.816 97.8029 114.839 98.2143 111.681 98.2143Z" fill="#F9A8A1"/>
<path fill-rule="evenodd" clip-rule="evenodd" d="M123.638 70.3538C123.638 70.3538 122.638 70.581 121.735 70.15C120.832 69.7178 120.123 68.2108 120.181 67.8686C120.235 67.5278 120.713 68.088 122.482 67.3684C124.217 66.6606 130.612 65.0152 134.848 69.535C135.578 70.3159 134.989 70.8866 134.047 70.547C133.108 70.2075 129.125 68.071 123.638 70.3538Z" fill="#0000FF"/>
<path d="M111.681 102.534C110.219 102.534 108.773 102.445 107.381 102.269C106.893 102.205 106.549 101.768 106.611 101.29C106.674 100.813 107.111 100.466 107.613 100.537C110.242 100.874 113.121 100.874 115.747 100.537C116.253 100.479 116.686 100.813 116.749 101.29C116.812 101.768 116.468 102.205 115.979 102.269C114.589 102.445 113.143 102.534 111.681 102.534Z" fill="#F9A8A1"/>
<path fill-rule="evenodd" clip-rule="evenodd" d="M99.8203 70.0469C99.8203 70.0469 100.834 70.201 101.701 69.7047C102.567 69.2059 103.157 67.6492 103.076 67.3162C102.993 66.9793 102.559 67.5722 100.741 66.9871C98.9534 66.4099 92.4493 65.2476 88.5782 70.0678C87.9116 70.9009 88.5435 71.4259 89.4545 71.0172C90.3668 70.6084 94.1699 68.1833 99.8203 70.0469Z" fill="#0000FF"/>
<path d="M75.9242 77.1485C75.7025 77.1485 75.5101 76.9878 75.4808 76.7684C73.8952 64.8663 74.7193 54.069 77.8638 45.5465C77.948 45.3193 78.2031 45.2018 78.4342 45.284C78.6666 45.365 78.7868 45.6144 78.7027 45.8417C75.6063 54.2348 74.7981 64.8898 76.3677 76.6561C76.3984 76.8951 76.2275 77.1145 75.9817 77.1459L75.9242 77.1485ZM102.771 121.887L102.63 121.863C91.7454 118.303 82.7982 107.947 79.078 94.939C75.3899 94.559 73.2513 92.1078 72.1025 90.094C69.9773 86.3735 69.5485 81.1119 71.1234 78.1161C71.2382 77.9007 71.5067 77.8197 71.7245 77.9281C71.9449 78.0391 72.0304 78.3016 71.9182 78.5158C70.6705 80.8847 70.6852 85.8237 72.8826 89.6683C73.8898 91.4352 75.7279 93.5743 78.8296 94.0288C78.5704 93.0546 78.3434 92.0686 78.1443 91.067C78.0989 90.8306 78.2565 90.6033 78.4996 90.5576C78.7468 90.5093 78.9752 90.666 79.0206 90.9011C81.8912 105.399 91.2672 117.226 102.913 121.036C103.146 121.114 103.275 121.359 103.195 121.588C103.132 121.772 102.958 121.887 102.771 121.887Z" fill="white"/>
<path fill-rule="evenodd" clip-rule="evenodd" d="M111.683 36.0355C111.683 36.0355 113.741 36.0355 115.723 36.0355C117.707 36.0355 118.273 35.76 120.73 33.9134C123.186 32.0655 128.05 32.3881 133.008 37.5138C137.968 42.6382 134.6 61.151 143.194 69.2868C143.194 69.2868 142.892 48.5175 145.082 45.6941C145.082 45.6941 138.907 25.7867 111.683 25.7867C84.4586 25.7867 78.2832 45.6941 78.2832 45.6941C80.4739 48.5175 80.172 69.2868 80.172 69.2868C88.7652 61.151 85.3976 42.6382 90.3575 37.5138C95.3159 32.3881 100.178 32.0655 102.636 33.9134C105.093 35.76 105.659 36.0355 107.641 36.0355C109.625 36.0355 111.683 36.0355 111.683 36.0355Z" fill="#0000FF"/>
<path d="M186.001 187.279C185.788 187.279 185.625 187.25 185.589 187.243C185.347 187.196 185.191 186.967 185.239 186.731C185.286 186.496 185.52 186.345 185.763 186.386C185.947 186.42 186.271 186.417 186.391 186.319C186.409 186.305 186.453 186.267 186.451 186.118C186.361 172.974 181.898 137.764 162.584 132.688L131.431 124.901C131.192 124.839 131.049 124.603 131.109 124.369C131.169 124.137 131.407 124.004 131.652 124.054L162.811 131.846C182.668 137.064 187.252 172.784 187.343 186.108C187.354 186.568 187.143 186.841 186.964 186.988C186.675 187.224 186.292 187.279 186.001 187.279ZM35.5698 200.276C35.3441 200.276 35.1517 200.108 35.125 199.887C34.4758 193.984 37.8514 168.798 40.3974 155.485C43.0302 141.731 58.1194 135.285 58.2704 135.221C59.6396 134.575 77.5473 127.763 90.8371 124.058C91.0802 123.996 91.3193 124.126 91.3901 124.357C91.4582 124.59 91.3193 124.831 91.0829 124.897C77.8371 128.593 60.0203 135.364 58.6417 136.017C58.4734 136.086 43.8184 142.358 41.275 155.646C38.7383 168.908 35.3721 193.96 36.0133 199.793C36.04 200.033 35.8623 200.247 35.6179 200.273L35.5698 200.276Z" fill="white"/>
</svg>
