<svg width="224" height="234" viewBox="0 0 224 234" fill="none" xmlns="http://www.w3.org/2000/svg">
<g clip-path="url(#clip0_1_1358)">
<path fill-rule="evenodd" clip-rule="evenodd" d="M43.5973 205.995C40.72 206.298 36.804 205.5 36.504 201.242C36.2067 196.984 40.5853 196.734 40.668 196.866C40.752 196.998 43.7773 202.41 43.7773 202.523L43.5973 205.995Z" fill="#D56981"/>
<path fill-rule="evenodd" clip-rule="evenodd" d="M94.7388 144.293H129.356V127.676C131.488 126.971 133.737 126.109 133.737 126.109L132.299 124.299C132.299 124.299 129.356 123.009 129.356 119.248V87.2708H94.7388V119.248C94.7388 123.009 91.7948 124.299 91.7948 124.299L90.3574 126.109C90.3574 126.109 92.6054 126.971 94.7388 127.676V144.293Z" fill="#E2AD94"/>
<path fill-rule="evenodd" clip-rule="evenodd" d="M94.7373 108.952V119.248C94.7373 120.845 94.2066 121.999 93.5959 122.793C98.9786 127.315 112.736 135.613 127.077 118.153L105.099 105.296C105.099 105.296 99.356 107.351 94.7373 108.952Z" fill="#CB8A79"/>
<path fill-rule="evenodd" clip-rule="evenodd" d="M59.3401 135.679C60.7174 135.012 78.6521 128.047 91.7947 124.299C95.6294 128.127 106.416 137.124 112.048 137.124C117.409 137.124 128.465 128.127 132.299 124.299L163.401 132.252V194.032L162.371 205.867H64.2414L59.3401 135.679Z" fill="#FF0001"/>
<path fill-rule="evenodd" clip-rule="evenodd" d="M163.401 174.58V194.032L163.164 196.76C153.673 197.831 124.829 201.309 120.536 202.104C117.491 202.667 96.5361 204.845 79.7588 205.867H64.2414L63.2188 191.236C65.5627 186.611 67.8268 182.679 67.8268 182.679C67.8268 182.679 71.7001 176.139 93.2854 184.093C114.871 192.049 137.599 192.485 153.723 177.4C158.327 173.092 161.392 172.801 163.401 174.58Z" fill="#CC0001"/>
<path fill-rule="evenodd" clip-rule="evenodd" d="M95.144 188.236C95.144 188.236 90.1414 187.378 84.324 187.783C78.512 188.19 70.2614 189.631 70.2614 189.631L67.332 194.544L70.3974 204.102C70.3974 204.102 73.7774 205.588 75.4454 204.46C77.1134 203.334 95.64 193.374 95.144 188.236Z" fill="#E2AD94"/>
<path fill-rule="evenodd" clip-rule="evenodd" d="M70.0401 195.651C70.0401 195.651 70.4427 199.055 73.4187 202.662L81.8014 200.224L109.928 201.938L124.103 220.528C124.103 220.528 121.828 220.778 109.479 224.835C97.1281 228.892 87.9308 233.94 70.5334 235.294C53.1347 236.646 48.7148 233.94 47.0028 225.918C45.2908 217.892 38.4387 206.716 38.8894 195.988C39.3401 185.26 56.7388 185.168 56.7388 185.168C56.7388 185.168 70.3534 187.242 70.0401 195.651Z" fill="#E2AD94"/>
<path fill-rule="evenodd" clip-rule="evenodd" d="M111.712 204.278L124.103 220.528C124.103 220.528 122.059 220.755 111.328 224.231C109.895 213.804 97.0454 208.492 97.0454 208.492L110.244 203.932C110.744 204.046 111.233 204.162 111.712 204.278Z" fill="#CB8A79"/>
<path fill-rule="evenodd" clip-rule="evenodd" d="M39.384 202.376C38.996 200.247 38.8013 198.11 38.8893 195.988C39.2173 188.164 48.5586 185.998 53.5933 185.398L58.5773 191.647C58.5773 191.647 45.2093 194.527 39.384 202.376Z" fill="#CB8A79"/>
<path fill-rule="evenodd" clip-rule="evenodd" d="M133.184 195.085L136.443 193.127C136.443 193.127 140.397 191.028 144.815 187.783C149.231 184.537 152.928 183.636 157.616 184.719C162.304 185.799 163.401 191.299 163.401 191.299C163.401 191.299 160.231 199.411 157.347 198.059C154.461 196.708 133.184 195.085 133.184 195.085Z" fill="#E2AD94"/>
<path fill-rule="evenodd" clip-rule="evenodd" d="M186.335 187.944C186.335 187.944 183.537 209.474 176.392 219.364L152.853 193.034C152.853 193.034 151.767 187.111 152.845 181.995C153.921 176.878 153.921 176.878 153.921 176.878C153.921 176.878 174.836 173.179 175.827 173.722C176.819 174.263 186.287 182.375 186.335 187.944Z" fill="#E2AD94"/>
<path fill-rule="evenodd" clip-rule="evenodd" d="M186.335 187.944C186.335 187.944 186.187 189.078 185.875 190.943C176.92 180.69 164.704 180.055 164.704 180.055L168.523 174.471C172.316 173.907 175.459 173.519 175.827 173.721C176.819 174.263 186.287 182.375 186.335 187.944Z" fill="#CB8A79"/>
<path fill-rule="evenodd" clip-rule="evenodd" d="M187.555 187.224C187.441 170.381 181.78 137.192 163.401 132.252C163.401 132.252 155.64 143.411 155.097 165.947C155.097 165.947 151.132 174.423 151.853 180.732C151.853 180.732 151.897 181.633 152.845 181.995C152.845 181.995 175.157 174.781 186.335 187.944C186.335 187.944 187.575 188.192 187.555 187.224Z" fill="#FF0001"/>
<path fill-rule="evenodd" clip-rule="evenodd" d="M187.555 187.224C187.543 185.604 187.481 183.829 187.361 181.944C174.567 169.029 151.788 179.119 151.764 179.128C151.767 179.673 151.793 180.211 151.853 180.732C151.853 180.732 151.897 181.633 152.845 181.995C152.845 181.995 175.157 174.781 186.335 187.944C186.335 187.944 187.575 188.192 187.555 187.224Z" fill="#00FF00"/>
<path fill-rule="evenodd" clip-rule="evenodd" d="M59.34 135.679C59.34 135.679 44.3773 142.068 41.7627 156.042C39.1493 170.014 35.8733 195.383 36.504 201.242C40.3387 193.104 66.984 187.34 70.04 195.651C70.04 195.651 71.752 194.952 71.752 193.51C71.752 192.067 72.1533 169.116 67.2866 160.555C67.2866 160.555 67.6493 140.547 59.34 135.679Z" fill="#FF0001"/>
<path fill-rule="evenodd" clip-rule="evenodd" d="M36.7027 193.564C36.4361 197.036 36.3467 199.763 36.5041 201.242C40.3387 193.102 66.9841 187.34 70.0401 195.651C70.0401 195.651 71.7521 194.952 71.7521 193.51C71.7521 193.203 71.7694 191.912 71.7521 189.994C54.6547 179.518 36.7027 193.564 36.7027 193.564Z" fill="#00FF00"/>
<path fill-rule="evenodd" clip-rule="evenodd" d="M95.1441 188.236C95.1441 188.236 110.559 191.84 122.911 193.104C135.26 194.367 154.464 190.039 165.1 196.348C175.739 202.662 177.903 210.864 177.903 214.559C177.903 218.255 174.656 224.206 166.272 225.379C157.889 226.55 137.335 225.83 121.377 219.518C105.421 213.208 91.3587 203.29 73.4187 202.662L95.1441 188.236Z" fill="#E2AD94"/>
<path d="M165.1 196.794L164.873 196.731C161.564 194.77 157.425 193.851 152.897 193.478L152.739 193.466C147.859 193.072 142.536 193.306 137.304 193.536L136.403 193.575C136.129 193.591 135.949 193.395 135.939 193.15C135.928 192.903 136.119 192.695 136.364 192.684L137.264 192.646C142.353 192.424 147.528 192.198 152.321 192.539C152.077 190.915 151.509 186.175 152.408 181.903C152.46 181.664 152.689 181.506 152.936 181.559C153.177 181.61 153.331 181.846 153.28 182.087C152.379 186.364 153.031 191.287 153.236 192.611C157.78 193.01 161.947 193.96 165.327 195.966C165.537 196.091 165.608 196.364 165.483 196.575C165.4 196.716 165.253 196.794 165.1 196.794ZM124.072 220.963L123.925 220.939C123.011 220.619 122.103 220.284 121.212 219.932C116.597 218.107 112.083 215.954 107.716 213.872C96.5893 208.564 86.0787 203.552 73.4067 203.107C73.264 203.11 68.1347 203.07 63.34 205.618C63.1267 205.734 62.8547 205.654 62.7387 205.435C62.6227 205.216 62.704 204.947 62.9227 204.834C66.7933 202.774 70.7747 202.332 72.52 202.238C69.996 198.85 69.6134 195.839 69.5974 195.706C69.5694 195.46 69.744 195.239 69.9867 195.211C70.2293 195.179 70.452 195.354 70.4813 195.599C70.4853 195.63 70.9027 198.83 73.6347 202.223C86.4094 202.722 97.4334 207.982 108.099 213.067C112.452 215.143 116.955 217.288 121.54 219.104C122.421 219.452 123.315 219.783 124.217 220.096C124.449 220.176 124.575 220.432 124.492 220.664C124.428 220.847 124.256 220.963 124.072 220.963Z" fill="#CB8A79"/>
<path d="M70.04 196.098C69.8667 196.098 69.7 195.993 69.6293 195.821C69.536 195.593 69.644 195.334 69.8707 195.239C69.8853 195.234 71.3067 194.631 71.3067 193.51L71.3093 193.187C71.3627 185.871 71.0427 168.063 66.9 160.774L66.84 160.547C66.84 160.526 66.8613 159.36 66.7747 157.544V157.528C66.7187 156.33 66.6173 154.85 66.436 153.231C66.4107 152.987 66.588 152.767 66.8307 152.738C67.0773 152.726 67.296 152.888 67.3227 153.132C67.4467 154.246 67.536 155.295 67.5947 156.234L68.1973 155.402C68.34 155.2 68.62 155.156 68.816 155.302C69.0173 155.444 69.0627 155.723 68.9187 155.923L67.672 157.651C67.736 159.088 67.736 160.102 67.7333 160.44C71.9267 167.979 72.2547 185.84 72.1987 193.195L72.1973 193.51C72.1973 195.232 70.2893 196.031 70.208 196.064L70.04 196.098Z" fill="#CC0001"/>
<path fill-rule="evenodd" clip-rule="evenodd" d="M87.4761 125.588C89.0854 128.097 91.7254 130.916 94.7374 133.557C100.767 138.847 108.292 143.436 112.048 143.436C115.681 143.436 123.159 138.624 129.356 133.181C132.299 130.595 134.955 127.865 136.769 125.443L132.299 124.299C128.465 128.127 117.409 137.124 112.048 137.124C106.416 137.124 95.6294 128.127 91.7947 124.299C90.4001 124.697 88.9521 125.129 87.4761 125.588Z" fill="#00FF00"/>
<path d="M152.845 182.44L152.687 182.411C151.481 181.952 151.411 180.804 151.408 180.755C150.712 174.687 154.215 166.804 154.655 165.844C154.705 163.812 154.819 161.792 154.991 159.808L154.091 158.353C153.96 158.145 154.025 157.869 154.235 157.741C154.439 157.611 154.717 157.673 154.847 157.885L155.131 158.34C155.217 157.493 155.316 156.653 155.425 155.823C155.457 155.579 155.665 155.4 155.925 155.437C156.168 155.469 156.34 155.695 156.309 155.937C155.883 159.173 155.625 162.547 155.544 165.959L155.501 166.137C155.463 166.221 151.597 174.572 152.296 180.681C152.301 180.768 152.364 181.333 153.003 181.579C153.233 181.667 153.348 181.924 153.26 182.153C153.193 182.332 153.024 182.44 152.845 182.44Z" fill="#CC0001"/>
<path fill-rule="evenodd" clip-rule="evenodd" d="M82.0307 95.5533C72.2214 95.0173 71.3921 76.724 77.0547 77.1267C81.7694 77.4613 82.7588 80.624 83.0721 81.9533C83.3841 83.28 82.0307 95.5533 82.0307 95.5533Z" fill="#E2AD94"/>
<path fill-rule="evenodd" clip-rule="evenodd" d="M142.919 95.5533C152.725 95.0173 153.553 76.724 147.891 77.1267C143.176 77.4613 142.187 80.624 141.875 81.9533C141.561 83.28 142.919 95.5533 142.919 95.5533Z" fill="#E2AD94"/>
<path fill-rule="evenodd" clip-rule="evenodd" d="M144.685 59.7414V83.152C144.685 86.3254 143.583 92.444 142.916 95.5534C141.621 101.621 137.427 109.731 131.025 115.5C127.533 118.644 121.935 121.888 119.135 121.888C118.673 121.888 112.944 121.921 112.476 121.921C112.007 121.921 106.279 121.888 105.819 121.888C103.017 121.888 97.4187 118.644 93.9267 115.5C87.524 109.731 83.3307 101.621 82.036 95.5534C81.3707 92.444 80.264 86.3254 80.264 83.152V59.7414C80.264 37.4707 96.3707 26.336 112.476 26.336C128.581 26.336 144.685 37.4707 144.685 59.7414Z" fill="#E2AD94"/>
<path fill-rule="evenodd" clip-rule="evenodd" d="M80.8654 52.6053C81.4254 49.3786 82.3693 46.452 83.6213 43.82C89.528 40.6693 107.561 31.1147 109.356 30.9547C111.095 30.804 130.043 35.4546 137.291 37.4946C138.435 38.8666 139.472 40.3693 140.384 41.9946C140.759 46.88 141.345 55 141.345 55L141.255 57.828C141.255 57.828 131.219 56.9786 130.055 47.8333C128.889 38.6866 107.387 40.532 107.387 40.532L90.1827 46.372L91.82 50.5547C91.82 50.5547 90.72 55.7546 84.1347 54.8093C82.3534 54.5546 81.364 53.708 80.8654 52.6053Z" fill="#CB8A79"/>
<path d="M146.028 89.7387C145.811 89.7387 145.619 89.5787 145.588 89.3561C145.387 87.9441 145.488 86.1107 145.849 84.2521L145.856 84.2134C146.001 83.4761 146.187 82.7361 146.409 82.0161C146.989 80.1454 147.709 79.2627 148.543 79.4161C149.589 79.5961 149.988 81.3387 149.919 82.9801C149.907 83.2241 149.709 83.3894 149.455 83.4067C149.207 83.3961 149.017 83.1894 149.027 82.9441C149.103 81.1721 148.601 80.3307 148.391 80.2934C148.283 80.2734 147.796 80.5574 147.261 82.2814C147.085 82.8427 146.933 83.4267 146.809 84.0107C147.436 84.2774 148.444 85.0521 148.403 87.2601C148.397 87.5014 148.2 87.6974 147.957 87.6974H147.949C147.703 87.6921 147.508 87.4894 147.512 87.2414C147.54 85.7321 147.017 85.1401 146.64 84.9081C146.371 86.5014 146.301 88.0534 146.469 89.2307C146.504 89.4747 146.335 89.7001 146.092 89.7334L146.028 89.7387Z" fill="#CB8A79"/>
<path d="M78.9241 89.7387L78.8614 89.7334C78.6187 89.7001 78.4494 89.4747 78.4827 89.2307C78.6494 88.0534 78.5814 86.5027 78.3147 84.9107C77.9307 85.1454 77.4108 85.7414 77.4388 87.2414C77.4428 87.4894 77.2481 87.6921 77.0014 87.6974H76.9934C76.7521 87.6974 76.5534 87.5014 76.5481 87.2601C76.5067 85.0507 77.5148 84.2774 78.1428 84.0107C78.0174 83.4267 77.8667 82.8427 77.6921 82.2787C77.1574 80.5574 76.6654 80.2574 76.5614 80.2934C76.3494 80.3307 75.8494 81.1721 75.9254 82.9427C75.9347 83.1894 75.7454 83.3961 75.4987 83.4067C75.2134 83.4267 75.0454 83.2254 75.0348 82.9814C74.9654 81.3387 75.3628 79.5988 76.4094 79.4161C77.2228 79.2654 77.9641 80.1441 78.5428 82.0147C79.3308 84.5587 79.6454 87.3747 79.3641 89.3561C79.3334 89.5787 79.1427 89.7387 78.9241 89.7387Z" fill="#CB8A79"/>
<path fill-rule="evenodd" clip-rule="evenodd" d="M144.189 36.8973C155.124 50.284 145.775 58.5467 145.775 77.5267C145.775 77.5267 144.685 77.476 144.685 81.4027C143.245 76.0027 143.367 75.4733 143.569 65.8307C143.569 65.8307 139.859 61.5093 138.223 49.1813C137.084 40.6013 122.075 40.484 112.476 40.4867C102.876 40.484 87.868 40.6013 86.7293 49.1813C85.092 61.5093 81.3813 65.8307 81.3813 65.8307C81.5853 75.4733 81.7067 76.0027 80.2667 81.4027C80.2667 77.476 79.176 77.5267 79.176 77.5267C79.176 58.5467 69.8266 50.284 80.764 36.8973C80.9106 33.5253 84.4226 22.7107 89.6893 19.8333C97.036 15.8173 104.756 13.8093 112.476 13.8093C120.196 13.8093 127.916 15.8173 135.261 19.8333C140.531 22.7107 144.04 33.5253 144.189 36.8973Z" fill="#0000FF"/>
<path fill-rule="evenodd" clip-rule="evenodd" d="M85.668 18.4027C86.1254 16.452 87.5187 15.38 88.8147 14.7893C87.936 15.632 87.328 16.736 87.1454 17.9973L87.116 18.244C86.6147 18.2213 86.1267 18.276 85.668 18.4027ZM73.1867 47.4C71.5067 46.1533 71.0907 44.5493 71.1547 43.1346C71.6374 44.3773 72.652 45.4039 73.976 45.9346C73.5667 46.1773 73.2694 46.584 73.1974 47.0693L73.1867 47.4ZM102.889 11.7493C103.723 11.2213 105.399 10.6413 107.9 11.9547C107.788 12.08 107.684 12.2093 107.584 12.344C107.293 12.1307 106.94 11.984 106.548 11.932C105.747 11.8253 104.987 12.1453 104.531 12.708C104.059 12.3 103.505 11.972 102.889 11.7493ZM101.757 11.476C99.54 11.18 97.4627 12.26 96.4934 14.0213C95.764 13.572 94.9187 13.26 93.996 13.1387C92.6534 12.96 91.3534 13.208 90.2494 13.7733C88.624 14.1533 85.66 15.2986 85.076 18.612C83.7934 19.1693 82.832 20.3093 82.6254 21.7267C82.5627 22.1587 82.5747 22.5853 82.652 22.9946C81.4147 23.372 80.452 24.3853 80.2627 25.6786C80.1494 26.452 80.332 27.2 80.728 27.8253C80.116 27.852 79.5947 28.284 79.5094 28.8747L79.5014 29.1267C77.8267 29.2027 76.3974 30.3853 76.1627 32.0027C76.0107 33.0547 76.3974 34.064 77.128 34.7786C76.696 35.136 76.3934 35.636 76.3107 36.2146C76.284 36.3826 76.28 36.552 76.2934 36.716C73.6374 36.5413 71.2614 38.3253 70.896 40.84C70.8587 41.0986 70.8427 41.356 70.8494 41.6093C70.4107 43.3186 70.352 45.744 72.568 47.5747C72.4014 50.7187 76.4027 54.9053 81.632 50.2933C84.9307 53.2653 88.8294 51.8586 91.7254 49.328C92.9614 50.1893 95.0174 50.8507 98.1054 49.6213C100.971 53.7653 107.132 53.7667 109.897 49.216C110.12 49.2853 110.353 49.3253 110.595 49.3306C110.725 49.3333 110.856 49.328 110.981 49.312C111.66 50.4946 113.172 52.4213 115.993 52.9733C116.177 53.0066 116.353 52.88 116.387 52.6866C116.42 52.4946 116.299 52.308 116.115 52.2733C113.673 51.796 112.317 50.2 111.664 49.128C111.999 48.9893 112.304 48.7787 112.556 48.5187C113.395 50.0773 114.971 51.148 116.796 51.192C119.012 51.244 120.925 49.7693 121.624 47.6813C123.805 50.3146 130.387 49.9 131.657 47.812C143.108 58.7786 155.844 46.3426 151.625 42.8333C152.083 42.552 152.411 42.096 152.491 41.5493C152.583 40.9213 152.327 40.3253 151.861 39.9306C154.645 38.1066 153.316 33.568 153.312 33.5547C153.275 33.4187 153.127 33.3387 152.983 33.372C152.837 33.4053 152.752 33.5453 152.791 33.6813C152.796 33.6933 154.072 38.064 151.364 39.6213C151.237 39.5667 151.103 39.5253 150.964 39.4946C151.475 38.9026 151.823 38.1733 151.941 37.364C152.288 34.9826 150.513 32.7813 147.979 32.4453L147.933 32.44C148.315 31.9733 148.577 31.4107 148.667 30.7853C148.908 29.14 147.884 27.6 146.296 27.028C146.397 25.8946 145.533 24.8693 144.319 24.708C144.029 24.6693 143.743 24.684 143.473 24.744C143.599 20.8733 140.595 17.4453 136.42 16.8907C135.131 16.7187 133.871 16.84 132.717 17.2C132.181 16.0427 131.036 15.164 129.608 14.9733C128.455 14.82 127.349 15.148 126.523 15.7933C126.223 14.244 124.895 12.9787 123.147 12.7467C121.707 12.5547 120.34 13.112 119.496 14.104C119.327 13.8906 119.113 13.708 118.868 13.568C119.509 12.896 120.764 11.9427 122.741 11.9053C122.888 11.9027 123.007 11.7866 123.004 11.648C122.999 11.508 122.876 11.3973 122.728 11.4C120.444 11.4427 119.028 12.612 118.353 13.3573L118.052 13.296C117.861 13.272 117.671 13.2707 117.488 13.2907C116.723 11.6347 115.081 10.3773 113.039 10.1053C111.221 9.86399 109.485 10.4573 108.273 11.5747C105.115 9.86133 103.08 10.928 102.26 11.5653C102.097 11.528 101.928 11.4973 101.757 11.476ZM93.7067 47.2413C94.1574 48.124 95.0307 48.7307 96.048 48.7547C96.5427 48.768 97.012 48.64 97.4187 48.4027C97.5134 48.6147 97.616 48.8187 97.7267 49.0133C95.1054 50.012 93.344 49.536 92.2547 48.844C92.7814 48.336 93.2694 47.7947 93.7067 47.2413Z" fill="#0000FF"/>
<path fill-rule="evenodd" clip-rule="evenodd" d="M132.717 17.2C132.717 17.2 119.973 26.9307 98.8533 19.8587C98.8533 19.8587 107.916 43.5094 147.933 32.44C148.315 31.9734 148.577 31.4107 148.667 30.7854C148.908 29.1401 147.884 27.6 146.296 27.028C146.397 25.8947 145.536 24.8694 144.319 24.7081C144.029 24.6694 143.743 24.6841 143.473 24.7441C143.599 20.8734 140.595 17.4454 136.42 16.8907C135.131 16.7187 133.871 16.84 132.717 17.2Z" fill="black" fill-opacity="0.2"/>
<path fill-rule="evenodd" clip-rule="evenodd" d="M125.532 120.257C123.116 122.997 118.483 125.145 112.476 125.145C106.469 125.145 101.835 122.997 99.42 120.257C99.076 119.791 98.988 118.928 100.523 119.167C102.056 119.408 104.031 120.451 104.031 120.451C105.043 119.639 108.012 121 108.012 121C108.264 120.056 111.097 121.007 111.097 121.007C111.72 120.404 113.231 120.404 113.856 121.007C113.856 121.007 116.689 120.056 116.941 121C116.941 121 119.911 119.639 120.921 120.451C120.921 120.451 122.895 119.408 124.429 119.167C125.965 118.928 125.875 119.791 125.532 120.257Z" fill="#0000FF"/>
<path fill-rule="evenodd" clip-rule="evenodd" d="M128.453 73.3906H128.455C130.919 73.3906 132.933 75.4053 132.933 77.8693V80.5933C132.933 83.056 130.919 85.072 128.455 85.072H128.453C125.991 85.072 123.976 83.056 123.976 80.5933V77.8693C123.976 75.4053 125.991 73.3906 128.453 73.3906Z" fill="#3E3155"/>
<path fill-rule="evenodd" clip-rule="evenodd" d="M96.536 73.3906H96.5334C94.0707 73.3906 92.0547 75.4053 92.0547 77.8693V80.5933C92.0547 83.056 94.0707 85.072 96.5334 85.072H96.536C98.9987 85.072 101.013 83.056 101.013 80.5933V77.8693C101.013 75.4053 98.9987 73.3906 96.536 73.3906Z" fill="#3E3155"/>
<path fill-rule="evenodd" clip-rule="evenodd" d="M113.403 74.344C113.456 74.6534 113.433 74.984 113.329 75.2213C112.596 76.8973 109.384 84.0934 109.415 85.0454C109.531 86.272 112.971 87.1267 114.811 87.192C115.952 87.2307 114.608 91.1907 112.747 90.6507C110.759 90.0773 107.821 87.5747 107.605 85.2253C107.503 84.0947 109.568 79.0733 111.063 75.6893C111.447 74.8213 111.207 73.9387 111.065 73.36C110.697 71.848 113.225 73.3334 113.403 74.344Z" fill="#CB8A79"/>
<path d="M112.493 100.848C108.957 100.848 105.624 100.476 102.853 99.7706C102.376 99.6506 102.089 99.1666 102.209 98.688C102.332 98.2106 102.821 97.9187 103.293 98.0453C108.476 99.3613 116.512 99.3613 121.697 98.0453C122.165 97.9187 122.657 98.2106 122.779 98.688C122.9 99.1666 122.611 99.6506 122.136 99.7706C119.365 100.476 116.032 100.848 112.493 100.848Z" fill="#CB8A79"/>
<path d="M112.493 104.801C111.233 104.801 109.981 104.752 108.773 104.656C108.283 104.615 107.919 104.187 107.957 103.696C107.996 103.205 108.428 102.823 108.916 102.88C111.236 103.064 113.753 103.064 116.073 102.88C116.551 102.82 116.992 103.205 117.033 103.696C117.072 104.187 116.704 104.615 116.215 104.656C115.007 104.752 113.757 104.801 112.493 104.801Z" fill="#CB8A79"/>
<path d="M115.867 95.58C115.676 95.58 115.499 95.4547 115.441 95.2627L114.852 93.3161C114.78 93.0801 114.913 92.8334 115.148 92.7614C115.385 92.6867 115.635 92.8227 115.703 93.0574L116.293 95.004C116.364 95.2414 116.231 95.4894 115.996 95.5587L115.867 95.58Z" fill="#CB8A79"/>
<path d="M118.207 95.7613C118.017 95.7613 117.84 95.6373 117.783 95.444L117.193 93.4973C117.121 93.2627 117.255 93.0133 117.489 92.9427C117.724 92.868 117.973 93.0013 118.044 93.2387L118.635 95.1866C118.704 95.4226 118.572 95.6707 118.337 95.7413L118.207 95.7613Z" fill="#CB8A79"/>
<path d="M120.548 95.9441C120.356 95.9441 120.18 95.82 120.121 95.6267L119.533 93.6787C119.463 93.4441 119.593 93.1947 119.829 93.124C120.064 93.0494 120.315 93.184 120.384 93.4214L120.975 95.3694C121.045 95.6041 120.913 95.852 120.676 95.924L120.548 95.9441Z" fill="#CB8A79"/>
<path d="M122.889 96.124C122.697 96.124 122.521 96 122.463 95.808L121.873 93.8613C121.804 93.624 121.935 93.3773 122.171 93.3067C122.408 93.228 122.655 93.3667 122.725 93.604L123.315 95.5507C123.387 95.7853 123.255 96.0333 123.017 96.1053L122.889 96.124Z" fill="#CB8A79"/>
<path d="M109.121 95.58L108.993 95.5587C108.757 95.4894 108.624 95.2414 108.697 95.004L109.285 93.0574C109.356 92.8227 109.603 92.684 109.84 92.7614C110.076 92.8334 110.208 93.0801 110.137 93.3161L109.548 95.2627C109.491 95.4547 109.315 95.58 109.121 95.58Z" fill="#CB8A79"/>
<path d="M106.78 95.7613L106.652 95.7413C106.416 95.6707 106.283 95.4226 106.356 95.1866L106.944 93.2387C107.015 93.0013 107.264 92.8667 107.499 92.9427C107.735 93.0133 107.868 93.2627 107.796 93.4973L107.207 95.444C107.149 95.6373 106.973 95.7613 106.78 95.7613Z" fill="#CB8A79"/>
<path d="M104.439 95.9441L104.312 95.924C104.075 95.852 103.941 95.6041 104.015 95.3694L104.604 93.4214C104.673 93.184 104.92 93.0467 105.159 93.124C105.395 93.1947 105.528 93.4441 105.456 93.6787L104.867 95.6267C104.809 95.82 104.632 95.9441 104.439 95.9441Z" fill="#CB8A79"/>
<path d="M102.1 96.124L101.971 96.1053C101.736 96.0333 101.603 95.7853 101.673 95.5507L102.263 93.604C102.335 93.3667 102.583 93.2267 102.817 93.3067C103.053 93.3773 103.187 93.624 103.115 93.8613L102.525 95.808C102.468 96 102.291 96.124 102.1 96.124Z" fill="#CB8A79"/>
<path fill-rule="evenodd" clip-rule="evenodd" d="M120.548 70.5306C120.499 70.3693 120.477 70.208 120.477 70.0613C120.477 69.9013 120.504 69.7546 120.553 69.648C120.64 69.464 120.769 69.3747 120.936 69.4213C121.052 69.4547 121.513 69.3853 122.14 69.26C125.737 68.5453 129.801 66.984 133.325 67.4213C136.195 67.776 138.712 70.6427 138.72 70.6493V70.6506L138.767 70.9626C138.715 71.1013 138.587 71.164 138.479 71.104C137.905 70.784 137.272 70.5906 136.505 70.5266C133.092 70.24 127.149 71.42 123.872 71.6693C122.865 71.7466 120.979 71.964 120.548 70.5306Z" fill="#0000FF"/>
<path fill-rule="evenodd" clip-rule="evenodd" d="M104.425 70.2814C104.471 70.1174 104.488 69.9547 104.485 69.8107C104.481 69.6481 104.448 69.5054 104.395 69.3974C104.307 69.216 104.172 69.1294 104.007 69.1814C103.891 69.2187 103.428 69.1614 102.799 69.0547C99.184 68.4401 95.0773 66.992 91.5667 67.5254C88.7093 67.96 86.2707 70.8947 86.264 70.9027V70.904L86.2253 71.2187C86.28 71.3534 86.4133 71.4134 86.5173 71.3481C87.0827 71.0147 87.708 70.8027 88.4734 70.7187C91.8774 70.3387 97.852 71.3507 101.135 71.5107C102.143 71.5601 104.036 71.7241 104.425 70.2814Z" fill="#0000FF"/>
<path d="M97.62 118.788L97.3707 118.715C95.9987 117.796 94.704 116.799 93.6294 115.831C86.7174 109.605 82.8947 101.328 81.6707 95.9734C78.764 95.6921 76.3187 93.8374 74.7587 90.7187C72.7147 86.6294 72.5214 80.8827 74.3347 78.1694C75.0374 77.1174 76 76.6147 77.088 76.6814C77.332 76.7001 77.5174 76.9134 77.4987 77.1587C77.4814 77.4027 77.3014 77.5894 77.0227 77.5707C76.2627 77.5201 75.5974 77.8854 75.076 78.6641C73.6294 80.8281 73.4707 86.1481 75.556 90.3201C76.536 92.2801 78.3454 94.6321 81.476 95.0534C81.2547 93.9921 81.028 92.7961 80.8214 91.6227C80.7787 91.3801 80.9413 91.1494 81.1827 91.1081C81.44 91.0654 81.6547 91.2267 81.6987 91.4681C81.9654 92.9907 82.244 94.4001 82.4707 95.4601C83.5827 100.669 87.3294 108.956 94.2254 115.167C95.2694 116.109 96.528 117.079 97.8694 117.973C98.072 118.111 98.1267 118.387 97.9907 118.591C97.9054 118.719 97.7627 118.788 97.62 118.788Z" fill="white"/>
<path d="M186.66 188.419C186.447 188.419 186.285 188.39 186.249 188.382C186.008 188.334 185.852 188.1 185.9 187.859C185.947 187.616 186.187 187.468 186.421 187.507C186.607 187.542 186.929 187.539 187.048 187.438C187.067 187.423 187.113 187.386 187.108 187.231C187.02 173.812 182.564 137.864 163.285 132.682L132.189 124.731C131.951 124.668 131.807 124.427 131.868 124.188C131.927 123.951 132.169 123.815 132.411 123.867L163.512 131.82C183.332 137.148 187.911 173.616 188 187.222C188.009 187.692 187.799 187.972 187.62 188.122C187.331 188.363 186.948 188.419 186.66 188.419ZM36.504 201.687C36.28 201.687 36.0867 201.518 36.0614 201.288C35.4134 195.266 38.7827 169.552 41.324 155.958C43.9534 141.914 59.0147 135.334 59.1667 135.268C60.5334 134.607 78.4147 127.651 91.6734 123.871C91.9094 123.804 92.1547 123.94 92.2227 124.176C92.2907 124.414 92.152 124.66 91.916 124.727C78.704 128.495 60.9134 135.414 59.536 136.08C59.3694 136.151 44.7414 142.552 42.2027 156.122C39.668 169.664 36.308 195.243 36.948 201.194C36.9734 201.438 36.7974 201.658 36.5534 201.684L36.504 201.687Z" fill="white"/>
</g>
<defs>
<clipPath id="clip0_1_1358">
<rect width="224" height="234" fill="white"/>
</clipPath>
</defs>
</svg>
