<svg width="224" height="234" viewBox="0 0 224 234" fill="none" xmlns="http://www.w3.org/2000/svg">
<g clip-path="url(#clip0_1_1358)">
<path fill-rule="evenodd" clip-rule="evenodd" d="M41.5979 209.787C38.7203 210.089 34.8037 209.292 34.5042 205.033C34.2073 200.776 38.5849 200.525 38.6682 200.659C38.7515 200.79 41.7777 206.202 41.7777 206.314L41.5979 209.787Z" fill="#64B3B0"/>
<path fill-rule="evenodd" clip-rule="evenodd" d="M92.7388 148.085H127.356V131.468C129.488 130.763 131.737 129.901 131.737 129.901L130.299 128.091C130.299 128.091 127.356 126.801 127.356 123.041V91.0627H92.7388V123.041C92.7388 126.801 89.7948 128.091 89.7948 128.091L88.3574 129.901C88.3574 129.901 90.6054 130.763 92.7388 131.468V148.085Z" fill="#DD8C79"/>
<path fill-rule="evenodd" clip-rule="evenodd" d="M92.7374 112.744V123.041C92.7374 124.637 92.2067 125.791 91.5947 126.585C96.9787 131.107 110.736 139.407 125.077 121.947L103.099 109.088C103.099 109.088 97.3561 111.143 92.7374 112.744Z" fill="#BC6D69"/>
<path fill-rule="evenodd" clip-rule="evenodd" d="M57.3401 139.471C58.7177 138.804 76.6526 131.839 89.7948 128.091C93.6294 131.919 104.416 140.916 110.045 140.916C115.409 140.916 126.465 131.919 130.299 128.091L161.401 136.044V197.824L160.371 209.659H62.2412L57.3401 139.471Z" fill="#FF0001"/>
<path fill-rule="evenodd" clip-rule="evenodd" d="M161.401 178.372V197.824L161.163 200.553C151.672 201.623 122.827 205.101 118.533 205.896C115.491 206.459 94.5361 208.637 77.7588 209.659H62.2412L61.2188 195.028C63.5625 190.402 65.8272 186.471 65.8272 186.471C65.8272 186.471 69.6996 179.931 91.2854 187.888C112.871 195.844 135.599 196.278 151.723 181.192C156.327 176.884 159.392 176.594 161.401 178.372Z" fill="#CC0001"/>
<path fill-rule="evenodd" clip-rule="evenodd" d="M93.144 192.028C93.144 192.028 88.14 191.171 82.324 191.576C76.5093 191.981 68.2619 193.424 68.2619 193.424L65.3323 198.337L68.3973 207.893C68.3973 207.893 71.7776 209.38 73.4452 208.252C75.1135 207.125 93.6387 197.165 93.144 192.028Z" fill="#DD8C79"/>
<path fill-rule="evenodd" clip-rule="evenodd" d="M68.038 199.444C68.038 199.444 68.4432 202.847 71.4182 206.453L79.8014 204.017L107.927 205.729L122.103 224.32C122.103 224.32 119.828 224.569 107.479 228.627C95.1267 232.684 85.9307 237.732 68.5328 239.085C51.1343 240.437 46.7151 237.732 45.0031 229.709C43.288 221.687 36.4391 210.508 36.8895 199.78C37.34 189.052 54.7386 188.96 54.7386 188.96C54.7386 188.96 68.3515 191.033 68.038 199.444Z" fill="#DD8C79"/>
<path fill-rule="evenodd" clip-rule="evenodd" d="M109.711 208.069L122.103 224.32C122.103 224.32 120.059 224.547 109.328 228.023C107.895 217.597 95.0427 212.284 95.0427 212.284L108.244 207.724C108.743 207.837 109.233 207.953 109.711 208.069Z" fill="#BC6D69"/>
<path fill-rule="evenodd" clip-rule="evenodd" d="M37.3818 206.168C36.9963 204.039 36.801 201.901 36.8895 199.78C37.2176 191.956 46.5588 189.789 51.5943 189.19L56.5771 195.438C56.5771 195.438 43.2099 198.32 37.3818 206.168Z" fill="#BC6D69"/>
<path fill-rule="evenodd" clip-rule="evenodd" d="M131.184 198.877L134.443 196.919C134.443 196.919 138.397 194.82 142.815 191.575C147.231 188.331 150.925 187.428 155.616 188.511C160.304 189.594 161.401 195.09 161.401 195.09C161.401 195.09 158.231 203.206 155.345 201.851C152.461 200.5 131.184 198.877 131.184 198.877Z" fill="#DD8C79"/>
<path fill-rule="evenodd" clip-rule="evenodd" d="M184.335 191.736C184.335 191.736 181.537 213.265 174.392 223.156L150.853 196.828C150.853 196.828 149.767 190.904 150.843 185.787C151.921 180.669 151.921 180.669 151.921 180.669C151.921 180.669 172.836 176.971 173.827 177.513C174.819 178.055 184.285 186.167 184.335 191.736Z" fill="#DD8C79"/>
<path fill-rule="evenodd" clip-rule="evenodd" d="M184.335 191.736C184.335 191.736 184.187 192.869 183.873 194.735C174.919 184.483 162.703 183.847 162.703 183.847L166.523 178.265C170.316 177.699 173.459 177.312 173.827 177.513C174.819 178.055 184.285 186.167 184.335 191.736Z" fill="#BC6D69"/>
<path fill-rule="evenodd" clip-rule="evenodd" d="M185.555 191.016C185.441 174.173 179.78 140.984 161.401 136.044C161.401 136.044 153.64 147.203 153.097 169.739C153.097 169.739 149.132 178.214 149.853 184.524C149.853 184.524 149.897 185.425 150.843 185.787C150.843 185.787 173.156 178.575 184.335 191.736C184.335 191.736 185.575 191.985 185.555 191.016Z" fill="#FF0001"/>
<path fill-rule="evenodd" clip-rule="evenodd" d="M185.555 191.016C185.543 189.396 185.481 187.623 185.361 185.736C172.567 172.823 149.788 182.911 149.764 182.921C149.767 183.465 149.793 184.002 149.853 184.524C149.853 184.524 149.897 185.425 150.843 185.787C150.843 185.787 173.156 178.575 184.335 191.736C184.335 191.736 185.575 191.985 185.555 191.016Z" fill="#00FF00"/>
<path fill-rule="evenodd" clip-rule="evenodd" d="M57.3401 139.471C57.3401 139.471 42.3781 145.86 39.763 159.833C37.1474 173.807 33.8739 199.175 34.5042 205.033C38.3391 196.896 64.9843 191.132 68.0381 199.444C68.0381 199.444 69.7515 198.744 69.7515 197.301C69.7515 195.859 70.1542 172.909 65.2854 164.347C65.2854 164.347 65.6501 144.339 57.3401 139.471Z" fill="#FF0001"/>
<path fill-rule="evenodd" clip-rule="evenodd" d="M34.6994 197.356C34.4348 200.828 34.3452 203.555 34.5041 205.033C38.339 196.896 64.9842 191.132 68.038 199.444C68.038 199.444 69.7514 198.744 69.7514 197.301C69.7514 196.995 69.7697 195.704 69.7514 193.787C52.6552 183.312 34.6994 197.356 34.6994 197.356Z" fill="#00FF00"/>
<path fill-rule="evenodd" clip-rule="evenodd" d="M93.1441 192.028C93.1441 192.028 108.559 195.633 120.911 196.896C133.26 198.159 152.463 193.831 163.1 200.14C173.739 206.453 175.901 214.656 175.901 218.351C175.901 222.047 172.655 228 164.272 229.171C155.887 230.341 135.335 229.621 119.377 223.311C103.421 217 89.3587 207.083 71.4182 206.453L93.1441 192.028Z" fill="#DD8C79"/>
<path d="M163.1 200.585L162.873 200.523C159.564 198.563 155.429 197.645 150.903 197.271L150.733 197.255C145.856 196.867 140.536 197.1 135.304 197.328L134.403 197.367H134.381C134.145 197.367 133.948 197.181 133.936 196.941C133.927 196.695 134.117 196.487 134.364 196.476L135.264 196.437C140.352 196.216 145.528 195.992 150.321 196.331C150.076 194.706 149.509 189.967 150.408 185.695C150.457 185.455 150.695 185.302 150.935 185.351C151.176 185.401 151.329 185.637 151.279 185.878C150.377 190.16 151.029 195.077 151.236 196.402C155.78 196.801 159.947 197.752 163.327 199.757C163.537 199.883 163.608 200.156 163.483 200.367C163.4 200.508 163.253 200.585 163.1 200.585ZM122.072 224.755L121.925 224.731C121.009 224.411 120.103 224.076 119.212 223.724C114.6 221.901 110.085 219.747 105.72 217.664C94.5919 212.356 84.0813 207.345 71.4061 206.899C71.2733 206.885 66.1394 206.859 61.3399 209.409C61.1265 209.528 60.8546 209.445 60.7385 209.226C60.6223 209.008 60.7046 208.739 60.9223 208.625C64.7931 206.567 68.7749 206.124 70.5197 206.029C67.9962 202.641 67.6134 199.631 67.5978 199.497C67.5666 199.252 67.741 199.031 67.9858 199.002C68.2306 198.968 68.4519 199.145 68.4806 199.39C68.4842 199.421 68.9025 202.621 71.6369 206.014C84.4106 206.514 95.4359 211.775 106.103 216.86C110.455 218.937 114.956 221.083 119.54 222.897C120.421 223.244 121.315 223.575 122.217 223.888C122.449 223.968 122.572 224.224 122.492 224.456C122.428 224.639 122.256 224.755 122.072 224.755Z" fill="#BC6D69"/>
<path d="M68.038 199.889C67.865 199.889 67.6994 199.785 67.628 199.613C67.5337 199.385 67.6421 199.125 67.8686 199.031C67.8842 199.025 69.3061 198.423 69.3061 197.301L69.3088 196.978C69.3618 189.663 69.0432 171.856 64.8989 164.565L64.84 164.337C64.84 164.304 64.8921 161.104 64.4364 157.023C64.4104 156.778 64.5874 156.559 64.8312 156.529C65.0692 156.523 65.2957 156.68 65.3228 156.924C65.4468 158.037 65.5353 159.087 65.5952 160.028L66.1968 159.194C66.34 158.992 66.6186 158.948 66.8166 159.094C67.017 159.236 67.0624 159.514 66.9181 159.714L65.6724 161.443C65.7342 162.88 65.7342 163.893 65.7322 164.232C69.9276 171.772 70.2541 189.632 70.1984 196.987L70.1968 197.301C70.1968 199.024 68.288 199.823 68.2072 199.856L68.038 199.889Z" fill="#CC0001"/>
<path fill-rule="evenodd" clip-rule="evenodd" d="M85.4746 129.381C87.0839 131.889 89.7253 134.708 92.7373 137.351C98.7666 142.64 106.292 147.228 110.045 147.228C113.681 147.228 121.159 142.416 127.356 136.973C130.299 134.387 132.955 131.659 134.769 129.235L130.299 128.091C126.465 131.919 115.409 140.917 110.045 140.917C104.416 140.917 93.6293 131.919 89.7946 128.091C88.3999 128.489 86.9519 128.921 85.4746 129.381Z" fill="#00FF00"/>
<path d="M150.843 186.232L150.685 186.202C149.48 185.744 149.411 184.595 149.408 184.547C148.712 178.478 152.215 170.596 152.655 169.636C152.705 167.599 152.816 165.58 152.991 163.601L152.091 162.145C151.96 161.935 152.025 161.661 152.235 161.531C152.447 161.406 152.717 161.468 152.848 161.677L153.129 162.132C153.217 161.285 153.316 160.445 153.425 159.614C153.457 159.372 153.657 159.2 153.925 159.232C154.168 159.264 154.34 159.487 154.309 159.732C153.883 162.953 153.625 166.325 153.544 169.751L153.501 169.929C153.463 170.013 149.597 178.364 150.296 184.473C150.301 184.563 150.363 185.125 151.001 185.371C151.233 185.459 151.347 185.716 151.259 185.945C151.192 186.124 151.023 186.232 150.843 186.232Z" fill="#CC0001"/>
<path fill-rule="evenodd" clip-rule="evenodd" d="M78.436 95.984C68.1161 95.448 67.2437 77.1547 73.2047 77.5574C78.1653 77.8907 79.2053 81.0547 79.5333 82.3827C79.864 83.7107 78.436 95.984 78.436 95.984Z" fill="#DD8C79"/>
<path fill-rule="evenodd" clip-rule="evenodd" d="M142.507 95.984C152.829 95.448 153.703 77.1547 147.743 77.5574C142.78 77.8907 141.74 81.0547 141.411 82.3827C141.084 83.7107 142.507 95.984 142.507 95.984Z" fill="#DD8C79"/>
<path fill-rule="evenodd" clip-rule="evenodd" d="M144.369 60.172V83.5827C144.369 103.313 130.921 124.899 110.476 124.899C90.0308 124.899 76.5813 103.313 76.5813 83.5827V60.172C76.5813 15.6293 144.369 15.6293 144.369 60.172Z" fill="#DD8C79"/>
<path fill-rule="evenodd" clip-rule="evenodd" d="M120.756 50.7667L120.481 52.2494C120.481 52.2494 125.187 60.0534 133.767 53.264C142.348 46.476 120.756 50.7667 120.756 50.7667Z" fill="#BC6D69"/>
<path fill-rule="evenodd" clip-rule="evenodd" d="M126.433 74.4013H126.436C128.899 74.4013 130.915 76.4147 130.915 78.88V81.604C130.915 84.0693 128.899 86.0827 126.436 86.0827H126.433C123.973 86.0827 121.956 84.0693 121.956 81.604V78.88C121.956 76.4147 123.973 74.4013 126.433 74.4013Z" fill="#3E3155"/>
<path fill-rule="evenodd" clip-rule="evenodd" d="M94.5173 74.4013H94.5147C92.052 74.4013 90.036 76.4147 90.036 78.88V81.604C90.036 84.0693 92.052 86.0827 94.5147 86.0827H94.5173C96.9813 86.0827 98.9947 84.0693 98.9947 81.604V78.88C98.9947 76.4147 96.9813 74.4013 94.5173 74.4013Z" fill="#3E3155"/>
<path fill-rule="evenodd" clip-rule="evenodd" d="M111.383 79.096C111.436 79.4027 111.416 79.7347 111.312 79.9707C110.577 81.648 107.364 88.8427 107.396 89.796C107.509 91.0227 110.949 91.8773 112.791 91.9427C113.933 91.9813 112.591 95.9427 110.728 95.4013C108.74 94.8293 105.804 92.3227 105.588 89.976C105.483 88.8467 107.548 83.8253 109.043 80.44C109.427 79.572 109.189 78.6893 109.045 78.1093C108.679 76.5987 111.207 78.0827 111.383 79.096Z" fill="#BC6D69"/>
<path d="M145.783 90.1693C145.565 90.1693 145.375 90.0107 145.343 89.7893C145.043 87.8053 145.376 84.9893 146.207 82.44C146.971 80.1013 147.844 79.736 148.436 79.848C149.371 80.0174 149.939 81.4507 149.851 83.4107C149.84 83.6507 149.643 83.8387 149.405 83.8387L149.387 83.8373C149.141 83.8253 148.949 83.6187 148.961 83.372C149.036 81.7053 148.564 80.7773 148.277 80.724C148.111 80.6947 147.607 81.0227 147.055 82.7173C146.871 83.2773 146.715 83.8547 146.584 84.436C147.236 84.6973 148.301 85.464 148.259 87.6893C148.255 87.932 148.056 88.1253 147.815 88.1253H147.805C147.559 88.1227 147.364 87.9187 147.369 87.672C147.397 86.1253 146.812 85.5413 146.404 85.3227C146.119 86.92 146.045 88.476 146.223 89.6573C146.26 89.9013 146.092 90.1267 145.849 90.164L145.783 90.1693Z" fill="#BC6D69"/>
<path d="M75.1697 90.1693L75.103 90.164C74.8598 90.1267 74.6916 89.9013 74.728 89.6573C74.9052 88.476 74.8322 86.92 74.5468 85.3253C74.1385 85.5453 73.5552 86.1307 73.5848 87.672C73.59 87.9173 73.3921 88.1227 73.1473 88.1253C72.8713 88.1253 72.6968 87.9347 72.6932 87.6893C72.65 85.464 73.715 84.6973 74.367 84.436C74.2358 83.8547 74.0796 83.2773 73.8957 82.7173C73.3442 81.0213 72.8504 80.692 72.6733 80.724C72.3869 80.7773 71.9156 81.7053 71.9894 83.372C72.0014 83.6187 71.8104 83.8253 71.564 83.8373C71.3244 83.9053 71.1109 83.6574 71.1004 83.4107C71.0118 81.4507 71.5796 80.0174 72.5145 79.848C73.1109 79.7387 73.9806 80.104 74.7437 82.44C75.5744 84.988 75.9077 87.804 75.6109 89.7893C75.577 90.0107 75.3869 90.1693 75.1697 90.1693Z" fill="#BC6D69"/>
<path fill-rule="evenodd" clip-rule="evenodd" d="M110.476 20.3773C120.739 20.3773 128.591 23.716 135.928 29.5933C153.753 43.8667 145.517 57.0747 145.517 77.956C145.517 77.956 144.369 77.904 144.369 81.832C144.369 81.832 141.98 79.3667 141.98 75.456C141.98 71.5413 140.717 64.416 138.071 62.4587C135.424 60.504 134.821 56.6293 135.655 53.3693C136.485 50.1093 136.212 51.0147 136.428 49.7093C136.463 49.4427 137.272 43.3413 133.359 42.7947C129.441 42.2493 115.579 45.3107 110.476 45.3107C105.372 45.3107 91.5094 42.2493 87.5921 42.7947C83.6788 43.3413 84.4868 49.4427 84.5254 49.7093C84.7388 51.0147 84.4628 50.1093 85.2961 53.3693C86.1294 56.6293 85.5268 60.504 82.8801 62.4587C80.2334 64.416 78.9708 71.5413 78.9708 75.456C78.9708 79.3667 76.5813 81.832 76.5813 81.832C76.5813 77.904 75.4338 77.956 75.4338 77.956C75.4338 57.0747 67.1985 43.8667 85.0214 29.5933C92.3614 23.716 100.213 20.3773 110.476 20.3773Z" fill="#0000FF"/>
<path fill-rule="evenodd" clip-rule="evenodd" d="M82.6214 22.9507C83.1027 21 84.5707 19.9267 85.936 19.3374C85.0107 20.18 84.3707 21.2867 84.1787 22.544L84.1467 22.7934C83.6187 22.768 83.1054 22.8254 82.6214 22.9507ZM69.4807 51.9667C67.7124 50.7187 67.2724 49.1147 67.3411 47.7C67.8479 48.9427 68.9182 49.9707 70.3114 50.5027C69.8791 50.744 69.5667 51.1494 69.4927 51.6374L69.4807 51.9667ZM100.757 16.2934C101.635 15.7654 103.397 15.184 106.033 16.5C105.915 16.6254 105.804 16.7547 105.7 16.8894C105.393 16.676 105.023 16.528 104.611 16.476C103.765 16.3694 102.965 16.688 102.483 17.2534C101.988 16.8467 101.405 16.516 100.757 16.2934ZM99.564 16.0174C97.2307 15.724 95.0427 16.804 94.0227 18.568C93.2533 18.1174 92.364 17.8054 91.392 17.6827C89.9787 17.5054 88.608 17.752 87.4467 18.3174C85.7347 18.7 82.6134 19.8467 82 23.16C80.648 23.7187 79.636 24.8587 79.42 26.276C79.352 26.7094 79.3667 27.136 79.4467 27.5454C78.1454 27.924 77.1294 28.9374 76.932 30.2334C76.814 31.0067 77.004 31.7547 77.4214 32.38C76.7776 32.408 76.228 32.8414 76.137 33.4307L76.128 33.6827C74.3661 33.7574 72.8619 34.9427 72.6135 36.56C72.4536 37.6147 72.8609 38.6227 73.6291 39.3387C73.176 39.6947 72.8583 40.1947 72.7671 40.7747C72.7427 40.944 72.7386 41.112 72.7515 41.276C69.9547 41.1027 67.4536 42.888 67.0676 45.4027C67.0276 45.6614 67.0119 45.9187 67.0198 46.1747C66.5562 47.884 66.4963 50.3094 68.8296 52.1427C68.6526 55.2867 72.8671 59.4787 78.3734 54.8614C81.848 57.836 85.9507 56.4294 89.0014 53.8987C90.3014 54.7587 92.468 55.4214 95.72 54.1894C98.736 58.336 105.224 58.3387 108.135 53.784C108.369 53.8534 108.616 53.8934 108.869 53.9C109.008 53.9027 109.145 53.896 109.277 53.88C109.992 55.064 111.584 56.992 114.553 57.544C114.747 57.5774 114.932 57.4507 114.968 57.2574C115.001 57.0654 114.873 56.88 114.681 56.8454C112.111 56.3667 110.684 54.768 109.996 53.6974C110.348 53.556 110.668 53.348 110.936 53.0867C111.819 54.648 113.476 55.7187 115.4 55.76C117.733 55.8147 119.747 54.3387 120.481 52.2494C122.779 54.8827 129.711 54.468 131.048 52.38C143.103 63.3507 156.515 50.908 152.073 47.3987C152.555 47.1187 152.9 46.66 152.984 46.112C153.083 45.4867 152.812 44.888 152.321 44.4934C155.252 42.668 153.853 38.1267 153.848 38.112C153.809 37.976 153.652 37.896 153.501 37.9294C153.352 37.9654 153.26 38.104 153.301 38.2387C153.307 38.252 154.649 42.6254 151.799 44.184C151.665 44.1294 151.524 44.0867 151.376 44.06C151.913 43.464 152.283 42.736 152.408 41.924C152.771 39.544 150.903 37.3387 148.233 37.0027L148.187 36.9974C148.588 36.5307 148.864 35.968 148.959 35.3454C149.209 33.6947 148.135 32.1534 146.46 31.5827C146.567 30.4494 145.66 29.4214 144.381 29.2614C144.075 29.2227 143.772 29.236 143.488 29.296C143.621 25.4214 140.46 21.992 136.061 21.4374C134.704 21.2654 133.379 21.388 132.163 21.7467C131.597 20.588 130.392 19.7107 128.889 19.52C127.676 19.3667 126.512 19.6947 125.64 20.3414C125.324 18.792 123.928 17.5227 122.087 17.292C120.569 17.1 119.132 17.6587 118.243 18.6494C118.064 18.436 117.84 18.252 117.58 18.1147C118.257 17.4414 119.579 16.4867 121.657 16.4507C121.815 16.448 121.939 16.332 121.935 16.192C121.931 16.0534 121.803 15.9414 121.648 15.944C119.241 15.9867 117.751 17.156 117.039 17.9027L116.72 17.844C116.52 17.8174 116.321 17.816 116.129 17.836C115.321 16.1787 113.595 14.9187 111.444 14.648C109.531 14.408 107.703 15.0014 106.425 16.12C103.099 14.4054 100.955 15.4707 100.092 16.1094C99.9213 16.072 99.7453 16.0414 99.564 16.0174ZM91.088 51.8094C91.5614 52.692 92.4814 53.2987 93.552 53.3227C94.0747 53.336 94.5667 53.208 94.9933 52.9707C95.0947 53.1814 95.204 53.3867 95.32 53.5814C92.5614 54.5827 90.704 54.104 89.5573 53.412C90.1133 52.9027 90.6294 52.3614 91.088 51.8094Z" fill="#0000FF"/>
<path fill-rule="evenodd" clip-rule="evenodd" d="M132.163 21.7467C132.163 21.7467 115.899 36.4813 93.176 25.8267C93.176 25.8267 116.697 54.0627 148.637 37.068C148.504 37.0413 148.369 37.0187 148.233 37.0027L148.187 36.9973C148.588 36.5307 148.864 35.968 148.959 35.3453C149.209 33.6947 148.135 32.1533 146.46 31.5827C146.567 30.4493 145.66 29.4213 144.381 29.2613C144.075 29.2227 143.772 29.236 143.488 29.296C143.621 25.4213 140.46 21.992 136.061 21.4373C134.704 21.2653 133.379 21.388 132.163 21.7467Z" fill="white" fill-opacity="0.2"/>
<path fill-rule="evenodd" clip-rule="evenodd" d="M110.476 120.339C112.793 120.339 114.752 120.257 118.647 119.212C121.307 118.5 128.889 109.927 125.251 106.473C123.835 105.129 121.764 103.241 119.843 101.645C117.919 100.048 117.155 99.6507 113.2 99.6507H110.476H107.752C103.796 99.6507 103.033 100.048 101.108 101.645C99.1854 103.241 97.1161 105.129 95.7014 106.473C92.0614 109.927 99.6454 118.5 102.305 119.212C106.2 120.257 108.157 120.339 110.476 120.339ZM120.707 100.083L120.864 100.195C124.585 102.867 128.523 105.716 128.523 105.716C128.523 105.716 130.697 107.18 132.532 104.007C134.367 100.833 141.341 92.5707 142.036 89.9733C142.616 87.808 142.036 76.4893 142.036 76.4893L144.369 81.832C144.369 84.2187 144.364 86.796 144.209 88.6347C142.647 107.255 129.632 126.203 110.476 126.203C91.3174 126.203 78.3054 107.255 76.7412 88.6347C76.5865 86.796 76.5813 84.2187 76.5813 81.832L78.9134 76.4893C78.9134 76.4893 78.3348 87.808 78.9134 89.9733C79.6108 92.5707 86.5854 100.833 88.4201 104.007C90.2548 107.18 92.4281 105.716 92.4281 105.716C92.4281 105.716 96.3641 102.867 100.088 100.195L100.244 100.083C103.457 97.7893 104 97.9787 107.645 97.9787H110.476H113.309C116.952 97.9787 117.493 97.7893 120.707 100.083Z" fill="#0000FF"/>
<path d="M110.476 108.013C109.544 108.013 108.621 107.965 107.732 107.877C107.243 107.829 106.884 107.393 106.933 106.903C106.981 106.415 107.419 106.052 107.909 106.105C109.569 106.271 111.383 106.271 113.04 106.105C113.517 106.036 113.967 106.415 114.015 106.903C114.064 107.393 113.707 107.829 113.217 107.877C112.329 107.965 111.408 108.013 110.476 108.013Z" fill="#BC6D69"/>
<path d="M110.476 104.268C108.64 104.268 106.812 104.179 105.043 104.001C104.553 103.953 104.197 103.516 104.247 103.025C104.293 102.539 104.752 102.164 105.22 102.229C108.639 102.569 112.307 102.569 115.731 102.229C116.203 102.167 116.656 102.536 116.704 103.025C116.755 103.516 116.397 103.953 115.908 104.001C114.139 104.179 112.311 104.268 110.476 104.268Z" fill="#BC6D69"/>
<path fill-rule="evenodd" clip-rule="evenodd" d="M121.517 72.964C119.869 73.3413 118.793 70.8173 118.728 70.6747L118.707 70.5693L118.957 70.028C118.957 70.028 119.28 70.4107 119.981 70.272C120.397 70.1893 123.632 69.348 126.551 68.5907C127.835 68.2573 130.833 67.492 132.085 67.6333C133.493 67.792 133.768 69.22 134.152 70.3853L134.1 70.596L133.829 70.58C133.272 69.956 132.556 69.88 131.713 69.916C129.627 70.0053 124.187 72.3573 121.517 72.964Z" fill="#3E3155"/>
<path fill-rule="evenodd" clip-rule="evenodd" d="M132.64 66.7213C132.812 66.576 133.071 66.5973 133.216 66.7707C133.363 66.9427 133.341 67.2013 133.168 67.348L127.733 71.9427C127.561 72.088 127.303 72.068 127.156 71.896C127.011 71.724 127.032 71.4627 127.204 71.3173L132.64 66.7213Z" fill="#DD8C79"/>
<path fill-rule="evenodd" clip-rule="evenodd" d="M99.4334 73.472C101.08 73.848 102.157 71.3253 102.223 71.1813L102.244 71.0747L101.993 70.5373C101.993 70.5373 101.671 70.92 100.971 70.7813C100.553 70.6973 97.3187 69.856 94.3987 69.0987C93.116 68.7653 90.1174 68.0013 88.868 68.14C87.4574 68.2987 87.184 69.7293 86.7987 70.8933L86.8507 71.104L87.1214 71.0867C87.6787 70.4627 88.3947 70.388 89.236 70.424C91.3254 70.5133 96.764 72.864 99.4334 73.472Z" fill="#3E3155"/>
<path d="M100.421 124.793L100.26 124.764C89.564 120.655 80.908 109.697 77.5773 96.3467C71.0604 95.3933 68.6629 87.6453 69.1057 82.604C69.4156 79.0667 71.0162 76.9547 73.2334 77.112C73.478 77.128 73.6656 77.3413 73.6474 77.5853C73.6318 77.832 73.3974 78.028 73.1734 78.0027C71.137 77.836 70.1995 80.3293 69.9938 82.6813C69.5875 87.284 71.6708 94.304 77.3507 95.4027C77.1734 94.6253 77.0134 93.84 76.8714 93.048C76.8296 92.804 76.9894 92.5733 77.232 92.5307C77.4827 92.4867 77.7054 92.648 77.7494 92.8907C77.92 93.8453 78.116 94.788 78.34 95.7187L78.4 95.9693C81.632 109.119 90.1054 119.908 100.58 123.932C100.809 124.02 100.925 124.279 100.836 124.508C100.767 124.684 100.599 124.793 100.421 124.793Z" fill="white"/>
<path d="M184.657 192.211C184.447 192.211 184.284 192.181 184.247 192.173C184.007 192.125 183.851 191.892 183.899 191.651C183.944 191.411 184.179 191.257 184.421 191.299C184.607 191.333 184.929 191.331 185.048 191.229C185.067 191.214 185.113 191.177 185.108 191.025C185.02 177.605 180.564 141.656 161.285 136.473L130.189 128.523C129.951 128.46 129.807 128.219 129.868 127.98C129.927 127.743 130.169 127.607 130.411 127.659L161.512 135.613C181.332 140.941 185.911 177.411 186 191.014C186.009 191.485 185.799 191.764 185.621 191.913C185.331 192.155 184.948 192.211 184.657 192.211ZM34.5043 205.48C34.2803 205.48 34.0865 205.309 34.0614 205.083C33.413 199.053 36.7829 173.339 39.3245 159.749C41.9537 145.707 57.0147 139.125 57.1657 139.06C58.5303 138.4 76.3939 131.451 89.6721 127.663C89.9135 127.599 90.1548 127.732 90.2228 127.968C90.2908 128.205 90.1521 128.452 89.9188 128.519C76.6839 132.293 58.9078 139.205 57.5354 139.872C57.3688 139.943 42.7412 146.347 40.2021 159.913C37.6682 173.451 34.3062 199.029 34.9485 204.987C34.9729 205.232 34.7969 205.451 34.5537 205.477L34.5043 205.48Z" fill="white"/>
</g>
<defs>
<clipPath id="clip0_1_1358">
<rect width="224" height="234" fill="white"/>
</clipPath>
</defs>
</svg>
