<svg width="224" height="234" viewBox="0 0 224 234" fill="none" xmlns="http://www.w3.org/2000/svg">
<g clip-path="url(#clip0_1_1358)">
<path fill-rule="evenodd" clip-rule="evenodd" d="M42.5355 204.995C39.6579 205.297 35.7412 204.5 35.4417 200.241C35.1432 195.984 39.5224 195.733 39.6057 195.865C39.6891 195.997 42.7145 201.409 42.7145 201.523L42.5355 204.995Z" fill="#4C466A"/>
<path fill-rule="evenodd" clip-rule="evenodd" d="M93.676 143.293H128.293V126.676C130.427 125.971 132.673 125.109 132.673 125.109L131.239 123.299C131.239 123.299 128.293 122.009 128.293 118.248V86.2708H93.676V118.248C93.676 122.009 90.732 123.299 90.732 123.299L89.296 125.109C89.296 125.109 91.5414 125.971 93.676 126.676V143.293Z" fill="#DD8C79"/>
<path fill-rule="evenodd" clip-rule="evenodd" d="M93.676 107.952V118.248C93.676 119.845 93.144 120.999 92.5333 121.793C97.916 126.315 111.673 134.613 126.015 117.153L104.037 104.296C104.037 104.296 98.2947 106.351 93.676 107.952Z" fill="#BC6D69"/>
<path fill-rule="evenodd" clip-rule="evenodd" d="M58.2771 134.679C59.6547 134.012 77.5902 127.047 90.732 123.299C94.5667 127.127 105.353 136.124 110.984 136.124C116.345 136.124 127.403 127.127 131.239 123.299L162.34 131.252V193.032L161.308 204.867H63.1787L58.2771 134.679Z" fill="#FF0001"/>
<path fill-rule="evenodd" clip-rule="evenodd" d="M162.34 173.58V193.032L162.101 195.76C152.611 196.831 123.765 200.309 119.472 201.104C116.428 201.667 95.472 203.845 78.6947 204.867H63.1787L62.1562 190.236C64.5016 185.611 66.764 181.679 66.764 181.679C66.764 181.679 70.6364 175.139 92.2227 183.093C113.808 191.049 136.536 191.485 152.66 176.4C157.264 172.092 160.329 171.801 162.34 173.58Z" fill="#CC0001"/>
<path fill-rule="evenodd" clip-rule="evenodd" d="M94.0813 187.236C94.0813 187.236 89.0786 186.377 83.2613 186.783C77.4478 187.189 69.1989 188.631 69.1989 188.631L66.2693 193.544L69.3349 203.101C69.3349 203.101 72.7145 204.588 74.3827 203.46C76.051 202.333 94.5773 192.373 94.0813 187.236Z" fill="#DD8C79"/>
<path fill-rule="evenodd" clip-rule="evenodd" d="M68.9781 194.651C68.9781 194.651 69.3792 198.055 72.3557 201.661L80.7387 199.224L108.865 200.937L123.039 219.528C123.039 219.528 120.765 219.777 108.416 223.835C96.064 227.892 86.868 232.94 69.4697 234.293C52.0713 235.645 47.6527 232.94 45.9417 224.917C44.2281 216.892 37.376 205.716 37.8265 194.988C38.2771 184.26 55.6755 184.168 55.6755 184.168C55.6755 184.168 69.2891 186.241 68.9781 194.651Z" fill="#DD8C79"/>
<path fill-rule="evenodd" clip-rule="evenodd" d="M110.649 203.277L123.039 219.528C123.039 219.528 120.995 219.755 110.267 223.231C108.832 212.804 95.98 207.492 95.98 207.492L109.181 202.932C109.681 203.045 110.171 203.161 110.649 203.277Z" fill="#BC6D69"/>
<path fill-rule="evenodd" clip-rule="evenodd" d="M38.3214 201.376C37.9339 199.247 37.738 197.109 37.8266 194.988C38.1547 187.164 47.4974 184.997 52.5312 184.397L57.514 190.647C57.514 190.647 44.1459 193.527 38.3214 201.376Z" fill="#BC6D69"/>
<path fill-rule="evenodd" clip-rule="evenodd" d="M132.124 194.085L135.379 192.127C135.379 192.127 139.335 190.028 143.752 186.783C148.171 183.537 151.865 182.636 156.553 183.719C161.241 184.799 162.34 190.299 162.34 190.299C162.34 190.299 159.168 198.411 156.283 197.059C153.399 195.708 132.124 194.085 132.124 194.085Z" fill="#DD8C79"/>
<path fill-rule="evenodd" clip-rule="evenodd" d="M185.272 186.944C185.272 186.944 182.475 208.473 175.331 218.364L151.791 192.033C151.791 192.033 150.704 186.111 151.781 180.995C152.86 175.877 152.86 175.877 152.86 175.877C152.86 175.877 173.775 172.179 174.767 172.721C175.757 173.263 185.223 181.375 185.272 186.944Z" fill="#DD8C79"/>
<path fill-rule="evenodd" clip-rule="evenodd" d="M185.272 186.944C185.272 186.944 185.125 188.077 184.811 189.943C175.856 179.689 163.64 179.055 163.64 179.055L167.46 173.471C171.253 172.907 174.395 172.519 174.767 172.721C175.757 173.263 185.223 181.375 185.272 186.944Z" fill="#BC6D69"/>
<path fill-rule="evenodd" clip-rule="evenodd" d="M186.491 186.224C186.379 169.381 180.717 136.192 162.34 131.252C162.34 131.252 154.576 142.411 154.035 164.947C154.035 164.947 150.068 173.423 150.791 179.732C150.791 179.732 150.835 180.633 151.781 180.995C151.781 180.995 174.092 173.781 185.272 186.944C185.272 186.944 186.512 187.192 186.491 186.224Z" fill="#FF0001"/>
<path fill-rule="evenodd" clip-rule="evenodd" d="M58.2771 134.679C58.2771 134.679 43.3151 141.068 40.699 155.041C38.087 169.013 34.8115 194.383 35.4418 200.241C39.2771 192.104 65.9203 186.34 68.9782 194.651C68.9782 194.651 70.6891 193.952 70.6891 192.509C70.6891 191.067 71.0913 168.116 66.223 159.555C66.223 159.555 66.587 139.547 58.2771 134.679Z" fill="#FF0001"/>
<path fill-rule="evenodd" clip-rule="evenodd" d="M94.0813 187.236C94.0813 187.236 109.496 190.84 121.848 192.104C134.199 193.367 153.4 189.039 164.037 195.348C174.676 201.661 176.839 209.864 176.839 213.559C176.839 217.255 173.593 223.205 165.209 224.379C156.827 225.549 136.271 224.829 120.315 218.517C104.359 212.208 90.2946 202.289 72.3557 201.661L94.0813 187.236Z" fill="#DD8C79"/>
<path d="M164.037 195.793L163.811 195.731C160.501 193.769 156.363 192.851 151.833 192.477L151.676 192.465C146.797 192.075 141.475 192.307 136.241 192.536L135.34 192.575C135.056 192.591 134.887 192.395 134.875 192.149C134.865 191.903 135.056 191.695 135.301 191.684L136.201 191.645C141.291 191.424 146.465 191.203 151.259 191.539C151.015 189.915 150.447 185.175 151.345 180.903C151.396 180.664 151.632 180.505 151.873 180.559C152.113 180.609 152.267 180.845 152.217 181.087C151.316 185.364 151.968 190.287 152.172 191.611C156.717 192.009 160.884 192.96 164.265 194.965C164.477 195.091 164.547 195.364 164.421 195.575C164.339 195.716 164.192 195.793 164.037 195.793ZM123.009 219.963L122.863 219.939C121.947 219.619 121.041 219.284 120.149 218.932C115.535 217.107 111.02 214.953 106.652 212.869C95.5253 207.564 85.0159 202.552 72.3453 202.107C72.1926 202.109 67.0713 202.069 62.277 204.617C62.0614 204.733 61.7906 204.653 61.6754 204.435C61.5583 204.216 61.6417 203.947 61.8583 203.833C65.7306 201.773 69.7125 201.332 71.4583 201.237C68.9338 197.849 68.551 194.839 68.5354 194.705C68.5067 194.46 68.6797 194.239 68.9245 194.211C69.163 194.179 69.3895 194.353 69.4193 194.599C69.4234 194.629 69.8401 197.829 72.5729 201.223C85.3453 201.721 96.3706 206.98 107.036 212.065C111.389 214.143 115.892 216.288 120.477 218.104C121.359 218.452 122.251 218.783 123.155 219.096C123.388 219.176 123.511 219.429 123.431 219.664C123.367 219.847 123.195 219.963 123.009 219.963Z" fill="#BC6D69"/>
<path d="M68.9781 195.097C68.8031 195.097 68.6364 194.993 68.5661 194.821C68.4729 194.593 68.5807 194.333 68.8084 194.239C68.8213 194.233 70.2432 193.631 70.2432 192.509L70.2464 192.187C70.2995 184.871 69.9807 167.063 65.8369 159.773L65.7771 159.547C65.7803 159.513 65.8297 156.312 65.374 152.231C65.3473 151.987 65.5235 151.767 65.7683 151.737C66.0156 151.725 66.2328 151.888 66.2604 152.132C66.3844 153.245 66.4713 154.295 66.5312 155.236L67.1328 154.401C67.2771 154.2 67.5563 154.156 67.7536 154.301C67.9541 154.444 68 154.723 67.8557 154.923L66.6084 156.653C66.6735 158.088 66.6735 159.101 66.6703 159.44C70.8636 166.979 71.1917 184.84 71.1355 192.195L71.1344 192.509C71.1344 194.232 69.2265 195.031 69.1448 195.064L68.9781 195.097Z" fill="#CC0001"/>
<path d="M154.42 59.552C154.264 59.552 154.113 59.4693 154.032 59.3253C153.936 59.1533 151.636 55.1693 147.68 56.4107C147.447 56.48 147.195 56.3546 147.121 56.12C147.048 55.8853 147.179 55.6346 147.413 55.5613C152.068 54.0946 154.783 58.84 154.809 58.888C154.928 59.104 154.853 59.3746 154.639 59.4946L154.42 59.552ZM150.903 86.416C147.64 86.416 145.336 85.6267 144.713 85C144.423 84.708 144.488 84.432 144.529 84.3266C144.621 84.096 144.879 83.9813 145.109 84.0773C145.256 84.1347 145.356 84.264 145.383 84.408C146.064 84.9933 151.612 86.8093 158.949 83.956C159.18 83.8666 159.437 83.9813 159.527 84.2107C159.616 84.44 159.501 84.6973 159.272 84.7853C156.163 85.9973 153.277 86.416 150.903 86.416Z" fill="#0000FF"/>
<path fill-rule="evenodd" clip-rule="evenodd" d="M153.464 62.6161C154.019 59.3214 151.796 56.1987 148.499 55.6441C145.204 55.0894 142.081 57.312 141.525 60.6067C140.971 63.9027 143.193 67.0254 146.488 67.5827C149.785 68.1374 152.909 65.9147 153.464 62.6161Z" fill="#0000FF"/>
<path fill-rule="evenodd" clip-rule="evenodd" d="M160.267 76.3081C161.319 70.0547 157.105 64.1321 150.851 63.0801C144.597 62.0267 138.676 66.2414 137.624 72.4947C136.571 78.7467 140.784 84.6694 147.037 85.7227C153.292 86.7774 159.212 82.5614 160.267 76.3081Z" fill="#0000FF"/>
<path fill-rule="evenodd" clip-rule="evenodd" d="M80.3506 93.056C70.4828 92.5467 69.6494 75.0547 75.3464 75.44C80.0906 75.76 81.0853 78.7827 81.4 80.0547C81.712 81.3253 80.3506 93.056 80.3506 93.056Z" fill="#DD8C79"/>
<path fill-rule="evenodd" clip-rule="evenodd" d="M141.613 93.056C151.48 92.5467 152.313 75.0547 146.616 75.44C141.871 75.76 140.877 78.7827 140.564 80.0547C140.251 81.3253 141.613 93.056 141.613 93.056Z" fill="#DD8C79"/>
<path fill-rule="evenodd" clip-rule="evenodd" d="M143.392 58.8174V81.2001C143.392 100.067 130.532 120.703 110.984 120.703C91.4361 120.703 78.5774 100.067 78.5774 81.2001V58.8174C78.5774 16.2281 143.392 16.2281 143.392 58.8174Z" fill="#DD8C79"/>
<path fill-rule="evenodd" clip-rule="evenodd" d="M126.244 65.6093H126.247C128.6 65.6093 130.528 67.536 130.528 69.8933V72.4973C130.528 74.8533 128.6 76.7787 126.247 76.7787H126.244C123.889 76.7787 121.961 74.8533 121.961 72.4973V69.8933C121.961 67.536 123.889 65.6093 126.244 65.6093Z" fill="#3E3155"/>
<path fill-rule="evenodd" clip-rule="evenodd" d="M95.7253 65.6093H95.7226C93.368 65.6093 91.4426 67.536 91.4426 69.8933V72.4973C91.4426 74.8533 93.368 76.7787 95.7226 76.7787H95.7253C98.0813 76.7787 100.008 74.8533 100.008 72.4973V69.8933C100.008 67.536 98.0813 65.6093 95.7253 65.6093Z" fill="#3E3155"/>
<path fill-rule="evenodd" clip-rule="evenodd" d="M111.515 68.492C111.597 68.8693 111.595 69.2787 111.488 69.58C110.741 71.7053 107.908 78.8907 108.007 80.068C108.221 81.5773 112.296 82.3973 114.451 82.3507C115.788 82.3213 114.475 87.3133 112.264 86.7733C109.908 86.2027 106.372 83.648 105.968 80.7587C105.772 79.3667 107.917 74.7907 109.441 70.5027C109.988 69.0333 108.924 68.14 108.72 67.4333C108.192 65.5893 111.244 67.252 111.515 68.492Z" fill="#BC6D69"/>
<path d="M144.743 87.5173C144.525 87.5173 144.335 87.3587 144.301 87.1387C144.017 85.2387 144.336 82.5427 145.132 80.104C145.865 77.8533 146.699 77.5 147.285 77.612C148.189 77.776 148.737 79.1533 148.651 81.0373C148.641 81.2827 148.435 81.5107 148.187 81.4613C147.94 81.4507 147.751 81.244 147.761 80.9973C147.832 79.44 147.385 78.536 147.125 78.4867C147.029 78.452 146.509 78.752 145.977 80.38C145.805 80.908 145.655 81.4547 145.531 82.0053C146.163 82.264 147.171 83.0067 147.129 85.1267C147.125 85.372 146.925 85.564 146.684 85.564H146.676C146.431 85.5587 146.233 85.356 146.239 85.1107C146.267 83.6773 145.736 83.116 145.353 82.8973C145.084 84.4133 145.016 85.888 145.184 87.0053C145.217 87.2507 145.051 87.476 144.808 87.512L144.743 87.5173Z" fill="#BC6D69"/>
<path d="M77.225 87.5173L77.1598 87.512C76.9166 87.476 76.7483 87.2493 76.7854 87.0053C76.953 85.888 76.8843 84.4133 76.6171 82.8973C76.2327 83.116 75.7021 83.6773 75.7306 85.1107C75.7359 85.356 75.539 85.5587 75.2926 85.564H75.2854C75.0426 85.564 74.8453 85.372 74.8401 85.1267C74.7978 83.0067 75.8062 82.2627 76.4374 82.0053C76.3125 81.4547 76.1639 80.908 75.9911 80.3773C75.4593 78.7547 74.9437 78.452 74.8453 78.4867C74.5849 78.5333 74.1363 79.44 74.2057 80.9973C74.2177 81.244 74.027 81.4507 73.7811 81.4613C73.5573 81.5027 73.3265 81.2827 73.3161 81.0373C73.2306 79.1533 73.7811 77.776 74.6838 77.612C75.2723 77.5 76.1026 77.8533 76.8369 80.1013C77.6343 82.544 77.9519 85.2387 77.6666 87.1387C77.6343 87.3587 77.4437 87.5173 77.225 87.5173Z" fill="#BC6D69"/>
<path fill-rule="evenodd" clip-rule="evenodd" d="M124.408 63.5547H119.78C118.972 63.5547 118.533 63.1 118.351 62.6613C118.291 62.5186 118.256 62.3747 118.247 62.244C118.233 62.0987 118.251 61.9653 118.292 61.8667C118.363 61.6973 118.488 61.6067 118.656 61.6387C118.775 61.6613 119.228 61.568 119.843 61.416C120.679 61.208 121.769 60.8946 122.749 60.604L123.336 60.4267C125.209 59.8547 128.279 58.9186 130.832 59.0373C133.709 59.172 136.42 61.5827 136.428 61.588V61.5893L136.496 61.8693C136.455 61.9947 136.332 62.06 136.22 62.012C135.628 61.7626 134.984 61.6293 134.216 61.6213C133.437 61.612 132.528 61.7333 131.411 61.9893C130.699 62.1533 129.908 62.3707 129.104 62.5907C127.365 63.0667 125.584 63.5547 124.408 63.5547Z" fill="#0000FF"/>
<path fill-rule="evenodd" clip-rule="evenodd" d="M97.5627 67.9267H102.189C102.996 67.9267 103.433 67.4707 103.62 67.0347C103.679 66.8934 103.712 66.7467 103.723 66.6174C103.736 66.472 103.717 66.3387 103.676 66.2387C103.605 66.0694 103.483 65.98 103.312 66.0094C103.195 66.0334 102.741 65.9401 102.127 65.7881C101.291 65.5801 100.199 65.268 99.22 64.976L98.6334 64.7987C96.7587 64.2281 93.6907 63.2921 91.1374 63.4107C88.2587 63.5441 85.548 65.9547 85.54 65.9601H85.5427L85.472 66.2414C85.5147 66.3667 85.6387 66.4321 85.7494 66.3854C86.3414 66.1347 86.984 66.0027 87.7534 65.9934C88.5307 65.9867 89.4427 66.1067 90.5587 66.3627C91.2694 66.5254 92.0627 66.7441 92.8654 66.9627C94.6027 67.4401 96.3867 67.9267 97.5627 67.9267Z" fill="#0000FF"/>
<path fill-rule="evenodd" clip-rule="evenodd" d="M141.604 32.3147C149.449 42.836 147.359 59.388 145.848 75.5067C145.848 75.5067 143.141 75.792 143.141 79.5173C138.836 72.064 141.324 59.864 141.66 52.6987C141.841 48.8094 140.455 44.704 136.232 42.8827C131.733 40.9427 124.365 38.2053 110.983 38.2053C97.5974 38.2053 90.228 40.9427 85.7307 42.8827C81.508 44.704 80.1214 48.8094 80.304 52.6987C80.6387 59.864 83.128 72.064 78.8227 79.5173C78.8227 75.792 76.1172 75.5067 76.1172 75.5067C74.6058 59.388 72.514 42.836 80.3587 32.3147C86.0147 24.728 98.4987 16.6973 110.983 16.6973C123.465 16.6973 135.949 24.728 141.604 32.3147Z" fill="#0000FF"/>
<path fill-rule="evenodd" clip-rule="evenodd" d="M79.144 34.12C79.5227 33.5026 79.924 32.8973 80.3587 32.3146C83.0867 28.6533 87.4107 24.888 92.5534 21.972C95.548 25.6213 102.641 29.2146 119.411 24.8533C119.411 24.8533 94.5014 38.7346 79.144 34.12Z" fill="black" fill-opacity="0.2"/>
<path fill-rule="evenodd" clip-rule="evenodd" d="M126.759 116.141C123.84 120.468 118.244 123.861 110.984 123.861C103.725 123.861 98.1266 120.468 95.2093 116.141C94.796 115.403 94.6866 114.041 96.54 114.42C98.396 114.799 100.78 116.447 100.78 116.447C102.003 115.164 105.589 117.312 105.589 117.312C105.896 115.825 109.319 117.327 109.319 117.327C110.072 116.375 111.897 116.375 112.649 117.327C112.649 117.327 116.075 115.825 116.379 117.312C116.379 117.312 119.967 115.164 121.189 116.447C121.189 116.447 123.572 114.799 125.428 114.42C127.283 114.041 127.173 115.403 126.759 116.141Z" fill="#0000FF"/>
<path fill-rule="evenodd" clip-rule="evenodd" d="M110.252 94.7827C109.845 94.7254 109.561 94.3481 109.619 93.9427C109.677 93.5334 110.056 93.2494 110.463 93.3081C110.468 93.3094 112.624 93.5867 115.363 93.124C115.769 93.056 116.152 93.3307 116.22 93.7361C116.289 94.1414 116.015 94.5267 115.609 94.5947C112.652 95.0934 110.259 94.7841 110.252 94.7827Z" fill="#BC6D69"/>
<path fill-rule="evenodd" clip-rule="evenodd" d="M104.347 90.6373C103.939 90.5227 103.703 90.1 103.819 89.6933C103.933 89.288 104.359 89.0533 104.764 89.168C104.796 89.176 116.117 92.492 120.716 86.7506C120.979 86.4213 121.46 86.3693 121.789 86.632C122.119 86.8946 122.173 87.3773 121.908 87.7053C116.668 94.248 104.381 90.648 104.347 90.6373Z" fill="#BC6D69"/>
<path fill-rule="evenodd" clip-rule="evenodd" d="M119.644 87.304C119.223 87.2827 118.897 86.924 118.917 86.5013C118.936 86.08 119.296 85.7547 119.717 85.776C119.727 85.776 122.835 85.864 122.632 88.812C122.603 89.2307 122.241 89.5506 121.82 89.5213C121.4 89.4946 121.083 89.1293 121.112 88.7107C121.204 87.3493 119.648 87.304 119.644 87.304Z" fill="#BC6D69"/>
<path fill-rule="evenodd" clip-rule="evenodd" d="M86.4133 124.588C88.0227 127.097 90.6613 129.916 93.676 132.557C99.704 137.847 107.229 142.436 110.984 142.436C114.62 142.436 122.096 137.624 128.293 132.181C131.239 129.595 133.892 126.865 135.709 124.443L131.239 123.299C127.403 127.127 116.345 136.124 110.984 136.124C105.353 136.124 94.5667 127.127 90.732 123.299C89.3373 123.697 87.8893 124.129 86.4133 124.588Z" fill="#00FF00"/>
<path d="M151.781 181.44L151.624 181.411C150.417 180.952 150.349 179.803 150.347 179.755C149.649 173.687 153.152 165.804 153.592 164.844C153.644 162.808 153.756 160.789 153.928 158.808L153.028 157.353C152.899 157.143 152.964 156.869 153.173 156.739C153.384 156.613 153.656 156.676 153.787 156.885L154.068 157.34C154.155 156.492 154.252 155.652 154.361 154.823C154.395 154.579 154.611 154.4 154.861 154.437C155.105 154.469 155.277 154.695 155.247 154.937C154.821 158.164 154.564 161.535 154.48 164.959L154.439 165.137C154.4 165.221 150.532 173.572 151.233 179.681C151.241 179.771 151.301 180.333 151.94 180.579C152.171 180.667 152.285 180.924 152.197 181.153C152.131 181.332 151.961 181.44 151.781 181.44Z" fill="#CC0001"/>
<path d="M76.1172 75.952C75.8896 75.952 75.6937 75.7814 75.6734 75.5494L75.4234 72.9107C73.9781 57.7814 72.4828 42.1347 80.0013 32.0494C85.8546 24.2 98.3746 16.252 110.983 16.252C111.228 16.252 111.428 16.452 111.428 16.6974C111.428 16.9454 111.228 17.144 110.983 17.144C98.8013 17.144 86.296 25.0974 80.716 32.58C73.4026 42.3934 74.8792 57.864 76.3098 72.8267L76.5614 75.4654C76.5849 75.712 76.4036 75.9293 76.1588 75.9507L76.1172 75.952Z" fill="white"/>
<path d="M185.597 187.419C185.384 187.419 185.223 187.389 185.187 187.381C184.944 187.333 184.789 187.1 184.837 186.859C184.884 186.616 185.124 186.468 185.359 186.507C185.543 186.541 185.868 186.539 185.985 186.437C186.004 186.423 186.049 186.385 186.045 186.231C185.957 172.812 181.501 136.864 162.224 131.681L131.127 123.731C130.889 123.668 130.747 123.427 130.805 123.188C130.865 122.951 131.111 122.815 131.348 122.867L162.449 130.82C182.269 136.148 186.847 172.616 186.937 186.221C186.947 186.692 186.736 186.972 186.556 187.121C186.268 187.363 185.885 187.419 185.597 187.419ZM35.4417 200.687C35.2177 200.687 35.0234 200.517 34.9983 200.288C34.3505 194.265 37.7197 168.552 40.262 154.957C42.8896 140.913 57.9521 134.333 58.1026 134.268C59.4661 133.608 77.3349 126.656 90.6106 122.871C90.8453 122.804 91.0906 122.94 91.1599 123.176C91.2279 123.413 91.0893 123.66 90.8533 123.727C77.625 127.5 59.8453 134.413 58.4729 135.08C58.3046 135.151 43.677 141.552 41.1379 155.121C38.6057 168.664 35.2431 194.243 35.8843 200.193C35.9098 200.437 35.7327 200.657 35.4895 200.684L35.4417 200.687Z" fill="white"/>
</g>
<defs>
<clipPath id="clip0_1_1358">
<rect width="224" height="234" fill="white"/>
</clipPath>
</defs>
</svg>
