<svg width="224" height="234" viewBox="0 0 224 234" fill="none" xmlns="http://www.w3.org/2000/svg">
<g clip-path="url(#clip0_1_1358)">
<path fill-rule="evenodd" clip-rule="evenodd" d="M44.596 205.679C41.7187 205.981 37.8027 205.184 37.5053 200.925C37.2053 196.668 41.584 196.417 41.6667 196.549C41.7507 196.681 44.7787 202.093 44.7787 202.207L44.596 205.679Z" fill="#4C466A"/>
<path fill-rule="evenodd" clip-rule="evenodd" d="M95.7373 143.977H130.355V127.36C132.489 126.655 134.735 125.793 134.735 125.793L133.3 123.983C133.3 123.983 130.355 122.693 130.355 118.932V86.9546H95.7373V118.932C95.7373 122.693 92.7946 123.983 92.7946 123.983L91.3573 125.793C91.3573 125.793 93.604 126.655 95.7373 127.36V143.977Z" fill="#FCD1C8"/>
<path fill-rule="evenodd" clip-rule="evenodd" d="M95.7373 108.636V118.932C95.7373 120.529 95.2053 121.683 94.5959 122.477C99.9773 126.999 113.735 135.297 128.076 117.837L106.099 104.98C106.099 104.98 100.357 107.035 95.7373 108.636Z" fill="#F9A8A1"/>
<path fill-rule="evenodd" clip-rule="evenodd" d="M60.3413 135.363C61.716 134.696 79.6506 127.731 92.7946 123.983C96.6306 127.811 107.415 136.808 113.047 136.808C118.407 136.808 129.464 127.811 133.3 123.983L164.401 131.936V193.716L163.369 205.551H65.24L60.3413 135.363Z" fill="#FF0001"/>
<path fill-rule="evenodd" clip-rule="evenodd" d="M96.144 187.92C96.144 187.92 91.1413 187.061 85.3227 187.467C79.5107 187.873 71.2627 189.315 71.2627 189.315L68.3307 194.228L71.396 203.785C71.396 203.785 74.776 205.272 76.4454 204.144C78.112 203.017 96.6387 193.057 96.144 187.92Z" fill="#FCD1C8"/>
<path fill-rule="evenodd" clip-rule="evenodd" d="M71.0387 195.335C71.0387 195.335 71.4401 198.739 74.4174 202.345L82.8027 199.908L110.927 201.621L125.101 220.212C125.101 220.212 122.828 220.461 110.477 224.519C98.1254 228.576 88.9294 233.624 71.5321 234.977C54.1334 236.329 49.7134 233.624 48.0027 225.601C46.2894 217.576 39.4374 206.4 39.8881 195.672C40.3387 184.944 57.7374 184.852 57.7374 184.852C57.7374 184.852 71.3521 186.925 71.0387 195.335Z" fill="#FCD1C8"/>
<path fill-rule="evenodd" clip-rule="evenodd" d="M112.711 203.961L125.101 220.212C125.101 220.212 123.057 220.439 112.328 223.915C110.893 213.488 98.0441 208.176 98.0441 208.176L111.243 203.616C111.743 203.729 112.232 203.845 112.711 203.961Z" fill="#F9A8A1"/>
<path fill-rule="evenodd" clip-rule="evenodd" d="M40.3827 202.06C39.9974 199.931 39.8 197.793 39.888 195.672C40.216 187.848 49.56 185.681 54.5934 185.081L59.5787 191.331C59.5787 191.331 46.208 194.211 40.3827 202.06Z" fill="#F9A8A1"/>
<path fill-rule="evenodd" clip-rule="evenodd" d="M134.185 194.769L137.44 192.811C137.44 192.811 141.396 190.712 145.815 187.467C150.232 184.221 153.927 183.32 158.617 184.403C163.305 185.483 164.401 190.983 164.401 190.983C164.401 190.983 161.229 199.095 158.344 197.743C155.461 196.392 134.185 194.769 134.185 194.769Z" fill="#FCD1C8"/>
<path fill-rule="evenodd" clip-rule="evenodd" d="M187.333 187.628C187.333 187.628 184.536 209.157 177.393 219.048L153.855 192.717C153.855 192.717 152.765 186.795 153.844 181.679C154.923 176.561 154.923 176.561 154.923 176.561C154.923 176.561 175.836 172.863 176.828 173.405C177.82 173.947 187.284 182.059 187.333 187.628Z" fill="#FCD1C8"/>
<path fill-rule="evenodd" clip-rule="evenodd" d="M187.333 187.628C187.333 187.628 187.188 188.761 186.875 190.627C177.917 180.373 165.703 179.739 165.703 179.739L169.524 174.155C173.317 173.591 176.459 173.203 176.828 173.405C177.82 173.947 187.284 182.059 187.333 187.628Z" fill="#F9A8A1"/>
<path fill-rule="evenodd" clip-rule="evenodd" d="M188.555 186.908C188.443 170.065 182.779 136.876 164.401 131.936C164.401 131.936 156.639 143.095 156.096 165.631C156.096 165.631 152.131 174.107 152.852 180.416C152.852 180.416 152.899 181.317 153.844 181.679C153.844 181.679 176.153 174.465 187.333 187.628C187.333 187.628 188.573 187.876 188.555 186.908Z" fill="#FF0001"/>
<path fill-rule="evenodd" clip-rule="evenodd" d="M188.555 186.908C188.544 185.545 188.497 184.073 188.412 182.519C172.464 169.313 152.792 178.365 152.771 178.375C152.753 179.072 152.779 179.756 152.852 180.416C152.852 180.416 152.899 181.317 153.844 181.679C153.844 181.679 176.153 174.465 187.333 187.628C187.333 187.628 188.573 187.876 188.555 186.908Z" fill="#00FF00"/>
<path fill-rule="evenodd" clip-rule="evenodd" d="M60.3387 135.363C60.3387 135.363 45.3773 141.752 42.7627 155.725C40.148 169.697 36.872 195.067 37.5054 200.925C41.3387 192.788 67.9814 187.024 71.0387 195.335C71.0387 195.335 72.7507 194.636 72.7507 193.193C72.7507 191.751 73.1533 168.8 68.2867 160.239C68.2867 160.239 68.648 140.231 60.3387 135.363Z" fill="#FF0001"/>
<path fill-rule="evenodd" clip-rule="evenodd" d="M37.6414 194.048C37.4227 197.137 37.3574 199.561 37.5054 200.925C41.3387 192.785 67.9814 187.024 71.0387 195.335C71.0387 195.335 72.7507 194.636 72.7507 193.193C72.7507 192.919 72.7654 191.857 72.756 190.267C52.4067 181.693 37.6507 194.039 37.6414 194.048Z" fill="#00FF00"/>
<path fill-rule="evenodd" clip-rule="evenodd" d="M96.1441 187.92C96.1441 187.92 111.56 191.524 123.909 192.788C136.26 194.051 155.464 189.723 166.099 196.032C176.737 202.345 178.901 210.548 178.901 214.243C178.901 217.939 175.656 223.889 167.271 225.063C158.888 226.233 138.333 225.513 122.377 219.201C106.42 212.892 92.3574 202.973 74.4174 202.345L96.1441 187.92Z" fill="#FCD1C8"/>
<path d="M166.099 196.477L165.872 196.415C162.563 194.453 158.427 193.535 153.896 193.161L153.74 193.149C148.86 192.759 143.536 192.992 138.303 193.22L137.401 193.259C137.112 193.275 136.948 193.079 136.937 192.833C136.927 192.587 137.117 192.379 137.363 192.368L138.263 192.329C143.352 192.108 148.527 191.884 153.32 192.223C153.076 190.599 152.508 185.859 153.407 181.587C153.459 181.348 153.688 181.189 153.935 181.243C154.175 181.293 154.328 181.529 154.279 181.771C153.377 186.052 154.029 190.972 154.235 192.295C158.779 192.693 162.948 193.644 166.328 195.649C166.539 195.775 166.609 196.048 166.484 196.259C166.401 196.4 166.253 196.477 166.099 196.477ZM125.071 220.647L124.924 220.623C124.011 220.303 123.104 219.968 122.211 219.616C117.599 217.791 113.084 215.637 108.716 213.556C97.5893 208.248 87.0787 203.236 74.4067 202.791C74.26 202.793 69.1334 202.753 64.3387 205.301C64.1254 205.417 63.852 205.337 63.7374 205.119C63.62 204.9 63.7027 204.631 63.92 204.517C67.792 202.457 71.7734 202.016 73.5214 201.921C70.9947 198.533 70.612 195.523 70.596 195.389C70.568 195.144 70.7427 194.923 70.9867 194.895C71.2214 194.863 71.4507 195.037 71.4813 195.283C71.484 195.313 71.9014 198.513 74.636 201.907C87.4094 202.405 98.4347 207.665 109.101 212.751C113.453 214.827 117.953 216.972 122.539 218.788C123.42 219.136 124.313 219.467 125.216 219.78C125.451 219.86 125.573 220.116 125.492 220.348C125.429 220.531 125.256 220.647 125.071 220.647Z" fill="#F9A8A1"/>
<path fill-rule="evenodd" clip-rule="evenodd" d="M88.4747 125.272C90.0841 127.781 92.7241 130.6 95.7374 133.241C101.768 138.531 109.292 143.12 113.047 143.12C116.683 143.12 124.159 138.308 130.355 132.865C133.3 130.279 135.953 127.549 137.771 125.127L133.3 123.983C129.464 127.811 118.407 136.808 113.047 136.808C107.415 136.808 96.6307 127.811 92.7947 123.983C91.3987 124.381 89.9534 124.813 88.4747 125.272Z" fill="#00FF00"/>
<path fill-rule="evenodd" clip-rule="evenodd" d="M81.44 93.4146C71.1173 92.8813 70.2453 74.588 76.2053 74.9906C81.1667 75.324 82.208 78.4879 82.536 79.8159C82.8653 81.1439 81.44 93.4146 81.44 93.4146Z" fill="#FCD1C8"/>
<path fill-rule="evenodd" clip-rule="evenodd" d="M145.511 93.4146C155.831 92.8813 156.703 74.588 150.745 74.9906C145.781 75.324 144.743 78.4879 144.415 79.8159C144.087 81.1439 145.511 93.4146 145.511 93.4146Z" fill="#FCD1C8"/>
<path fill-rule="evenodd" clip-rule="evenodd" d="M147.369 57.6053V81.0146C147.369 107.535 133.923 122.331 113.477 122.331C93.032 122.331 79.584 107.535 79.584 81.0146V57.6053C79.584 35.3333 96.532 24.1986 113.477 24.1986C130.424 24.1986 147.369 35.3333 147.369 57.6053Z" fill="#FCD1C8"/>
<path fill-rule="evenodd" clip-rule="evenodd" d="M129.437 73.4053H129.44C131.901 73.4053 133.917 75.42 133.917 77.884V80.6093C133.917 83.0733 131.901 85.0893 129.44 85.0893H129.437C126.975 85.0893 124.959 83.0733 124.959 80.6093V77.884C124.959 75.42 126.975 73.4053 129.437 73.4053Z" fill="#3E3155"/>
<path fill-rule="evenodd" clip-rule="evenodd" d="M97.5213 73.4053H97.5187C95.0547 73.4053 93.0387 75.42 93.0387 77.884V80.6093C93.0387 83.0733 95.0547 85.0893 97.5187 85.0893H97.5213C99.9813 85.0893 101.997 83.0733 101.997 80.6093V77.884C101.997 75.42 99.9813 73.4053 97.5213 73.4053Z" fill="#3E3155"/>
<path fill-rule="evenodd" clip-rule="evenodd" d="M114.984 76.0666C115.057 76.3906 115.055 76.7453 114.961 77.0066C114.276 78.844 111.268 86.7333 111.357 87.7506C111.555 89.056 115.287 89.764 117.26 89.7253C118.484 89.6986 117.284 94.016 115.257 93.548C113.099 93.056 109.808 90.5506 109.435 88.0506C109.256 86.848 111.167 81.3533 112.56 77.644C112.92 76.692 112.612 75.7613 112.424 75.1506C111.94 73.556 114.737 74.9933 114.984 76.0666Z" fill="#F9A8A1"/>
<path d="M148.784 87.6026C148.568 87.6026 148.377 87.444 148.344 87.224C148.047 85.2386 148.377 82.4226 149.211 79.8719C149.975 77.5359 150.847 77.1719 151.44 77.2799C152.372 77.4519 152.94 78.8839 152.852 80.8453C152.841 81.0893 152.628 81.3213 152.388 81.2693C152.141 81.2586 151.951 81.0506 151.964 80.8053C152.036 79.1373 151.565 78.2093 151.279 78.1573C151.125 78.1293 150.612 78.4413 150.057 80.1493C149.875 80.7093 149.716 81.2893 149.587 81.8693C150.237 82.1319 151.303 82.8986 151.26 85.124C151.256 85.368 151.005 85.564 150.805 85.5613C150.56 85.556 150.365 85.3506 150.369 85.1053C150.399 83.5586 149.815 82.9746 149.407 82.756C149.123 84.352 149.047 85.9093 149.227 87.0906C149.263 87.3346 149.093 87.5613 148.852 87.5973L148.784 87.6026Z" fill="#F9A8A1"/>
<path d="M78.1693 87.6026L78.1039 87.5973C77.8626 87.5613 77.6933 87.3346 77.7293 87.0906C77.9066 85.9106 77.8333 84.3546 77.5493 82.7586C77.1413 82.98 76.5573 83.5653 76.5866 85.1053C76.5906 85.3506 76.3959 85.556 76.1479 85.5613C75.8879 85.5706 75.7013 85.368 75.6959 85.124C75.6506 82.8973 76.7186 82.1293 77.3693 81.8693C77.2399 81.2893 77.0813 80.7093 76.8986 80.1479C76.3466 78.4546 75.8493 78.1186 75.6746 78.1573C75.3906 78.2093 74.9173 79.1373 74.9919 80.8053C75.0026 81.0506 74.8133 81.2586 74.5679 81.2693C74.2999 81.3119 74.1119 81.0893 74.1039 80.8453C74.0159 78.8826 74.5813 77.4519 75.5159 77.2799C76.1039 77.1639 76.9813 77.5359 77.7453 79.8719C78.576 82.4253 78.9093 85.24 78.612 87.224C78.5786 87.444 78.3879 87.6026 78.1693 87.6026Z" fill="#F9A8A1"/>
<path d="M113.477 102.083C110.112 102.083 106.94 101.783 104.305 101.211C103.823 101.105 103.519 100.632 103.623 100.151C103.727 99.6706 104.193 99.3652 104.683 99.4692C109.639 100.543 117.315 100.543 122.271 99.4692C122.748 99.3652 123.224 99.6679 123.328 100.151C123.432 100.632 123.128 101.105 122.648 101.211C120.011 101.783 116.839 102.083 113.477 102.083Z" fill="#F9A8A1"/>
<path fill-rule="evenodd" clip-rule="evenodd" d="M149.169 75.2133C149.169 75.2133 145.579 75.3199 145.432 86.0266C145.432 86.0266 144.803 85.5946 144.391 81.5266C143.981 77.4626 144.271 68.8572 144.271 68.8572C144.271 68.8572 141.041 67.2626 140.877 64.6133C140.716 61.9626 140.735 52.6186 138.303 49.2786C138.303 49.2786 142.693 45.1053 145.308 44.0173C153.932 45.8399 149.169 57.7879 149.169 75.2133Z" fill="#0000FF"/>
<path d="M113.477 106.545C112.104 106.545 110.737 106.477 109.412 106.347C108.923 106.297 108.565 105.86 108.612 105.371C108.661 104.883 109.089 104.52 109.589 104.573C112.123 104.824 114.828 104.824 117.363 104.573C117.855 104.504 118.289 104.883 118.339 105.371C118.385 105.86 118.029 106.296 117.539 106.347C116.213 106.477 114.847 106.545 113.477 106.545Z" fill="#F9A8A1"/>
<path fill-rule="evenodd" clip-rule="evenodd" d="M105.099 70.6733C106.787 70.6373 107.219 67.928 107.248 67.7746L107.243 67.6666L106.868 67.2039C106.868 67.2039 106.648 67.6546 105.935 67.6893C105.511 67.7106 99.716 67.6812 96.7014 67.6546C95.3747 67.6439 92.2787 67.6319 91.1014 68.0719C89.7707 68.5666 89.852 70.0199 89.7627 71.2439L89.868 71.4359L90.1254 71.3533C90.5134 70.6119 91.1907 70.3653 92.016 70.1959C94.0627 69.7733 102.363 70.7333 105.099 70.6733Z" fill="#3E3155"/>
<path fill-rule="evenodd" clip-rule="evenodd" d="M121.857 70.6733C120.167 70.6373 119.737 67.928 119.708 67.7746L119.713 67.6666L120.087 67.2039C120.087 67.2039 120.308 67.6546 121.021 67.6893C121.445 67.7106 127.237 67.6812 130.256 67.6546C131.581 67.6439 134.675 67.6319 135.852 68.0719C137.183 68.5666 137.101 70.0199 137.193 71.2439L137.091 71.4359L136.831 71.3533C136.443 70.6119 135.765 70.3653 134.94 70.1959C132.893 69.7733 124.591 70.7333 121.857 70.6733Z" fill="#3E3155"/>
<path fill-rule="evenodd" clip-rule="evenodd" d="M77.7786 75.2133C77.7786 75.2133 81.3693 75.3199 81.5159 86.0266C81.5159 86.0266 82.1466 85.5946 82.5573 81.5266C82.9666 77.4626 82.6773 68.8572 82.6773 68.8572C82.6773 68.8572 85.9066 67.2626 86.0706 64.6133C86.232 61.9626 86.2159 52.6186 88.6466 49.2786C88.6466 49.2786 84.256 45.1053 81.6413 44.0173C73.0186 45.8399 77.7786 57.7879 77.7786 75.2133Z" fill="#0000FF"/>
<path d="M113.677 58.0493C111.139 58.0493 108.521 57.8026 105.977 57.3119L105.177 57.1572C102.716 56.6745 100.164 56.1812 97.0707 56.3425C96.776 56.3625 96.6147 56.1679 96.6014 55.9226C96.5894 55.6786 96.776 55.4665 97.0214 55.4545C100.235 55.2732 102.833 55.7893 105.349 56.2826L106.147 56.4386C110.591 57.2932 115.271 57.3919 119.323 56.7092C120.096 56.5785 120.852 56.4293 121.607 56.2826C124.12 55.7893 126.727 55.2692 129.935 55.4545C130.18 55.4665 130.368 55.6786 130.355 55.9226C130.341 56.1599 130.147 56.3439 129.909 56.3439L129.885 56.3425C126.789 56.1785 124.24 56.6745 121.779 57.1572C121.016 57.3052 120.253 57.4572 119.472 57.5866C117.639 57.8959 115.683 58.0493 113.677 58.0493Z" fill="#F9A8A1"/>
<path fill-rule="evenodd" clip-rule="evenodd" d="M88.6466 49.2786C88.6466 49.2786 90.5466 46.6079 93.2813 46.6079C96.0159 46.6079 104.313 46.6079 105.773 46.6079C107.235 46.6079 108.98 47.2666 110.065 48.1172C110.065 48.1172 110.748 48.6599 111.268 48.4693C111.787 48.2826 113.271 46.4199 115.063 46.4199C116.855 46.4199 123.948 46.4199 129.464 46.4199C134.98 46.4199 137.193 48.0839 138.303 49.2786L143.607 48.7773L145.817 44.1399C148.743 27.8919 121.781 12.1933 127.815 21.1053C127.815 21.1053 118.435 12.9959 111.743 15.3532C103.937 9.28524 94.2679 9.6666 103.82 17.6159C103.82 17.6159 99.532 14.8346 97.4093 17.8999C92.724 14.6919 90.9946 17.5839 93.6386 22.4706C86.328 14.4439 78.6039 17.6119 83.5493 23.2746C71.7893 16.7119 70.5359 33.2666 76.2893 39.0172C71.8359 37.6679 74.2159 47.8559 88.6466 49.2786Z" fill="#0000FF"/>
<path d="M116.26 97.8026L116.133 97.7852C115.896 97.7119 115.763 97.4639 115.836 97.2292L116.424 95.2839C116.495 95.0466 116.745 94.9079 116.98 94.9852C117.216 95.0586 117.349 95.3052 117.276 95.5412L116.688 97.4866C116.631 97.6799 116.453 97.8026 116.26 97.8026Z" fill="#DD8C79"/>
<path d="M118.601 97.6226L118.472 97.6026C118.237 97.5306 118.104 97.2826 118.175 97.0479L118.765 95.1013C118.833 94.8639 119.084 94.7279 119.32 94.8039C119.555 94.8759 119.688 95.124 119.617 95.3586L119.027 97.3053C118.969 97.4986 118.792 97.6226 118.601 97.6226Z" fill="#DD8C79"/>
<path d="M120.943 97.4412L120.813 97.4199C120.579 97.3506 120.445 97.1012 120.516 96.8652L121.107 94.9199C121.175 94.6839 121.429 94.5466 121.661 94.6239C121.896 94.6932 122.029 94.9412 121.959 95.1786L121.369 97.1239C121.311 97.3159 121.133 97.4412 120.943 97.4412Z" fill="#DD8C79"/>
<path d="M123.284 97.2586L123.153 97.2386C122.92 97.1679 122.787 96.9199 122.857 96.6839L123.448 94.7373C123.519 94.4999 123.765 94.3653 124.003 94.4399C124.237 94.5119 124.369 94.7586 124.3 94.9946L123.711 96.9413C123.651 97.1333 123.475 97.2586 123.284 97.2586Z" fill="#DD8C79"/>
<path d="M110.696 97.8026C110.503 97.8026 110.325 97.6799 110.268 97.4866L109.68 95.5412C109.609 95.3052 109.743 95.0586 109.977 94.9852C110.213 94.9092 110.461 95.0466 110.532 95.2839L111.123 97.2292C111.193 97.4639 111.06 97.7119 110.823 97.7852L110.696 97.8026Z" fill="#DD8C79"/>
<path d="M108.355 97.6226C108.161 97.6226 107.984 97.4986 107.927 97.3053L107.339 95.3586C107.268 95.124 107.401 94.8759 107.636 94.8039C107.869 94.7279 108.12 94.8639 108.191 95.1013L108.779 97.0479C108.852 97.2826 108.719 97.5306 108.481 97.6026L108.355 97.6226Z" fill="#DD8C79"/>
<path d="M106.013 97.4412C105.82 97.4412 105.644 97.3159 105.587 97.1239L104.997 95.1786C104.927 94.9412 105.06 94.6932 105.295 94.6239C105.532 94.5479 105.779 94.6839 105.849 94.9199L106.437 96.8652C106.511 97.1012 106.377 97.3506 106.141 97.4199L106.013 97.4412Z" fill="#DD8C79"/>
<path d="M103.672 97.2586C103.48 97.2586 103.303 97.1333 103.245 96.9413L102.656 94.9946C102.587 94.7586 102.719 94.5119 102.953 94.4399C103.188 94.3679 103.437 94.5013 103.508 94.7373L104.096 96.6839C104.169 96.9199 104.036 97.1679 103.8 97.2386L103.672 97.2586Z" fill="#DD8C79"/>
<path d="M113.477 122.776C95.8854 122.776 83.9561 112.251 80.3081 93.7359C73.9147 92.5946 71.6334 84.8919 72.1201 79.9106C72.4561 76.4546 74.0547 74.4119 76.2347 74.5453C76.4801 74.5613 76.6667 74.7746 76.648 75.02C76.6334 75.264 76.4067 75.4653 76.1747 75.4333C74.1827 75.2906 73.2294 77.7013 73.0054 79.9973C72.5441 84.7226 74.7814 91.5586 80.1281 92.7893C79.9694 91.9 79.8281 90.9933 79.7054 90.0666C79.6747 89.824 79.8467 89.5999 80.0907 89.5679C80.3467 89.5386 80.5574 89.708 80.5907 89.952C80.7267 90.9933 80.8907 92.0146 81.0761 93.0119C81.1934 93.1053 81.2601 93.2559 81.2401 93.4146L81.1854 93.5786C84.7561 111.627 96.3681 121.884 113.477 121.884C113.721 121.884 113.923 122.084 113.923 122.331C113.923 122.576 113.721 122.776 113.477 122.776Z" fill="white"/>
<path d="M187.659 188.103C187.445 188.103 187.284 188.073 187.248 188.065C187.005 188.017 186.852 187.784 186.899 187.543C186.945 187.303 187.183 187.152 187.42 187.191C187.604 187.225 187.927 187.223 188.049 187.121C188.065 187.107 188.112 187.069 188.109 186.915C188.019 173.496 183.565 137.548 164.287 132.365L139.328 125.984C139.089 125.923 138.945 125.68 139.005 125.441C139.068 125.203 139.311 125.064 139.547 125.12L164.511 131.504C184.333 136.832 188.909 173.3 189 186.905C189.011 187.376 188.8 187.655 188.62 187.805C188.331 188.047 187.948 188.103 187.659 188.103Z" fill="#E4DAE2"/>
</g>
<defs>
<clipPath id="clip0_1_1358">
<rect width="224" height="234" fill="white"/>
</clipPath>
</defs>
</svg>
