<svg width="224" height="234" viewBox="0 0 224 234" fill="none" xmlns="http://www.w3.org/2000/svg">
<g clip-path="url(#clip0_1_1358)">
<path fill-rule="evenodd" clip-rule="evenodd" d="M43.5961 205.995C40.7188 206.297 36.8028 205.5 36.5041 201.241C36.2028 196.984 40.5828 196.733 40.6654 196.865C40.7508 196.997 43.7761 202.409 43.7761 202.523L43.5961 205.995Z" fill="#4C466A"/>
<path fill-rule="evenodd" clip-rule="evenodd" d="M94.7374 144.293H129.355V127.676C131.487 126.971 133.736 126.109 133.736 126.109L132.299 124.299C132.299 124.299 129.355 123.009 129.355 119.248V87.2708H94.7374V119.248C94.7374 123.009 91.7921 124.299 91.7921 124.299L90.3561 126.109C90.3561 126.109 92.6041 126.971 94.7374 127.676V144.293Z" fill="#FCD1C8"/>
<path fill-rule="evenodd" clip-rule="evenodd" d="M94.7374 108.952V119.248C94.7374 120.845 94.2054 121.999 93.5934 122.793C98.9774 127.315 112.735 135.613 127.075 118.153L105.097 105.296C105.097 105.296 99.3547 107.351 94.7374 108.952Z" fill="#F9A8A1"/>
<path fill-rule="evenodd" clip-rule="evenodd" d="M59.3387 135.679C60.7161 135.012 78.6507 128.047 91.7921 124.299C95.6294 128.127 106.413 137.124 112.044 137.124C117.408 137.124 128.464 128.127 132.299 124.299L163.401 132.252V194.032L162.369 205.867H64.2401L59.3387 135.679Z" fill="#FF0001"/>
<path fill-rule="evenodd" clip-rule="evenodd" d="M64.236 205.815L62.812 185.447H70.6387V205.815H64.236Z" fill="white"/>
<path fill-rule="evenodd" clip-rule="evenodd" d="M91.6121 124.351L91.7921 124.299L91.8454 124.351H91.6121Z" fill="white"/>
<path fill-rule="evenodd" clip-rule="evenodd" d="M132.245 124.351L132.299 124.299L132.503 124.351H132.245Z" fill="white"/>
<path fill-rule="evenodd" clip-rule="evenodd" d="M91.0041 205.867H70.6388V205.815H91.0041V205.867Z" fill="white"/>
<path fill-rule="evenodd" clip-rule="evenodd" d="M131.735 205.867H111.369V205.815H131.735V205.867Z" fill="white"/>
<path fill-rule="evenodd" clip-rule="evenodd" d="M162.375 205.815L162.369 205.867H152.1V205.815H162.375Z" fill="white"/>
<path fill-rule="evenodd" clip-rule="evenodd" d="M75.7494 205.867H64.2401L62.7534 184.572C63.4068 183.395 63.8174 182.679 63.8174 182.679C63.8174 182.679 67.6894 176.139 89.2761 184.093C110.863 192.049 133.589 192.485 149.713 177.4C165.836 162.315 163.101 196.447 162.159 196.447C161.216 196.447 121.616 201.161 116.525 202.104C113.481 202.667 92.5254 204.845 75.7494 205.867Z" fill="#CC0001"/>
<path fill-rule="evenodd" clip-rule="evenodd" d="M64.236 205.815L63.756 198.919L62.812 185.447H70.6387V205.815H64.236Z" fill="#FF818F"/>
<path fill-rule="evenodd" clip-rule="evenodd" d="M75.7494 205.867H70.6388V205.815H76.5934L75.7494 205.867Z" fill="#FF818F"/>
<path fill-rule="evenodd" clip-rule="evenodd" d="M162.831 185.447H152.1V175.424C159.888 169.863 162.331 177.785 162.831 185.447Z" fill="#FF818F"/>
<path fill-rule="evenodd" clip-rule="evenodd" d="M95.1442 188.236C95.1442 188.236 90.1388 187.377 84.3241 187.783C78.5081 188.189 70.2601 189.631 70.2601 189.631L67.3308 194.544L70.3961 204.101C70.3961 204.101 73.7762 205.588 75.4428 204.46C77.1122 203.333 95.6388 193.373 95.1442 188.236Z" fill="#FCD1C8"/>
<path fill-rule="evenodd" clip-rule="evenodd" d="M70.0388 195.651C70.0388 195.651 70.4414 199.055 73.4147 202.661L81.8001 200.224L109.927 201.937L124.101 220.528C124.101 220.528 121.825 220.777 109.477 224.835C97.1254 228.892 87.9294 233.94 70.5307 235.293C53.1321 236.645 48.7134 233.94 47.0014 225.917C45.2881 217.892 38.4374 206.716 38.8881 195.988C39.3387 185.26 56.7388 185.168 56.7388 185.168C56.7388 185.168 70.3521 187.241 70.0388 195.651Z" fill="#FCD1C8"/>
<path fill-rule="evenodd" clip-rule="evenodd" d="M111.711 204.277L124.101 220.528C124.101 220.528 122.055 220.755 111.327 224.231C109.893 213.804 97.0427 208.492 97.0427 208.492L110.24 203.932C110.743 204.045 111.232 204.161 111.711 204.277Z" fill="#F9A8A1"/>
<path fill-rule="evenodd" clip-rule="evenodd" d="M39.3813 202.376C38.996 200.247 38.8 198.109 38.888 195.988C39.216 188.164 48.5573 185.997 53.5933 185.397L58.576 191.647C58.576 191.647 45.208 194.527 39.3813 202.376Z" fill="#F9A8A1"/>
<path fill-rule="evenodd" clip-rule="evenodd" d="M133.184 195.085L136.441 193.127C136.441 193.127 140.395 191.028 144.812 187.783C149.231 184.537 152.927 183.636 157.615 184.719C162.303 185.799 163.401 191.299 163.401 191.299C163.401 191.299 160.229 199.411 157.344 198.059C154.459 196.708 133.184 195.085 133.184 195.085Z" fill="#FCD1C8"/>
<path fill-rule="evenodd" clip-rule="evenodd" d="M186.333 187.944C186.333 187.944 183.535 209.473 176.391 219.364L152.852 193.033C152.852 193.033 151.764 187.111 152.841 181.995C153.92 176.877 153.92 176.877 153.92 176.877C153.92 176.877 174.835 173.179 175.827 173.721C176.817 174.263 186.284 182.375 186.333 187.944Z" fill="#FCD1C8"/>
<path fill-rule="evenodd" clip-rule="evenodd" d="M186.333 187.944C186.333 187.944 186.185 189.077 185.872 190.943C176.919 180.689 164.7 180.055 164.7 180.055L168.521 174.471C172.315 173.907 175.457 173.519 175.827 173.721C176.817 174.263 186.284 182.375 186.333 187.944Z" fill="#F9A8A1"/>
<path fill-rule="evenodd" clip-rule="evenodd" d="M187.552 187.224C187.44 170.381 181.779 137.192 163.401 132.252C163.401 132.252 155.639 143.411 155.096 165.947C155.096 165.947 151.131 174.423 151.852 180.732C151.852 180.732 151.896 181.633 152.841 181.995C152.841 181.995 175.155 174.781 186.333 187.944C186.333 187.944 187.573 188.192 187.552 187.224Z" fill="#FF0001"/>
<path fill-rule="evenodd" clip-rule="evenodd" d="M187.552 187.224C187.55 186.651 187.538 186.056 187.522 185.447H183.8C184.694 186.187 185.542 187.012 186.334 187.944C186.334 187.944 187.574 188.192 187.552 187.224Z" fill="white"/>
<path fill-rule="evenodd" clip-rule="evenodd" d="M187.552 187.224C187.544 185.861 187.497 184.389 187.412 182.835C171.464 169.629 151.789 178.681 151.768 178.691C151.753 179.388 151.776 180.072 151.852 180.732C151.852 180.732 151.896 181.633 152.841 181.995C152.841 181.995 175.155 174.781 186.333 187.944C186.333 187.944 187.573 188.192 187.552 187.224Z" fill="#00FF00"/>
<path fill-rule="evenodd" clip-rule="evenodd" d="M59.3388 135.679C59.3388 135.679 44.3748 142.068 41.7601 156.041C39.1467 170.013 35.8721 195.383 36.5041 201.241C40.3388 193.104 66.9814 187.34 70.0388 195.651C70.0388 195.651 71.7507 194.952 71.7507 193.509C71.7507 192.067 72.1534 169.116 67.2841 160.555C67.2841 160.555 67.6468 140.547 59.3388 135.679Z" fill="#FF0001"/>
<path fill-rule="evenodd" clip-rule="evenodd" d="M36.6415 194.364C36.4228 197.453 36.3575 199.877 36.5041 201.241C40.3388 193.101 66.9815 187.34 70.0388 195.651C70.0388 195.651 71.7508 194.952 71.7508 193.509C71.7508 193.235 71.7654 192.173 71.7561 190.583C51.4055 182.009 36.6508 194.355 36.6415 194.364Z" fill="#00FF00"/>
<path fill-rule="evenodd" clip-rule="evenodd" d="M95.1442 188.236C95.1442 188.236 110.557 191.84 122.908 193.104C135.257 194.367 154.461 190.039 165.099 196.348C175.737 202.661 177.901 210.864 177.901 214.559C177.901 218.255 174.653 224.205 166.271 225.379C157.887 226.549 137.333 225.829 121.375 219.517C105.419 213.208 91.3575 203.289 73.4148 202.661L95.1442 188.236Z" fill="#FCD1C8"/>
<path d="M165.099 196.793L164.871 196.731C161.561 194.769 157.424 193.851 152.896 193.477L152.735 193.465C147.856 193.072 142.532 193.305 137.301 193.536L136.401 193.575C136.096 193.591 135.947 193.395 135.935 193.149C135.925 192.903 136.116 192.695 136.363 192.684L137.263 192.645C142.351 192.424 147.525 192.197 152.319 192.539C152.076 190.915 151.507 186.175 152.407 181.903C152.456 181.664 152.687 181.505 152.935 181.559C153.175 181.609 153.328 181.845 153.279 182.087C152.377 186.364 153.028 191.287 153.232 192.611C157.779 193.009 161.945 193.96 165.325 195.965C165.536 196.091 165.607 196.364 165.481 196.575C165.399 196.716 165.251 196.793 165.099 196.793ZM124.071 220.963L123.924 220.939C123.008 220.619 122.101 220.284 121.211 219.932C116.596 218.107 112.081 215.953 107.713 213.869C96.5881 208.564 86.0788 203.552 73.4041 203.107C73.2655 203.109 68.1335 203.069 63.3388 205.617C63.1241 205.733 62.8521 205.653 62.7375 205.435C62.6215 205.216 62.7028 204.947 62.9215 204.833C66.7908 202.773 70.7735 202.332 72.5188 202.237C69.9948 198.849 69.6121 195.839 69.5961 195.705C69.5681 195.46 69.7428 195.239 69.9868 195.211C70.2188 195.179 70.4535 195.353 70.4815 195.599C70.4841 195.629 70.9015 198.829 73.6335 202.223C86.4081 202.721 97.4335 207.981 108.096 213.065C112.451 215.143 116.953 217.288 121.539 219.104C122.42 219.452 123.312 219.783 124.216 220.096C124.448 220.176 124.571 220.432 124.492 220.664C124.427 220.847 124.256 220.963 124.071 220.963Z" fill="#F9A8A1"/>
<path d="M152.841 182.44L152.684 182.411C151.479 181.952 151.409 180.803 151.407 180.755C150.711 174.687 154.213 166.804 154.653 165.844C154.704 163.805 154.816 161.787 154.989 159.808L154.089 158.352C153.959 158.143 154.024 157.869 154.233 157.739C154.445 157.613 154.716 157.673 154.847 157.883L155.128 158.34C155.216 157.492 155.315 156.652 155.424 155.82C155.456 155.579 155.649 155.4 155.924 155.437C156.168 155.471 156.34 155.695 156.308 155.939C155.881 159.159 155.624 162.531 155.541 165.959L155.5 166.137C155.461 166.221 151.595 174.572 152.295 180.681C152.301 180.771 152.361 181.333 153 181.579C153.232 181.667 153.347 181.924 153.257 182.153C153.191 182.332 153.021 182.44 152.841 182.44ZM70.0388 196.097C69.8655 196.097 69.6988 195.993 69.6281 195.821C69.5334 195.593 69.6441 195.333 69.8695 195.239C69.8841 195.233 71.3055 194.631 71.3055 193.509L71.3081 193.187C71.3628 185.871 71.0414 168.063 66.8974 160.773L66.8388 160.545C66.8401 160.512 66.8908 157.312 66.4348 153.231C66.4094 152.987 66.5868 152.767 66.8294 152.737C67.0841 152.725 67.2948 152.888 67.3228 153.132C67.4454 154.245 67.5334 155.295 67.5934 156.236L68.1961 155.401C68.3388 155.2 68.6174 155.156 68.8161 155.301C69.0161 155.444 69.0628 155.723 68.9174 155.923L67.6708 157.651C67.7335 159.088 67.7334 160.101 67.7321 160.44C71.9254 167.979 72.2534 185.84 72.1988 193.195L72.1961 193.509C72.1961 195.232 70.2895 196.031 70.2068 196.064L70.0388 196.097Z" fill="#CC0001"/>
<path fill-rule="evenodd" clip-rule="evenodd" d="M87.4747 125.588C89.0841 128.097 91.7214 130.916 94.7374 133.557C100.765 138.847 108.292 143.436 112.044 143.436C115.68 143.436 123.159 138.624 129.355 133.181C132.299 130.595 134.953 127.865 136.768 125.443L132.299 124.299C128.464 128.127 117.408 137.124 112.044 137.124C106.413 137.124 95.6294 128.127 91.792 124.299C90.3987 124.697 88.9507 125.129 87.4747 125.588Z" fill="#00FF00"/>
<path fill-rule="evenodd" clip-rule="evenodd" d="M78.5828 68.1893L76.0161 65.7946C76.0161 65.7946 77.1081 76.0147 76.0708 86.104C75.0334 96.1933 78.0041 100.531 86.3014 100.719C94.5988 100.908 78.5828 68.1893 78.5828 68.1893Z" fill="#0000FF"/>
<path fill-rule="evenodd" clip-rule="evenodd" d="M146.369 68.1893L148.937 65.7946C148.937 65.7946 147.847 76.0147 148.883 86.104C149.92 96.1933 146.949 100.531 138.652 100.719C130.355 100.908 146.369 68.1893 146.369 68.1893Z" fill="#0000FF"/>
<path fill-rule="evenodd" clip-rule="evenodd" d="M146.369 57.9214V81.3307C146.369 101.064 132.923 122.647 112.477 122.647C92.0321 122.647 78.5828 101.064 78.5828 81.3307V57.9214C78.5828 13.3788 146.369 13.3788 146.369 57.9214Z" fill="#FCD1C8"/>
<path fill-rule="evenodd" clip-rule="evenodd" d="M146.369 57.9213V58.6586C145.791 59.1746 144.795 59.5679 143.249 59.7759C133.019 61.1426 134.817 48.224 134.817 48.224L139.713 48.8853C139.713 48.8853 144.389 52.1213 146.264 55.0906C146.327 56.0146 146.369 56.9519 146.369 57.9213Z" fill="#F9A8A1"/>
<path fill-rule="evenodd" clip-rule="evenodd" d="M80.4374 91.28C70.1174 90.744 69.2454 72.4506 75.2054 72.8533C80.1667 73.1893 81.2054 76.3507 81.5347 77.6813C81.8654 79.008 80.4374 91.28 80.4374 91.28Z" fill="#FCD1C8"/>
<path fill-rule="evenodd" clip-rule="evenodd" d="M144.511 91.28C154.83 90.744 155.703 72.4506 149.743 72.8533C144.782 73.1893 143.743 76.3507 143.412 77.6813C143.084 79.008 144.511 91.28 144.511 91.28Z" fill="#FCD1C8"/>
<path fill-rule="evenodd" clip-rule="evenodd" d="M113.816 74.632C113.903 75.0053 113.899 75.4107 113.789 75.7107C113.007 77.8093 109.568 86.8293 109.672 87.9933C109.896 89.484 114.161 90.296 116.419 90.2493C117.817 90.2187 116.445 95.1533 114.131 94.6186C111.661 94.056 107.899 91.1933 107.475 88.336C107.268 86.96 109.453 80.6787 111.047 76.4373C111.457 75.3507 111.107 74.2853 110.891 73.588C110.339 71.764 113.533 73.408 113.816 74.632Z" fill="#F9A8A1"/>
<path d="M147.783 85.468C147.565 85.468 147.375 85.3093 147.341 85.088C147.044 83.1013 147.377 80.2853 148.208 77.736C148.973 75.4 149.847 75.0493 150.437 75.1453C151.372 75.316 151.94 76.748 151.852 78.7093C151.841 78.948 151.644 79.1347 151.407 79.1347L151.388 79.1333C151.141 79.1213 150.951 78.916 150.963 78.6693C151.036 77.0053 150.565 76.0746 150.279 76.0213C150.144 76.0066 149.613 76.3067 149.056 78.0147C148.872 78.5733 148.716 79.1533 148.585 79.7333C149.237 79.9947 150.303 80.7626 150.259 82.988C150.255 83.2333 150.044 83.4373 149.805 83.424C149.56 83.4186 149.363 83.216 149.367 82.9707C149.399 81.424 148.812 80.8386 148.405 80.6186C148.12 82.2186 148.047 83.7733 148.224 84.9546C148.259 85.2 148.092 85.4266 147.849 85.4626L147.783 85.468Z" fill="#F9A8A1"/>
<path d="M77.1695 85.468L77.1028 85.4626C76.8601 85.4266 76.6935 85.2 76.7295 84.9546C76.9068 83.7733 76.8308 82.2186 76.5481 80.6213C76.1388 80.8426 75.5548 81.4293 75.5855 82.9707C75.5895 83.216 75.3935 83.4186 75.1468 83.424C74.9241 83.4426 74.6988 83.2333 74.6935 82.988C74.6495 80.7626 75.7161 79.9947 76.3681 79.7333C76.2375 79.1533 76.0815 78.5733 75.8975 78.0147C75.3415 76.3067 74.8148 76.0226 74.6748 76.0213C74.3881 76.0746 73.9175 77.0053 73.9908 78.6693C74.0028 78.916 73.8121 79.1213 73.5655 79.1333C73.3335 79.1973 73.1121 78.9547 73.1015 78.7093C73.0135 76.748 73.5815 75.316 74.5161 75.1467C75.1081 75.036 75.9815 75.4 76.7455 77.736C76.9801 78.4573 77.1748 79.2027 77.3281 79.9427L77.3335 79.9693C77.7135 81.8307 77.8201 83.6693 77.6095 85.088C77.5775 85.3093 77.3868 85.468 77.1695 85.468Z" fill="#F9A8A1"/>
<path fill-rule="evenodd" clip-rule="evenodd" d="M129.292 72.2281H129.295C131.756 72.2281 133.771 74.2427 133.771 76.7067V79.4321C133.771 81.8947 131.756 83.9107 129.295 83.9107H129.292C126.828 83.9107 124.812 81.8947 124.812 79.4321V76.7067C124.812 74.2427 126.828 72.2281 129.292 72.2281Z" fill="#6D526F"/>
<path fill-rule="evenodd" clip-rule="evenodd" d="M95.6587 72.2281H95.6614C98.1227 72.2281 100.14 74.2427 100.14 76.7067V79.4321C100.14 81.8947 98.1227 83.9107 95.6614 83.9107H95.6587C93.1974 83.9107 91.1814 81.8947 91.1814 79.4321V76.7067C91.1814 74.2427 93.1974 72.2281 95.6587 72.2281Z" fill="#6D526F"/>
<path d="M112.461 100.703C109.012 100.703 105.76 100.337 103.057 99.6507C102.581 99.5307 102.292 99.0467 102.415 98.5667C102.536 98.0907 103.027 97.8014 103.497 97.9241C108.549 99.2081 116.376 99.2054 121.425 97.9241C121.899 97.8014 122.388 98.0907 122.508 98.5667C122.631 99.0467 122.341 99.5307 121.865 99.6507C119.161 100.337 115.911 100.703 112.461 100.703Z" fill="#F9A8A1"/>
<path d="M112.461 105.045C111.237 105.045 110.016 104.997 108.832 104.903C108.343 104.867 107.976 104.437 108.016 103.945C108.052 103.456 108.493 103.083 108.972 103.129C111.248 103.307 113.677 103.307 115.949 103.129C116.437 103.083 116.869 103.456 116.907 103.945C116.945 104.437 116.579 104.867 116.089 104.903C114.907 104.997 113.685 105.045 112.461 105.045Z" fill="#F9A8A1"/>
<path fill-rule="evenodd" clip-rule="evenodd" d="M147.7 43.0693C152.615 51.9773 148.824 64.6093 147.74 73.188C145.169 74.468 144.089 83.16 144.089 83.16C144.089 83.16 144.356 74.9453 144.388 73.1507C140.827 65.756 143.136 52.2733 143.049 51.9787C142.964 51.6987 145.997 43.228 147.7 43.0693Z" fill="#0000FF"/>
<path fill-rule="evenodd" clip-rule="evenodd" d="M120.529 64.9866C120.481 64.8226 120.46 64.6613 120.459 64.5173C120.459 64.3546 120.485 64.2093 120.536 64.1013C120.62 63.9186 120.753 63.828 120.92 63.8746C121.033 63.908 121.496 63.8386 122.123 63.7146C125.719 62.9999 129.784 61.4386 133.308 61.8746C136.177 62.2293 138.695 65.0959 138.701 65.1039L138.751 65.416C138.699 65.5546 138.568 65.616 138.46 65.5573C137.888 65.2373 137.256 65.044 136.487 64.98C133.076 64.6946 127.131 65.8746 123.855 66.1226C122.847 66.1999 120.959 66.4173 120.529 64.9866Z" fill="#B86760"/>
<path fill-rule="evenodd" clip-rule="evenodd" d="M104.408 64.7333C104.452 64.5707 104.469 64.408 104.467 64.2654C104.461 64.104 104.429 63.9573 104.377 63.8506C104.287 63.6693 104.153 63.584 103.989 63.6346C103.872 63.672 103.409 63.6146 102.781 63.5066C99.1654 62.8933 95.0601 61.448 91.5468 61.9786C88.6908 62.4133 86.2534 65.348 86.2454 65.3587H86.2481L86.2081 65.672C86.2628 65.8067 86.3935 65.8666 86.5001 65.8013C87.0655 65.468 87.6908 65.2573 88.4561 65.172C91.8601 64.7907 97.8334 65.804 101.117 65.964C102.125 66.0133 104.019 66.1773 104.408 64.7333Z" fill="#B86760"/>
<path fill-rule="evenodd" clip-rule="evenodd" d="M112.477 20.5294C112.477 20.5294 86.2628 19.0601 76.1014 45.6414L81.1748 50.7241C81.1748 50.7241 97.9228 37.8774 112.477 40.3307C127.031 37.8774 143.779 50.7241 143.779 50.7241L148.852 45.6414C138.688 19.0601 112.477 20.5294 112.477 20.5294Z" fill="#0000FF"/>
<path fill-rule="evenodd" clip-rule="evenodd" d="M77.2547 43.0693C72.3373 51.9773 76.1307 64.6093 77.2133 73.188C79.784 74.468 80.8653 83.16 80.8653 83.16C80.8653 83.16 80.5987 74.9453 80.5653 73.1507C84.1253 65.756 81.8174 52.2733 81.904 51.9787C81.9894 51.6987 78.9547 43.228 77.2547 43.0693Z" fill="#0000FF"/>
<path fill-rule="evenodd" clip-rule="evenodd" d="M78.5828 64.4214C78.5828 35.8627 146.369 35.8627 146.369 64.4214V60.744C146.369 32.1867 78.5828 32.1867 78.5828 60.744V64.4214Z" fill="white"/>
<path fill-rule="evenodd" clip-rule="evenodd" d="M135.215 38.6293L130.563 41.1746C130.563 41.1746 134.272 43.6026 134.979 49.2119C135.687 54.8226 139.943 59.112 146.271 55.4586C146.271 55.4586 144.479 41.836 135.215 38.6293Z" fill="#0000FF"/>
<path fill-rule="evenodd" clip-rule="evenodd" d="M89.7388 38.6293L94.3907 41.1746C94.3907 41.1746 90.6814 43.6026 89.9748 49.2119C89.2668 54.8226 85.0094 59.112 78.6827 55.4586C78.6827 55.4586 80.4748 41.836 89.7388 38.6293Z" fill="#0000FF"/>
<path d="M83.2961 59.1067C82.6561 59.1067 81.9828 58.9707 81.2788 58.7013C81.0494 58.6147 80.9348 58.356 81.0241 58.1253C81.1121 57.8947 81.3655 57.7827 81.5988 57.8694C82.9201 58.3774 84.0401 58.3307 85.0348 57.7307C87.8415 56.0413 88.5335 50.5574 88.5388 50.5027C88.5681 50.2574 88.7868 50.068 89.0335 50.112C89.2788 50.1427 89.4535 50.364 89.4241 50.6067C89.3948 50.8507 88.6695 56.5827 85.4948 58.4947C84.8175 58.9027 84.0815 59.1067 83.2961 59.1067Z" fill="#0000FF"/>
<path d="M112.667 53.7667C110.287 53.7667 107.832 53.6187 105.448 53.3307L104.693 53.236C102.371 52.948 99.9681 52.6467 97.0388 52.7507C96.7921 52.7213 96.5867 52.5667 96.5787 52.32C96.5707 52.0747 96.7628 51.8694 97.0108 51.8587C100.004 51.76 102.445 52.06 104.803 52.3507L105.557 52.4453C109.756 52.9547 114.169 53.0147 117.997 52.6067C118.729 52.528 119.444 52.44 120.16 52.3507C122.513 52.06 124.944 51.76 127.943 51.8587C128.191 51.8694 128.383 52.0747 128.375 52.32C128.367 52.5653 128.132 52.7307 127.915 52.7507C124.995 52.6587 122.589 52.948 120.269 53.2334C119.549 53.3254 118.828 53.4134 118.091 53.492C116.376 53.6747 114.544 53.7667 112.667 53.7667Z" fill="#F9A8A1"/>
<path fill-rule="evenodd" clip-rule="evenodd" d="M123.876 22.124C119.686 24.568 113.656 26.492 105.091 26.3946C105.091 26.3946 120.223 39.628 143.372 35.528C137.547 27.6773 130.034 23.916 123.876 22.124Z" fill="white" fill-opacity="0.2"/>
<path d="M104.855 122.045L104.733 122.028C89.6894 117.78 80.8147 102.087 78.6934 88.4187C78.656 88.176 78.8214 87.9467 79.0654 87.908C79.3187 87.8854 79.5361 88.0387 79.5747 88.28C81.6507 101.668 90.3121 117.031 104.977 121.171C105.211 121.236 105.352 121.484 105.284 121.721C105.228 121.916 105.049 122.045 104.855 122.045Z" fill="white"/>
<path d="M186.658 188.419C186.445 188.419 186.283 188.389 186.247 188.381C186.005 188.333 185.849 188.1 185.897 187.859C185.944 187.619 186.177 187.468 186.42 187.507C186.604 187.541 186.928 187.539 187.047 187.437C187.065 187.423 187.109 187.385 187.107 187.233C187.017 173.812 182.563 137.864 163.284 132.681L132.188 124.731C131.949 124.668 131.807 124.427 131.867 124.188C131.927 123.949 132.175 123.815 132.409 123.867L163.511 131.82C183.331 137.148 187.907 173.616 187.997 187.221C188.008 187.692 187.797 187.971 187.619 188.121C187.331 188.363 186.948 188.419 186.658 188.419ZM36.5042 201.687C36.2788 201.687 36.0868 201.517 36.0601 201.288C35.4121 195.264 38.7815 169.549 41.3228 155.957C43.9508 141.913 59.0121 135.333 59.1641 135.268C60.5321 134.607 78.4108 127.652 91.6708 123.871C91.9042 123.804 92.1508 123.94 92.2215 124.176C92.2895 124.413 92.1508 124.66 91.9148 124.727C78.7001 128.495 60.9108 135.413 59.5335 136.08C59.3655 136.151 44.7375 142.552 42.1988 156.121C39.6668 169.661 36.3068 195.24 36.9468 201.193C36.9735 201.437 36.7961 201.657 36.5521 201.684L36.5042 201.687Z" fill="white"/>
</g>
<defs>
<clipPath id="clip0_1_1358">
<rect width="224" height="234" fill="white"/>
</clipPath>
</defs>
</svg>
