<svg width="224" height="234" viewBox="0 0 224 234" fill="none" xmlns="http://www.w3.org/2000/svg">
<path fill-rule="evenodd" clip-rule="evenodd" d="M42.5961 199.787C39.7188 200.092 35.8028 199.294 35.5041 195.033C35.2028 190.775 39.5828 190.526 39.6654 190.656C39.7508 190.789 42.7761 196.201 42.7761 196.316L42.5961 199.787Z" fill="#D56981"/>
<path fill-rule="evenodd" clip-rule="evenodd" d="M93.7374 138.087H128.355V121.471C130.487 120.764 132.736 119.901 132.736 119.901L131.299 118.092C131.299 118.092 128.355 116.803 128.355 113.043V81.0626H93.7374V113.043C93.7374 116.803 90.7921 118.092 90.7921 118.092L89.3561 119.901C89.3561 119.901 91.6041 120.764 93.7374 121.471V138.087Z" fill="#E2AD94"/>
<path fill-rule="evenodd" clip-rule="evenodd" d="M93.7374 102.745V113.043C93.7374 114.639 93.2054 115.789 92.5934 116.587C97.9774 121.107 111.735 129.407 126.075 111.945L104.097 99.088C104.097 99.088 98.3547 101.144 93.7374 102.745Z" fill="#CB8A79"/>
<path fill-rule="evenodd" clip-rule="evenodd" d="M58.3387 129.471C59.7161 128.804 77.6507 121.839 90.7921 118.092C94.6294 121.92 105.413 130.917 111.044 130.917C116.408 130.917 127.464 121.92 131.299 118.092L162.401 126.044V187.823L161.369 199.659H63.2401L58.3387 129.471Z" fill="#FF0001"/>
<path fill-rule="evenodd" clip-rule="evenodd" d="M162.401 168.373V187.823L162.161 190.552C152.671 191.623 123.828 195.1 119.533 195.896C116.489 196.459 95.5321 198.64 78.7574 199.659H63.2401L62.2188 185.028C64.5627 180.402 66.8268 176.473 66.8268 176.473C66.8268 176.473 70.6987 169.932 92.2841 177.887C113.868 185.842 136.599 186.276 152.72 171.192C157.325 166.883 160.391 166.595 162.401 168.373Z" fill="#CC0001"/>
<path fill-rule="evenodd" clip-rule="evenodd" d="M94.1442 182.029C94.1442 182.029 89.1388 181.169 83.3241 181.576C77.5081 181.983 69.2601 183.425 69.2601 183.425L66.3308 188.336L69.3961 197.893C69.3961 197.893 72.7762 199.38 74.4428 198.254C76.1122 197.128 94.6388 187.164 94.1442 182.029Z" fill="#E2AD94"/>
<path fill-rule="evenodd" clip-rule="evenodd" d="M69.0388 189.442C69.0388 189.442 69.4414 192.848 72.4147 196.452L80.8001 194.016L108.927 195.729L123.101 214.32C123.101 214.32 120.825 214.571 108.477 218.628C96.1254 222.685 86.9294 227.733 69.5307 229.085C52.1321 230.436 47.7134 227.733 46.0014 219.709C44.2881 211.685 37.4374 200.508 37.8881 189.778C38.3387 179.051 55.7388 178.961 55.7388 178.961C55.7388 178.961 69.3521 181.035 69.0388 189.442Z" fill="#E2AD94"/>
<path fill-rule="evenodd" clip-rule="evenodd" d="M110.711 198.071L123.102 214.32C123.102 214.32 121.055 214.545 110.327 218.024C108.893 207.597 96.0428 202.284 96.0428 202.284L109.24 197.724C109.743 197.836 110.232 197.952 110.711 198.071Z" fill="#CB8A79"/>
<path fill-rule="evenodd" clip-rule="evenodd" d="M38.3815 196.167C37.9961 194.04 37.8001 191.9 37.8881 189.778C38.2161 181.956 47.5575 179.789 52.5935 179.19L57.5761 185.44C57.5761 185.44 44.2081 188.32 38.3815 196.167Z" fill="#CB8A79"/>
<path fill-rule="evenodd" clip-rule="evenodd" d="M132.184 188.877L135.441 186.92C135.441 186.92 139.395 184.82 143.812 181.576C148.231 178.328 151.927 177.428 156.615 178.511C161.303 179.592 162.401 185.092 162.401 185.092C162.401 185.092 159.229 193.204 156.344 191.852C153.459 190.5 132.184 188.877 132.184 188.877Z" fill="#E2AD94"/>
<path fill-rule="evenodd" clip-rule="evenodd" d="M185.334 181.737C185.334 181.737 182.535 203.265 175.391 213.156L151.852 186.826C151.852 186.826 150.764 180.904 151.842 175.787C152.92 170.668 152.92 170.668 152.92 170.668C152.92 170.668 173.835 166.972 174.827 167.513C175.818 168.053 185.284 176.168 185.334 181.737Z" fill="#E2AD94"/>
<path fill-rule="evenodd" clip-rule="evenodd" d="M185.334 181.737C185.334 181.737 185.186 182.872 184.872 184.735C175.919 174.483 163.7 173.847 163.7 173.847L167.522 168.264C171.315 167.701 174.458 167.313 174.827 167.513C175.818 168.053 185.284 176.168 185.334 181.737Z" fill="#CB8A79"/>
<path fill-rule="evenodd" clip-rule="evenodd" d="M186.552 181.016C186.44 164.175 180.779 130.985 162.401 126.044C162.401 126.044 154.639 137.203 154.096 159.74C154.096 159.74 150.131 168.213 150.852 174.524C150.852 174.524 150.896 175.428 151.841 175.787C151.841 175.787 174.155 168.573 185.333 181.737C185.333 181.737 186.573 181.985 186.552 181.016Z" fill="#FF0001"/>
<path fill-rule="evenodd" clip-rule="evenodd" d="M186.552 181.016C186.542 179.395 186.479 177.623 186.359 175.737C173.565 162.82 150.787 172.911 150.764 172.92C150.764 173.465 150.792 174.002 150.852 174.524C150.852 174.524 150.896 175.428 151.842 175.787C151.842 175.787 174.155 168.573 185.333 181.737C185.333 181.737 186.574 181.985 186.552 181.016Z" fill="#00FF00"/>
<path fill-rule="evenodd" clip-rule="evenodd" d="M58.3388 129.471C58.3388 129.471 43.3748 135.86 40.7601 149.832C38.1467 163.806 34.8721 189.175 35.5041 195.033C39.3388 186.893 65.9814 181.132 69.0388 189.443C69.0388 189.443 70.7507 188.745 70.7507 187.302C70.7507 185.86 71.1534 162.909 66.2841 154.345C66.2841 154.345 66.6468 134.339 58.3388 129.471Z" fill="#FF0001"/>
<path fill-rule="evenodd" clip-rule="evenodd" d="M35.6987 187.357C35.4334 190.828 35.3441 193.555 35.5041 195.033C39.3387 186.893 65.9814 181.132 69.0387 189.444C69.0387 189.444 70.7507 188.745 70.7507 187.302C70.7507 186.993 70.768 185.706 70.7507 183.784C53.6547 173.311 35.6987 187.357 35.6987 187.357Z" fill="#00FF00"/>
<path fill-rule="evenodd" clip-rule="evenodd" d="M94.1442 182.029C94.1442 182.029 109.557 185.633 121.908 186.896C134.257 188.157 153.461 183.83 164.099 190.141C174.737 196.452 176.901 204.654 176.901 208.352C176.901 212.048 173.653 217.997 165.271 219.169C156.887 220.342 136.333 219.62 120.375 213.311C104.419 207 90.3575 197.084 72.4148 196.452L94.1442 182.029Z" fill="#E2AD94"/>
<path d="M164.099 190.588L163.871 190.525C160.563 188.563 156.427 187.645 151.9 187.271L151.731 187.256C146.857 186.869 141.533 187.099 136.301 187.328L135.401 187.368H135.381C135.145 187.368 134.947 187.18 134.935 186.94C134.925 186.695 135.116 186.487 135.363 186.477L136.261 186.437C141.349 186.216 146.525 185.992 151.319 186.33C151.076 184.706 150.507 179.966 151.407 175.695C151.456 175.453 151.687 175.306 151.935 175.351C152.175 175.401 152.328 175.639 152.279 175.877C151.377 180.156 152.028 185.078 152.232 186.404C156.779 186.801 160.945 187.753 164.325 189.759C164.537 189.883 164.607 190.157 164.481 190.369C164.399 190.508 164.251 190.588 164.099 190.588ZM123.071 214.756L122.924 214.73C122.008 214.412 121.101 214.076 120.212 213.724C115.597 211.9 111.084 209.747 106.717 207.664C95.5895 202.357 85.0788 197.344 72.4055 196.899C72.2655 196.921 67.1335 196.861 62.3388 199.409C62.1241 199.525 61.8521 199.444 61.7375 199.225C61.6215 199.008 61.7028 198.74 61.9215 198.624C65.7908 196.565 69.7735 196.123 71.5188 196.029C68.9948 192.644 68.6121 189.63 68.5961 189.496C68.5681 189.252 68.7428 189.032 68.9868 189.001C69.2348 188.964 69.4535 189.148 69.4815 189.39C69.4841 189.423 69.9015 192.623 72.6335 196.016C85.4095 196.514 96.4348 201.773 107.101 206.86C111.453 208.936 115.953 211.083 120.539 212.896C121.42 213.245 122.312 213.575 123.216 213.888C123.451 213.969 123.573 214.224 123.492 214.456C123.427 214.641 123.256 214.756 123.071 214.756Z" fill="#CB8A79"/>
<path d="M69.0388 189.888C68.8655 189.888 68.6988 189.784 68.6281 189.612C68.5334 189.385 68.6441 189.125 68.8695 189.032C68.8841 189.026 70.3055 188.423 70.3055 187.302L70.3081 186.98C70.3628 179.661 70.0414 161.857 65.8974 154.565L65.8388 154.336C65.8401 154.306 65.8908 151.102 65.4348 147.023C65.4094 146.777 65.5868 146.557 65.8294 146.529C66.0841 146.513 66.2948 146.68 66.3228 146.925C66.4454 148.037 66.5334 149.087 66.5934 150.028L67.1961 149.194C67.3388 148.99 67.6174 148.947 67.8161 149.095C68.0161 149.237 68.0628 149.516 67.9174 149.713L66.6708 151.443C66.7335 152.878 66.7334 153.893 66.7321 154.231C70.9254 161.771 71.2534 179.632 71.1988 186.987L71.1961 187.302C71.1961 189.024 69.2895 189.823 69.2068 189.856L69.0388 189.888Z" fill="#CC0001"/>
<path fill-rule="evenodd" clip-rule="evenodd" d="M86.4747 119.38C88.0841 121.888 90.7214 124.707 93.7374 127.352C99.7654 132.64 107.292 137.227 111.044 137.227C114.68 137.227 122.159 132.417 128.355 126.973C131.299 124.388 133.953 121.656 135.768 119.233L131.299 118.092C127.464 121.92 116.408 130.917 111.044 130.917C105.413 130.917 94.6294 121.92 90.792 118.092C89.3987 118.488 87.9507 118.923 86.4747 119.38Z" fill="#00FF00"/>
<path d="M151.842 176.232L151.684 176.204C150.479 175.745 150.41 174.595 150.407 174.547C149.711 168.48 153.214 160.597 153.654 159.636C153.704 157.597 153.816 155.578 153.99 153.599L153.09 152.147C152.959 151.935 153.024 151.661 153.234 151.532C153.446 151.407 153.716 151.468 153.847 151.676L154.128 152.133C154.216 151.284 154.315 150.443 154.424 149.613C154.456 149.373 154.65 149.194 154.924 149.231C155.168 149.264 155.34 149.487 155.308 149.732C154.882 152.951 154.624 156.321 154.542 159.751L154.5 159.929C154.462 160.012 150.595 168.365 151.295 174.475C151.302 174.561 151.362 175.128 152 175.371C152.23 175.457 152.347 175.714 152.258 175.945C152.191 176.123 152.022 176.232 151.842 176.232Z" fill="#CC0001"/>
<path fill-rule="evenodd" clip-rule="evenodd" d="M78.5441 77.6587C76.7014 77.204 75.6908 75.816 75.1374 74.5267C75.9294 75.4013 76.9721 76.0067 78.1614 76.1907L78.3988 76.2213C78.3721 76.7173 78.4228 77.204 78.5441 77.6587ZM105.912 90.1147C104.729 91.7827 103.215 92.1947 101.88 92.1267C103.055 91.6507 104.027 90.6427 104.529 89.328C104.757 89.736 105.141 90.032 105.6 90.1027L105.912 90.1147ZM72.2894 60.532C71.7921 59.7013 71.2468 58.0347 72.4934 55.552C72.6094 55.6613 72.7321 55.7653 72.8601 55.8653C72.6561 56.1533 72.5188 56.504 72.4694 56.8933C72.3668 57.6907 72.6668 58.4453 73.1988 58.904C72.8121 59.3707 72.5001 59.92 72.2894 60.532ZM72.0281 61.6547C71.7454 63.8573 72.7601 65.9253 74.4241 66.8907C73.9974 67.6173 73.7028 68.456 73.5868 69.3733C73.4148 70.7067 73.6454 72 74.1774 73.0973C74.5348 74.716 75.6108 77.6613 78.7401 78.2493C79.2641 79.524 80.3401 80.4827 81.6774 80.6907C82.0868 80.7533 82.4894 80.7413 82.8748 80.664C83.2294 81.896 84.1841 82.8547 85.4081 83.044C86.1374 83.156 86.8441 82.9787 87.4348 82.5867C87.4614 83.1933 87.8668 83.7107 88.4241 83.8L88.6641 83.808C88.7321 85.472 89.8468 86.8933 91.3721 87.1307C92.3668 87.284 93.3201 86.9 93.9974 86.176C94.3334 86.6053 94.8054 86.9067 95.3521 86.992C95.5108 87.0173 95.6721 87.0213 95.8254 87.0067C95.6561 89.6493 97.3361 92.0133 99.7108 92.3813C99.9561 92.42 100.199 92.4347 100.437 92.4293C102.052 92.868 104.341 92.9307 106.076 90.7293C109.044 90.9013 113.008 86.9307 108.659 81.7253C111.473 78.4507 110.151 74.5733 107.765 71.6907C108.584 70.4653 109.211 68.42 108.055 65.3493C111.975 62.508 111.985 56.3827 107.693 53.6293C107.757 53.4053 107.796 53.1747 107.803 52.9333C107.805 52.804 107.8 52.676 107.784 52.5507C108.904 51.876 110.727 50.3773 111.252 47.5733C111.284 47.392 111.164 47.2173 110.981 47.1853C110.8 47.152 110.625 47.2707 110.591 47.4533C110.137 49.88 108.627 51.224 107.612 51.8707C107.479 51.5387 107.284 51.236 107.039 50.9827C108.513 50.152 109.527 48.592 109.571 46.7747C109.625 44.5707 108.235 42.668 106.263 41.9693C108.756 39.8053 108.375 33.2627 106.404 31.996C116.781 20.6333 105.06 7.95466 101.737 12.14C101.473 11.6853 101.041 11.3573 100.524 11.2773C99.9348 11.1853 99.3694 11.4373 98.9948 11.9C97.2761 9.132 92.9894 10.444 92.9748 10.448C92.8468 10.4867 92.7708 10.6333 92.8028 10.776C92.8361 10.9187 92.9668 11.004 93.0934 10.9667C93.1068 10.9627 97.2374 9.70133 98.7028 12.3947C98.6508 12.5187 98.6121 12.6533 98.5841 12.792C98.0241 12.284 97.3388 11.9347 96.5708 11.8173C94.3228 11.468 92.2401 13.2293 91.9188 15.748L91.9121 15.792C91.4747 15.412 90.9428 15.152 90.3548 15.06C88.7974 14.82 87.3401 15.8333 86.7988 17.412C85.7281 17.3107 84.7574 18.164 84.6041 19.3733C84.5654 19.6613 84.5814 19.9453 84.6361 20.2133C80.9788 20.0813 77.7361 23.06 77.2028 27.2107C77.0388 28.492 77.1521 29.7427 77.4894 30.892C76.3961 31.4227 75.5641 32.56 75.3827 33.98C75.2374 35.124 75.5428 36.2227 76.1521 37.0467C74.6881 37.3427 73.4894 38.6587 73.2668 40.396C73.0841 41.828 73.6081 43.1867 74.5414 44.028C74.3401 44.196 74.1668 44.4067 74.0361 44.652C73.4028 44.0133 72.5028 42.764 72.4708 40.8C72.4694 40.6533 72.3614 40.5347 72.2294 40.5373C72.0961 40.5413 71.9921 40.6613 71.9948 40.8107C72.0321 43.08 73.1308 44.4893 73.8361 45.1627L73.7787 45.4627C73.7534 45.652 73.7534 45.8413 73.7708 46.0213C72.2054 46.7787 71.0148 48.4093 70.7561 50.44C70.5241 52.2467 71.0814 53.9707 72.1361 55.1773C70.5108 58.316 71.5134 60.3413 72.1147 61.1533C72.0787 61.32 72.0494 61.4853 72.0281 61.6547ZM105.8 69.716C106.632 69.2707 107.208 68.4053 107.232 67.3933C107.245 66.9 107.124 66.4347 106.904 66.032C107.101 65.936 107.295 65.8333 107.479 65.7253C108.42 68.3307 107.964 70.0827 107.311 71.164C106.831 70.6387 106.32 70.152 105.8 69.716Z" fill="#0000FF"/>
<path fill-rule="evenodd" clip-rule="evenodd" d="M144.833 23.024C146.675 23.4813 147.687 24.868 148.24 26.156C147.445 25.2827 146.404 24.6773 145.213 24.492L144.979 24.4613C145.004 23.9667 144.951 23.48 144.833 23.024ZM117.464 10.568C118.647 8.90132 120.161 8.48933 121.496 8.55733C120.321 9.03466 119.351 10.0427 118.847 11.3547C118.617 10.948 118.236 10.6533 117.776 10.5813L117.464 10.568ZM151.088 40.1533C151.584 40.9827 152.131 42.6493 150.883 45.1333C150.765 45.0213 150.644 44.9173 150.516 44.8187C150.719 44.5293 150.86 44.1773 150.908 43.7907C151.011 42.9933 150.708 42.2373 150.179 41.7813C150.564 41.3147 150.875 40.764 151.088 40.1533ZM151.349 39.0267C151.631 36.824 150.616 34.7587 148.952 33.792C149.377 33.0667 149.675 32.228 149.791 31.3133C149.963 29.9773 149.729 28.6827 149.2 27.5853C148.841 25.9693 147.765 23.0213 144.637 22.4347C144.112 21.1587 143.036 20.2013 141.7 19.992C141.291 19.9307 140.888 19.9427 140.5 20.02C140.145 18.7867 139.193 17.8267 137.969 17.6387C137.24 17.5267 136.532 17.7053 135.943 18.0973C135.916 17.4907 135.509 16.9707 134.952 16.884L134.712 16.876C134.645 15.212 133.532 13.7907 132.004 13.552C131.011 13.3987 130.056 13.784 129.38 14.508C129.043 14.0787 128.572 13.776 128.024 13.692C127.865 13.6653 127.705 13.6613 127.549 13.6747C127.719 11.0373 126.039 8.66932 123.665 8.30266C123.42 8.26399 123.177 8.24933 122.937 8.25599C121.323 7.81733 119.035 7.75332 117.3 9.95332C114.331 9.78132 110.368 13.7533 114.716 18.9587C111.904 22.232 113.225 26.1093 115.609 28.992C114.793 30.2187 114.167 32.264 115.32 35.3333C111.404 38.1747 111.391 44.3 115.684 47.056C115.617 47.276 115.581 47.508 115.575 47.748C115.571 47.8773 115.579 48.008 115.592 48.1333C114.473 48.808 112.649 50.3053 112.125 53.108C112.091 53.2893 112.211 53.4667 112.393 53.4987C112.576 53.532 112.751 53.4133 112.784 53.2293C113.24 50.8053 114.751 49.46 115.763 48.812C115.896 49.1467 116.091 49.448 116.336 49.7013C114.864 50.5307 113.849 52.0947 113.805 53.9093C113.751 56.112 115.143 58.016 117.112 58.7133C114.623 60.8773 115 67.4213 116.972 68.688C106.593 80.0493 118.316 92.7307 121.641 88.544C121.904 88.9973 122.333 89.3253 122.852 89.4067C123.443 89.4973 124.005 89.244 124.38 88.7813C126.099 91.552 130.388 90.2387 130.401 90.236C130.529 90.1987 130.605 90.052 130.573 89.908C130.54 89.7653 130.412 89.68 130.283 89.7173C130.269 89.7227 126.14 90.984 124.675 88.2893C124.724 88.164 124.764 88.032 124.793 87.8907C125.352 88.3987 126.037 88.748 126.807 88.868C129.052 89.216 131.136 87.456 131.459 84.9347L131.464 84.8907C131.904 85.2707 132.433 85.5333 133.024 85.6253C134.579 85.8653 136.036 84.8493 136.577 83.272C137.648 83.376 138.619 82.5187 138.772 81.3133C138.811 81.024 138.796 80.7387 138.74 80.4693C142.399 80.604 145.641 77.6227 146.172 73.472C146.336 72.192 146.224 70.9387 145.887 69.792C146.98 69.2613 147.812 68.1227 147.993 66.7067C148.141 65.56 147.833 64.4587 147.224 63.636C148.688 63.3413 149.887 62.024 150.109 60.2853C150.295 58.8573 149.768 57.496 148.833 56.656C149.036 56.4867 149.208 56.276 149.341 56.032C149.975 56.6707 150.873 57.9213 150.907 59.8827C150.907 60.032 151.016 60.1493 151.147 60.1467C151.279 60.144 151.384 60.0213 151.381 59.8733C151.345 57.604 150.245 56.1933 149.54 55.5213L149.597 55.2213C149.624 55.032 149.624 54.844 149.605 54.6613C151.171 53.904 152.363 52.2733 152.623 50.2453C152.852 48.4373 152.295 46.712 151.243 45.504C152.867 42.368 151.864 40.3427 151.261 39.528C151.299 39.3653 151.328 39.1987 151.349 39.0267ZM117.576 30.9667C116.745 31.412 116.168 32.2787 116.144 33.2893C116.132 33.7813 116.253 34.2493 116.473 34.652C116.273 34.748 116.081 34.8493 115.897 34.9587C114.956 32.352 115.412 30.5987 116.067 29.5187C116.544 30.044 117.056 30.532 117.576 30.9667Z" fill="#0000FF"/>
<path fill-rule="evenodd" clip-rule="evenodd" d="M98.9348 116.737C99.1508 117.605 99.8055 118.084 100.412 118.347C100 117.972 99.7162 117.481 99.6295 116.919L99.6148 116.808C99.3801 116.819 99.1508 116.793 98.9348 116.737ZM107.013 119.704C107.407 119.937 108.191 120.196 109.365 119.609L109.216 119.437C109.081 119.535 108.916 119.597 108.732 119.621C108.356 119.668 107.997 119.527 107.784 119.276C107.563 119.457 107.304 119.603 107.013 119.704ZM94.7161 109.681H128.644V110.368C128.492 110.42 128.331 110.456 128.165 110.479L128.145 110.48C128.323 110.687 128.445 110.937 128.488 111.216C128.601 111.951 128.12 112.637 127.375 112.891C127.423 113.397 127.019 113.855 126.448 113.925C126.312 113.943 126.177 113.936 126.052 113.911C126.112 115.636 124.701 117.164 122.743 117.412C122.139 117.487 121.548 117.433 121.007 117.273C120.756 117.789 120.216 118.18 119.548 118.265C119.007 118.332 118.488 118.188 118.099 117.901C117.96 118.591 117.337 119.155 116.517 119.259C115.841 119.344 115.2 119.095 114.805 118.653L114.511 118.892C114.811 119.192 115.399 119.617 116.327 119.633L116.449 119.748L116.32 119.859C115.251 119.84 114.585 119.32 114.268 118.987L114.127 119.013L113.865 119.016C113.504 119.755 112.735 120.315 111.776 120.435C110.923 120.543 110.109 120.279 109.539 119.78C108.057 120.544 107.103 120.068 106.72 119.784L106.483 119.825C105.445 119.956 104.469 119.476 104.016 118.691C103.672 118.889 103.276 119.029 102.844 119.084C102.214 119.161 101.603 119.052 101.087 118.803C100.323 118.631 98.9321 118.121 98.6588 116.644C98.0561 116.396 97.6055 115.887 97.5082 115.256C97.4788 115.063 97.4855 114.873 97.5228 114.691C96.9415 114.521 96.4895 114.071 96.4015 113.492C96.3482 113.149 96.4335 112.816 96.6201 112.537C96.3335 112.524 96.0895 112.331 96.0468 112.068L96.0428 111.956C95.2575 111.923 94.5895 111.396 94.4788 110.675C94.4241 110.316 94.5175 109.967 94.7161 109.681Z" fill="#6D526F"/>
<path fill-rule="evenodd" clip-rule="evenodd" d="M81.7214 89.2706C72.1414 88.772 71.3294 71.7893 76.8628 72.164C81.4694 72.4746 82.4348 75.4106 82.7401 76.644C83.0455 77.8773 81.7214 89.2706 81.7214 89.2706Z" fill="#E2AD94"/>
<path fill-rule="evenodd" clip-rule="evenodd" d="M141.204 89.2706C150.787 88.772 151.595 71.7893 146.063 72.164C141.457 72.4746 140.491 75.4106 140.187 76.644C139.88 77.8773 141.204 89.2706 141.204 89.2706Z" fill="#E2AD94"/>
<path fill-rule="evenodd" clip-rule="evenodd" d="M142.932 56.024V77.7587C142.932 96.076 130.445 116.112 111.465 116.112C92.4841 116.112 80.0001 96.076 80.0001 77.7587V56.024C80.0001 14.672 142.932 14.672 142.932 56.024Z" fill="#E2AD94"/>
<path fill-rule="evenodd" clip-rule="evenodd" d="M80.1748 52.3493C80.6455 47.4333 82.0655 43.1827 84.1775 39.5933C90.2268 35.696 98.5215 30.7026 101.601 30.4893C106.677 30.14 117.532 28.2133 121.56 30.14C125.585 32.0653 139.153 46.9013 139.153 46.9013C139.153 46.9013 140.248 54.4307 133.64 54.5627L133.857 47.0773L127.205 43.7506L116.7 40.8186L123.484 44.4947L123.923 45.2813C123.923 45.2813 121.645 50.2613 115.607 47.4C109.568 44.5387 110.224 40.8613 110.224 40.8613L87.9468 41.6493L88.2241 46.5293C88.2241 46.5293 86.8361 54.2613 80.1748 52.3493Z" fill="#CB8A79"/>
<path fill-rule="evenodd" clip-rule="evenodd" d="M126.281 66.1413H126.284C128.571 66.1413 130.441 68.0106 130.441 70.2986V72.8266C130.441 75.1146 128.571 76.9853 126.284 76.9853H126.281C123.995 76.9853 122.124 75.1146 122.124 72.8266V70.2986C122.124 68.0106 123.995 66.1413 126.281 66.1413Z" fill="#3E3155"/>
<path fill-rule="evenodd" clip-rule="evenodd" d="M96.648 66.1413C94.3614 66.1413 92.4894 68.0106 92.4894 70.2986V72.8266C92.4894 75.1146 94.3614 76.9853 96.648 76.9853C98.9347 76.9853 100.808 75.1146 100.808 72.8266V70.2986C100.808 68.0106 98.9347 66.1413 96.648 66.1413Z" fill="#3E3155"/>
<path fill-rule="evenodd" clip-rule="evenodd" d="M112.309 70.704C112.357 70.988 112.339 71.2947 112.241 71.516C111.56 73.0733 108.579 79.752 108.605 80.6387C108.713 81.7747 111.907 82.5707 113.616 82.6293C114.675 82.6667 113.427 86.3427 111.7 85.8413C109.856 85.3107 107.128 82.9853 106.927 80.8053C106.831 79.7547 108.751 75.0947 110.137 71.952C110.492 71.1467 110.271 70.3253 110.14 69.7867C109.797 68.3853 112.145 69.764 112.309 70.704Z" fill="#CB8A79"/>
<path d="M144.245 83.904C144.027 83.904 143.836 83.7467 143.804 83.5267C143.607 82.2107 143.705 80.504 144.059 78.7733L144.068 78.7267C144.209 78.0427 144.391 77.3547 144.609 76.688C145.324 74.4947 146.153 74.152 146.713 74.2587C147.599 74.42 148.136 75.764 148.052 77.6C148.041 77.8467 147.843 78.0813 147.589 78.0267C147.341 78.0147 147.152 77.808 147.164 77.5613C147.232 76.0533 146.803 75.18 146.555 75.136C146.453 75.0947 145.973 75.3773 145.456 76.964C145.289 77.4747 145.145 78.0027 145.025 78.532C145.641 78.788 146.613 79.5173 146.575 81.572C146.569 81.8187 146.357 82.0347 146.12 82.0093C145.875 82.004 145.677 81.8 145.683 81.5547C145.709 80.1827 145.213 79.6387 144.847 79.4227C144.589 80.8867 144.524 82.3107 144.685 83.3933C144.721 83.636 144.553 83.8627 144.311 83.9L144.245 83.904Z" fill="#CB8A79"/>
<path d="M78.6881 83.904L78.6214 83.9C78.3774 83.8627 78.2094 83.636 78.2481 83.3933C78.4094 82.3107 78.3441 80.884 78.0867 79.4173C77.7147 79.6307 77.2214 80.172 77.2481 81.5547C77.2534 81.8 77.0574 82.004 76.8121 82.0093H76.8028C76.5601 82.0093 76.3627 81.816 76.3574 81.572C76.3174 79.5173 77.2908 78.7867 77.9068 78.532C77.7868 78 77.6441 77.4747 77.4761 76.9627C76.9588 75.3773 76.4428 75.1013 76.3774 75.136C76.1294 75.18 75.7001 76.0533 75.7681 77.5613C75.7814 77.808 75.5908 78.0147 75.3441 78.0267C75.1041 78.0707 74.8907 77.8467 74.8801 77.6C74.7974 75.764 75.3334 74.42 76.2161 74.2587C76.7907 74.152 77.6067 74.4947 78.3227 76.6853C79.0961 79.0587 79.4041 81.6787 79.1281 83.5267C79.0948 83.7467 78.9041 83.904 78.6881 83.904Z" fill="#CB8A79"/>
<path d="M111.465 94.4506C108.175 94.4506 105.073 94.1053 102.5 93.4506C102.024 93.3306 101.735 92.8466 101.857 92.368C101.977 91.8906 102.465 91.5986 102.939 91.724C107.735 92.9426 115.199 92.9413 119.992 91.724C120.467 91.5986 120.956 91.8906 121.076 92.368C121.197 92.8466 120.909 93.3306 120.432 93.4506C117.857 94.1053 114.756 94.4506 111.465 94.4506Z" fill="#CB8A79"/>
<path d="M111.465 98.1227C110.305 98.1227 109.141 98.0773 108.007 97.9866C107.516 97.948 107.149 97.5187 107.189 97.0293C107.229 96.54 107.672 96.1653 108.145 96.2107C110.323 96.384 112.612 96.3813 114.784 96.2107C115.287 96.1667 115.703 96.54 115.741 97.0293C115.781 97.5187 115.415 97.948 114.923 97.9866C113.791 98.0773 112.627 98.1227 111.465 98.1227Z" fill="#CB8A79"/>
<path fill-rule="evenodd" clip-rule="evenodd" d="M142.883 28.076C153.565 40.504 143.998 54.9147 143.998 72.536C143.998 72.536 142.932 72.4867 142.932 76.1333C139.599 72.696 139.488 66.556 141.481 57.704C144.421 44.652 125.824 38.144 111.466 38.1493C97.1095 38.144 78.5095 44.652 81.4495 57.704C83.4428 66.556 83.3335 72.696 80.0002 76.1333C80.0002 72.4867 78.9348 72.536 78.9348 72.536C78.9348 54.9147 69.3655 40.504 80.0495 28.076C80.1935 24.9453 84.0602 21.6467 89.2055 18.9733C103.558 11.5173 119.373 11.5173 133.725 18.9733C138.872 21.6467 142.74 24.9453 142.883 28.076Z" fill="#0000FF"/>
<path fill-rule="evenodd" clip-rule="evenodd" d="M118.716 63.9226C117.768 63.1266 117.344 61.136 117.503 60.7546C117.568 60.5973 117.677 60.644 117.945 60.732C119.096 61.1173 120.177 60.9253 121.328 60.8426C123.432 60.696 127.385 60.4853 130.188 60.7186C134.18 61.0533 134.413 62.8493 135.076 64.7213C135.076 64.7213 135.257 65.4533 134.523 65.0813C133.787 64.708 133.956 64.2853 132.048 63.892C130.659 63.6066 125.383 64.2066 122.615 64.552C121.131 64.74 120.073 65.0626 118.716 63.9226Z" fill="#3E3155"/>
<path fill-rule="evenodd" clip-rule="evenodd" d="M82.0722 13.86C82.5748 11.8253 84.1042 10.7053 85.5268 10.092C84.5628 10.9693 83.8962 12.1213 83.6962 13.4347L83.6628 13.696C83.1135 13.668 82.5762 13.7267 82.0722 13.86ZM68.3668 44.1173C66.5242 42.816 66.0655 41.144 66.1388 39.6667C66.6668 40.964 67.7815 42.0373 69.2348 42.5893C68.7842 42.8427 68.4588 43.2667 68.3801 43.7733L68.3668 44.1173ZM100.983 6.91865C101.899 6.36799 103.739 5.76267 106.484 7.132C106.363 7.26267 106.247 7.39599 106.137 7.53999C105.817 7.31599 105.429 7.16132 105.001 7.10666C104.121 6.99732 103.287 7.33065 102.783 7.91732C102.267 7.49198 101.659 7.15065 100.983 6.91865ZM99.7402 6.63066C97.3068 6.32266 95.0242 7.44799 93.9615 9.28932C93.1575 8.81866 92.2295 8.49465 91.2188 8.36799C89.7441 8.17999 88.3148 8.43866 87.1028 9.028C85.3175 9.428 82.0655 10.62 81.4228 14.0787C80.0148 14.6587 78.9588 15.8493 78.7322 17.3253C78.6628 17.7787 78.6775 18.224 78.7628 18.6507C77.4015 19.044 76.3455 20.1013 76.1388 21.4533C76.0148 22.26 76.2135 23.04 76.6481 23.6933C75.9788 23.72 75.4068 24.172 75.3108 24.788L75.3002 25.0507C73.4642 25.1307 71.8948 26.3627 71.6375 28.0493C71.4682 29.1507 71.8948 30.2027 72.6962 30.948C72.2215 31.32 71.8895 31.8427 71.7975 32.4467C71.7695 32.6227 71.7641 32.7973 71.7788 32.9693C68.8628 32.788 66.2561 34.6493 65.8521 37.272C65.8108 37.544 65.7948 37.812 65.8028 38.076C65.3188 39.86 65.2562 42.388 67.6908 44.3013C67.5055 47.5813 71.8988 51.9493 77.6415 47.1373C81.2642 50.2373 85.5442 48.7693 88.7242 46.1307C90.0815 47.0293 92.3388 47.7187 95.7322 46.4373C98.8748 50.7613 105.643 50.7613 108.679 46.0133C108.923 46.0867 109.177 46.1253 109.444 46.1333C109.589 46.136 109.729 46.1293 109.869 46.112C110.615 47.348 112.273 49.36 115.372 49.932C115.573 49.9693 115.765 49.836 115.803 49.6346C115.839 49.432 115.705 49.2413 115.504 49.2053C112.824 48.7067 111.335 47.04 110.617 45.9227C110.987 45.776 111.319 45.5573 111.599 45.2853C112.519 46.9147 114.248 48.0293 116.253 48.076C118.687 48.1307 120.787 46.592 121.552 44.412C123.948 47.1587 131.177 46.7267 132.571 44.5493C145.144 55.9907 159.128 43.0147 154.496 39.352C154.999 39.0613 155.36 38.5853 155.448 38.012C155.547 37.36 155.265 36.736 154.756 36.3227C157.812 34.4213 156.353 29.6853 156.349 29.6693C156.308 29.5293 156.145 29.4427 155.987 29.4813C155.829 29.5173 155.735 29.6613 155.776 29.8027C155.781 29.8173 157.184 34.376 154.208 36.0027C154.072 35.9453 153.924 35.9013 153.771 35.8707C154.331 35.252 154.715 34.492 154.845 33.6453C155.224 31.1613 153.276 28.8627 150.492 28.5133L150.444 28.5053C150.863 28.0213 151.149 27.4333 151.251 26.784C151.512 25.0627 150.388 23.456 148.644 22.8613C148.756 21.6787 147.811 20.6067 146.475 20.44C146.156 20.3987 145.84 20.416 145.545 20.4773C145.685 16.4373 142.385 12.86 137.8 12.2813C136.384 12.1013 135.003 12.2293 133.735 12.604C133.145 11.396 131.888 10.4813 130.32 10.2813C129.055 10.1227 127.841 10.464 126.932 11.1387C126.601 9.52132 125.145 8.20132 123.227 7.95599C121.645 7.75866 120.145 8.33999 119.217 9.37332C119.033 9.15199 118.799 8.96133 118.527 8.816C119.232 8.11467 120.609 7.11733 122.779 7.07866C122.943 7.07866 123.072 6.95733 123.069 6.81333C123.064 6.66533 122.929 6.54932 122.767 6.55199C120.26 6.59732 118.703 7.81733 117.964 8.596L117.632 8.53333C117.423 8.50533 117.213 8.50399 117.015 8.52666C116.172 6.79733 114.371 5.48532 112.128 5.20265C110.132 4.95065 108.227 5.57065 106.895 6.73732C103.427 4.94665 101.191 6.05866 100.293 6.72533C100.112 6.68666 99.9268 6.65333 99.7402 6.63066ZM90.9015 43.9533C91.3962 44.8733 92.3548 45.5067 93.4695 45.532C94.0162 45.544 94.5295 45.412 94.9748 45.1653C95.0802 45.3853 95.1935 45.5973 95.3135 45.8013C92.4361 46.844 90.5015 46.3467 89.3055 45.6253C89.8855 45.096 90.4228 44.532 90.9015 43.9533Z" fill="#0000FF"/>
<path fill-rule="evenodd" clip-rule="evenodd" d="M133.735 12.604C133.735 12.604 122.289 28.4533 99.8495 20.912C99.8495 20.912 121.179 43.644 150.444 28.5053C150.863 28.0213 151.149 27.4333 151.251 26.784C151.512 25.0626 150.388 23.456 148.644 22.8613C148.756 21.6786 147.811 20.6066 146.475 20.44C146.156 20.3986 145.84 20.416 145.545 20.4773C145.685 16.4373 142.386 12.86 137.8 12.2813C136.384 12.1013 135.003 12.2293 133.735 12.604Z" fill="black" fill-opacity="0.2"/>
<path fill-rule="evenodd" clip-rule="evenodd" d="M104.216 63.9226C105.161 63.1266 105.589 61.136 105.428 60.7546C105.364 60.5973 105.255 60.644 104.987 60.732C103.836 61.1173 102.756 60.9253 101.603 60.8426C99.4987 60.696 95.5454 60.4853 92.7427 60.7186C88.7534 61.0533 88.5187 62.8493 87.8561 64.7213C87.8561 64.7213 87.6747 65.4533 88.4107 65.0813C89.1454 64.708 88.976 64.2853 90.8814 63.892C92.2707 63.6066 97.5494 64.2066 100.316 64.552C101.803 64.74 102.86 65.0626 104.216 63.9226Z" fill="#3E3155"/>
<path fill-rule="evenodd" clip-rule="evenodd" d="M111.465 94.076C111.465 94.076 108.753 94.076 106.699 94.076C104.644 94.076 103.833 95.12 103.193 95.896C102.553 96.672 102.2 97.244 101.424 98.3053C100.648 99.3666 100.228 101.017 101.308 102.432C102.385 103.849 103.615 105.044 104.289 105.768C107.24 108.94 110.259 103.604 107.961 99.8733H111.465H114.969C112.672 103.604 115.693 108.94 118.643 105.768C119.315 105.044 120.547 103.849 121.624 102.432C122.703 101.017 122.281 99.3666 121.505 98.3053C120.732 97.244 120.377 96.672 119.737 95.896C119.097 95.12 118.289 94.076 116.233 94.076C114.179 94.076 111.465 94.076 111.465 94.076ZM120.964 90.1107H120.965L121.109 90.2147C124.565 92.696 128.22 95.3413 128.22 95.3413C128.22 95.3413 130.24 96.6986 131.941 93.7533C133.645 90.808 140.12 83.1386 140.765 80.7267C141.305 78.7146 140.765 63.964 140.765 63.964L142.932 71.8853C142.932 74.1013 142.927 80.7413 142.784 82.4506C141.332 99.7346 129.251 117.325 111.465 117.325C93.6815 117.325 81.5988 99.7346 80.1468 82.4506C80.0054 80.7413 80.0001 74.1013 80.0001 71.8853L82.1655 63.964C82.1655 63.964 81.6268 78.7146 82.1655 80.7267C82.8108 83.1386 89.2868 90.808 90.9894 93.7533C92.6934 96.6986 94.7108 95.3413 94.7108 95.3413C94.7108 95.3413 98.3668 92.696 101.821 90.2147L101.967 90.1107H101.968C104.951 87.9813 105.453 88.1586 108.836 88.1586H111.465H114.093C117.479 88.1586 117.981 87.9813 120.964 90.1107Z" fill="#6D526F"/>
<path fill-rule="evenodd" clip-rule="evenodd" d="M129.263 44.1147C129.263 44.1147 128.091 48.2733 132.247 50.9067C126.228 56.9693 138.912 58.7173 136.875 47.016C135.563 39.4613 129.263 44.1147 129.263 44.1147Z" fill="#0000FF"/>
</svg>
