<svg width="224" height="234" viewBox="0 0 224 234" fill="none" xmlns="http://www.w3.org/2000/svg">
<g clip-path="url(#clip0_1_1358)">
<path fill-rule="evenodd" clip-rule="evenodd" d="M42.5339 204.995C39.6595 205.297 35.7428 204.5 35.4443 200.241C35.1433 195.983 39.5224 195.733 39.6057 195.864C39.6891 195.997 42.7161 201.409 42.7161 201.524L42.5339 204.995Z" fill="#E4DAE2"/>
<path fill-rule="evenodd" clip-rule="evenodd" d="M93.6775 143.295H128.295V126.679C130.427 125.972 132.675 125.109 132.675 125.109L131.239 123.297C131.239 123.297 128.295 122.011 128.295 118.251V86.2707H93.6775V118.251C93.6775 122.011 90.7321 123.297 90.7321 123.297L89.2961 125.109C89.2961 125.109 91.5415 125.972 93.6775 126.679V143.295Z" fill="#DD8C79"/>
<path fill-rule="evenodd" clip-rule="evenodd" d="M93.6776 107.953V118.251C93.6776 119.845 93.1456 120.997 92.5336 121.792C97.9162 126.315 111.675 134.615 126.015 117.153L104.036 104.296C104.036 104.296 98.2949 106.352 93.6776 107.953Z" fill="#BC6D69"/>
<path fill-rule="evenodd" clip-rule="evenodd" d="M58.2786 134.677C59.6562 134.011 77.59 127.047 90.7322 123.3C94.5695 127.128 105.353 136.125 110.984 136.125C116.348 136.125 127.402 127.128 131.239 123.3L162.339 131.252V193.031L161.31 204.865H63.1802L58.2786 134.677Z" fill="#FF0001"/>
<path fill-rule="evenodd" clip-rule="evenodd" d="M162.339 173.581V193.031L162.102 195.76C152.611 196.831 123.766 200.307 119.472 201.103C116.43 201.667 95.4723 203.847 78.6963 204.865H63.1803L62.1562 190.236C64.5032 185.611 66.7656 181.681 66.7656 181.681C66.7656 181.681 70.636 175.139 92.2229 183.095C113.808 191.051 136.536 191.484 152.66 176.4C157.266 172.091 160.331 171.801 162.339 173.581Z" fill="#CC0001"/>
<path fill-rule="evenodd" clip-rule="evenodd" d="M94.0842 187.235C94.0842 187.235 89.0788 186.377 83.2628 186.784C77.4484 187.188 69.2004 188.633 69.2004 188.633L66.2698 193.544L69.3364 203.101C69.3364 203.101 72.716 204.588 74.3827 203.461C76.0494 202.333 94.5788 192.372 94.0842 187.235Z" fill="#DD8C79"/>
<path fill-rule="evenodd" clip-rule="evenodd" d="M68.9781 194.651C68.9781 194.651 69.3808 198.055 72.3543 201.66L80.7403 199.224L108.867 200.937L123.042 219.528C123.042 219.528 120.766 219.779 108.418 223.835C96.0656 227.892 86.8696 232.94 69.4704 234.292C52.0719 235.644 47.6543 232.94 45.9407 224.917C44.2281 216.893 37.3776 205.716 37.8281 194.987C38.2776 184.259 55.6771 184.168 55.6771 184.168C55.6771 184.168 69.2891 186.243 68.9781 194.651Z" fill="#DD8C79"/>
<path fill-rule="evenodd" clip-rule="evenodd" d="M110.651 203.277L123.042 219.528C123.042 219.528 120.995 219.753 110.267 223.231C108.832 212.805 95.9829 207.492 95.9829 207.492L109.18 202.932C109.683 203.044 110.172 203.16 110.651 203.277Z" fill="#BC6D69"/>
<path fill-rule="evenodd" clip-rule="evenodd" d="M38.3218 201.375C37.9365 199.248 37.7385 197.108 37.8281 194.987C38.1562 187.164 47.498 184.997 52.5318 184.399L57.5156 190.648C57.5156 190.648 44.1489 193.528 38.3218 201.375Z" fill="#BC6D69"/>
<path fill-rule="evenodd" clip-rule="evenodd" d="M132.124 194.085L135.382 192.127C135.382 192.127 139.335 190.028 143.752 186.784C148.171 183.536 151.866 182.636 156.555 183.717C161.243 184.8 162.339 190.3 162.339 190.3C162.339 190.3 159.17 198.412 156.284 197.06C153.399 195.708 132.124 194.085 132.124 194.085Z" fill="#DD8C79"/>
<path fill-rule="evenodd" clip-rule="evenodd" d="M185.273 186.945C185.273 186.945 182.475 208.473 175.331 218.364L151.792 192.035C151.792 192.035 150.704 186.112 151.781 180.995C152.86 175.876 152.86 175.876 152.86 175.876C152.86 175.876 173.775 172.18 174.765 172.721C175.757 173.261 185.224 181.375 185.273 186.945Z" fill="#DD8C79"/>
<path fill-rule="evenodd" clip-rule="evenodd" d="M185.274 186.945C185.274 186.945 185.126 188.079 184.812 189.943C175.858 179.691 163.64 179.055 163.64 179.055L167.462 173.472C171.255 172.907 174.396 172.521 174.766 172.721C175.758 173.261 185.224 181.375 185.274 186.945Z" fill="#BC6D69"/>
<path fill-rule="evenodd" clip-rule="evenodd" d="M186.492 186.224C186.38 169.383 180.718 136.193 162.339 131.252C162.339 131.252 154.579 142.411 154.036 164.948C154.036 164.948 150.071 173.421 150.792 179.732C150.792 179.732 150.836 180.633 151.782 180.995C151.782 180.995 174.094 173.781 185.274 186.945C185.274 186.945 186.512 187.193 186.492 186.224Z" fill="#FF0001"/>
<path fill-rule="evenodd" clip-rule="evenodd" d="M186.492 186.224C186.482 184.603 186.419 182.831 186.299 180.944C173.506 168.028 150.727 178.119 150.704 178.128C150.704 178.673 150.732 179.211 150.792 179.732C150.792 179.732 150.836 180.636 151.782 180.995C151.782 180.995 174.094 173.781 185.272 186.945C185.272 186.945 186.512 187.193 186.492 186.224Z" fill="#00FF00"/>
<path fill-rule="evenodd" clip-rule="evenodd" d="M58.2786 134.677C58.2786 134.677 43.3155 141.068 40.7005 155.04C38.0875 169.013 34.813 194.383 35.4442 200.241C39.2786 192.101 65.9218 186.339 68.9781 194.651C68.9781 194.651 70.6906 193.953 70.6906 192.511C70.6906 191.068 71.0917 168.117 66.2245 159.553C66.2245 159.553 66.5875 139.545 58.2786 134.677Z" fill="#FF0001"/>
<path fill-rule="evenodd" clip-rule="evenodd" d="M35.638 192.565C35.374 196.035 35.2838 198.761 35.4442 200.241C39.2786 192.101 65.9218 186.339 68.9781 194.651C68.9781 194.651 70.6906 193.953 70.6906 192.511C70.6906 192.201 70.7089 190.912 70.6906 188.992C53.5937 178.519 35.638 192.565 35.638 192.565Z" fill="#00FF00"/>
<path fill-rule="evenodd" clip-rule="evenodd" d="M94.0842 187.235C94.0842 187.235 109.498 190.841 121.848 192.104C134.198 193.365 153.402 189.039 164.039 195.349C174.678 201.66 176.842 209.863 176.842 213.559C176.842 217.255 173.594 223.205 165.211 224.377C156.827 225.551 136.274 224.828 120.315 218.519C104.359 212.208 90.2949 202.292 72.3542 201.66L94.0842 187.235Z" fill="#DD8C79"/>
<path d="M164.039 195.796L163.811 195.733C160.503 193.771 156.367 192.853 151.84 192.479L151.669 192.464C146.797 192.077 141.476 192.309 136.251 192.533L135.341 192.575C135.044 192.576 134.887 192.393 134.875 192.148C134.865 191.901 135.056 191.695 135.303 191.683L136.211 191.643C141.296 191.421 146.468 191.197 151.259 191.539C151.013 189.915 150.447 185.175 151.347 180.903C151.396 180.664 151.632 180.508 151.875 180.559C152.115 180.609 152.268 180.847 152.219 181.085C151.317 185.364 151.968 190.287 152.172 191.612C156.719 192.009 160.885 192.961 164.265 194.967C164.477 195.091 164.547 195.365 164.421 195.577C164.339 195.716 164.191 195.796 164.039 195.796ZM123.011 219.964L122.864 219.939C121.948 219.62 121.041 219.284 120.152 218.933C115.537 217.108 111.024 214.955 106.657 212.872C95.5295 207.565 85.0188 202.552 72.3452 202.107C72.2004 202.123 67.0728 202.071 62.2775 204.617C62.064 204.732 61.7921 204.651 61.676 204.432C61.5599 204.215 61.6432 203.945 61.8599 203.831C65.7307 201.773 69.714 201.331 71.4588 201.237C68.9337 197.849 68.5525 194.839 68.5369 194.703C68.5067 194.459 68.6812 194.237 68.9249 194.208C69.1769 194.175 69.3911 194.353 69.4197 194.597C69.4233 194.631 69.84 197.828 72.5728 201.224C85.3481 201.723 96.3748 206.981 107.041 212.068C111.393 214.144 115.893 216.291 120.479 218.104C121.359 218.451 122.252 218.783 123.156 219.096C123.391 219.177 123.513 219.432 123.432 219.664C123.367 219.849 123.196 219.964 123.011 219.964Z" fill="#BC6D69"/>
<path d="M68.9781 195.096C68.8037 195.096 68.637 194.992 68.5666 194.82C68.4745 194.592 68.5813 194.332 68.8089 194.237C68.8229 194.232 70.2448 193.631 70.2448 192.511L70.248 192.189C70.3026 184.872 69.9808 167.065 65.8376 159.773L65.7786 159.544C65.7802 159.513 65.8313 156.311 65.3756 152.229C65.3489 151.984 65.5266 151.765 65.7698 151.737C66.0188 151.735 66.2344 151.888 66.2636 152.131C66.386 153.245 66.4745 154.295 66.5338 155.236L67.136 154.401C67.2786 154.199 67.5589 154.155 67.7568 154.303C67.9557 154.445 68.0032 154.724 67.8573 154.921L66.6109 156.651C66.6734 158.087 66.6734 159.101 66.6718 159.439C70.8652 166.98 71.1933 184.841 71.138 192.195L71.136 192.511C71.136 194.232 69.2266 195.028 69.1464 195.063L68.9781 195.096Z" fill="#CC0001"/>
<path fill-rule="evenodd" clip-rule="evenodd" d="M86.4149 124.588C88.0243 127.096 90.6616 129.915 93.6776 132.56C99.7056 137.848 107.23 142.435 110.984 142.435C114.62 142.435 122.099 137.625 128.295 132.181C131.239 129.593 133.894 126.864 135.708 124.441L131.239 123.297C127.402 127.128 116.348 136.125 110.984 136.125C105.354 136.125 94.5696 127.128 90.7323 123.297C89.3389 123.695 87.8909 124.131 86.4149 124.588Z" fill="#00FF00"/>
<path d="M151.782 181.44L151.624 181.412C150.419 180.952 150.35 179.803 150.347 179.752C149.651 173.687 153.154 165.805 153.594 164.844C153.643 162.809 153.756 160.792 153.928 158.807L153.03 157.352C152.899 157.141 152.964 156.868 153.174 156.739C153.386 156.613 153.659 156.675 153.787 156.883L154.068 157.34C154.156 156.492 154.255 155.653 154.364 154.821C154.396 154.581 154.596 154.409 154.864 154.439C155.108 154.472 155.28 154.695 155.248 154.94C154.82 158.169 154.563 161.539 154.482 164.959L154.44 165.137C154.402 165.22 150.535 173.571 151.235 179.681C151.242 179.768 151.302 180.333 151.94 180.579C152.172 180.665 152.287 180.923 152.198 181.153C152.131 181.331 151.962 181.44 151.782 181.44Z" fill="#CC0001"/>
<path fill-rule="evenodd" clip-rule="evenodd" d="M95.0189 118.793C95.2922 119.904 96.1283 120.517 96.9069 120.852C96.3776 120.372 96.0162 119.743 95.9042 119.027L95.8856 118.883C95.5856 118.899 95.2936 118.865 95.0189 118.793ZM105.352 122.585C105.852 122.888 106.858 123.219 108.359 122.471L108.17 122.248C107.995 122.369 107.782 122.453 107.547 122.481C107.067 122.544 106.61 122.361 106.336 122.04C106.054 122.273 105.722 122.461 105.352 122.585ZM89.6216 109.767H133.02V110.645C132.826 110.711 132.623 110.757 132.41 110.785L132.382 110.789C132.61 111.055 132.767 111.375 132.82 111.731C132.967 112.671 132.352 113.549 131.399 113.873C131.459 114.52 130.942 115.105 130.211 115.197C130.038 115.219 129.866 115.211 129.706 115.177C129.78 117.385 127.976 119.339 125.472 119.656C124.698 119.752 123.943 119.685 123.251 119.479C122.928 120.14 122.242 120.639 121.383 120.748C120.694 120.835 120.03 120.648 119.532 120.28C119.354 121.164 118.556 121.885 117.507 122.019C116.643 122.128 115.823 121.809 115.316 121.245C115.216 121.367 115.088 121.472 114.94 121.549C115.326 121.932 116.079 122.476 117.263 122.5L117.42 122.644L117.256 122.787C115.886 122.763 115.036 122.096 114.632 121.669L114.451 121.703L114.114 121.708C113.654 122.653 112.67 123.369 111.443 123.524C110.352 123.661 109.31 123.323 108.584 122.687C106.688 123.664 105.467 123.055 104.974 122.691L104.672 122.743C103.342 122.912 102.096 122.296 101.514 121.292C101.076 121.548 100.568 121.724 100.016 121.795C99.2096 121.896 98.4282 121.755 97.7669 121.433C96.7922 121.216 95.0136 120.563 94.6616 118.675C93.8936 118.357 93.3162 117.705 93.1936 116.899C93.1536 116.651 93.1616 116.408 93.2083 116.175C92.4669 115.96 91.8883 115.381 91.7749 114.643C91.7069 114.203 91.8162 113.776 92.0549 113.419C91.6882 113.405 91.3749 113.159 91.3229 112.82L91.3176 112.677C90.3136 112.635 89.4562 111.961 89.3149 111.037C89.2456 110.579 89.3642 110.133 89.6216 109.767Z" fill="#4C466A"/>
<path fill-rule="evenodd" clip-rule="evenodd" d="M88.8549 11.424C89.2309 9.896 90.3802 9.052 91.4509 8.59067C90.7269 9.25067 90.2242 10.1173 90.0736 11.1039L90.0482 11.3026C89.6362 11.2813 89.2336 11.3253 88.8549 11.424ZM78.5522 34.1679C77.1666 33.1879 76.8218 31.9307 76.8776 30.8213C77.274 31.7973 78.1122 32.6013 79.2029 33.0187C78.8642 33.208 78.6216 33.5266 78.5629 33.9093L78.5522 34.1679ZM103.067 6.20531C103.755 5.79198 105.139 5.33731 107.203 6.36665L106.942 6.67328C106.702 6.50528 106.412 6.39066 106.088 6.34933C105.427 6.26533 104.8 6.51597 104.42 6.95864C104.034 6.63864 103.576 6.37998 103.067 6.20531ZM102.134 5.9893C100.304 5.75997 98.5882 6.6053 97.7896 7.9893C97.1869 7.63597 96.4896 7.39064 95.7296 7.29464C94.6202 7.15597 93.5469 7.3493 92.6362 7.79197C91.2936 8.09197 88.8482 8.988 88.3642 11.588C87.3069 12.0267 86.5136 12.9186 86.3442 14.028C86.2909 14.3693 86.3029 14.704 86.3642 15.0253C85.3442 15.32 84.5482 16.1173 84.3936 17.1306C84.3002 17.7386 84.4509 18.3253 84.7763 18.8146C84.2723 18.836 83.8429 19.1746 83.7709 19.6386L83.7629 19.836C82.3829 19.896 81.2042 20.8226 81.0109 22.0893C80.8829 22.916 81.2029 23.7079 81.8069 24.2679C81.4509 24.5479 81.1989 24.94 81.1309 25.3933C81.1096 25.5267 81.1069 25.6587 81.1189 25.788C78.9242 25.6507 76.9641 27.0493 76.6614 29.0213C76.6308 29.2253 76.6172 29.4266 76.624 29.6253C76.262 30.9666 76.2125 32.8666 78.0429 34.3053C77.9042 36.7706 81.2056 40.0533 85.5243 36.4373C88.2469 38.7666 91.4642 37.664 93.8549 35.68C94.8722 36.3547 96.5709 36.8733 99.1202 35.9093C101.483 39.1586 106.57 39.1613 108.851 35.592C109.036 35.6453 109.227 35.6773 109.427 35.6827L109.748 35.6666C110.307 36.5946 111.554 38.1066 113.883 38.5386C114.034 38.5653 114.18 38.464 114.206 38.3146C114.235 38.1626 114.134 38.0186 113.982 37.9893C111.968 37.6146 110.85 36.364 110.31 35.524C110.586 35.4133 110.836 35.2493 111.047 35.0453C111.74 36.268 113.038 37.1066 114.544 37.1399C116.375 37.1826 117.954 36.0266 118.53 34.3893C120.331 36.4533 125.763 36.128 126.81 34.4907C136.26 43.0907 146.772 33.3387 143.292 30.5853C143.67 30.3653 143.94 30.008 144.006 29.5786C144.082 29.088 143.87 28.62 143.486 28.3093C145.783 26.8773 144.687 23.3186 144.683 23.3066L144.412 23.1653L144.252 23.4066C144.256 23.4186 145.311 26.8466 143.075 28.0666L142.746 27.9693C143.167 27.5026 143.456 26.932 143.554 26.2946C143.839 24.4293 142.372 22.7026 140.282 22.4373L140.246 22.4333C140.559 22.068 140.775 21.6266 140.85 21.1386C141.047 19.8466 140.203 18.636 138.891 18.1907C138.975 17.3 138.264 16.4946 137.26 16.3693C137.022 16.34 136.784 16.352 136.563 16.3973C136.667 13.3613 134.188 10.6719 130.742 10.2373C129.678 10.1026 128.639 10.1973 127.686 10.4786C127.243 9.57329 126.298 8.88398 125.12 8.73598C124.167 8.61465 123.255 8.87196 122.574 9.37862C122.324 8.16396 121.23 7.1693 119.787 6.98663C118.599 6.8373 117.472 7.27466 116.774 8.052C116.636 7.88533 116.459 7.74131 116.255 7.63331C116.784 7.10398 117.82 6.35734 119.451 6.32667C119.575 6.32534 119.672 6.23597 119.67 6.1253C119.664 6.01863 119.566 5.92934 119.442 5.93201C117.558 5.96667 116.387 6.88131 115.83 7.46664L115.582 7.41866C115.424 7.4 115.268 7.39863 115.118 7.41463C114.484 6.11596 113.131 5.12799 111.446 4.91599C109.944 4.72666 108.514 5.19331 107.511 6.06931C104.904 4.72665 103.224 5.56001 102.55 6.06267C102.415 6.03067 102.274 6.00797 102.134 5.9893ZM95.4896 34.044C95.8602 34.7347 96.5829 35.2107 97.4202 35.2293C97.8296 35.24 98.2162 35.1386 98.5522 34.956C98.6309 35.12 98.7162 35.2813 98.8069 35.432C96.6429 36.216 95.1896 35.8426 94.2896 35.3C94.7269 34.9026 95.1282 34.476 95.4896 34.044Z" fill="#4C466A"/>
<path fill-rule="evenodd" clip-rule="evenodd" d="M79.0216 92.036C68.7005 91.5 67.8281 73.2053 73.788 73.6094C78.7509 73.9427 79.7896 77.1067 80.1202 78.4347C80.4482 79.764 79.0216 92.036 79.0216 92.036Z" fill="#DD8C79"/>
<path fill-rule="evenodd" clip-rule="evenodd" d="M143.092 92.036C153.415 91.5 154.286 73.2053 148.326 73.6094C143.364 73.9427 142.326 77.1067 141.996 78.4347C141.667 79.764 143.092 92.036 143.092 92.036Z" fill="#DD8C79"/>
<path fill-rule="evenodd" clip-rule="evenodd" d="M144.956 56.2241V79.6334C144.956 99.364 131.506 120.951 111.06 120.951C90.6162 120.951 77.1666 99.364 77.1666 79.6334V56.2241C77.1666 11.6827 144.956 11.6827 144.956 56.2241Z" fill="#DD8C79"/>
<path fill-rule="evenodd" clip-rule="evenodd" d="M111.06 120.951C105.443 120.951 100.212 120.215 95.7869 117.441C93.3562 115.92 91.2655 113.156 89.2549 111.027C89.2829 111.005 89.6509 110.752 90.3442 111.161C91.0629 111.585 96.5469 116.768 111.06 116.768C125.574 116.768 131.058 111.585 131.778 111.161C132.47 110.752 132.839 111.005 132.864 111.027C130.855 113.156 128.764 115.92 126.334 117.441C121.908 120.215 116.678 120.951 111.06 120.951Z" fill="#4C466A"/>
<path fill-rule="evenodd" clip-rule="evenodd" d="M127.019 67.12H127.022C129.484 67.12 131.5 69.136 131.5 71.6V74.324C131.5 76.7893 129.484 78.8054 127.022 78.8054H127.019C124.556 78.8054 122.542 76.7893 122.542 74.324V71.6C122.542 69.136 124.556 67.12 127.019 67.12Z" fill="#3E3155"/>
<path fill-rule="evenodd" clip-rule="evenodd" d="M95.1016 67.12H95.0989C92.6362 67.12 90.6202 69.136 90.6202 71.6V74.324C90.6202 76.7893 92.6362 78.8054 95.0989 78.8054H95.1016C97.5656 78.8054 99.5816 76.7893 99.5816 74.324V71.6C99.5816 69.136 97.5656 67.12 95.1016 67.12Z" fill="#3E3155"/>
<path fill-rule="evenodd" clip-rule="evenodd" d="M111.968 72.036C112.022 72.3427 112 72.6734 111.896 72.912C111.162 74.588 107.95 81.7827 107.979 82.7347C108.095 83.964 111.535 84.8174 113.378 84.8827C114.518 84.9214 113.175 88.88 111.312 88.3414C109.326 87.768 106.388 85.264 106.172 82.9173C106.068 81.784 108.136 76.7627 109.628 73.38C110.012 72.5134 109.774 71.6307 109.631 71.0494C109.263 69.5387 111.794 71.024 111.968 72.036Z" fill="#BC6D69"/>
<path d="M146.367 86.2213C146.15 86.2213 145.96 86.0627 145.927 85.8427C145.63 83.8573 145.962 81.0387 146.794 78.4906C147.555 76.148 148.43 75.8 149.022 75.8987C149.956 76.0707 150.524 77.5027 150.435 79.464C150.426 79.708 150.222 79.94 149.972 79.888C149.724 79.8773 149.534 79.6693 149.547 79.424C149.623 77.7573 149.148 76.828 148.863 76.776C148.714 76.784 148.198 77.06 147.64 78.7667C147.458 79.328 147.3 79.9066 147.17 80.4866C147.82 80.748 148.886 81.516 148.844 83.7427C148.839 83.984 148.64 84.18 148.399 84.18H148.388C148.143 84.1747 147.947 83.9706 147.952 83.724C147.982 82.1773 147.398 81.5933 146.99 81.3733C146.704 82.972 146.631 84.528 146.807 85.7093C146.844 85.9533 146.678 86.18 146.432 86.216L146.367 86.2213Z" fill="#BC6D69"/>
<path d="M75.7532 86.2213L75.6876 86.216C75.4442 86.18 75.2766 85.9533 75.313 85.7093C75.4896 84.528 75.4166 82.972 75.1328 81.3747C74.7213 81.5987 74.138 82.1853 74.1698 83.724C74.1734 83.9706 73.9766 84.1747 73.7322 84.18C73.4625 84.16 73.2818 83.9867 73.2776 83.7427C73.2344 81.516 74.2994 80.748 74.9537 80.4866C74.8218 79.9066 74.6646 79.328 74.4808 78.768C73.925 77.06 73.401 76.7867 73.2584 76.776C72.9729 76.828 72.5 77.7573 72.5761 79.424C72.5876 79.6693 72.3974 79.8773 72.151 79.888C71.8933 79.932 71.6953 79.708 71.6865 79.464C71.5969 77.5027 72.1646 76.0707 73.098 75.8987C73.6985 75.8 74.5656 76.148 75.3281 78.492C75.563 79.2107 75.7584 79.9493 75.9094 80.6853L75.9198 80.7347C76.2985 82.5907 76.4052 84.4267 76.1942 85.8427C76.1614 86.0627 75.9713 86.2213 75.7532 86.2213Z" fill="#BC6D69"/>
<path d="M111.06 94.344C107.527 94.344 104.192 93.972 101.419 93.2667C100.943 93.1467 100.654 92.6613 100.776 92.1853C100.896 91.7066 101.388 91.4147 101.86 91.5413C107.046 92.8573 115.079 92.8573 120.263 91.5413C120.734 91.4147 121.226 91.7066 121.347 92.1853C121.468 92.6613 121.179 93.1467 120.703 93.2667C117.93 93.972 114.596 94.344 111.06 94.344Z" fill="#BC6D69"/>
<path d="M111.06 98.2974C109.799 98.2974 108.547 98.248 107.339 98.1507C106.85 98.112 106.483 97.6827 106.524 97.1934C106.563 96.7 107.005 96.3307 107.481 96.3747C109.803 96.56 112.318 96.56 114.639 96.3747C115.13 96.328 115.56 96.7 115.597 97.1934C115.637 97.6827 115.271 98.112 114.781 98.1507C113.573 98.248 112.323 98.2974 111.06 98.2974Z" fill="#BC6D69"/>
<path fill-rule="evenodd" clip-rule="evenodd" d="M144.902 26.12C156.41 39.5053 146.102 55.028 146.102 74.008C146.102 74.008 144.954 73.9574 144.954 77.8827C141.363 74.18 141.244 62.3827 143.392 52.8494C146.559 38.7894 126.527 31.7787 111.06 31.7827C95.5948 31.7787 75.563 38.7894 78.7295 52.8494C80.8762 62.3827 80.7575 74.18 77.1666 77.8827C77.1666 73.9574 76.0187 74.008 76.0187 74.008C76.0187 55.028 65.7124 39.5053 77.2192 26.12C77.3755 22.748 81.5402 19.1933 87.0828 16.3147C102.542 8.28399 119.579 8.28399 135.038 16.3147C140.58 19.1933 144.746 22.748 144.902 26.12Z" fill="#4C466A"/>
<path fill-rule="evenodd" clip-rule="evenodd" d="M77.2193 26.12C77.3489 23.32 80.2429 20.3947 84.3935 17.836C81.2655 24.1187 83.9989 35.116 83.9989 35.116C76.9406 33.504 77.2193 26.12 77.2193 26.12Z" fill="#595176"/>
<path fill-rule="evenodd" clip-rule="evenodd" d="M144.902 26.12C148.248 30.0107 149.748 34.0814 150.196 38.3667C147.782 37.5787 145.602 40.8441 144.44 42.3934C143.027 44.2787 143.084 46.148 143.084 46.148H143.082C141.992 43.0387 139.586 40.4373 136.395 38.3373L136.396 38.336C138.251 38.8054 141.895 35.792 144.156 32.208C146.336 28.7587 145.004 26.3 144.902 26.12Z" fill="#F9CDA6"/>
<path fill-rule="evenodd" clip-rule="evenodd" d="M118.758 63.3547C117.623 62.7707 116.959 61.1827 117.102 60.8613C117.159 60.7293 117.287 60.76 117.594 60.8147C118.918 61.0467 120.107 60.8147 121.388 60.672C123.727 60.4094 128.128 59.964 131.284 59.9613C135.776 59.9587 136.208 61.404 137.127 62.8774C137.127 62.8774 137.399 63.4614 136.54 63.208C135.684 62.956 135.834 62.6013 133.664 62.4147C132.084 62.276 126.238 63.1267 123.178 63.5973C121.534 63.852 120.383 64.188 118.758 63.3547Z" fill="#3E3155"/>
<path fill-rule="evenodd" clip-rule="evenodd" d="M103.467 63.3547C104.602 62.7707 105.266 61.1827 105.126 60.8613C105.066 60.7293 104.939 60.76 104.634 60.8147C103.307 61.0467 102.12 60.8147 100.839 60.672C98.4989 60.4094 94.0962 59.964 90.9429 59.9613C86.4482 59.9587 86.0176 61.404 85.0989 62.8774C85.0989 62.8774 84.8269 63.4614 85.6856 63.208C86.5416 62.956 86.3936 62.6013 88.5629 62.4147C90.1416 62.276 95.9869 63.1267 99.0469 63.5973C100.694 63.852 101.843 64.188 103.467 63.3547Z" fill="#3E3155"/>
<path d="M87.0055 108.861C86.8735 108.861 86.7442 108.803 86.6548 108.693C82.3122 103.183 79.1122 96.1227 77.6488 88.8094C77.5988 88.5707 77.7551 88.3361 77.9975 88.2867C78.2482 88.2347 78.4735 88.3947 78.5215 88.6374C79.9602 95.8121 83.0962 102.74 87.3548 108.139C87.5082 108.333 87.4735 108.613 87.2815 108.765L87.0055 108.861Z" fill="white"/>
</g>
<defs>
<clipPath id="clip0_1_1358">
<rect width="224" height="234" fill="white"/>
</clipPath>
</defs>
</svg>
