<svg width="224" height="234" viewBox="0 0 224 234" fill="none" xmlns="http://www.w3.org/2000/svg">
<g clip-path="url(#clip0_1_1358)">
<path fill-rule="evenodd" clip-rule="evenodd" d="M41.5973 208.787C38.72 209.089 34.804 208.292 34.504 204.033C34.2067 199.776 38.5853 199.525 38.668 199.659C38.752 199.79 41.7773 205.202 41.7773 205.314L41.5973 208.787Z" fill="#4C466A"/>
<path fill-rule="evenodd" clip-rule="evenodd" d="M92.7388 147.085H127.356V130.468C129.488 129.763 131.737 128.901 131.737 128.901L130.299 127.091C130.299 127.091 127.356 125.801 127.356 122.041V90.0627H92.7388V122.041C92.7388 125.801 89.7948 127.091 89.7948 127.091L88.3574 128.901C88.3574 128.901 90.6054 129.763 92.7388 130.468V147.085Z" fill="#FCD1C8"/>
<path fill-rule="evenodd" clip-rule="evenodd" d="M92.7373 111.744V122.041C92.7373 123.637 92.2066 124.791 91.5959 125.585C96.9786 130.107 110.736 138.407 125.077 120.947L103.099 108.088C103.099 108.088 97.356 110.143 92.7373 111.744Z" fill="#F9A8A1"/>
<path fill-rule="evenodd" clip-rule="evenodd" d="M57.3401 138.471C58.7174 137.804 76.6521 130.839 89.7947 127.091C93.6294 130.919 104.416 139.916 110.048 139.916C115.409 139.916 126.465 130.919 130.299 127.091L161.401 135.044V196.824L160.371 208.659H62.2414L57.3401 138.471Z" fill="#FF0001"/>
<path fill-rule="evenodd" clip-rule="evenodd" d="M73.7506 208.659H62.2413L60.7546 187.364C61.408 186.187 61.8186 185.471 61.8186 185.471C61.8186 185.471 65.692 178.931 87.2773 186.888C108.864 194.844 131.591 195.278 147.713 180.192C163.837 165.107 161.104 199.239 160.161 199.239C159.217 199.239 119.619 203.953 114.527 204.896C111.483 205.459 90.5266 207.637 73.7506 208.659Z" fill="#CC0001"/>
<path fill-rule="evenodd" clip-rule="evenodd" d="M93.144 191.028C93.144 191.028 88.1414 190.171 82.324 190.576C76.512 190.981 68.2614 192.424 68.2614 192.424L65.332 197.337L68.3974 206.893C68.3974 206.893 71.7774 208.38 73.4454 207.252C75.1134 206.125 93.64 196.165 93.144 191.028Z" fill="#FCD1C8"/>
<path fill-rule="evenodd" clip-rule="evenodd" d="M68.0401 198.444C68.0401 198.444 68.4427 201.847 71.4187 205.453L79.8014 203.017L107.928 204.729L122.103 223.32C122.103 223.32 119.828 223.569 107.479 227.627C95.1281 231.684 85.9308 236.732 68.5334 238.085C51.1347 239.437 46.7148 236.732 45.0028 228.709C43.2908 220.687 36.4387 209.508 36.8894 198.78C37.3401 188.052 54.7388 187.96 54.7388 187.96C54.7388 187.96 68.3534 190.033 68.0401 198.444Z" fill="#FCD1C8"/>
<path fill-rule="evenodd" clip-rule="evenodd" d="M109.712 207.069L122.103 223.32C122.103 223.32 120.059 223.547 109.328 227.023C107.895 216.597 95.0454 211.284 95.0454 211.284L108.244 206.724C108.744 206.837 109.233 206.953 109.712 207.069Z" fill="#F9A8A1"/>
<path fill-rule="evenodd" clip-rule="evenodd" d="M37.384 205.168C36.996 203.039 36.8013 200.901 36.8893 198.78C37.2173 190.956 46.5586 188.789 51.5933 188.19L56.5773 194.438C56.5773 194.438 43.2093 197.32 37.384 205.168Z" fill="#F9A8A1"/>
<path fill-rule="evenodd" clip-rule="evenodd" d="M131.184 197.877L134.443 195.919C134.443 195.919 138.397 193.82 142.815 190.575C147.231 187.331 150.928 186.428 155.616 187.511C160.304 188.594 161.401 194.09 161.401 194.09C161.401 194.09 158.231 202.206 155.347 200.851C152.461 199.5 131.184 197.877 131.184 197.877Z" fill="#FCD1C8"/>
<path fill-rule="evenodd" clip-rule="evenodd" d="M184.335 190.736C184.335 190.736 181.537 212.265 174.392 222.156L150.853 195.828C150.853 195.828 149.767 189.904 150.845 184.787C151.921 179.669 151.921 179.669 151.921 179.669C151.921 179.669 172.836 175.971 173.827 176.513C174.819 177.055 184.287 185.167 184.335 190.736Z" fill="#FCD1C8"/>
<path fill-rule="evenodd" clip-rule="evenodd" d="M184.335 190.736C184.335 190.736 184.187 191.869 183.875 193.735C174.92 183.483 162.704 182.847 162.704 182.847L166.523 177.265C170.316 176.699 173.459 176.312 173.827 176.513C174.819 177.055 184.287 185.167 184.335 190.736Z" fill="#F9A8A1"/>
<path fill-rule="evenodd" clip-rule="evenodd" d="M185.555 190.016C185.441 173.173 179.78 139.984 161.401 135.044C161.401 135.044 153.64 146.203 153.097 168.739C153.097 168.739 149.132 177.214 149.853 183.524C149.853 183.524 149.897 184.425 150.845 184.787C150.845 184.787 173.157 177.575 184.335 190.736C184.335 190.736 185.575 190.985 185.555 190.016Z" fill="#FF0001"/>
<path fill-rule="evenodd" clip-rule="evenodd" d="M185.555 190.016C185.545 188.653 185.499 187.181 185.413 185.628C169.465 172.421 149.791 181.473 149.769 181.483C149.755 182.18 149.777 182.864 149.853 183.524C149.853 183.524 149.897 184.425 150.845 184.787C150.845 184.787 173.157 177.575 184.335 190.736C184.335 190.736 185.575 190.985 185.555 190.016Z" fill="#00FF00"/>
<path fill-rule="evenodd" clip-rule="evenodd" d="M57.34 138.471C57.34 138.471 42.3773 144.86 39.7627 158.833C37.1493 172.807 33.8733 198.175 34.504 204.033C38.3387 195.896 64.984 190.132 68.04 198.444C68.04 198.444 69.752 197.744 69.752 196.301C69.752 194.859 70.1533 171.909 65.2866 163.347C65.2866 163.347 65.6493 143.339 57.34 138.471Z" fill="#FF0001"/>
<path fill-rule="evenodd" clip-rule="evenodd" d="M34.6441 197.156C34.4241 200.245 34.3587 202.669 34.5041 204.033C38.3387 195.896 64.9841 190.132 68.0401 198.444C68.0401 198.444 69.752 197.744 69.752 196.301C69.752 196.026 69.7667 194.968 69.7574 193.375C49.4067 184.801 34.6521 197.147 34.6441 197.156Z" fill="#00FF00"/>
<path fill-rule="evenodd" clip-rule="evenodd" d="M93.1441 191.028C93.1441 191.028 108.559 194.633 120.911 195.896C133.26 197.159 152.464 192.831 163.1 199.14C173.739 205.453 175.903 213.656 175.903 217.351C175.903 221.047 172.656 227 164.272 228.171C155.889 229.341 135.335 228.621 119.377 222.311C103.421 216 89.3587 206.083 71.4187 205.453L93.1441 191.028Z" fill="#FCD1C8"/>
<path d="M163.1 199.585L162.873 199.523C159.564 197.563 155.431 196.643 150.903 196.271L150.731 196.255C145.853 195.867 140.533 196.099 135.304 196.328L134.403 196.367C134.129 196.375 133.949 196.187 133.939 195.941C133.928 195.695 134.119 195.487 134.364 195.476L135.264 195.437C140.353 195.216 145.528 194.989 150.321 195.331C150.076 193.706 149.509 188.967 150.408 184.695C150.46 184.455 150.689 184.302 150.936 184.351C151.177 184.401 151.331 184.637 151.28 184.878C150.379 189.156 151.031 194.077 151.236 195.402C155.78 195.801 159.947 196.752 163.327 198.757C163.537 198.883 163.608 199.156 163.483 199.367C163.4 199.508 163.253 199.585 163.1 199.585ZM122.072 223.755L121.925 223.731C121.011 223.411 120.103 223.076 119.212 222.724C114.6 220.901 110.085 218.747 105.72 216.664C94.592 211.356 84.0814 206.345 71.4067 205.899C71.2694 205.885 66.1414 205.859 61.34 208.409C61.1267 208.528 60.8547 208.445 60.7387 208.226C60.6227 208.008 60.704 207.739 60.9227 207.625C64.7933 205.567 68.7747 205.124 70.52 205.029C67.996 201.641 67.6134 198.631 67.5974 198.497C67.5694 198.252 67.744 198.031 67.9867 198.002C68.2293 197.968 68.452 198.145 68.4813 198.39C68.4853 198.421 68.9027 201.621 71.6374 205.014C84.4107 205.514 95.436 210.775 106.103 215.86C110.455 217.937 114.956 220.083 119.54 221.897C120.421 222.244 121.315 222.575 122.217 222.888C122.449 222.968 122.575 223.224 122.492 223.456C122.428 223.639 122.256 223.755 122.072 223.755Z" fill="#F9A8A1"/>
<path d="M150.845 185.232L150.687 185.202C149.481 184.744 149.411 183.596 149.408 183.547C148.712 177.478 152.215 169.596 152.655 168.636C152.705 166.604 152.819 164.585 152.991 162.601L152.091 161.145C151.96 160.935 152.025 160.661 152.235 160.531C152.447 160.406 152.717 160.468 152.848 160.677L153.131 161.132C153.217 160.287 153.316 159.447 153.425 158.614C153.457 158.372 153.665 158.2 153.925 158.232C154.168 158.263 154.34 158.487 154.309 158.731C153.883 161.965 153.625 165.336 153.544 168.751L153.501 168.929C153.463 169.013 149.597 177.364 150.296 183.473C150.301 183.56 150.364 184.125 151.003 184.371C151.233 184.459 151.348 184.716 151.26 184.945C151.193 185.124 151.024 185.232 150.845 185.232ZM68.04 198.889C67.8667 198.889 67.7 198.785 67.6293 198.613C67.536 198.385 67.644 198.125 67.8707 198.031C67.8853 198.025 69.3067 197.423 69.3067 196.301L69.3093 195.978C69.3627 188.663 69.0427 170.856 64.9 163.565L64.84 163.339C64.84 163.317 64.8613 162.151 64.7747 160.336V160.323C64.7187 159.124 64.6173 157.643 64.436 156.023C64.4107 155.778 64.588 155.559 64.8307 155.529C65.0773 155.523 65.296 155.68 65.3227 155.924C65.4467 157.037 65.536 158.087 65.5947 159.025L66.1973 158.194C66.34 157.992 66.62 157.948 66.816 158.094C67.0173 158.236 67.0627 158.514 66.9187 158.714L65.672 160.443C65.736 161.88 65.736 162.893 65.7333 163.232C69.9267 170.772 70.2547 188.632 70.1987 195.987L70.1973 196.301C70.1973 198.024 68.2893 198.823 68.208 198.856L68.04 198.889Z" fill="#CC0001"/>
<path fill-rule="evenodd" clip-rule="evenodd" d="M85.4761 128.381C87.0854 130.889 89.7254 133.708 92.7374 136.351C98.7667 141.64 106.292 146.228 110.048 146.228C113.681 146.228 121.159 141.416 127.356 135.973C130.299 133.387 132.955 130.659 134.769 128.235L130.299 127.091C126.465 130.919 115.409 139.917 110.048 139.917C104.416 139.917 93.6294 130.919 89.7947 127.091C88.4001 127.489 86.9521 127.921 85.4761 128.381Z" fill="#00FF00"/>
<path fill-rule="evenodd" clip-rule="evenodd" d="M81.5173 93.58C71.4253 92.2027 72.0773 74.168 77.896 75.0547C82.7413 75.792 83.5 78.984 83.7133 80.316C83.9267 81.6467 81.5173 93.58 81.5173 93.58Z" fill="#FCD1C8"/>
<path fill-rule="evenodd" clip-rule="evenodd" d="M141.683 98.512C151.863 98.8373 154.227 80.9467 148.341 80.848C143.441 80.7693 142.157 83.7893 141.727 85.068C141.296 86.344 141.683 98.512 141.683 98.512Z" fill="#FCD1C8"/>
<path fill-rule="evenodd" clip-rule="evenodd" d="M146.463 63.5L144.533 86.4893C142.907 105.863 127.921 125.948 107.845 124.263C87.7694 122.577 76.3427 100.276 77.9707 80.9013L79.9001 57.912C83.5721 14.1774 150.135 19.7627 146.463 63.5Z" fill="#FCD1C8"/>
<path fill-rule="evenodd" clip-rule="evenodd" d="M80.2493 55.06C80.4213 53.9574 80.6266 52.8827 80.8786 51.848C93.1186 45.1227 142.953 41.5827 115.431 51.2893C93.3066 59.092 83.7626 56.82 80.2493 55.06Z" fill="#F9A8A1"/>
<path fill-rule="evenodd" clip-rule="evenodd" d="M124.047 72.5145H124.048C126.731 72.7034 128.741 74.7075 128.515 76.9691L128.267 79.469C128.04 81.7317 125.663 83.4245 122.983 83.2356L122.981 83.2334C120.299 83.0445 118.289 81.0392 118.515 78.7788L118.764 76.2778C118.988 74.0174 121.367 72.3246 124.047 72.5145Z" fill="#3E3155"/>
<path fill-rule="evenodd" clip-rule="evenodd" d="M94.048 70.5053C91.628 70.3013 89.4827 72.1147 89.2787 74.5333L89.0534 77.2107C88.852 79.628 90.6654 81.7733 93.0854 81.976C95.5014 82.18 97.648 80.3667 97.8507 77.948L98.0747 75.2733C98.2787 72.8507 96.4654 70.708 94.048 70.5053Z" fill="#3E3155"/>
<path fill-rule="evenodd" clip-rule="evenodd" d="M109.597 74.3613C109.648 74.708 109.613 75.08 109.488 75.3467C108.611 77.2107 104.761 85.216 104.768 86.292C104.86 87.6773 108.707 88.7467 110.78 88.88C112.067 88.9587 110.428 93.3787 108.345 92.7107C106.125 92.004 102.895 89.088 102.725 86.4373C102.644 85.1613 105.129 79.568 106.919 75.8013C107.379 74.836 107.139 73.8333 106.996 73.1773C106.629 71.4613 109.431 73.216 109.597 74.3613Z" fill="#F9A8A1"/>
<path d="M145.415 93.08C145.181 93.08 144.984 92.8987 144.971 92.664C144.843 90.6867 145.4 87.948 146.425 85.5147C147.369 83.276 148.259 82.992 148.836 83.1494C149.743 83.396 150.184 84.8507 149.936 86.7733C149.904 87.0147 149.692 87.18 149.436 87.1587C149.195 87.1253 149.02 86.9027 149.052 86.6587C149.261 85.0333 148.877 84.0827 148.603 84.0107C148.479 83.9733 147.932 84.236 147.247 85.8613C147.023 86.3947 146.82 86.948 146.644 87.5053C147.264 87.8187 148.244 88.664 148.02 90.8427C147.995 91.088 147.775 91.2573 147.531 91.2387C147.285 91.2147 147.108 90.996 147.133 90.752C147.288 89.2533 146.772 88.6293 146.391 88.3773C145.981 89.916 145.783 91.4347 145.859 92.6067C145.875 92.8507 145.689 93.064 145.443 93.0787L145.415 93.08Z" fill="#F9A8A1"/>
<path d="M111.515 105.215C110.843 105.215 110.155 105.184 109.456 105.127H109.451C107.168 104.935 105.037 104.451 103.292 103.724C102.836 103.536 102.621 103.015 102.811 102.56C102.999 102.105 103.521 101.889 103.975 102.079C105.531 102.725 107.528 103.177 109.597 103.351H109.6C111.673 103.523 113.72 103.411 115.357 103.033C115.835 102.921 116.315 103.224 116.425 103.703C116.536 104.181 116.239 104.66 115.757 104.771C114.481 105.065 113.04 105.215 111.515 105.215Z" fill="#F9A8A1"/>
<path fill-rule="evenodd" clip-rule="evenodd" d="M120.279 68.3734C120.279 68.3734 119.168 68.508 118.241 67.9254C117.313 67.3414 116.725 65.5854 116.828 65.2147C116.929 64.844 117.381 65.5187 119.383 64.9294C121.351 64.348 128.479 63.2734 132.529 68.7827C133.225 69.732 132.517 70.296 131.539 69.8094C130.561 69.3227 126.501 66.4867 120.279 68.3734Z" fill="#0000FF"/>
<path fill-rule="evenodd" clip-rule="evenodd" d="M109.804 100.953C109.804 100.953 106.933 100.713 104.759 100.531C102.585 100.348 101.639 101.383 100.892 102.144C100.147 102.908 99.7213 103.483 98.8067 104.536C97.892 105.588 97.3013 107.297 98.316 108.892C99.3307 110.484 100.525 111.857 101.173 112.684C104.012 116.3 107.681 110.924 105.583 106.773L109.288 107.084L112.993 107.396C110.232 111.14 112.952 117.051 116.356 113.959C117.132 113.252 118.539 112.096 119.805 110.695C121.072 109.293 120.772 107.511 120.047 106.319C119.321 105.127 118.999 104.489 118.391 103.612C117.783 102.736 117.019 101.56 114.845 101.377C112.671 101.195 109.804 100.953 109.804 100.953ZM120.201 97.604H120.203L120.345 97.7267C123.781 100.659 127.412 103.78 127.412 103.78C127.412 103.78 129.425 105.395 131.488 102.432C133.551 99.468 141.083 91.9293 141.98 89.4347C142.725 87.356 143.468 71.7053 143.468 71.7053L145.053 80.2787C144.857 82.6227 144.263 89.644 143.96 91.4373C140.889 109.591 126.548 127.125 107.739 125.547C88.9253 123.968 77.7094 104.289 77.7094 85.8747C77.7094 84.0573 78.296 77.0347 78.4907 74.6907L81.4853 66.5027C81.4853 66.5027 79.6053 82.0587 79.996 84.2333C80.4653 86.8413 86.6333 95.5293 88.1733 98.7947C89.7147 102.061 91.9693 100.804 91.9693 100.804C91.9693 100.804 96.0694 98.3307 99.944 96.0133L100.107 95.9173L100.108 95.916C103.452 93.9293 103.968 94.1613 107.547 94.46L110.327 94.6947L113.109 94.9293C116.687 95.2307 117.235 95.0853 120.201 97.604Z" fill="#0000FF"/>
<path fill-rule="evenodd" clip-rule="evenodd" d="M146.777 80.94C146.777 80.94 143.241 80.748 142.216 91.2494C142.216 91.2494 141.632 90.7734 141.564 86.7454C141.496 82.7187 140.539 74.296 140.539 74.296C140.539 74.296 137.501 72.46 137.559 69.8467C137.616 67.232 138.405 58.0574 136.293 54.5774C136.293 54.5774 142.9 50.8427 145.556 49.9867C145.556 49.9867 149.583 51.6187 151.255 56.496C152.925 61.3734 148.773 71.724 146.777 80.94Z" fill="#0000FF"/>
<path fill-rule="evenodd" clip-rule="evenodd" d="M77.7146 85.5654C77.7146 85.5654 80.1947 75.456 79.4547 85.9814C79.4547 85.9814 80.1093 85.608 80.848 81.6494C81.5853 77.6894 82.0093 69.2187 82.0093 69.2187C82.0093 69.2187 85.312 67.916 85.6907 65.328C86.0693 62.74 86.8213 53.5627 89.4826 50.484C89.4826 50.484 85.5173 46.024 83.04 44.74C83.04 44.74 78.7987 45.6773 76.3347 50.2053C73.8747 54.736 77.2826 76.1454 77.7146 85.5654Z" fill="#0000FF"/>
<path fill-rule="evenodd" clip-rule="evenodd" d="M82.5827 44.8733L82.564 44.8773L82.528 44.892L82.4934 44.9027L82.468 44.9107L82.4187 44.928L82.4067 44.932L82.3427 44.956L82.3387 44.9573L82.2761 44.98L82.256 44.9893L82.2067 45.0053L82.168 45.02L82.1347 45.0333L82.0774 45.0573L82.0614 45.0627L81.9854 45.0933L81.9814 45.096L81.9067 45.1253L81.8814 45.1347L81.8267 45.1613L81.7801 45.18L81.7441 45.196L81.6761 45.2267L81.6587 45.2347L81.5734 45.2733L81.568 45.2747L81.484 45.3147L81.4574 45.328L81.3934 45.356L81.3427 45.3813L81.3401 45.384L81.2427 45.432L81.228 45.44L81.2067 45.4493L81.1134 45.4973L81.1081 45.5L81.0174 45.5493L80.9867 45.5627L80.8694 45.6267L80.864 45.6293L80.8187 45.656L80.7387 45.7L80.7174 45.7133L80.616 45.772L80.6107 45.7747L80.5121 45.8333L80.4827 45.8507L80.4081 45.896L80.3507 45.932L80.3401 45.9387L80.2227 46.0133L80.2187 46.0147L80.1974 46.028L80.0907 46.0987L80.0854 46.1013C79.9614 46.184 79.8347 46.2707 79.7094 46.3613L79.6774 46.3827L79.652 46.4013L79.5427 46.484L79.5401 46.4867L79.4027 46.5893L79.392 46.596L79.2894 46.68L79.2614 46.7L79.2094 46.7427L79.1227 46.812L79.12 46.8147L78.984 46.928L78.9827 46.9307L78.8507 47.044L78.8427 47.052L78.7587 47.1253L78.7414 47.1413L78.6694 47.2067L78.648 47.2267L78.5627 47.3067L78.5361 47.3307L78.4254 47.44L78.424 47.4427L78.3827 47.4787L78.288 47.5733L78.2721 47.588L78.1654 47.7013L78.1454 47.7213L78.092 47.7787L78.0067 47.8693L78.0027 47.872L77.8694 48.0173V48.02L77.7361 48.1733L77.728 48.1813L77.6094 48.32L77.588 48.348L77.484 48.4747L77.4547 48.5133L77.332 48.6693L77.3307 48.6707L77.2094 48.8307L77.1827 48.8693L77.0814 49.0107L77.06 49.0413L76.9694 49.1707L76.932 49.224L76.816 49.3973V49.3987L76.6974 49.588L76.6867 49.604L76.5867 49.7693L76.5587 49.8147C76.4827 49.9427 76.4094 50.072 76.3347 50.2053C75.8361 51.1267 75.5787 52.7467 75.488 54.82C77.7414 55.744 80.8974 55.924 85.2121 54.0573C90.4494 51.7933 87.364 48.132 82.5827 44.8733Z" fill="black" fill-opacity="0.2"/>
<path fill-rule="evenodd" clip-rule="evenodd" d="M136.293 54.5773C127.476 42.26 97.0747 60.304 79.8013 52.4533C63.868 45.212 63.6547 5.54933 87.1813 22.9707C87.1813 22.9707 109.759 12.2347 132.585 25.9213C128.7 19.6373 141.867 24.5453 143.995 37.072C156.132 22.4147 156.345 57.5333 136.293 54.5773Z" fill="#0000FF"/>
<path fill-rule="evenodd" clip-rule="evenodd" d="M68.764 34.1173C67.764 25.5147 70.6893 17.56 78.296 18.708C81.1973 41.5853 100.795 44.0973 100.795 44.0973C81.1987 47.592 72.4187 39.684 68.764 34.1173Z" fill="white" fill-opacity="0.2"/>
<path d="M112.6 108.432C111.481 108.432 110.335 108.383 109.184 108.287H109.181C107.832 108.175 106.496 107.995 105.209 107.757C104.725 107.668 104.407 107.203 104.495 106.719C104.585 106.235 105.043 105.921 105.533 106.005C106.761 106.233 108.04 106.403 109.329 106.512H109.335C110.629 106.62 111.921 106.669 113.165 106.645C113.657 106.669 114.061 107.031 114.071 107.523C114.079 108.015 113.685 108.419 113.193 108.427C112.996 108.429 112.799 108.432 112.6 108.432Z" fill="#F9A8A1"/>
<path fill-rule="evenodd" clip-rule="evenodd" d="M98.0627 66.5133C98.0627 66.5133 99.0067 66.8733 99.944 66.5667C100.884 66.2573 101.783 64.852 101.775 64.504C101.767 64.156 101.223 64.6507 99.6 63.6933C98.008 62.7547 92.004 60.2533 87.2546 64.184C86.4333 64.864 86.9307 65.5133 87.892 65.3013C88.856 65.0907 93.0333 63.5 98.0627 66.5133Z" fill="#0000FF"/>
<path d="M79.8014 52.8987L79.616 52.8573C72.364 49.5627 68.3507 39.6813 68.1347 31.6253C67.972 25.4813 69.9187 20.752 73.34 18.968C75.7774 17.7 80.1574 17.2893 87.236 22.4587C89.7694 21.3533 111.32 12.6507 132.815 25.5387C133.025 25.6667 133.092 25.94 132.968 26.1507C132.84 26.3613 132.568 26.4293 132.356 26.3027C109.995 12.896 87.5974 23.268 87.372 23.3747C87.2227 23.444 87.0493 23.428 86.916 23.3307C81.508 19.3253 76.96 18.0907 73.752 19.7587C70.6373 21.38 68.8707 25.8067 69.0267 31.6013C69.2333 39.38 73.0653 48.9027 79.9827 52.048C80.208 52.1493 80.3067 52.4133 80.204 52.6373C80.132 52.8013 79.9707 52.8987 79.8014 52.8987Z" fill="white"/>
</g>
<defs>
<clipPath id="clip0_1_1358">
<rect width="224" height="234" fill="white"/>
</clipPath>
</defs>
</svg>
