<svg width="224" height="234" viewBox="0 0 224 234" fill="none" xmlns="http://www.w3.org/2000/svg">
<g clip-path="url(#clip0_1_1358)">
<path fill-rule="evenodd" clip-rule="evenodd" d="M41.5338 205.995C38.6562 206.298 34.7396 205.5 34.4401 201.242C34.1432 196.984 38.5208 196.734 38.6041 196.866C38.6874 196.998 41.7136 202.41 41.7136 202.523L41.5338 205.995Z" fill="#4C466A"/>
<path fill-rule="evenodd" clip-rule="evenodd" d="M92.6747 144.293H127.292V127.676C129.424 126.971 131.673 126.109 131.673 126.109L130.235 124.299C130.235 124.299 127.292 123.009 127.292 119.248V87.2708H92.6747V119.248C92.6747 123.009 89.7307 124.299 89.7307 124.299L88.2933 126.109C88.2933 126.109 90.5413 126.971 92.6747 127.676V144.293Z" fill="#FCD1C8"/>
<path fill-rule="evenodd" clip-rule="evenodd" d="M92.6733 108.952V119.248C92.6733 120.846 92.1426 121.999 91.5306 122.793C96.9146 127.315 110.672 135.613 125.013 118.153L103.035 105.296C103.035 105.296 97.292 107.351 92.6733 108.952Z" fill="#F9A8A1"/>
<path fill-rule="evenodd" clip-rule="evenodd" d="M57.276 135.679C58.6536 135.012 76.5885 128.047 89.7307 124.299C93.5653 128.127 104.352 137.124 109.981 137.124C115.345 137.124 126.401 128.127 130.235 124.299L161.337 132.252V194.032L160.307 205.867H62.1771L57.276 135.679Z" fill="#FF0001"/>
<path fill-rule="evenodd" clip-rule="evenodd" d="M161.337 174.58V194.032L161.099 196.76C151.608 197.831 122.763 201.309 118.469 202.104C115.427 202.667 94.472 204.845 77.6947 205.867H62.1771L61.1547 191.236C63.4984 186.611 65.7631 182.679 65.7631 182.679C65.7631 182.679 69.6355 176.139 91.2213 184.093C112.807 192.049 135.535 192.485 151.659 177.4C156.263 173.092 159.328 172.802 161.337 174.58Z" fill="#CC0001"/>
<path fill-rule="evenodd" clip-rule="evenodd" d="M93.08 188.236C93.08 188.236 88.076 187.378 82.26 187.783C76.4454 188.19 68.1979 189.631 68.1979 189.631L65.2683 194.544L68.3334 204.102C68.3334 204.102 71.7136 205.588 73.3812 204.46C75.0495 203.334 93.5747 193.374 93.08 188.236Z" fill="#FCD1C8"/>
<path fill-rule="evenodd" clip-rule="evenodd" d="M67.974 195.651C67.974 195.651 68.3792 199.055 71.3541 202.662L79.7373 200.224L107.863 201.938L122.039 220.528C122.039 220.528 119.764 220.778 107.415 224.835C95.0626 228.892 85.8666 233.94 68.4688 235.294C51.0702 236.646 46.651 233.94 44.939 225.918C43.224 217.892 36.375 206.716 36.8254 195.988C37.276 185.26 54.6745 185.168 54.6745 185.168C54.6745 185.168 68.2874 187.242 67.974 195.651Z" fill="#FCD1C8"/>
<path fill-rule="evenodd" clip-rule="evenodd" d="M109.647 204.278L122.039 220.528C122.039 220.528 119.995 220.755 109.264 224.231C107.831 213.804 94.9786 208.492 94.9786 208.492L108.18 203.932C108.679 204.046 109.169 204.162 109.647 204.278Z" fill="#F9A8A1"/>
<path fill-rule="evenodd" clip-rule="evenodd" d="M37.3178 202.376C36.9323 200.247 36.737 198.11 36.8255 195.988C37.1537 188.164 46.4949 185.998 51.5303 185.398L56.5131 191.647C56.5131 191.647 43.1459 194.527 37.3178 202.376Z" fill="#F9A8A1"/>
<path fill-rule="evenodd" clip-rule="evenodd" d="M131.12 195.085L134.379 193.127C134.379 193.127 138.333 191.028 142.751 187.783C147.167 184.538 150.861 183.636 155.552 184.719C160.24 185.799 161.337 191.299 161.337 191.299C161.337 191.299 158.167 199.411 155.281 198.059C152.397 196.708 131.12 195.085 131.12 195.085Z" fill="#FCD1C8"/>
<path fill-rule="evenodd" clip-rule="evenodd" d="M184.271 187.944C184.271 187.944 181.473 209.474 174.328 219.364L150.789 193.034C150.789 193.034 149.703 187.111 150.779 181.995C151.857 176.878 151.857 176.878 151.857 176.878C151.857 176.878 172.772 173.179 173.763 173.722C174.755 174.263 184.221 182.375 184.271 187.944Z" fill="#FCD1C8"/>
<path fill-rule="evenodd" clip-rule="evenodd" d="M184.271 187.944C184.271 187.944 184.123 189.078 183.809 190.943C174.855 180.69 162.639 180.055 162.639 180.055L166.459 174.471C170.252 173.907 173.395 173.519 173.763 173.722C174.755 174.263 184.221 182.375 184.271 187.944Z" fill="#F9A8A1"/>
<path fill-rule="evenodd" clip-rule="evenodd" d="M185.491 187.224C185.377 170.382 179.716 137.192 161.337 132.252C161.337 132.252 153.576 143.411 153.033 165.947C153.033 165.947 149.068 174.423 149.789 180.732C149.789 180.732 149.833 181.634 150.779 181.995C150.779 181.995 173.092 174.782 184.271 187.944C184.271 187.944 185.511 188.192 185.491 187.224Z" fill="#FF0001"/>
<path fill-rule="evenodd" clip-rule="evenodd" d="M185.491 187.224C185.479 185.604 185.417 183.83 185.297 181.944C172.503 169.03 149.724 179.119 149.7 179.128C149.703 179.674 149.729 180.211 149.789 180.732C149.789 180.732 149.833 181.634 150.779 181.995C150.779 181.995 173.092 174.782 184.271 187.944C184.271 187.944 185.511 188.192 185.491 187.224Z" fill="#00FF00"/>
<path fill-rule="evenodd" clip-rule="evenodd" d="M57.276 135.679C57.276 135.679 42.314 142.068 39.6989 156.042C37.0833 170.014 33.8098 195.383 34.4401 201.242C38.275 193.104 64.9202 187.34 67.974 195.651C67.974 195.651 69.6874 194.952 69.6874 193.51C69.6874 192.067 70.0901 169.116 65.2213 160.555C65.2213 160.555 65.586 140.547 57.276 135.679Z" fill="#FF0001"/>
<path fill-rule="evenodd" clip-rule="evenodd" d="M34.6355 193.564C34.3708 197.036 34.2812 199.763 34.4401 201.242C38.2751 193.102 64.9203 187.34 67.974 195.651C67.974 195.651 69.6875 194.952 69.6875 193.51C69.6875 193.203 69.7057 191.912 69.6875 189.994C52.5912 179.518 34.6355 193.564 34.6355 193.564Z" fill="#00FF00"/>
<path fill-rule="evenodd" clip-rule="evenodd" d="M93.08 188.236C93.08 188.236 108.495 191.84 120.847 193.104C133.196 194.367 152.399 190.039 163.036 196.348C173.675 202.662 175.837 210.864 175.837 214.559C175.837 218.255 172.591 224.206 164.208 225.379C155.823 226.55 135.271 225.83 119.313 219.518C103.357 213.208 89.2947 203.29 71.3541 202.662L93.08 188.236Z" fill="#FCD1C8"/>
<path d="M163.036 196.794L162.809 196.731C159.5 194.77 155.361 193.851 150.832 193.478L150.675 193.466C145.795 193.075 140.473 193.308 135.24 193.536L134.339 193.575H134.317C134.081 193.575 133.884 193.39 133.872 193.15C133.863 192.903 134.053 192.695 134.3 192.684L135.2 192.646C140.288 192.424 145.464 192.2 150.257 192.539C150.013 190.915 149.445 186.175 150.344 181.903C150.393 181.664 150.631 181.506 150.871 181.559C151.112 181.61 151.265 181.846 151.215 182.087C150.315 186.364 150.967 191.288 151.172 192.611C155.716 193.01 159.883 193.96 163.263 195.966C163.473 196.091 163.544 196.364 163.419 196.575C163.336 196.716 163.189 196.794 163.036 196.794ZM122.008 220.963L121.861 220.939C120.945 220.619 120.039 220.284 119.148 219.932C114.533 218.107 110.019 215.954 105.652 213.872C94.5253 208.564 84.0146 203.552 71.3421 203.107C71.1937 203.11 66.0702 203.07 61.276 205.618C61.0625 205.734 60.7906 205.654 60.6745 205.435C60.5584 205.216 60.6406 204.947 60.8584 204.834C64.7281 202.774 68.7109 202.332 70.4557 202.238C67.9322 198.85 67.5494 195.839 67.5338 195.706C67.5026 195.46 67.677 195.239 67.9218 195.211C68.1666 195.179 68.388 195.354 68.4166 195.599C68.4202 195.63 68.8385 198.83 71.5702 202.223C84.3453 202.722 95.3693 207.982 106.035 213.067C110.388 215.143 114.891 217.288 119.476 219.104C120.357 219.452 121.251 219.783 122.153 220.096C122.385 220.176 122.508 220.432 122.428 220.664C122.364 220.847 122.192 220.963 122.008 220.963Z" fill="#F9A8A1"/>
<path d="M67.974 196.098C67.8011 196.098 67.6355 195.994 67.564 195.822C67.4697 195.594 67.5781 195.334 67.8047 195.239C67.8203 195.234 69.2421 194.631 69.2421 193.51L69.2448 193.187C69.2979 185.871 68.9792 168.063 64.8349 160.774L64.776 160.546C64.776 160.512 64.8281 157.312 64.3724 153.231C64.3464 152.987 64.5235 152.767 64.7672 152.738C65.0052 152.726 65.2317 152.888 65.2588 153.132C65.3828 154.246 65.4713 155.295 65.5312 156.236L66.1328 155.402C66.276 155.2 66.5547 155.156 66.7527 155.302C66.9531 155.444 66.9984 155.723 66.8541 155.923L65.6084 157.651C65.6703 159.088 65.6703 160.102 65.6683 160.44C69.8636 167.979 70.1901 185.84 70.1344 193.195L70.1328 193.51C70.1328 195.232 68.224 196.031 68.1432 196.064L67.974 196.098Z" fill="#CC0001"/>
<path fill-rule="evenodd" clip-rule="evenodd" d="M85.4106 125.588C87.02 128.097 89.6613 130.916 92.6733 133.557C98.7027 138.847 106.228 143.436 109.981 143.436C113.617 143.436 121.095 138.624 127.292 133.182C130.235 130.595 132.891 127.865 134.705 125.443L130.235 124.299C126.401 128.127 115.345 137.124 109.981 137.124C104.352 137.124 93.5653 128.127 89.7306 124.299C88.336 124.697 86.888 125.129 85.4106 125.588Z" fill="#00FF00"/>
<path d="M150.779 182.44L150.621 182.411C149.416 181.952 149.347 180.803 149.344 180.755C148.648 174.687 152.151 166.804 152.591 165.844C152.641 163.808 152.752 161.788 152.927 159.81L152.027 158.353C151.896 158.143 151.961 157.87 152.171 157.739C152.383 157.614 152.653 157.676 152.784 157.885L153.065 158.34C153.153 157.492 153.252 156.652 153.361 155.82C153.393 155.579 153.593 155.4 153.861 155.438C154.104 155.471 154.276 155.695 154.245 155.939C153.819 159.163 153.561 162.534 153.48 165.959L153.437 166.138C153.399 166.222 149.533 174.572 150.232 180.682C150.237 180.771 150.299 181.334 150.937 181.579C151.169 181.667 151.283 181.924 151.195 182.153C151.128 182.332 150.959 182.44 150.779 182.44Z" fill="#CC0001"/>
<path fill-rule="evenodd" clip-rule="evenodd" d="M143.951 59.3014V82.7134C143.951 102.444 130.503 124.028 110.059 124.028C89.6121 124.028 76.1641 102.444 76.1641 82.7134V59.3014C76.1641 14.76 143.951 14.76 143.951 59.3014Z" fill="#FCD1C8"/>
<path fill-rule="evenodd" clip-rule="evenodd" d="M119.5 39.7281L113.631 47.1454C113.631 47.1454 131.475 39.8227 138.357 51.2787C145.24 62.7334 139.207 43.2161 137.367 41.8948C135.528 40.5761 119.5 39.7281 119.5 39.7281Z" fill="#F9A8A1"/>
<path fill-rule="evenodd" clip-rule="evenodd" d="M99.7707 75.4614C99.9134 75.4867 100.688 74.9014 100.688 74.9014C100.688 74.9014 99.5601 74.38 97.7667 72.8694C95.9761 71.3614 92.8641 68.98 89.6361 70.088C86.4067 71.1947 87.8801 75.1227 87.8801 75.1227C87.8801 75.1227 92.9814 72.1867 99.7707 75.4614Z" fill="#F9A8A1"/>
<path fill-rule="evenodd" clip-rule="evenodd" d="M78.02 95.1134C67.6979 94.5774 66.8255 76.284 72.7864 76.6867C77.748 77.02 78.7867 80.1841 79.116 81.5121C79.4453 82.8401 78.02 95.1134 78.02 95.1134Z" fill="#FCD1C8"/>
<path fill-rule="evenodd" clip-rule="evenodd" d="M142.091 95.1134C152.412 94.5774 153.284 76.284 147.323 76.6867C142.361 77.02 141.323 80.1841 140.993 81.5121C140.665 82.8401 142.091 95.1134 142.091 95.1134Z" fill="#FCD1C8"/>
<path fill-rule="evenodd" clip-rule="evenodd" d="M126.3 68.9707H126.303C128.764 68.9707 130.781 70.9867 130.781 73.4494V76.1747C130.781 78.6387 128.764 80.656 126.303 80.656H126.3C123.836 80.656 121.82 78.6387 121.82 76.1747V73.4494C121.82 70.9867 123.836 68.9707 126.3 68.9707Z" fill="#4C466A"/>
<path fill-rule="evenodd" clip-rule="evenodd" d="M110.975 71.1347C111.052 71.4707 111.049 71.8387 110.951 72.1067C110.245 74.0054 107.136 82.1587 107.229 83.2081C107.432 84.5561 111.287 85.2907 113.327 85.2467C114.591 85.2227 113.352 89.68 111.259 89.2C109.028 88.6894 105.625 86.1027 105.241 83.52C105.057 82.276 107.029 76.5987 108.472 72.7654C108.844 71.7814 108.527 70.8187 108.331 70.1894C107.831 68.54 110.719 70.0267 110.975 71.1347Z" fill="#F9A8A1"/>
<path d="M145.364 89.2987C145.148 89.2987 144.959 89.14 144.924 88.9187C144.627 86.936 144.959 84.1187 145.789 81.5694C146.553 79.228 147.415 78.8667 148.021 78.9787C148.953 79.1481 149.523 80.5814 149.432 82.5414C149.421 82.7867 149.2 82.9974 148.969 82.9667C148.721 82.9547 148.531 82.748 148.544 82.5027C148.619 80.836 148.145 79.9067 147.86 79.8534C147.729 79.8214 147.193 80.1401 146.639 81.8467C146.455 82.4067 146.297 82.9854 146.165 83.5654C146.817 83.828 147.883 84.5947 147.841 86.82C147.836 87.0614 147.637 87.256 147.395 87.256H147.385C147.14 87.252 146.944 87.048 146.949 86.8014C146.979 85.256 146.393 84.6707 145.987 84.452C145.701 86.0507 145.628 87.6067 145.805 88.7867C145.844 89.0307 145.675 89.2574 145.432 89.2934L145.364 89.2987Z" fill="#F9A8A1"/>
<path d="M74.7528 89.2987L74.685 89.2934C74.4428 89.2574 74.2735 89.0307 74.3115 88.7867C74.487 87.6067 74.4141 86.0507 74.1293 84.4547C73.7214 84.6747 73.1381 85.2614 73.1667 86.8014C73.1719 87.048 72.9751 87.252 72.7293 87.256C72.4418 87.2307 72.2813 87.0627 72.2761 86.82C72.2318 84.5947 73.298 83.828 73.9506 83.5654C73.8178 82.9854 73.6615 82.4067 73.4793 81.8467C72.9255 80.1521 72.4531 79.812 72.2553 79.8534C71.9698 79.9067 71.4974 80.836 71.573 82.5027C71.5834 82.748 71.3933 82.9547 71.1474 82.9667C70.9219 82.9894 70.6927 82.7867 70.6823 82.5414C70.5954 80.58 71.1616 79.1481 72.0965 78.9787C72.6876 78.8587 73.5626 79.2334 74.3255 81.5694C75.1563 84.1174 75.4897 86.9347 75.1927 88.9187C75.1589 89.14 74.9689 89.2987 74.7528 89.2987Z" fill="#F9A8A1"/>
<path fill-rule="evenodd" clip-rule="evenodd" d="M97.7014 76.8814C97.7014 76.8814 98.5454 77.1893 99.3774 76.9027C100.211 76.616 100.991 75.3507 100.979 75.0413C100.968 74.732 100.491 75.1787 99.0334 74.3507C97.6014 73.536 92.2241 71.3907 88.0494 74.9547C87.3294 75.572 87.7801 76.1427 88.6334 75.94C89.4867 75.74 93.1827 74.2654 97.7014 76.8814Z" fill="#4C466A"/>
<path fill-rule="evenodd" clip-rule="evenodd" d="M117.317 67.9267L117.32 67.9253C117.36 67.92 117.967 67.8307 118.38 67.2987V67.2973C118.419 67.2493 118.48 67.156 118.561 67.0333C119.412 65.7387 122.467 61.0986 129.241 60.976C129.145 60.776 129.033 60.4933 129.071 60.2853C129.091 60.1587 129.461 60.044 130.016 60.06C130.384 60.0667 130.848 60.1147 131.352 60.2213C131.859 60.3253 132.405 60.492 132.931 60.7387C134.555 61.5 136.019 63.0306 135.672 65.9733L135.503 66.1093L135.387 66.0307C135.325 65.9253 133.603 63.0934 128.112 64.16C123.399 65.0747 120.847 67.112 119.628 68.088C119.383 68.2827 119.189 68.4387 119.036 68.536C118.045 69.1733 117.216 68.1827 117.213 68.18L117.227 67.964L117.317 67.9267Z" fill="#4C466A"/>
<path fill-rule="evenodd" clip-rule="evenodd" d="M102.847 71.6533H102.844C102.807 71.648 102.2 71.544 101.797 71.0053C101.759 70.9533 101.7 70.86 101.62 70.7347C100.797 69.4253 97.8347 64.7267 91.0641 64.4667C91.1641 64.2707 91.2814 63.9893 91.2507 63.7813C91.2294 63.652 90.8614 63.5333 90.3067 63.536C89.9401 63.5373 89.4734 63.5747 88.9694 63.6693C88.4601 63.7653 87.9121 63.9213 87.3801 64.1587C85.7401 64.8853 84.2494 66.388 84.5361 69.336L84.7027 69.4733L84.8201 69.3973C84.8827 69.2947 86.6614 66.4973 92.1307 67.6733C96.8241 68.6813 99.3334 70.7707 100.533 71.7693C100.776 71.9707 100.967 72.128 101.117 72.2307C102.093 72.888 102.944 71.9134 102.947 71.9107L102.937 71.6947L102.847 71.6533Z" fill="#4C466A"/>
<path fill-rule="evenodd" clip-rule="evenodd" d="M146.133 50.2187C146.893 54.7093 146.809 60.0026 146.177 63.9346C145.329 69.216 144.147 77.56 144.147 77.56C141.404 78.84 140.251 87.532 140.251 87.532C140.251 87.532 141.432 70.8173 141.468 69.02C141.468 69.02 141.328 67.2853 140.807 66.4133C140.288 65.54 136.892 58.328 136.892 58.328C136.892 58.328 136.519 57.5613 136.588 56.96C136.659 56.3587 137.719 49.9946 137.719 49.9946C137.719 49.9946 137.883 48.9573 136.776 47.848C135.668 46.7413 127.369 38.7267 112.804 47.636C112.804 47.636 111.297 48.568 110.059 48.568C108.82 48.568 107.312 47.636 107.312 47.636C92.7453 38.7267 84.448 46.7413 83.3414 47.848C82.232 48.9573 82.3987 49.9946 82.3987 49.9946C82.3987 49.9946 83.4573 56.3587 83.528 56.96C83.5987 57.5613 83.2253 58.328 83.2253 58.328C83.2253 58.328 79.8294 65.54 79.308 66.4133C78.7894 67.2853 78.648 69.02 78.648 69.02C78.6827 70.8173 79.8654 87.532 79.8654 87.532C79.8654 87.532 78.712 78.84 75.9688 77.56C75.9688 77.56 74.7864 69.216 73.9375 63.9346C73.1918 59.2933 73.211 52.7587 74.4751 47.8827C72.6563 45.1293 71.5818 38.5253 74.1902 41.684C74.1902 41.684 73.4844 38.6187 74.0479 36.8747C74.6146 35.1293 76.264 37.064 76.264 37.064C76.264 37.064 89.148 12.6186 118.696 18.5173C120.671 18.9106 122.839 19.1893 124.711 18.2467C128.245 16.4787 127.392 20.2853 126.281 20.728C142.477 23.9493 147.529 35.528 140.448 31.2654C140.448 31.2654 146.631 38.272 147.511 43.192C148.391 48.112 145.964 44.0413 145.964 44.0413C145.964 44.0413 145.785 47.5307 146.133 50.2187Z" fill="#0000FF"/>
<path fill-rule="evenodd" clip-rule="evenodd" d="M130.053 21.6813C143.227 25.7507 146.947 35.1761 140.448 31.2654C140.448 31.2654 141.404 32.3467 142.617 33.9587C114.579 43.812 93.1946 26.716 93.1946 26.716C119.883 30.512 127.745 25.312 130.053 21.6813Z" fill="black" fill-opacity="0.2"/>
<path d="M113.117 110.277H112.892C111.388 110.264 109.893 110.124 108.451 109.86C107.968 109.772 107.647 109.307 107.736 108.823C107.824 108.339 108.279 108.013 108.773 108.107C110.115 108.352 111.505 108.484 112.909 108.497H113.117C114.448 108.497 115.763 108.389 117.031 108.179C117.505 108.095 117.976 108.427 118.057 108.912C118.139 109.397 117.808 109.856 117.323 109.937C115.959 110.165 114.544 110.277 113.117 110.277Z" fill="#F9A8A1"/>
<path fill-rule="evenodd" clip-rule="evenodd" d="M99.7946 90.0174C102.433 90.6868 111.464 92.6868 117.143 90.3055C123.852 87.4935 123.984 90.9361 126.243 95.9268C128.5 100.919 124.101 105.388 115.648 105.824C107.195 106.257 98.1453 104.481 97.672 99.6455C97.4813 97.7161 95.6426 88.9628 99.7946 90.0174Z" fill="#4C466A"/>
<path fill-rule="evenodd" clip-rule="evenodd" d="M124.252 91.4094C115.357 95.7414 103.145 94.1481 100.881 92.8014C99.6947 92.0974 99.2067 90.9441 99.0214 89.9348C99.252 89.9201 99.5094 89.9441 99.7947 90.0174C102.433 90.6867 111.464 92.6868 117.143 90.3054C121.472 88.4894 123.063 89.2801 124.252 91.4094Z" fill="white"/>
<path fill-rule="evenodd" clip-rule="evenodd" d="M97.6067 99.1135C101.005 98.3708 105.56 98.6401 110.973 102.004C110.973 102.004 118.612 96.7321 126.796 97.8828C127.257 102.036 122.976 105.447 115.648 105.824C107.195 106.257 98.1454 104.481 97.672 99.6455C97.656 99.5015 97.6334 99.3228 97.6067 99.1135Z" fill="#FF818F"/>
<path d="M110.235 102.944L109.943 102.835C109.756 102.673 109.737 102.392 109.899 102.207C111.241 100.656 112.373 100.096 112.421 100.072C112.648 99.9654 112.909 100.059 113.016 100.279C113.123 100.5 113.031 100.767 112.811 100.875C112.801 100.88 111.784 101.389 110.571 102.791C110.483 102.892 110.359 102.944 110.235 102.944Z" fill="#4C466A"/>
<path d="M116.531 123.723C116.328 123.723 116.145 123.584 116.097 123.38C116.041 123.141 116.188 122.9 116.427 122.843C129.188 119.825 139.469 107.552 142.624 91.5775C142.672 91.3348 142.908 91.1761 143.147 91.2254C143.388 91.2748 143.545 91.5081 143.497 91.7495C140.276 108.067 129.731 120.611 116.635 123.711L116.531 123.723Z" fill="white"/>
<path d="M185.313 188.419C185.101 188.419 184.94 188.39 184.903 188.382C184.661 188.334 184.505 188.1 184.555 187.859C184.601 187.616 184.836 187.468 185.076 187.507C185.26 187.542 185.585 187.539 185.703 187.439C185.72 187.424 185.767 187.386 185.763 187.234C185.675 173.814 181.219 137.864 161.941 132.682L130.844 124.731C130.607 124.668 130.463 124.427 130.524 124.188C130.584 123.951 130.825 123.815 131.065 123.867L162.167 131.822C181.987 137.15 186.564 173.619 186.653 187.223C186.664 187.694 186.453 187.972 186.276 188.122C185.985 188.363 185.604 188.419 185.313 188.419ZM35.1588 201.688C34.9349 201.688 34.7396 201.518 34.7161 201.291C34.0677 195.266 37.436 169.552 39.9792 155.958C42.6068 141.915 57.6693 135.334 57.8203 135.268C59.186 134.608 77.0613 127.654 90.3253 123.871C90.5667 123.804 90.808 123.94 90.8773 124.176C90.9453 124.414 90.8067 124.66 90.572 124.727C77.3493 128.5 59.5651 135.414 58.1891 136.08C58.0224 136.151 43.3948 142.555 40.8557 156.122C38.3229 169.664 34.9609 195.243 35.6016 201.195C35.6276 201.44 35.4505 201.659 35.2073 201.686L35.1588 201.688Z" fill="white"/>
</g>
<defs>
<clipPath id="clip0_1_1358">
<rect width="224" height="234" fill="white"/>
</clipPath>
</defs>
</svg>
