<svg width="224" height="234" viewBox="0 0 224 234" fill="none" xmlns="http://www.w3.org/2000/svg">
<g clip-path="url(#clip0_1_1358)">
<path fill-rule="evenodd" clip-rule="evenodd" d="M42.5932 204.767C39.7188 205.072 35.8021 204.274 35.5036 200.017C35.2027 195.756 39.5817 195.508 39.6651 195.64C39.7484 195.771 42.7755 201.184 42.7755 201.296L42.5932 204.767Z" fill="#FF818F"/>
<path fill-rule="evenodd" clip-rule="evenodd" d="M93.737 143.067H128.354V126.452C130.486 125.744 132.734 124.882 132.734 124.882L131.298 123.074C131.298 123.074 128.354 121.784 128.354 118.023V86.0429H93.737V118.023C93.737 121.784 90.7917 123.074 90.7917 123.074L89.3557 124.882C89.3557 124.882 91.601 125.744 93.737 126.452V143.067Z" fill="#FCD1C8"/>
<path fill-rule="evenodd" clip-rule="evenodd" d="M93.737 107.727V118.023C93.737 119.622 93.205 120.771 92.593 121.568C97.9757 126.088 111.734 134.388 126.074 116.927L104.096 104.07C104.096 104.07 98.3543 106.124 93.737 107.727Z" fill="#F9A8A1"/>
<path fill-rule="evenodd" clip-rule="evenodd" d="M58.3381 134.452C59.7157 133.786 77.6496 126.819 90.7917 123.074C94.6291 126.9 105.413 135.899 111.044 135.899C116.408 135.899 127.461 126.9 131.298 123.074L162.398 131.025V192.807L161.369 204.64H63.2397L58.3381 134.452Z" fill="#FF0001"/>
<path fill-rule="evenodd" clip-rule="evenodd" d="M74.7484 204.64H63.2396L61.7527 183.348C62.4063 182.168 62.8178 181.455 62.8178 181.455C62.8178 181.455 66.6885 174.914 88.2729 182.868C109.862 190.824 132.589 191.259 148.713 176.174C164.834 161.088 162.101 195.22 161.158 195.22C160.216 195.22 120.616 199.935 115.524 200.879C112.481 201.44 91.525 203.621 74.7484 204.64Z" fill="#CC0001"/>
<path fill-rule="evenodd" clip-rule="evenodd" d="M94.1437 187.011C94.1437 187.011 89.1384 186.151 83.3224 186.557C77.508 186.964 69.26 188.405 69.26 188.405L66.3293 193.317L69.396 202.874C69.396 202.874 72.7756 204.363 74.4423 203.236C76.1089 202.108 94.6384 192.147 94.1437 187.011Z" fill="#FCD1C8"/>
<path fill-rule="evenodd" clip-rule="evenodd" d="M69.0376 194.426C69.0376 194.426 69.4402 197.828 72.4137 201.433L80.7997 198.999L108.926 200.711L123.101 219.302C123.101 219.302 120.825 219.551 108.477 223.609C96.125 227.666 86.929 232.715 69.5298 234.067C52.1313 235.419 47.7137 232.715 46.0001 224.691C44.2876 216.668 37.437 205.488 37.8876 194.76C38.337 184.033 55.7365 183.942 55.7365 183.942C55.7365 183.942 69.3485 186.016 69.0376 194.426Z" fill="#FCD1C8"/>
<path fill-rule="evenodd" clip-rule="evenodd" d="M110.71 203.051L123.101 219.302C123.101 219.302 121.054 219.528 110.326 223.007C108.892 212.578 96.0424 207.264 96.0424 207.264L109.24 202.704C109.742 202.819 110.232 202.933 110.71 203.051Z" fill="#F9A8A1"/>
<path fill-rule="evenodd" clip-rule="evenodd" d="M38.3813 201.147C37.9959 199.021 37.7979 196.881 37.8875 194.76C38.2157 186.936 47.5574 184.771 52.5913 184.172L57.575 190.421C57.575 190.421 44.2083 193.302 38.3813 201.147Z" fill="#F9A8A1"/>
<path fill-rule="evenodd" clip-rule="evenodd" d="M132.184 193.86L135.441 191.902C135.441 191.902 139.394 189.803 143.812 186.556C148.23 183.311 151.925 182.409 156.614 183.491C161.302 184.573 162.398 190.072 162.398 190.072C162.398 190.072 159.229 198.187 156.344 196.835C153.458 195.48 132.184 193.86 132.184 193.86Z" fill="#FCD1C8"/>
<path fill-rule="evenodd" clip-rule="evenodd" d="M185.333 186.717C185.333 186.717 182.534 208.247 175.39 218.138L151.852 191.809C151.852 191.809 150.764 185.886 151.841 180.769C152.92 175.65 152.92 175.65 152.92 175.65C152.92 175.65 173.834 171.955 174.825 172.493C175.817 173.035 185.284 181.15 185.333 186.717Z" fill="#FCD1C8"/>
<path fill-rule="evenodd" clip-rule="evenodd" d="M185.333 186.717C185.333 186.717 185.185 187.854 184.872 189.716C175.917 179.464 163.7 178.83 163.7 178.83L167.521 173.247C171.314 172.681 174.456 172.293 174.825 172.493C175.817 173.035 185.284 181.15 185.333 186.717Z" fill="#F9A8A1"/>
<path fill-rule="evenodd" clip-rule="evenodd" d="M186.552 185.997C186.44 169.155 180.777 135.966 162.398 131.026C162.398 131.026 154.638 142.184 154.096 164.72C154.096 164.72 150.13 173.197 150.852 179.507C150.852 179.507 150.896 180.408 151.841 180.769C151.841 180.769 174.153 173.556 185.333 186.717C185.333 186.717 186.572 186.967 186.552 185.997Z" fill="#FF0001"/>
<path fill-rule="evenodd" clip-rule="evenodd" d="M186.552 185.999C186.541 184.635 186.497 183.163 186.412 181.609C170.464 168.403 150.789 177.455 150.768 177.464C150.75 178.16 150.776 178.847 150.852 179.507C150.852 179.507 150.896 180.408 151.841 180.769C151.841 180.769 174.153 173.556 185.332 186.717C185.332 186.717 186.572 186.967 186.552 185.999Z" fill="#00FF00"/>
<path fill-rule="evenodd" clip-rule="evenodd" d="M58.3381 134.452C58.3381 134.452 43.375 140.843 40.7599 154.814C38.147 168.788 34.8725 194.155 35.5037 200.017C39.3381 191.876 65.9813 186.114 69.0375 194.426C69.0375 194.426 70.7501 193.727 70.7501 192.286C70.7501 190.84 71.1511 167.89 66.2839 159.327C66.2839 159.327 66.647 139.319 58.3381 134.452Z" fill="#FF0001"/>
<path fill-rule="evenodd" clip-rule="evenodd" d="M35.6408 193.138C35.4214 196.228 35.3569 198.651 35.5037 200.017C39.3381 191.876 65.9813 186.114 69.0376 194.426C69.0376 194.426 70.7501 193.727 70.7501 192.286C70.7501 192.009 70.7632 190.95 70.7537 189.359C50.4048 180.783 35.6512 193.13 35.6408 193.138Z" fill="#00FF00"/>
<path fill-rule="evenodd" clip-rule="evenodd" d="M94.1437 187.011C94.1437 187.011 109.557 190.615 121.908 191.876C134.257 193.14 153.461 188.812 164.098 195.123C174.737 201.433 176.901 209.637 176.901 213.335C176.901 217.031 173.653 222.98 165.27 224.152C156.886 225.324 136.333 224.602 120.374 218.292C104.418 211.98 90.3544 202.064 72.4137 201.433L94.1437 187.011Z" fill="#FCD1C8"/>
<path d="M164.098 195.569L163.87 195.507C160.561 193.543 156.424 192.627 151.896 192.252L151.734 192.239C146.856 191.848 141.532 192.081 136.301 192.311L135.401 192.351C135.104 192.351 134.946 192.168 134.934 191.923C134.925 191.676 135.116 191.469 135.362 191.459L136.262 191.421C141.352 191.199 146.525 190.971 151.318 191.313C151.076 189.69 150.506 184.949 151.406 180.676C151.456 180.436 151.692 180.285 151.934 180.332C152.174 180.384 152.328 180.62 152.278 180.862C151.377 185.139 152.028 190.062 152.232 191.386C156.778 191.783 160.945 192.733 164.325 194.74C164.536 194.866 164.606 195.14 164.481 195.351C164.398 195.49 164.25 195.569 164.098 195.569ZM123.07 219.736L122.924 219.712C122.008 219.392 121.101 219.059 120.21 218.704C115.597 216.881 111.084 214.728 106.717 212.644C95.589 207.338 85.0784 202.326 72.4032 201.879C72.2746 201.879 67.1408 201.838 62.337 204.392C62.1236 204.509 61.8517 204.427 61.7356 204.207C61.6194 203.991 61.7028 203.721 61.9194 203.605C65.7902 201.547 69.7736 201.104 71.5184 201.011C68.9933 197.624 68.6121 194.614 68.5965 194.478C68.5662 194.233 68.7408 194.014 68.9845 193.983C69.2209 193.955 69.4506 194.13 69.4793 194.372C69.4829 194.405 69.8996 197.603 72.6324 200.995C85.4077 201.496 96.4344 206.755 107.101 211.842C111.453 213.919 115.953 216.064 120.538 217.878C121.418 218.227 122.312 218.556 123.216 218.869C123.45 218.951 123.573 219.204 123.492 219.436C123.426 219.621 123.256 219.736 123.07 219.736Z" fill="#F9A8A1"/>
<path d="M151.841 181.215L151.684 181.186C150.478 180.726 150.409 179.578 150.406 179.53C149.71 173.463 153.213 165.58 153.653 164.618C153.702 162.584 153.816 160.564 153.988 158.583L153.089 157.127C152.958 156.916 153.024 156.643 153.233 156.512C153.445 156.387 153.718 156.45 153.846 156.657L154.128 157.114C154.216 156.266 154.314 155.426 154.424 154.595C154.456 154.352 154.656 154.184 154.924 154.212C155.168 154.245 155.34 154.468 155.308 154.712C154.88 157.942 154.622 161.312 154.541 164.732L154.5 164.911C154.461 164.993 150.594 173.347 151.294 179.457C151.301 179.543 151.361 180.108 152 180.354C152.232 180.439 152.346 180.697 152.257 180.927C152.19 181.105 152.021 181.215 151.841 181.215ZM69.0376 194.871C68.8632 194.871 68.6974 194.767 68.6261 194.595C68.534 194.368 68.6408 194.108 68.8684 194.014C68.8824 194.008 70.3042 193.405 70.3042 192.286L70.3074 191.963C70.3621 184.644 70.0402 166.838 65.897 159.545L65.8381 159.318C65.8381 159.299 65.858 158.143 65.7746 156.338L65.772 156.283C65.7157 155.088 65.6157 153.615 65.435 152.004C65.4084 151.759 65.5861 151.54 65.8293 151.512C66.0782 151.504 66.2938 151.662 66.323 151.906C66.4454 153.02 66.534 154.069 66.5933 155.009L67.1954 154.176C67.3381 153.974 67.6184 153.928 67.8162 154.076C68.0152 154.219 68.0626 154.497 67.9168 154.697L66.6704 156.423C66.7329 157.862 66.7329 158.874 66.7313 159.212C70.9246 166.755 71.2528 184.614 71.1974 191.969L71.1954 192.286C71.1954 194.007 69.2861 194.805 69.2058 194.838L69.0376 194.871Z" fill="#CC0001"/>
<path fill-rule="evenodd" clip-rule="evenodd" d="M86.4744 124.363C88.0837 126.87 90.721 129.69 93.737 132.332C99.765 137.622 107.289 142.21 111.044 142.21C114.68 142.21 122.158 137.398 128.354 131.955C131.298 129.368 133.953 126.64 135.768 124.215L131.298 123.074C127.461 126.9 116.408 135.899 111.044 135.899C105.413 135.899 94.629 126.9 90.7917 123.074C89.3984 123.471 87.9504 123.903 86.4744 124.363Z" fill="#00FF00"/>
<path fill-rule="evenodd" clip-rule="evenodd" d="M79.4156 92.2962C69.2249 91.7308 68.364 72.4508 74.25 72.8762C79.1476 73.2282 80.1743 76.5615 80.4969 77.9602C80.8223 79.3615 79.4156 92.2962 79.4156 92.2962Z" fill="#FCD1C8"/>
<path fill-rule="evenodd" clip-rule="evenodd" d="M142.669 92.2962C152.86 91.7308 153.718 72.4508 147.836 72.8762C142.937 73.2282 141.912 76.5615 141.586 77.9602C141.261 79.3615 142.669 92.2962 142.669 92.2962Z" fill="#FCD1C8"/>
<path fill-rule="evenodd" clip-rule="evenodd" d="M144.506 54.5522V79.2255C144.506 100.021 131.229 122.768 111.044 122.768C90.861 122.768 77.5834 100.021 77.5834 79.2255V54.5522C77.5834 7.60817 144.506 7.60817 144.506 54.5522Z" fill="#FCD1C8"/>
<path fill-rule="evenodd" clip-rule="evenodd" d="M144.506 54.5509V66.7855C143.849 67.3735 143.033 67.8935 142.024 68.3242C133.396 72.0015 126.302 62.5122 126.302 62.5122L126.984 55.7375C126.984 55.7375 131.981 60.1215 112.614 62.4682C93.2463 64.8109 95.8236 45.3189 95.8236 45.3189C102.894 32.7775 142.589 51.4469 144.002 52.8629C144.136 52.9935 144.3 53.2029 144.481 53.4762C144.49 53.8349 144.506 54.1882 144.506 54.5509Z" fill="#F9A8A1"/>
<path d="M145.901 86.1429C145.682 86.1429 145.492 85.9815 145.461 85.7589C145.166 83.6762 145.494 80.7175 146.313 78.0362C146.913 76.0789 147.656 75.1789 148.508 75.3109C149.586 75.4935 149.997 77.3162 149.924 79.0429C149.912 79.2882 149.693 79.4789 149.461 79.4709C149.213 79.4589 149.024 79.2522 149.033 79.0055C149.113 77.1215 148.581 76.2282 148.357 76.1882C148.288 76.1975 147.724 76.4735 147.166 78.2975C146.981 78.9002 146.822 79.5229 146.693 80.1469C147.336 80.4202 148.393 81.2229 148.35 83.5535C148.346 83.7975 148.145 83.9909 147.905 83.9909H147.896C147.65 83.9855 147.456 83.7829 147.458 83.5362C147.489 81.9069 146.924 81.2815 146.524 81.0429C146.24 82.7362 146.166 84.3842 146.341 85.6349C146.376 85.8789 146.206 86.1029 145.964 86.1389L145.901 86.1429Z" fill="#F9A8A1"/>
<path d="M76.1886 86.1429L76.126 86.1389C75.8823 86.1029 75.7136 85.8789 75.747 85.6349C75.9246 84.3869 75.8501 82.7389 75.5678 81.0469C75.1637 81.2882 74.6016 81.9162 74.6303 83.5362C74.6355 83.7829 74.4402 83.9855 74.1938 83.9909H74.185C73.9422 83.9909 73.7449 83.7975 73.7397 83.5535C73.6965 81.2229 74.7536 80.4202 75.3979 80.1469C75.2683 79.5229 75.1088 78.9002 74.9255 78.2975C74.3672 76.4722 73.8771 76.2015 73.7345 76.1882C73.5089 76.2282 72.976 77.1215 73.0574 79.0055C73.0678 79.2522 72.875 79.4589 72.6303 79.4709C72.3979 79.4829 72.1766 79.2882 72.1667 79.0429C72.0933 77.3162 72.5047 75.4935 73.5834 75.3109C74.4422 75.1615 75.1782 76.0802 75.7771 78.0362C76.5964 80.7189 76.923 83.6789 76.6303 85.7589C76.5984 85.9815 76.4074 86.1429 76.1886 86.1429Z" fill="#F9A8A1"/>
<path fill-rule="evenodd" clip-rule="evenodd" d="M146.942 44.0468C146.912 49.7068 144.698 73.7962 144.698 73.7962C141.99 75.1442 140.852 84.3069 140.852 84.3069C140.852 84.3069 140.902 70.7642 140.937 68.8709C140.937 68.8709 140.8 67.0402 140.284 66.1215C139.77 65.2015 136.42 57.6002 136.42 57.6002C136.42 57.6002 135.369 55.4002 136.598 52.7055C137.35 51.0575 138.653 48.3655 139.693 46.2695C140.349 44.9468 138.989 44.7855 139.016 44.7828L146.942 44.0468Z" fill="#4C466A"/>
<path fill-rule="evenodd" clip-rule="evenodd" d="M75.1667 44.0468C75.199 49.7068 77.4115 73.7962 77.4115 73.7962C80.1197 75.1442 81.2583 84.3069 81.2583 84.3069C81.2583 84.3069 81.2077 70.7642 81.173 68.8709C81.173 68.8709 81.3103 67.0402 81.825 66.1215C82.3397 65.2015 85.6917 57.6002 85.6917 57.6002C85.6917 57.6002 86.7397 55.4002 85.5117 52.7055C84.7597 51.0575 83.457 48.3655 82.4184 46.2695C81.7624 44.9468 83.1197 44.7855 83.093 44.7828L75.1667 44.0468Z" fill="#4C466A"/>
<path fill-rule="evenodd" clip-rule="evenodd" d="M74.286 64.9002C72.6678 62.9109 68.1287 50.4655 69.1088 43.3428C70.088 36.2202 82.2316 20.9549 89.1876 16.8989C96.1436 12.8429 105.932 13.7535 108.54 18.1082C108.54 18.1082 113.142 8.25885 125.63 19.3762C125.63 19.3762 133.456 18.1735 139.385 23.6575C145.314 29.1415 151.56 39.2829 153.141 41.0869C154.721 42.8882 152.508 44.0149 150.373 43.4895C155.334 66.2695 135.148 72.4189 125.224 61.4215C125.224 61.4215 98.1076 69.5122 98.825 44.5189C98.825 44.5189 92.449 51.9149 95.481 60.5855C95.481 60.5855 95.945 61.6295 94.7183 62.5322C90.1983 65.8575 77.786 69.2002 74.286 64.9002Z" fill="#6D526F"/>
<path fill-rule="evenodd" clip-rule="evenodd" d="M141.912 26.2335C146.992 31.8495 151.784 39.5375 153.141 41.0869C154.721 42.8882 152.508 44.0149 150.373 43.4895C151.089 46.7775 151.278 49.7162 151.054 52.3095C118.772 61.4415 107.516 34.8522 107.516 34.8522C129.258 43.3535 138.605 32.2709 141.912 26.2335Z" fill="#9C6A7F"/>
<path fill-rule="evenodd" clip-rule="evenodd" d="M111.857 76.0749C111.936 76.4215 111.934 76.7975 111.83 77.0749C111.104 79.0255 107.912 87.4002 108.008 88.4789C108.216 89.8669 112.177 90.6188 114.273 90.5749C115.572 90.5468 114.297 95.1295 112.148 94.6349C109.856 94.1109 106.36 91.4522 105.966 88.7989C105.776 87.5229 107.805 81.6895 109.284 77.7522C109.665 76.7415 109.34 75.7522 109.141 75.1029C108.626 73.4109 111.593 74.9389 111.857 76.0749Z" fill="#F9A8A1"/>
<path fill-rule="evenodd" clip-rule="evenodd" d="M101.193 76.3175C102.062 75.8442 102.696 74.2935 102.622 73.9509C102.594 73.8109 102.5 73.8282 102.274 73.8509C101.3 73.9495 100.468 73.5882 99.561 73.3042C97.9063 72.7882 94.7863 71.8682 92.5196 71.5349C89.289 71.0562 87.8397 73.5562 87.0357 74.9655C87.0357 74.9655 86.785 75.5309 87.4237 75.3642C88.065 75.1975 88.993 73.7469 90.5703 73.7842C91.7197 73.8109 95.8383 75.2962 97.9917 76.1002C99.1477 76.5335 99.9423 76.9989 101.193 76.3175Z" fill="#3E3155"/>
<path fill-rule="evenodd" clip-rule="evenodd" d="M98.4077 82.2655C98.4077 82.2655 99.2997 82.4988 100.124 82.1255C100.945 81.7495 101.62 80.3802 101.578 80.0642C101.536 79.7522 101.092 80.2535 99.521 79.5482C97.9784 78.8562 92.2677 77.1868 88.3464 81.2442C87.6717 81.9428 88.1877 82.4815 89.041 82.1922C89.8944 81.9042 93.529 80.0348 98.4077 82.2655Z" fill="#3E3155"/>
<path fill-rule="evenodd" clip-rule="evenodd" d="M120.224 74.1869C119.352 73.7122 118.721 72.1629 118.792 71.8189C118.82 71.6802 118.914 71.6975 119.142 71.7189C120.114 71.8162 120.948 71.4575 121.854 71.1735C123.508 70.6549 126.628 69.7389 128.896 69.4042C132.125 68.9242 133.577 71.4229 134.377 72.8335C134.377 72.8335 134.632 73.3989 133.989 73.2309C133.349 73.0642 132.422 71.6162 130.844 71.6522C129.696 71.6802 125.576 73.1642 123.422 73.9709C122.265 74.4029 121.472 74.8669 120.224 74.1869Z" fill="#3E3155"/>
<path fill-rule="evenodd" clip-rule="evenodd" d="M123.008 81.7322C123.008 81.7322 122.114 81.9655 121.292 81.5922C120.469 81.2162 119.794 79.8482 119.836 79.5335C119.88 79.2162 120.324 79.7202 121.893 79.0149C123.438 78.3215 129.148 76.6548 133.068 80.7095C133.745 81.4108 133.228 81.9482 132.374 81.6602C131.521 81.3708 127.886 79.5029 123.008 81.7322Z" fill="#3E3155"/>
<path d="M112.028 99.1949C108.398 99.1949 104.976 98.8109 102.128 98.0882C101.652 97.9682 101.365 97.4829 101.484 97.0055C101.605 96.5282 102.093 96.2362 102.568 96.3629C107.906 97.7162 116.168 97.7135 121.486 96.3629C121.957 96.2349 122.45 96.5282 122.57 97.0055C122.693 97.4815 122.404 97.9682 121.926 98.0882C119.086 98.8109 115.661 99.1949 112.028 99.1949Z" fill="#F9A8A1"/>
<path d="M112.028 103.255C110.732 103.255 109.445 103.204 108.206 103.104C107.716 103.067 107.352 102.638 107.39 102.146C107.429 101.655 107.864 101.27 108.349 101.33C110.736 101.519 113.325 101.519 115.705 101.33C116.18 101.267 116.626 101.655 116.665 102.146C116.704 102.638 116.338 103.067 115.849 103.104C114.609 103.204 113.322 103.255 112.028 103.255Z" fill="#F9A8A1"/>
<path d="M137.45 20.7335L137.218 20.6682C130.232 16.4108 125.384 19.9695 125.182 20.1242C124.984 20.2709 124.708 20.2335 124.557 20.0375C124.409 19.8428 124.446 19.5642 124.642 19.4162C124.696 19.3708 130.153 15.3202 137.684 19.9068C137.893 20.0335 137.96 20.3095 137.832 20.5202C137.748 20.6562 137.601 20.7335 137.45 20.7335ZM113.832 64.3402H113.826C108.578 64.2775 104.632 62.7495 102.096 59.7962C98.2623 55.3295 99.0703 49.2828 99.1063 49.0282C99.1409 48.7855 99.3623 48.6188 99.6103 48.6495C99.8543 48.6842 100.024 48.9095 99.9889 49.1522C99.9809 49.2108 99.205 55.0668 102.778 59.2228C105.138 61.9695 108.86 63.3908 113.836 63.4482C114.084 63.4508 114.28 63.6522 114.277 63.8988C114.276 64.1428 114.076 64.3402 113.832 64.3402Z" fill="#6D526F"/>
<path d="M143.801 65.3349C143.646 65.3349 143.497 65.2549 143.416 65.1135C143.292 64.9002 143.365 64.6269 143.578 64.5042C149.649 60.9962 152.028 53.1762 149.937 43.5855C149.886 43.3442 150.038 43.1069 150.278 43.0535C150.521 43.0095 150.756 43.1549 150.81 43.3949C152.984 53.3842 150.448 61.5642 144.024 65.2749L143.801 65.3349ZM111.044 123.214C94.141 123.214 82.9837 108.132 78.9144 92.7002C75.9761 92.3642 73.5012 90.4442 71.9064 87.2495C69.7433 82.9109 69.5361 76.8242 71.4558 73.9589C72.1798 72.8775 73.1652 72.3482 74.2808 72.4309C74.5256 72.4495 74.7105 72.6615 74.6922 72.9082C74.6766 73.1522 74.4741 73.3335 74.2173 73.3189C73.4116 73.2589 72.7397 73.6442 72.1965 74.4549C70.6584 76.7522 70.4897 82.4082 72.7042 86.8522C73.7084 88.8642 75.5417 91.2695 78.677 91.7695C78.3877 90.5895 78.141 89.4135 77.9344 88.2429C77.8928 87.9989 78.0544 87.7682 78.297 87.7269C78.565 87.6869 78.7717 87.8482 78.8117 88.0882C79.033 89.3562 79.3077 90.6309 79.629 91.9029C79.7744 91.9829 79.869 92.1429 79.8597 92.3189L79.7917 92.5349C83.7864 107.614 94.6384 122.322 111.044 122.322C111.29 122.322 111.49 122.523 111.49 122.768C111.49 123.015 111.29 123.214 111.044 123.214Z" fill="white"/>
</g>
<defs>
<clipPath id="clip0_1_1358">
<rect width="224" height="234" fill="white"/>
</clipPath>
</defs>
</svg>
