<svg width="224" height="234" viewBox="0 0 224 234" fill="none" xmlns="http://www.w3.org/2000/svg">
<g clip-path="url(#clip0_1_1358)">
<path fill-rule="evenodd" clip-rule="evenodd" d="M43.5932 204.789C40.7188 205.091 36.8021 204.293 36.5036 200.036C36.2027 195.776 40.5817 195.528 40.6651 195.66C40.7484 195.792 43.7755 201.204 43.7755 201.317L43.5932 204.789Z" fill="#FBB873"/>
<path fill-rule="evenodd" clip-rule="evenodd" d="M94.737 143.085H129.354V126.471C131.486 125.765 133.734 124.904 133.734 124.904L132.298 123.092C132.298 123.092 129.354 121.803 129.354 118.043V86.0627H94.737V118.043C94.737 121.803 91.7917 123.092 91.7917 123.092L90.3557 124.904C90.3557 124.904 92.601 125.765 94.737 126.471V143.085Z" fill="#FCD1C8"/>
<path fill-rule="evenodd" clip-rule="evenodd" d="M94.737 107.745V118.043C94.737 119.64 94.205 120.792 93.593 121.587C98.9757 126.109 112.734 134.408 127.074 116.948L105.096 104.091C105.096 104.091 99.3543 106.144 94.737 107.745Z" fill="#F9A8A1"/>
<path fill-rule="evenodd" clip-rule="evenodd" d="M59.3381 134.472C60.7157 133.804 78.6496 126.841 91.7917 123.092C95.6291 126.921 106.413 135.919 112.044 135.919C117.408 135.919 128.461 126.921 132.298 123.092L163.398 131.047V192.827L162.369 204.658H64.2397L59.3381 134.472Z" fill="#FF0001"/>
<path fill-rule="evenodd" clip-rule="evenodd" d="M163.398 173.375V192.827L163.161 195.555C153.67 196.625 124.825 200.101 120.532 200.899C117.489 201.46 96.5317 203.64 79.7557 204.658H64.2397L63.2157 190.029C65.5626 185.404 67.825 181.474 67.825 181.474C67.825 181.474 71.6954 174.932 93.2824 182.888C114.868 190.844 137.596 191.28 153.72 176.193C158.325 171.885 161.39 171.596 163.398 173.375Z" fill="#CC0001"/>
<path fill-rule="evenodd" clip-rule="evenodd" d="M95.1437 187.029C95.1437 187.029 90.1384 186.172 84.3224 186.577C78.508 186.982 70.26 188.425 70.26 188.425L67.3293 193.339L70.396 202.893C70.396 202.893 73.7756 204.381 75.4423 203.255C77.1089 202.127 95.6384 192.167 95.1437 187.029Z" fill="#FCD1C8"/>
<path fill-rule="evenodd" clip-rule="evenodd" d="M70.0376 194.445C70.0376 194.445 70.4402 197.849 73.4137 201.453L81.7997 199.019L109.926 200.731L124.101 219.323C124.101 219.323 121.825 219.57 109.477 223.629C97.125 227.684 87.929 232.735 70.5298 234.085C53.1313 235.44 48.7137 232.735 47.0001 224.711C45.2876 216.687 38.437 205.509 38.8876 194.781C39.337 184.055 56.7365 183.963 56.7365 183.963C56.7365 183.963 70.3485 186.035 70.0376 194.445Z" fill="#FCD1C8"/>
<path fill-rule="evenodd" clip-rule="evenodd" d="M111.71 203.07L124.101 219.323C124.101 219.323 122.054 219.546 111.326 223.025C109.892 212.599 97.0424 207.287 97.0424 207.287L110.24 202.727C110.742 202.84 111.232 202.956 111.71 203.07Z" fill="#F9A8A1"/>
<path fill-rule="evenodd" clip-rule="evenodd" d="M39.3813 201.169C38.9959 199.041 38.7979 196.904 38.8875 194.781C39.2157 186.956 48.5574 184.791 53.5913 184.192L58.575 190.44C58.575 190.44 45.2083 193.321 39.3813 201.169Z" fill="#F9A8A1"/>
<path fill-rule="evenodd" clip-rule="evenodd" d="M133.184 193.88L136.441 191.92C136.441 191.92 140.394 189.821 144.812 186.576C149.23 183.332 152.925 182.429 157.614 183.511C162.302 184.593 163.398 190.093 163.398 190.093C163.398 190.093 160.229 198.205 157.344 196.853C154.458 195.503 133.184 193.88 133.184 193.88Z" fill="#FCD1C8"/>
<path fill-rule="evenodd" clip-rule="evenodd" d="M186.333 186.737C186.333 186.737 183.534 208.268 176.39 218.157L152.852 191.828C152.852 191.828 151.764 185.905 152.841 180.789C153.92 175.672 153.92 175.672 153.92 175.672C153.92 175.672 174.834 171.974 175.825 172.516C176.817 173.057 186.284 181.169 186.333 186.737Z" fill="#FCD1C8"/>
<path fill-rule="evenodd" clip-rule="evenodd" d="M186.333 186.737C186.333 186.737 186.185 187.872 185.872 189.736C176.917 179.484 164.7 178.849 164.7 178.849L168.521 173.265C172.314 172.7 175.456 172.312 175.825 172.516C176.817 173.057 186.284 181.169 186.333 186.737Z" fill="#F9A8A1"/>
<path fill-rule="evenodd" clip-rule="evenodd" d="M187.552 186.017C187.44 169.175 181.777 135.987 163.398 131.047C163.398 131.047 155.638 142.203 155.096 164.741C155.096 164.741 151.13 173.216 151.852 179.525C151.852 179.525 151.896 180.427 152.841 180.789C152.841 180.789 175.153 173.576 186.333 186.737C186.333 186.737 187.572 186.987 187.552 186.017Z" fill="#FF0001"/>
<path fill-rule="evenodd" clip-rule="evenodd" d="M187.552 186.017C187.541 184.399 187.478 182.624 187.358 180.739C174.565 167.824 151.786 177.912 151.764 177.923C151.764 178.468 151.792 179.005 151.852 179.525C151.852 179.525 151.896 180.427 152.841 180.789C152.841 180.789 175.153 173.576 186.332 186.737C186.332 186.737 187.572 186.987 187.552 186.017Z" fill="#00FF00"/>
<path fill-rule="evenodd" clip-rule="evenodd" d="M59.3381 134.472C59.3381 134.472 44.375 140.861 41.7599 154.836C39.147 168.808 35.8725 194.177 36.5037 200.036C40.3381 191.896 66.9813 186.132 70.0375 194.445C70.0375 194.445 71.7501 193.746 71.7501 192.304C71.7501 190.861 72.1511 167.911 67.2839 159.349C67.2839 159.349 67.647 139.339 59.3381 134.472Z" fill="#FF0001"/>
<path fill-rule="evenodd" clip-rule="evenodd" d="M36.6974 192.357C36.4334 195.831 36.3433 198.555 36.5037 200.036C40.3381 191.896 66.9813 186.132 70.0376 194.445C70.0376 194.445 71.7501 193.746 71.7501 192.304C71.7501 191.997 71.7684 190.705 71.7501 188.788C54.6532 178.312 36.6974 192.357 36.6974 192.357Z" fill="#00FF00"/>
<path fill-rule="evenodd" clip-rule="evenodd" d="M95.1437 187.029C95.1437 187.029 110.557 190.635 122.908 191.899C135.257 193.161 154.461 188.832 165.098 195.143C175.737 201.453 177.901 209.658 177.901 213.353C177.901 217.049 174.653 223 166.27 224.172C157.886 225.344 137.333 224.623 121.374 218.312C105.418 212 91.3544 202.084 73.4137 201.453L95.1437 187.029Z" fill="#FCD1C8"/>
<path d="M165.098 195.588L164.87 195.525C161.562 193.564 157.426 192.645 152.898 192.272L152.732 192.257C147.857 191.872 142.529 192.103 137.294 192.329L136.401 192.369H136.381C136.145 192.369 135.946 192.182 135.934 191.943C135.925 191.694 136.116 191.489 136.362 191.477L137.256 191.44C142.346 191.217 147.521 190.994 152.318 191.333C152.076 189.708 151.506 184.968 152.406 180.694C152.456 180.456 152.692 180.307 152.934 180.351C153.174 180.404 153.328 180.64 153.278 180.88C152.377 185.157 153.028 190.08 153.232 191.404C157.777 191.804 161.945 192.755 165.325 194.758C165.536 194.885 165.606 195.158 165.481 195.369C165.398 195.509 165.25 195.588 165.098 195.588ZM124.07 219.755L123.924 219.732C123.008 219.413 122.101 219.077 121.21 218.727C116.597 216.901 112.084 214.746 107.717 212.667C96.589 207.358 86.0784 202.346 73.4032 201.9C73.2756 201.885 68.1376 201.858 63.337 204.411C63.1236 204.528 62.8517 204.446 62.7356 204.227C62.6194 204.011 62.7028 203.74 62.9194 203.625C66.7902 201.568 70.7736 201.125 72.5184 201.031C69.9933 197.643 69.6121 194.632 69.5965 194.497C69.5662 194.252 69.7408 194.032 69.9845 194.003C70.2209 193.976 70.4506 194.148 70.4793 194.392C70.4829 194.424 70.8996 197.623 73.6324 201.016C86.4077 201.516 97.4344 206.776 108.101 211.861C112.453 213.937 116.953 216.082 121.538 217.899C122.418 218.245 123.312 218.575 124.216 218.889C124.448 218.969 124.57 219.224 124.492 219.456C124.426 219.64 124.256 219.755 124.07 219.755Z" fill="#F9A8A1"/>
<path d="M70.0376 194.891C69.8632 194.891 69.6965 194.787 69.6261 194.615C69.534 194.388 69.6408 194.127 69.8684 194.032C69.8824 194.025 71.3042 193.425 71.3042 192.304L71.3074 191.981C71.3621 184.665 71.0402 166.857 66.897 159.568L66.8381 159.34C66.8397 159.307 66.8908 156.107 66.435 152.023C66.4084 151.779 66.5861 151.56 66.8293 151.531C67.0782 151.523 67.2938 151.681 67.323 151.925C67.4454 153.039 67.534 154.089 67.5933 155.031L68.1954 154.196C68.3381 153.995 68.6184 153.951 68.8162 154.096C69.0152 154.239 69.0626 154.517 68.9168 154.717L67.6704 156.445C67.7329 157.882 67.7329 158.896 67.7313 159.235C71.9246 166.773 72.2528 184.635 72.1974 191.988L72.1954 192.304C72.1954 194.027 70.2861 194.824 70.2058 194.856L70.0376 194.891Z" fill="#CC0001"/>
<path fill-rule="evenodd" clip-rule="evenodd" d="M87.4744 124.383C89.0837 126.891 91.721 129.709 94.737 132.352C100.765 137.64 108.289 142.229 112.044 142.229C115.68 142.229 123.158 137.417 129.354 131.973C132.298 129.388 134.953 126.66 136.768 124.237L132.298 123.092C128.461 126.921 117.408 135.919 112.044 135.919C106.413 135.919 95.629 126.921 91.7917 123.092C90.3984 123.489 88.9504 123.923 87.4744 124.383Z" fill="#00FF00"/>
<path d="M152.841 181.235L152.684 181.204C151.478 180.744 151.409 179.596 151.406 179.548C150.71 173.481 154.213 165.599 154.653 164.637C154.702 162.604 154.816 160.585 154.988 158.603L154.089 157.146C153.958 156.937 154.024 156.664 154.233 156.533C154.445 156.407 154.718 156.468 154.846 156.677L155.128 157.135C155.216 156.287 155.314 155.446 155.424 154.615C155.456 154.372 155.656 154.203 155.924 154.232C156.168 154.265 156.34 154.489 156.308 154.733C155.88 157.964 155.622 161.336 155.541 164.752L155.5 164.929C155.461 165.013 151.594 173.365 152.294 179.476C152.301 179.563 152.361 180.127 153 180.372C153.232 180.458 153.346 180.716 153.257 180.946C153.19 181.125 153.021 181.235 152.841 181.235Z" fill="#CC0001"/>
<path d="M186.658 187.211C186.445 187.211 186.282 187.182 186.245 187.175C186.005 187.125 185.849 186.893 185.897 186.651C185.944 186.408 186.18 186.253 186.42 186.3C186.604 186.335 186.928 186.333 187.046 186.232C187.064 186.216 187.109 186.18 187.106 186.025C187.017 172.606 182.562 136.659 163.284 131.476L132.188 123.524C131.949 123.463 131.806 123.22 131.866 122.981C131.926 122.743 132.164 122.604 132.409 122.66L163.509 130.615C183.33 135.943 187.906 172.411 187.997 186.016C188.008 186.488 187.797 186.767 187.617 186.915C187.328 187.156 186.948 187.211 186.658 187.211ZM36.5037 200.481C36.2787 200.481 36.086 200.312 36.0594 200.082C35.4115 194.057 38.7807 168.344 41.323 154.752C43.9506 140.708 59.0115 134.127 59.1637 134.063C60.5235 133.404 78.3803 126.453 91.669 122.664C91.909 122.6 92.1503 122.735 92.221 122.968C92.289 123.205 92.1503 123.453 91.9143 123.52C78.6694 127.297 60.9031 134.208 59.5323 134.875C59.364 134.945 44.7365 141.347 42.1974 154.916C39.6667 168.456 36.3058 194.035 36.9465 199.987C36.9725 200.232 36.7954 200.452 36.5522 200.479L36.5037 200.481Z" fill="white"/>
<path fill-rule="evenodd" clip-rule="evenodd" d="M80.437 92.5053C70.1173 91.9706 69.2449 73.6773 75.2027 74.0787C80.1663 74.4133 81.205 77.5773 81.5343 78.9053C81.8623 80.2346 80.437 92.5053 80.437 92.5053Z" fill="#FCD1C8"/>
<path fill-rule="evenodd" clip-rule="evenodd" d="M144.51 92.5053C154.829 91.9706 155.702 73.6773 149.742 74.0787C144.781 74.4133 143.742 77.5773 143.412 78.9053C143.084 80.2346 144.51 92.5053 144.51 92.5053Z" fill="#FCD1C8"/>
<path fill-rule="evenodd" clip-rule="evenodd" d="M146.37 56.6947V80.1053C146.37 99.8386 132.922 121.419 112.477 121.419C92.0317 121.419 78.5818 99.8386 78.5818 80.1053V56.6947C78.5818 12.1507 146.37 12.1507 146.37 56.6947Z" fill="#FCD1C8"/>
<path fill-rule="evenodd" clip-rule="evenodd" d="M146.37 56.6947V63.8987C144.857 65.484 143.313 65.7547 142.673 62.5747C141.049 54.516 126.365 53.0947 126.365 53.0947L122.685 48.7147C122.685 48.7147 138.872 51.8173 146.26 53.8213C146.325 54.76 146.37 55.712 146.37 56.6947ZM78.5818 70.6013V58.2067C82.437 53.7413 87.7583 49.932 87.7983 49.94C86.9703 49.576 92.5677 53.8533 92.5677 53.8533C92.5677 53.8533 94.305 75.5853 79.5957 70.9653C79.2343 70.8507 78.901 70.7293 78.5818 70.6013Z" fill="#F9A8A1"/>
<path fill-rule="evenodd" clip-rule="evenodd" d="M128.434 72.8093H128.437C130.9 72.8093 132.916 74.8253 132.916 77.2907V80.0147C132.916 82.4787 130.9 84.492 128.437 84.492H128.434C125.972 84.492 123.957 82.4787 123.957 80.0147V77.2907C123.957 74.8253 125.972 72.8093 128.434 72.8093Z" fill="#3E3155"/>
<path fill-rule="evenodd" clip-rule="evenodd" d="M96.5183 72.8093H96.5156C94.0516 72.8093 92.0356 74.8253 92.0356 77.2907V80.0147C92.0356 82.4787 94.0516 84.492 96.5156 84.492H96.5183C98.9796 84.492 100.996 82.4787 100.996 80.0147V77.2907C100.996 74.8253 98.9796 72.8093 96.5183 72.8093Z" fill="#3E3155"/>
<path fill-rule="evenodd" clip-rule="evenodd" d="M113.21 75.5413C113.294 75.9013 113.289 76.2933 113.182 76.5827C112.428 78.612 109.106 87.324 109.206 88.448C109.424 89.8907 113.544 90.6746 115.724 90.6266C117.076 90.5986 115.75 95.3667 113.513 94.8507C111.13 94.3067 107.492 91.5413 107.081 88.7813C106.884 87.452 108.992 81.3826 110.534 77.2866C110.929 76.2346 110.59 75.2067 110.385 74.532C109.85 72.7707 112.936 74.3586 113.21 75.5413Z" fill="#F9A8A1"/>
<path d="M147.782 86.692C147.565 86.692 147.374 86.5333 147.341 86.3133C147.044 84.328 147.377 81.5107 148.208 78.9613C148.972 76.6253 149.844 76.2653 150.437 76.3693C151.372 76.5413 151.94 77.9733 151.85 79.9347C151.841 80.18 151.62 80.3933 151.385 80.3587C151.14 80.3493 150.949 80.14 150.961 79.896C151.036 78.228 150.565 77.2987 150.278 77.2467C150.15 77.2187 149.613 77.5307 149.056 79.2386C148.872 79.7986 148.714 80.3773 148.585 80.96C149.237 81.2213 150.302 81.988 150.258 84.2133C150.254 84.456 150.054 84.6493 149.812 84.6493H149.805C149.56 84.6453 149.362 84.4413 149.366 84.1947C149.398 82.648 148.812 82.0653 148.405 81.8467C148.12 83.4427 148.046 85 148.224 86.1813C148.26 86.424 148.092 86.6506 147.849 86.6866L147.782 86.692Z" fill="#F9A8A1"/>
<path d="M77.1693 86.692L77.1027 86.6866C76.8588 86.6506 76.6912 86.424 76.7292 86.1813C76.9063 85 76.8303 83.4453 76.5469 81.8493C76.1375 82.0707 75.5541 82.6547 75.5833 84.1947C75.588 84.4413 75.3927 84.6453 75.1469 84.6493C74.8891 84.6067 74.6973 84.4587 74.6921 84.2133C74.6495 81.988 75.7156 81.2213 76.3672 80.96C76.2364 80.3773 76.0781 79.7986 75.8959 79.2386C75.338 77.5306 74.8303 77.2173 74.6729 77.2467C74.3875 77.2987 73.9167 78.228 73.9907 79.896C74.0027 80.14 73.8125 80.3493 73.5645 80.3587C73.3412 80.384 73.112 80.18 73.1016 79.9347C73.0131 77.9733 73.5792 76.5413 74.5131 76.3693C75.112 76.2586 75.9792 76.6227 76.7432 78.9627C77.574 81.5107 77.9063 84.328 77.6088 86.3133C77.5765 86.5333 77.3864 86.692 77.1693 86.692Z" fill="#F9A8A1"/>
<path d="M112.477 99.6453C109.636 99.6453 106.95 99.2666 104.714 98.552C104.245 98.4026 103.986 97.9013 104.138 97.432C104.286 96.964 104.784 96.7 105.257 96.8547C109.325 98.1533 115.628 98.1533 119.693 96.8547C120.164 96.7 120.664 96.9627 120.812 97.432C120.964 97.9013 120.705 98.4026 120.237 98.552C118 99.2666 115.317 99.6453 112.477 99.6453Z" fill="#F9A8A1"/>
<path d="M112.477 103.599C111.326 103.599 110.196 103.544 109.114 103.435C108.626 103.385 108.268 102.948 108.317 102.459C108.368 101.969 108.79 101.632 109.294 101.661C111.336 101.867 113.617 101.867 115.658 101.661C116.15 101.617 116.584 101.968 116.634 102.459C116.684 102.948 116.328 103.385 115.837 103.435C114.757 103.544 113.626 103.599 112.477 103.599Z" fill="#F9A8A1"/>
<path fill-rule="evenodd" clip-rule="evenodd" d="M148.169 74.3027C148.169 74.3027 144.576 74.4093 144.43 85.1173C144.43 85.1173 143.8 84.684 143.39 80.6173C142.98 76.5507 143.27 67.948 143.27 67.948C143.27 67.948 140.041 66.3507 139.877 63.7027C139.714 61.052 139.733 51.708 137.301 48.368C137.301 48.368 141.693 44.1947 144.306 43.1067C152.8 49.6827 149.344 65.2933 148.169 74.3027Z" fill="#3E3155"/>
<path fill-rule="evenodd" clip-rule="evenodd" d="M76.7755 74.3027C76.7755 74.3027 80.3677 74.4093 80.5157 85.1173C80.5157 85.1173 81.145 84.684 81.5557 80.6173C81.9663 76.5507 81.6743 67.948 81.6743 67.948C81.6743 67.948 84.905 66.3507 85.0677 63.7027C85.2317 61.052 85.213 51.708 87.645 48.368C87.645 48.368 83.2543 44.1947 80.641 43.1067C72.9917 50.456 75.5626 64.992 76.7755 74.3027Z" fill="#3E3155"/>
<path fill-rule="evenodd" clip-rule="evenodd" d="M123.12 71.4267C121.429 71.616 120.812 68.184 120.776 67.9893L120.773 67.8493C120.801 67.716 121.013 67.172 121.114 67.2026C121.114 67.2026 121.366 67.7507 122.081 67.6973C122.508 67.6667 125.846 67.1653 128.86 66.7147C130.182 66.516 133.276 66.0706 134.484 66.4733C135.848 66.928 135.865 68.812 136.037 70.3747L135.948 70.6373L135.682 70.568C135.246 69.6667 134.552 69.4426 133.716 69.34C131.641 69.0773 125.86 71.1253 123.12 71.4267Z" fill="#3E3155"/>
<path fill-rule="evenodd" clip-rule="evenodd" d="M144.297 70.632C154.224 70.2427 155.404 48.3173 147.901 40.8386C147.901 40.8386 150.532 41.6453 151.641 39.328C152.882 36.732 149.64 37.1747 144.46 34.5653C132.784 28.6827 98.817 -6.31336 86.6477 28.252C86.6477 28.252 86.9997 25.6587 86.1224 24.1973C85.2424 22.736 82.6917 26.6013 84.317 30.5626C53.1324 45.9947 90.2784 96.4493 93.1437 47.96C93.1437 47.96 101.674 57.2 110.117 58.804C118.56 60.4053 111.786 52.58 107.742 50.7893C128.361 56.1373 150.182 47.5133 144.297 70.632Z" fill="#3E3155"/>
<path fill-rule="evenodd" clip-rule="evenodd" d="M147.288 35.804C146.434 35.4787 145.484 35.0827 144.46 34.5653C140.23 32.4347 133.074 26.484 125.09 21.4013C122.076 26.5933 114.724 34.7347 99.161 31.436C99.161 31.436 115.953 53.1893 147.288 35.804Z" fill="#595176"/>
<path d="M84.8983 32.0707L84.6436 31.9893C84.565 31.936 82.737 30.6173 82.2676 27.424C82.2316 27.18 82.401 26.9533 82.6436 26.9187C82.893 26.8787 83.1116 27.052 83.1476 27.2933C83.5596 30.0867 85.1423 31.2493 85.157 31.2613C85.357 31.404 85.4036 31.6827 85.2623 31.8827C85.1743 32.0053 85.0383 32.0707 84.8983 32.0707ZM106.278 60.0027L106.098 59.964C91.2236 53.4413 92.393 45.128 92.4503 44.7787C92.4916 44.536 92.7076 44.3693 92.961 44.4093C93.2023 44.4507 93.3676 44.6773 93.3303 44.9187C93.317 45 92.2663 52.9267 106.458 59.1493C106.682 59.2467 106.786 59.5107 106.686 59.7373C106.614 59.904 106.449 60.0027 106.278 60.0027Z" fill="#3E3155"/>
<path fill-rule="evenodd" clip-rule="evenodd" d="M101.849 71.4053C103.541 71.5853 104.144 68.152 104.18 67.9573V67.8173C104.153 67.684 103.938 67.14 103.836 67.172C103.836 67.172 103.589 67.7213 102.872 67.672C102.445 67.6413 99.1063 67.1533 96.0903 66.716C94.7663 66.5213 91.6703 66.0907 90.4649 66.4987C89.1036 66.96 89.0929 68.844 88.9263 70.4067L89.0183 70.668L89.2823 70.5987C89.7156 69.6947 90.4089 69.468 91.2449 69.3613C93.3196 69.0907 99.1089 71.1147 101.849 71.4053Z" fill="#3E3155"/>
<path d="M147.145 70.2786C146.988 70.2786 146.837 70.196 146.756 70.0506C146.636 69.836 146.712 69.5653 146.926 69.444C149.521 67.9893 151.392 64.376 152.057 59.5306C153.046 52.32 151.208 44.7626 147.589 41.1533C147.442 41.0106 147.417 40.7853 147.521 40.6093C147.625 40.4346 147.836 40.3493 148.032 40.4106C148.122 40.4386 150.312 41.072 151.24 39.1346C151.45 38.692 151.51 38.3666 151.417 38.1426C151.213 37.6586 150.217 37.312 148.837 36.8333C147.596 36.4026 146.052 35.8666 144.258 34.9626C141.953 33.8 138.805 31.5293 135.16 28.9013C124.604 21.284 110.148 10.8546 99.0463 14.332C93.8077 15.9746 89.7757 20.708 87.0677 28.4013C86.9864 28.6293 86.733 28.752 86.4997 28.672C86.2677 28.5906 86.145 28.336 86.229 28.104C89.033 20.132 93.257 15.2133 98.781 13.4826C110.3 9.86931 124.97 20.4506 135.68 28.1786C139.294 30.7866 142.417 33.036 144.658 34.168C146.401 35.044 147.913 35.5706 149.13 35.9906C150.786 36.568 151.882 36.948 152.24 37.7986C152.437 38.276 152.374 38.824 152.041 39.5213C151.35 40.9653 150.088 41.3986 149.026 41.424C152.294 45.472 153.889 52.732 152.938 59.6506C152.236 64.776 150.202 68.628 147.362 70.2226L147.145 70.2786ZM103.325 120.339L103.181 120.313C92.393 116.588 83.601 106.083 79.929 92.9133C73.2449 92.208 70.7017 84.3906 71.0933 79.2733C71.3725 75.6453 72.9246 73.5106 75.2329 73.6346C75.4793 73.6506 75.6651 73.864 75.6479 74.1093C75.6303 74.3533 75.4194 74.5626 75.1746 74.5226C73.0965 74.3586 72.1667 76.92 71.9813 79.344C71.6235 84.0173 73.8381 91.1066 79.681 91.9826C79.3717 90.7866 79.105 89.568 78.8823 88.332C78.8381 88.0893 78.9997 87.8573 79.2423 87.8146C79.4743 87.768 79.7157 87.932 79.7597 88.1746C82.4517 103.14 91.7583 115.427 103.472 119.471C103.704 119.552 103.826 119.805 103.748 120.037C103.684 120.224 103.51 120.339 103.325 120.339Z" fill="white"/>
</g>
<defs>
<clipPath id="clip0_1_1358">
<rect width="224" height="234" fill="white"/>
</clipPath>
</defs>
</svg>
