<svg width="500" height="500" viewBox="0 0 500 500" fill="none" xmlns="http://www.w3.org/2000/svg">
<path d="M247.969 42.888C245.039 48.8019 243.125 52.1309 242.695 52.2484C242.305 52.3659 237.852 53.0317 232.813 53.7366C227.773 54.4024 223.516 55.1074 223.32 55.264C223.164 55.3815 226.328 58.7497 230.313 62.7053L237.578 69.9116L235.938 79.3503C235.039 84.5201 234.219 89.0632 234.141 89.4157C234.023 89.8073 234.063 90.1206 234.258 90.1206C234.414 90.1206 238.633 88.0057 243.555 85.4209L252.539 80.7603L256.836 83.0318C259.219 84.2851 263.359 86.4783 266.055 87.9274L270.977 90.5123L269.258 80.2511L267.5 69.9508L275.039 62.5878C279.219 58.5539 282.461 55.264 282.305 55.264C281.367 55.264 262.969 52.4442 262.422 52.2092C262.031 52.0525 259.805 47.9794 257.266 42.8097C254.805 37.8357 252.734 33.7235 252.656 33.7235C252.578 33.7235 250.469 37.8357 247.969 42.888Z" fill="#FF0000"/>
<path d="M329.062 57.653C328.672 58.123 326.25 60.4337 323.75 62.7836L319.141 67.0917L312.422 65.6818C308.711 64.8985 305.469 64.2719 305.195 64.2719C304.922 64.2719 306.133 67.1309 307.891 70.6166C309.609 74.1414 311.055 77.1571 311.055 77.392C311.055 77.5879 309.453 80.6035 307.5 84.05C305.547 87.4574 303.984 90.3164 304.023 90.3556C304.062 90.3947 306.992 90.0031 310.547 89.4939C314.102 88.9848 317.383 88.5931 317.852 88.554C318.477 88.554 320.078 90.0422 323.477 93.8412C326.133 96.7394 328.398 99.011 328.516 98.8151C328.672 98.6585 329.258 95.7211 329.844 92.2746C330.43 88.8281 331.016 85.7341 331.094 85.3816C331.211 85.0292 333.906 83.5801 337.617 81.896C341.094 80.3294 344.102 78.9195 344.258 78.7628C344.414 78.6061 341.875 77.0396 338.594 75.3163C335.312 73.5539 332.383 71.9482 332.148 71.7915C331.836 71.5957 331.328 68.6975 330.82 64.2719C330.391 60.2771 329.961 56.9872 329.922 56.9089C329.844 56.8697 329.492 57.1831 329.062 57.653Z" fill="#FF0000"/>
<path d="M170.938 58.9063C170.82 59.8071 170.625 63.0186 170.469 66.0343C170.312 69.0499 170.039 71.7131 169.844 71.9873C169.648 72.2223 166.875 73.9847 163.672 75.9038C160.469 77.7837 157.812 79.4678 157.812 79.6244C157.812 79.7419 160.82 81.0735 164.531 82.5618L171.25 85.225L172.656 91.2955C173.438 94.6245 174.18 97.8752 174.336 98.4626C174.648 99.5592 174.805 99.4026 179.336 93.8804C181.914 90.7472 184.141 88.1623 184.297 88.1623C184.453 88.1623 187.383 88.4365 190.82 88.7498C194.258 89.0631 197.461 89.3373 197.93 89.3373C198.711 89.3373 198.359 88.6323 194.922 83.2667C192.773 79.9377 191.016 77.0395 191.016 76.8437C191.016 76.6087 192.266 73.5147 193.789 69.9116C195.273 66.3476 196.484 63.3711 196.406 63.2927C196.328 63.2536 193.125 64.0369 189.258 65.0552L182.266 66.9351L176.719 62.0786L171.172 57.2614L170.938 58.9063Z" fill="#FF0000"/>
<path d="M133.203 119.063C120.977 124.586 112.461 130.029 106.758 136.061C101.094 142.053 98.0468 147.967 96.875 155.212C96.4062 158.15 96.4453 166.609 96.9531 167.079C97.3047 167.432 102.969 166.648 105.859 165.865C118.75 162.34 126.953 153.685 132.344 137.862C134.687 131.048 137.695 117.536 136.875 117.536C136.68 117.536 135.039 118.241 133.203 119.063Z" fill="#FF0000"/>
<path d="M366.211 119.142C366.328 120.082 367.07 123.606 367.852 126.935C372.969 149.494 381.211 160.813 395.898 165.434C399.297 166.492 405.586 167.51 406.211 167.079C406.875 166.688 406.758 157.171 406.016 153.646C405.352 150.356 403.516 145.735 401.484 142.288C399.414 138.724 391.914 131.439 386.914 128.15C383.086 125.604 369.219 118.398 366.836 117.732C365.977 117.458 365.937 117.497 366.211 119.142Z" fill="#FF0000"/>
<path d="M75.4297 135.63C67.1484 152.471 64.8437 164.103 67.6172 175.03C69.0234 180.591 72.8906 187.445 76.7187 191.126C78.0078 192.38 78.125 192.419 79.0234 191.831C80.4687 190.891 84.0625 186.622 86.25 183.254C92.7343 173.267 93.0859 160.5 87.3047 145.343C85.625 140.956 79.6875 128.502 79.2578 128.502C79.1015 128.502 77.3828 131.713 75.4297 135.63Z" fill="#FF0000"/>
<path d="M420.781 134.259C419.297 137.471 417.578 141.191 416.992 142.601C410.781 157.405 410.117 169.429 414.961 179.494C417.266 184.351 419.336 187.132 423.594 191.165L425 192.497L426.797 190.774C427.774 189.795 429.609 187.445 430.899 185.526C438.164 174.52 438.594 161.753 432.227 145.46C430.352 140.682 424.375 128.502 423.867 128.502C423.711 128.502 422.305 131.087 420.781 134.259Z" fill="#FF0000"/>
<path d="M123.047 165.865C109.883 170.369 101.836 174.716 95.3906 180.787C88.2813 187.523 84.7266 195.199 84.1016 205.226L83.8672 209.299L88.5156 209.064C105 208.163 115.664 199.782 123.516 181.453C125.039 177.889 129.688 164.651 129.688 163.907C129.688 163.594 129.023 163.789 123.047 165.865Z" fill="#FF0000"/>
<path d="M374.883 168.137C378.008 178.28 381.524 186.27 385.391 192.262C388.281 196.727 393.477 201.897 397.5 204.247C402.773 207.341 409.922 209.181 416.758 209.181H419.258L419.023 204.951C418.516 195.239 415.039 187.758 407.852 180.865C400.703 174.011 390.391 168.842 374.141 163.907C373.594 163.75 373.711 164.416 374.883 168.137Z" fill="#FF0000"/>
<path d="M52.4219 180.043C51.0547 184.507 49.336 191.518 48.6328 195.474C47.6172 201.035 47.4219 211.609 48.2031 215.996C49.5313 223.085 52.5391 229.194 57.1094 234.09C59.336 236.479 64.375 240.513 65.0781 240.513C65.586 240.513 69.2969 234.521 70.5078 231.779C75.8203 219.677 73.7891 206.753 64.2578 192.105C62.3047 189.09 57.1094 182.079 54.1797 178.476L53.2422 177.301L52.4219 180.043Z" fill="#FF0000"/>
<path d="M446.094 182.158C437.383 193.32 432.578 202.132 430.625 210.591C429.492 215.408 429.688 222.458 431.016 226.962C432.188 230.839 435.274 237.223 437.031 239.299L438.125 240.63L440.039 239.338C445.43 235.617 450.313 229.664 452.734 223.829C455.547 217.014 456.367 207.223 454.883 197.628C454.219 193.202 451.289 181.022 450.352 178.711L449.805 177.419L446.094 182.158Z" fill="#FF0000"/>
<path d="M99.375 212.158C79.7656 225.278 71.0156 237.693 71.0156 252.458C71.0156 256.492 71.9141 262.798 72.6562 264.051C72.9297 264.443 73.9062 264.247 77.5 263.072C95.3906 257.158 103.555 242.863 104.57 215.526C104.687 211.844 104.727 208.79 104.609 208.79C104.492 208.79 102.148 210.317 99.375 212.158Z" fill="#FF0000"/>
<path d="M398.437 211.844C398.437 213.568 398.633 217.21 398.828 219.991C400.547 241.845 406.914 254.142 419.922 260.683C424.18 262.837 430.039 264.678 430.469 264.012C430.625 263.738 431.094 262.093 431.484 260.33C432.5 255.787 432.422 248.424 431.289 244.234C428.281 232.915 419.609 222.771 404.101 212.314C397.93 208.163 398.437 208.202 398.437 211.844Z" fill="#FF0000"/>
<path d="M34.1406 234.912C35.1172 248.698 37.5 258.685 41.6406 266.753C45.3515 273.921 50.1172 278.816 56.5625 282.145C60.8984 284.417 66.7578 286.257 67.1875 285.552C67.3437 285.278 67.8125 283.633 68.2031 281.871C69.2578 277.289 69.1797 269.221 68.0469 265.069C65.3515 255.161 57.7734 246.231 44.7265 237.497C40.5469 234.756 34.5703 231.114 34.1797 231.114C34.0234 231.114 33.9844 232.837 34.1406 234.912Z" fill="#FF0000"/>
<path d="M467.774 231.662C467.344 231.936 464.922 233.463 462.344 235.03C453.242 240.63 445.547 247.093 441.367 252.654C438.828 255.983 436.133 261.466 435.117 265.383C433.984 269.612 433.906 276.544 434.922 281.479C435.313 283.437 435.781 285.278 435.938 285.552C436.484 286.414 444.531 283.594 448.516 281.166C452.695 278.581 457.774 273.45 460.234 269.299C464.024 262.954 466.484 255.121 467.969 244.899C468.867 238.437 469.375 231.113 468.906 231.153C468.711 231.153 468.203 231.388 467.774 231.662Z" fill="#FF0000"/>
<path d="M98.3984 255.278C79.5312 274.743 74.2187 292.132 82.1094 308.738C83.0078 310.657 83.9062 312.184 84.1406 312.184C84.3359 312.184 85.7812 311.44 87.2656 310.54C97.6562 304.391 103.281 296.44 105.273 285.004C105.937 281.009 106.055 272.236 105.469 266.949C105 262.798 103.164 252.302 102.773 251.557C102.578 251.205 101.172 252.419 98.3984 255.278Z" fill="#FF0000"/>
<path d="M400.039 252.928C397.5 264.247 396.602 276.975 397.852 284.573C399.531 294.913 404.531 302.981 412.813 308.62C416.055 310.814 419.18 312.302 419.609 311.871C420.234 311.244 422.93 304.626 423.672 301.806C424.766 297.772 424.648 288.842 423.516 284.612C421.055 275.683 415.859 267.341 405.898 256.375C403.281 253.477 400.977 251.087 400.781 251.087C400.625 251.087 400.273 251.91 400.039 252.928Z" fill="#FF0000"/>
<path d="M28.125 282.654C28.125 282.772 29.4922 285.552 31.1328 288.803C36.6797 299.691 43.0078 308.15 49.375 313.242C52.9297 316.062 59.0234 319.195 62.8906 320.213C65.8984 320.996 73.9063 321.388 76.9531 320.918C79.0625 320.605 79.1016 320.566 79.2188 319.234C79.4141 316.923 77.5 310.304 75.4297 306.114C69.2969 293.699 57.6563 287.08 35.3516 283.398C29.2578 282.38 28.125 282.263 28.125 282.654Z" fill="#FF0000"/>
<path d="M467.539 283.398C447.695 286.845 436.602 292.367 430 302.08C426.797 306.819 424.336 313.712 424.102 318.451L424.023 320.566L426.172 320.918C429.18 321.388 437.617 320.957 440.43 320.213C443.516 319.352 448.555 317.002 451.523 314.965C459.219 309.717 466.563 300.043 473.789 285.631L475.391 282.419L474.141 282.458C473.438 282.458 470.469 282.889 467.539 283.398Z" fill="#FF0000"/>
<path d="M108.477 298.79C101.992 307.25 97.2265 315.553 94.8047 322.563C92.8906 328.124 92.3828 331.258 92.4219 336.662C92.5 342.106 93.3594 345.944 95.5469 350.566C97.0312 353.738 99.6484 358.007 100.078 358.007C100.625 358.007 106.523 353.307 108.477 351.271C118.242 341.166 120.508 327.576 115.586 308.111C114.453 303.529 111.797 294.952 111.562 294.952C111.484 294.952 110.078 296.675 108.477 298.79Z" fill="#FF0000"/>
<path d="M390 299.534C386.172 311.793 384.961 318.999 385.274 327.654C385.508 334.469 386.055 337.054 388.477 342.145C391.172 347.903 394.766 352.093 400.664 356.323C403.594 358.438 403.203 358.595 405.859 354.091C411.445 344.574 412.344 334.312 408.594 323.111C407.227 319.038 404.024 312.537 401.016 307.759C398.789 304.195 392.461 295.579 391.797 295.148C391.602 295.03 390.781 296.989 390 299.534Z" fill="#FF0000"/>
<path d="M127.617 328.516C122.539 339.051 120.078 346.689 119.141 354.835C117.812 366.036 121.094 375.905 128.789 384.287L131.055 386.715L133.672 383.856C145.273 371.48 146.758 357.185 138.594 337.641C136.875 333.568 131.211 322.367 130.82 322.367C130.703 322.367 129.258 325.148 127.617 328.516Z" fill="#FF0000"/>
<path d="M371.133 324.365C370.469 325.54 368.789 328.751 367.422 331.571C356.055 354.796 356.758 370.109 369.805 384.247L371.992 386.637L373.711 384.952C377.539 381.232 381.094 375.435 382.773 370.266C385.352 362.159 384.687 352.172 380.82 340.853C379.258 336.388 374.18 324.952 372.969 323.19L372.344 322.289L371.133 324.365Z" fill="#FF0000"/>
<path d="M36.9531 324.952C42.1484 332.903 46.5625 338.542 51.3672 343.32C55.8203 347.746 59.7656 350.644 64.5313 352.916C69.6484 355.383 73.1641 356.166 79.1016 356.206C83.75 356.206 85.7031 355.971 89.9219 354.835L91.3672 354.482L90.5859 351.662C88.1641 342.85 82.8906 335.37 76.2109 331.062C68.2031 325.931 57.7344 323.386 42.8125 322.876L35.4688 322.641L36.9531 324.952Z" fill="#FF0000"/>
<path d="M455.078 323.033C450.938 323.346 444.258 324.404 440.586 325.344C428.633 328.359 420.313 334.547 415.664 343.869C414.102 347.002 412.109 352.485 412.109 353.738C412.109 354.639 414.688 355.422 419.727 356.088C433.75 357.89 446.875 350.918 459.102 335.096C461.328 332.198 466.094 325.383 467.344 323.229C467.578 322.876 466.445 322.759 462.227 322.837C459.258 322.876 456.055 322.955 455.078 323.033Z" fill="#FF0000"/>
<path d="M152.187 348.138C152.109 348.294 151.641 351.427 151.172 355.07C150.078 363.451 150 373.634 150.937 379.352C152.852 390.827 157.93 399.208 166.406 405.005C168.398 406.336 172.344 408.53 172.812 408.53C173.633 408.53 176.992 399.522 177.734 395.37C178.359 391.924 178.047 384.522 177.187 381.349C175.156 374.025 171.328 367.642 163.906 359.221C160 354.835 152.5 347.668 152.187 348.138Z" fill="#FF0000"/>
<path d="M344.414 353.973C335.234 363.255 330.586 369.482 327.695 376.454C325.547 381.702 325.234 383.542 325.234 389.926C325.273 395.096 325.391 396.193 326.289 399.169C327.422 402.89 329.844 408.53 330.352 408.53C331.016 408.53 336.523 405.279 338.633 403.673C351.328 393.843 355.273 378.294 351.68 352.407C351.328 349.9 350.938 347.824 350.82 347.824C350.664 347.824 347.812 350.605 344.414 353.973Z" fill="#FF0000"/>
<path d="M74.2188 361.179C68.9063 361.649 58.9844 363.177 58.9844 363.49C58.9844 364.195 71.0547 375.435 74.8047 378.294C87.3438 387.694 98.6328 390.71 110.313 387.733C113.047 387.028 119.531 384.404 119.531 383.973C119.531 383.503 116.836 378.608 115.391 376.375C113.32 373.242 108.008 368.072 104.961 366.271C97.2656 361.728 86.8359 359.965 74.2188 361.179Z" fill="#FF0000"/>
<path d="M415.234 361.023C408.984 361.689 402.773 363.608 398.32 366.271C393.164 369.365 387.891 375.24 384.805 381.388C384.141 382.72 383.594 383.895 383.594 383.973C383.594 384.404 390.078 387.028 392.852 387.733C407.969 391.61 422.578 385.501 439.844 368.033C442.266 365.566 444.219 363.451 444.141 363.373C443.867 363.099 433.203 361.61 428.555 361.14C424.727 360.749 418.164 360.71 415.234 361.023Z" fill="#FF0000"/>
<path d="M182.617 380.762C182.773 381.271 183.867 383.895 185.039 386.597C193.516 406.219 203.906 417.342 216.836 420.631C220.43 421.571 226.133 422.041 229.102 421.65L231.328 421.376L231.055 418.987C229.258 401.558 219.922 390.945 200.742 384.522C196.953 383.229 187.305 380.723 183.828 380.096C182.383 379.861 182.344 379.861 182.617 380.762Z" fill="#FF0000"/>
<path d="M313.789 381.31C306.602 383.033 298.398 385.775 293.945 387.968C280.43 394.626 273.477 404.456 272.109 418.987L271.875 421.376L274.453 421.65C280.039 422.276 286.953 420.984 292.578 418.282C303.047 413.269 311.133 403.047 318.789 385.109C319.844 382.642 320.703 380.488 320.703 380.292C320.703 379.744 319.766 379.9 313.789 381.31Z" fill="#FF0000"/>
<path d="M115.859 391.924C110.234 392.785 98.3203 396.31 92.1875 398.895L90.9766 399.365L94.6094 401.95C109.492 412.446 121.914 417.185 133.203 416.637C140.273 416.284 146.211 414.169 152.227 409.861L154.688 408.099L153.828 406.845C151.914 404.143 146.133 398.582 143.359 396.741C136.094 391.963 126.445 390.279 115.859 391.924Z" fill="#FF0000"/>
<path d="M373.828 391.571C366.211 392.707 360.039 395.762 354.57 401.01C351.836 403.673 348.828 407.315 348.828 408.02C348.828 408.647 353.164 411.545 356.719 413.229C361.602 415.579 364.727 416.363 370.117 416.637C377.578 416.989 384.102 415.423 392.773 411.31C400.547 407.59 412.773 399.718 411.68 399.13C411.367 398.934 408.242 397.838 404.727 396.624C393.477 392.746 386.172 391.258 378.906 391.336C376.641 391.375 374.375 391.454 373.828 391.571Z" fill="#FF0000"/>
<path d="M164.844 413.66C156.797 414.874 145.703 420.357 134.57 428.582L130.273 431.754L134.766 433.282C140.82 435.357 148.516 437.316 153.711 438.099C160.078 439.117 169.258 438.765 173.945 437.355C179.766 435.632 183.906 433.243 188.242 429.13C190.82 426.663 193.75 423.216 193.75 422.59C193.75 422.002 188.164 418.242 184.961 416.715C180.313 414.522 176.641 413.621 171.68 413.425C169.336 413.347 166.25 413.464 164.844 413.66Z" fill="#FF0000"/>
<path d="M326.172 413.973C324.336 414.365 321.523 415.266 319.844 415.932C317.07 417.107 310.117 421.376 309.57 422.237C309.219 422.825 311.602 425.958 314.727 428.934C321.68 435.671 329.688 438.686 340.625 438.686C346.484 438.686 349.336 438.334 355.664 436.924C360.195 435.906 372.656 432.068 372.656 431.676C372.656 431.558 370.742 430.109 368.438 428.464C350.352 415.54 338.32 411.428 326.172 413.973Z" fill="#FF0000"/>
<path d="M247.656 422.316C244.492 424 242.656 427.799 243.242 431.402C243.594 433.595 245.586 436.336 247.656 437.394C250.234 438.765 254.024 438.53 256.328 436.885C258.438 435.436 259.766 433.047 260.039 430.383C260.274 427.642 258.75 424.548 256.328 422.825C253.945 421.18 250.195 420.984 247.656 422.316Z" fill="#FF0000"/>
<path d="M208.398 429.169C199.414 431.088 189.258 437.159 177.383 447.655L174.531 450.201L175.938 450.671C178.516 451.572 188.008 453.53 192.969 454.196C199.688 455.057 209.375 454.783 214.063 453.569C218.164 452.512 223.125 450.201 226.328 447.929C230.859 444.718 237.266 436.924 236.484 435.632C235.43 433.987 226.836 430.07 222.188 429.13C218.438 428.347 212.07 428.386 208.398 429.169Z" fill="#FF0000"/>
<path d="M281.68 428.895C277.305 429.835 268.008 433.869 266.758 435.436C266.211 436.101 267.5 438.334 270.586 442.015C276.25 448.752 284.141 453.06 293.125 454.313C297.422 454.94 305.039 454.861 310.43 454.156C317.187 453.256 328.555 450.71 328.477 450.083C328.477 449.966 326.719 448.36 324.57 446.519C313.672 437.237 305.625 432.303 297.266 429.796C294.57 429.013 292.93 428.778 288.672 428.66C285.781 428.582 282.617 428.699 281.68 428.895Z" fill="#FF0000"/>
<path d="M247.969 42.888C245.039 48.8019 243.125 52.1309 242.695 52.2484C242.305 52.3659 237.852 53.0317 232.813 53.7366C227.773 54.4024 223.516 55.1074 223.32 55.264C223.164 55.3815 226.328 58.7497 230.313 62.7053L237.578 69.9116L235.938 79.3503C235.039 84.5201 234.219 89.0632 234.141 89.4157C234.023 89.8073 234.063 90.1206 234.258 90.1206C234.414 90.1206 238.633 88.0057 243.555 85.4209L252.539 80.7603L256.836 83.0318C259.219 84.2851 263.359 86.4783 266.055 87.9274L270.977 90.5123L269.258 80.2511L267.5 69.9508L275.039 62.5878C279.219 58.5539 282.461 55.264 282.305 55.264C281.367 55.264 262.969 52.4442 262.422 52.2092C262.031 52.0525 259.805 47.9794 257.266 42.8097C254.805 37.8357 252.734 33.7235 252.656 33.7235C252.578 33.7235 250.469 37.8357 247.969 42.888Z" fill="white" fill-opacity="0.54"/>
<path d="M329.062 57.653C328.672 58.123 326.25 60.4337 323.75 62.7836L319.141 67.0917L312.422 65.6818C308.711 64.8985 305.469 64.2719 305.195 64.2719C304.922 64.2719 306.133 67.1309 307.891 70.6166C309.609 74.1414 311.055 77.1571 311.055 77.392C311.055 77.5879 309.453 80.6035 307.5 84.05C305.547 87.4574 303.984 90.3164 304.023 90.3556C304.062 90.3947 306.992 90.0031 310.547 89.4939C314.102 88.9848 317.383 88.5931 317.852 88.554C318.477 88.554 320.078 90.0422 323.477 93.8412C326.133 96.7394 328.398 99.011 328.516 98.8151C328.672 98.6585 329.258 95.7211 329.844 92.2746C330.43 88.8281 331.016 85.7341 331.094 85.3816C331.211 85.0292 333.906 83.5801 337.617 81.896C341.094 80.3294 344.102 78.9195 344.258 78.7628C344.414 78.6061 341.875 77.0396 338.594 75.3163C335.312 73.5539 332.383 71.9482 332.148 71.7915C331.836 71.5957 331.328 68.6975 330.82 64.2719C330.391 60.2771 329.961 56.9872 329.922 56.9089C329.844 56.8697 329.492 57.1831 329.062 57.653Z" fill="white" fill-opacity="0.54"/>
<path d="M170.938 58.9063C170.82 59.8071 170.625 63.0186 170.469 66.0343C170.312 69.0499 170.039 71.7131 169.844 71.9873C169.648 72.2223 166.875 73.9847 163.672 75.9038C160.469 77.7837 157.812 79.4678 157.812 79.6244C157.812 79.7419 160.82 81.0735 164.531 82.5618L171.25 85.225L172.656 91.2955C173.438 94.6245 174.18 97.8752 174.336 98.4626C174.648 99.5592 174.805 99.4026 179.336 93.8804C181.914 90.7472 184.141 88.1623 184.297 88.1623C184.453 88.1623 187.383 88.4365 190.82 88.7498C194.258 89.0631 197.461 89.3373 197.93 89.3373C198.711 89.3373 198.359 88.6323 194.922 83.2667C192.773 79.9377 191.016 77.0395 191.016 76.8437C191.016 76.6087 192.266 73.5147 193.789 69.9116C195.273 66.3476 196.484 63.3711 196.406 63.2927C196.328 63.2536 193.125 64.0369 189.258 65.0552L182.266 66.9351L176.719 62.0786L171.172 57.2614L170.938 58.9063Z" fill="white" fill-opacity="0.54"/>
<path d="M133.203 119.063C120.977 124.586 112.461 130.029 106.758 136.061C101.094 142.053 98.0468 147.967 96.875 155.212C96.4062 158.15 96.4453 166.609 96.9531 167.079C97.3047 167.432 102.969 166.648 105.859 165.865C118.75 162.34 126.953 153.685 132.344 137.862C134.687 131.048 137.695 117.536 136.875 117.536C136.68 117.536 135.039 118.241 133.203 119.063Z" fill="white" fill-opacity="0.54"/>
<path d="M366.211 119.142C366.328 120.082 367.07 123.606 367.852 126.935C372.969 149.494 381.211 160.813 395.898 165.434C399.297 166.492 405.586 167.51 406.211 167.079C406.875 166.688 406.758 157.171 406.016 153.646C405.352 150.356 403.516 145.735 401.484 142.288C399.414 138.724 391.914 131.439 386.914 128.15C383.086 125.604 369.219 118.398 366.836 117.732C365.977 117.458 365.937 117.497 366.211 119.142Z" fill="white" fill-opacity="0.54"/>
<path d="M75.4297 135.63C67.1484 152.471 64.8437 164.103 67.6172 175.03C69.0234 180.591 72.8906 187.445 76.7187 191.126C78.0078 192.38 78.125 192.419 79.0234 191.831C80.4687 190.891 84.0625 186.622 86.25 183.254C92.7343 173.267 93.0859 160.5 87.3047 145.343C85.625 140.956 79.6875 128.502 79.2578 128.502C79.1015 128.502 77.3828 131.713 75.4297 135.63Z" fill="white" fill-opacity="0.54"/>
<path d="M420.781 134.259C419.297 137.471 417.578 141.191 416.992 142.601C410.781 157.405 410.117 169.429 414.961 179.494C417.266 184.351 419.336 187.132 423.594 191.165L425 192.497L426.797 190.774C427.774 189.795 429.609 187.445 430.899 185.526C438.164 174.52 438.594 161.753 432.227 145.46C430.352 140.682 424.375 128.502 423.867 128.502C423.711 128.502 422.305 131.087 420.781 134.259Z" fill="white" fill-opacity="0.54"/>
<path d="M123.047 165.865C109.883 170.369 101.836 174.716 95.3906 180.787C88.2813 187.523 84.7266 195.199 84.1016 205.226L83.8672 209.299L88.5156 209.064C105 208.163 115.664 199.782 123.516 181.453C125.039 177.889 129.688 164.651 129.688 163.907C129.688 163.594 129.023 163.789 123.047 165.865Z" fill="white" fill-opacity="0.54"/>
<path d="M374.883 168.137C378.008 178.28 381.524 186.27 385.391 192.262C388.281 196.727 393.477 201.897 397.5 204.247C402.773 207.341 409.922 209.181 416.758 209.181H419.258L419.023 204.951C418.516 195.239 415.039 187.758 407.852 180.865C400.703 174.011 390.391 168.842 374.141 163.907C373.594 163.75 373.711 164.416 374.883 168.137Z" fill="white" fill-opacity="0.54"/>
<path d="M52.4219 180.043C51.0547 184.507 49.336 191.518 48.6328 195.474C47.6172 201.035 47.4219 211.609 48.2031 215.996C49.5313 223.085 52.5391 229.194 57.1094 234.09C59.336 236.479 64.375 240.513 65.0781 240.513C65.586 240.513 69.2969 234.521 70.5078 231.779C75.8203 219.677 73.7891 206.753 64.2578 192.105C62.3047 189.09 57.1094 182.079 54.1797 178.476L53.2422 177.301L52.4219 180.043Z" fill="white" fill-opacity="0.54"/>
<path d="M446.094 182.158C437.383 193.32 432.578 202.132 430.625 210.591C429.492 215.408 429.688 222.458 431.016 226.962C432.188 230.839 435.274 237.223 437.031 239.299L438.125 240.63L440.039 239.338C445.43 235.617 450.313 229.664 452.734 223.829C455.547 217.014 456.367 207.223 454.883 197.628C454.219 193.202 451.289 181.022 450.352 178.711L449.805 177.419L446.094 182.158Z" fill="white" fill-opacity="0.54"/>
<path d="M99.375 212.158C79.7656 225.278 71.0156 237.693 71.0156 252.458C71.0156 256.492 71.9141 262.798 72.6562 264.051C72.9297 264.443 73.9062 264.247 77.5 263.072C95.3906 257.158 103.555 242.863 104.57 215.526C104.687 211.844 104.727 208.79 104.609 208.79C104.492 208.79 102.148 210.317 99.375 212.158Z" fill="white" fill-opacity="0.54"/>
<path d="M398.437 211.844C398.437 213.568 398.633 217.21 398.828 219.991C400.547 241.845 406.914 254.142 419.922 260.683C424.18 262.837 430.039 264.678 430.469 264.012C430.625 263.738 431.094 262.093 431.484 260.33C432.5 255.787 432.422 248.424 431.289 244.234C428.281 232.915 419.609 222.771 404.101 212.314C397.93 208.163 398.437 208.202 398.437 211.844Z" fill="white" fill-opacity="0.54"/>
<path d="M34.1406 234.912C35.1172 248.698 37.5 258.685 41.6406 266.753C45.3515 273.921 50.1172 278.816 56.5625 282.145C60.8984 284.417 66.7578 286.257 67.1875 285.552C67.3437 285.278 67.8125 283.633 68.2031 281.871C69.2578 277.289 69.1797 269.221 68.0469 265.069C65.3515 255.161 57.7734 246.231 44.7265 237.497C40.5469 234.756 34.5703 231.114 34.1797 231.114C34.0234 231.114 33.9844 232.837 34.1406 234.912Z" fill="white" fill-opacity="0.54"/>
<path d="M467.774 231.662C467.344 231.936 464.922 233.463 462.344 235.03C453.242 240.63 445.547 247.093 441.367 252.654C438.828 255.983 436.133 261.466 435.117 265.383C433.984 269.612 433.906 276.544 434.922 281.479C435.313 283.437 435.781 285.278 435.938 285.552C436.484 286.414 444.531 283.594 448.516 281.166C452.695 278.581 457.774 273.45 460.234 269.299C464.024 262.954 466.484 255.121 467.969 244.899C468.867 238.437 469.375 231.113 468.906 231.153C468.711 231.153 468.203 231.388 467.774 231.662Z" fill="white" fill-opacity="0.54"/>
<path d="M98.3984 255.278C79.5312 274.743 74.2187 292.132 82.1094 308.738C83.0078 310.657 83.9062 312.184 84.1406 312.184C84.3359 312.184 85.7812 311.44 87.2656 310.54C97.6562 304.391 103.281 296.44 105.273 285.004C105.937 281.009 106.055 272.236 105.469 266.949C105 262.798 103.164 252.302 102.773 251.557C102.578 251.205 101.172 252.419 98.3984 255.278Z" fill="white" fill-opacity="0.54"/>
<path d="M400.039 252.928C397.5 264.247 396.602 276.975 397.852 284.573C399.531 294.913 404.531 302.981 412.813 308.62C416.055 310.814 419.18 312.302 419.609 311.871C420.234 311.244 422.93 304.626 423.672 301.806C424.766 297.772 424.648 288.842 423.516 284.612C421.055 275.683 415.859 267.341 405.898 256.375C403.281 253.477 400.977 251.087 400.781 251.087C400.625 251.087 400.273 251.91 400.039 252.928Z" fill="white" fill-opacity="0.54"/>
<path d="M28.125 282.654C28.125 282.772 29.4922 285.552 31.1328 288.803C36.6797 299.691 43.0078 308.15 49.375 313.242C52.9297 316.062 59.0234 319.195 62.8906 320.213C65.8984 320.996 73.9063 321.388 76.9531 320.918C79.0625 320.605 79.1016 320.566 79.2188 319.234C79.4141 316.923 77.5 310.304 75.4297 306.114C69.2969 293.699 57.6563 287.08 35.3516 283.398C29.2578 282.38 28.125 282.263 28.125 282.654Z" fill="white" fill-opacity="0.54"/>
<path d="M467.539 283.398C447.695 286.845 436.602 292.367 430 302.08C426.797 306.819 424.336 313.712 424.102 318.451L424.023 320.566L426.172 320.918C429.18 321.388 437.617 320.957 440.43 320.213C443.516 319.352 448.555 317.002 451.523 314.965C459.219 309.717 466.563 300.043 473.789 285.631L475.391 282.419L474.141 282.458C473.438 282.458 470.469 282.889 467.539 283.398Z" fill="white" fill-opacity="0.54"/>
<path d="M108.477 298.79C101.992 307.25 97.2265 315.553 94.8047 322.563C92.8906 328.124 92.3828 331.258 92.4219 336.662C92.5 342.106 93.3594 345.944 95.5469 350.566C97.0312 353.738 99.6484 358.007 100.078 358.007C100.625 358.007 106.523 353.307 108.477 351.271C118.242 341.166 120.508 327.576 115.586 308.111C114.453 303.529 111.797 294.952 111.562 294.952C111.484 294.952 110.078 296.675 108.477 298.79Z" fill="white" fill-opacity="0.54"/>
<path d="M390 299.534C386.172 311.793 384.961 318.999 385.274 327.654C385.508 334.469 386.055 337.054 388.477 342.145C391.172 347.903 394.766 352.093 400.664 356.323C403.594 358.438 403.203 358.595 405.859 354.091C411.445 344.574 412.344 334.312 408.594 323.111C407.227 319.038 404.024 312.537 401.016 307.759C398.789 304.195 392.461 295.579 391.797 295.148C391.602 295.03 390.781 296.989 390 299.534Z" fill="white" fill-opacity="0.54"/>
<path d="M127.617 328.516C122.539 339.051 120.078 346.689 119.141 354.835C117.812 366.036 121.094 375.905 128.789 384.287L131.055 386.715L133.672 383.856C145.273 371.48 146.758 357.185 138.594 337.641C136.875 333.568 131.211 322.367 130.82 322.367C130.703 322.367 129.258 325.148 127.617 328.516Z" fill="white" fill-opacity="0.54"/>
<path d="M371.133 324.365C370.469 325.54 368.789 328.751 367.422 331.571C356.055 354.796 356.758 370.109 369.805 384.247L371.992 386.637L373.711 384.952C377.539 381.232 381.094 375.435 382.773 370.266C385.352 362.159 384.687 352.172 380.82 340.853C379.258 336.388 374.18 324.952 372.969 323.19L372.344 322.289L371.133 324.365Z" fill="white" fill-opacity="0.54"/>
<path d="M36.9531 324.952C42.1484 332.903 46.5625 338.542 51.3672 343.32C55.8203 347.746 59.7656 350.644 64.5313 352.916C69.6484 355.383 73.1641 356.166 79.1016 356.206C83.75 356.206 85.7031 355.971 89.9219 354.835L91.3672 354.482L90.5859 351.662C88.1641 342.85 82.8906 335.37 76.2109 331.062C68.2031 325.931 57.7344 323.386 42.8125 322.876L35.4688 322.641L36.9531 324.952Z" fill="white" fill-opacity="0.54"/>
<path d="M455.078 323.033C450.938 323.346 444.258 324.404 440.586 325.344C428.633 328.359 420.313 334.547 415.664 343.869C414.102 347.002 412.109 352.485 412.109 353.738C412.109 354.639 414.688 355.422 419.727 356.088C433.75 357.89 446.875 350.918 459.102 335.096C461.328 332.198 466.094 325.383 467.344 323.229C467.578 322.876 466.445 322.759 462.227 322.837C459.258 322.876 456.055 322.955 455.078 323.033Z" fill="white" fill-opacity="0.54"/>
<path d="M152.187 348.138C152.109 348.294 151.641 351.427 151.172 355.07C150.078 363.451 150 373.634 150.937 379.352C152.852 390.827 157.93 399.208 166.406 405.005C168.398 406.336 172.344 408.53 172.812 408.53C173.633 408.53 176.992 399.522 177.734 395.37C178.359 391.924 178.047 384.522 177.187 381.349C175.156 374.025 171.328 367.642 163.906 359.221C160 354.835 152.5 347.668 152.187 348.138Z" fill="white" fill-opacity="0.54"/>
<path d="M344.414 353.973C335.234 363.255 330.586 369.482 327.695 376.454C325.547 381.702 325.234 383.542 325.234 389.926C325.273 395.096 325.391 396.193 326.289 399.169C327.422 402.89 329.844 408.53 330.352 408.53C331.016 408.53 336.523 405.279 338.633 403.673C351.328 393.843 355.273 378.294 351.68 352.407C351.328 349.9 350.938 347.824 350.82 347.824C350.664 347.824 347.812 350.605 344.414 353.973Z" fill="white" fill-opacity="0.54"/>
<path d="M74.2188 361.179C68.9063 361.649 58.9844 363.177 58.9844 363.49C58.9844 364.195 71.0547 375.435 74.8047 378.294C87.3438 387.694 98.6328 390.71 110.313 387.733C113.047 387.028 119.531 384.404 119.531 383.973C119.531 383.503 116.836 378.608 115.391 376.375C113.32 373.242 108.008 368.072 104.961 366.271C97.2656 361.728 86.8359 359.965 74.2188 361.179Z" fill="white" fill-opacity="0.54"/>
<path d="M415.234 361.023C408.984 361.689 402.773 363.608 398.32 366.271C393.164 369.365 387.891 375.24 384.805 381.388C384.141 382.72 383.594 383.895 383.594 383.973C383.594 384.404 390.078 387.028 392.852 387.733C407.969 391.61 422.578 385.501 439.844 368.033C442.266 365.566 444.219 363.451 444.141 363.373C443.867 363.099 433.203 361.61 428.555 361.14C424.727 360.749 418.164 360.71 415.234 361.023Z" fill="white" fill-opacity="0.54"/>
<path d="M182.617 380.762C182.773 381.271 183.867 383.895 185.039 386.597C193.516 406.219 203.906 417.342 216.836 420.631C220.43 421.571 226.133 422.041 229.102 421.65L231.328 421.376L231.055 418.987C229.258 401.558 219.922 390.945 200.742 384.522C196.953 383.229 187.305 380.723 183.828 380.096C182.383 379.861 182.344 379.861 182.617 380.762Z" fill="white" fill-opacity="0.54"/>
<path d="M313.789 381.31C306.602 383.033 298.398 385.775 293.945 387.968C280.43 394.626 273.477 404.456 272.109 418.987L271.875 421.376L274.453 421.65C280.039 422.276 286.953 420.984 292.578 418.282C303.047 413.269 311.133 403.047 318.789 385.109C319.844 382.642 320.703 380.488 320.703 380.292C320.703 379.744 319.766 379.9 313.789 381.31Z" fill="white" fill-opacity="0.54"/>
<path d="M115.859 391.924C110.234 392.785 98.3203 396.31 92.1875 398.895L90.9766 399.365L94.6094 401.95C109.492 412.446 121.914 417.185 133.203 416.637C140.273 416.284 146.211 414.169 152.227 409.861L154.688 408.099L153.828 406.845C151.914 404.143 146.133 398.582 143.359 396.741C136.094 391.963 126.445 390.279 115.859 391.924Z" fill="white" fill-opacity="0.54"/>
<path d="M373.828 391.571C366.211 392.707 360.039 395.762 354.57 401.01C351.836 403.673 348.828 407.315 348.828 408.02C348.828 408.647 353.164 411.545 356.719 413.229C361.602 415.579 364.727 416.363 370.117 416.637C377.578 416.989 384.102 415.423 392.773 411.31C400.547 407.59 412.773 399.718 411.68 399.13C411.367 398.934 408.242 397.838 404.727 396.624C393.477 392.746 386.172 391.258 378.906 391.336C376.641 391.375 374.375 391.454 373.828 391.571Z" fill="white" fill-opacity="0.54"/>
<path d="M164.844 413.66C156.797 414.874 145.703 420.357 134.57 428.582L130.273 431.754L134.766 433.282C140.82 435.357 148.516 437.316 153.711 438.099C160.078 439.117 169.258 438.765 173.945 437.355C179.766 435.632 183.906 433.243 188.242 429.13C190.82 426.663 193.75 423.216 193.75 422.59C193.75 422.002 188.164 418.242 184.961 416.715C180.313 414.522 176.641 413.621 171.68 413.425C169.336 413.347 166.25 413.464 164.844 413.66Z" fill="white" fill-opacity="0.54"/>
<path d="M326.172 413.973C324.336 414.365 321.523 415.266 319.844 415.932C317.07 417.107 310.117 421.376 309.57 422.237C309.219 422.825 311.602 425.958 314.727 428.934C321.68 435.671 329.688 438.686 340.625 438.686C346.484 438.686 349.336 438.334 355.664 436.924C360.195 435.906 372.656 432.068 372.656 431.676C372.656 431.558 370.742 430.109 368.438 428.464C350.352 415.54 338.32 411.428 326.172 413.973Z" fill="white" fill-opacity="0.54"/>
<path d="M247.656 422.316C244.492 424 242.656 427.799 243.242 431.402C243.594 433.595 245.586 436.336 247.656 437.394C250.234 438.765 254.024 438.53 256.328 436.885C258.438 435.436 259.766 433.047 260.039 430.383C260.274 427.642 258.75 424.548 256.328 422.825C253.945 421.18 250.195 420.984 247.656 422.316Z" fill="white" fill-opacity="0.54"/>
<path d="M208.398 429.169C199.414 431.088 189.258 437.159 177.383 447.655L174.531 450.201L175.938 450.671C178.516 451.572 188.008 453.53 192.969 454.196C199.688 455.057 209.375 454.783 214.063 453.569C218.164 452.512 223.125 450.201 226.328 447.929C230.859 444.718 237.266 436.924 236.484 435.632C235.43 433.987 226.836 430.07 222.188 429.13C218.438 428.347 212.07 428.386 208.398 429.169Z" fill="white" fill-opacity="0.54"/>
<path d="M281.68 428.895C277.305 429.835 268.008 433.869 266.758 435.436C266.211 436.101 267.5 438.334 270.586 442.015C276.25 448.752 284.141 453.06 293.125 454.313C297.422 454.94 305.039 454.861 310.43 454.156C317.187 453.256 328.555 450.71 328.477 450.083C328.477 449.966 326.719 448.36 324.57 446.519C313.672 437.237 305.625 432.303 297.266 429.796C294.57 429.013 292.93 428.778 288.672 428.66C285.781 428.582 282.617 428.699 281.68 428.895Z" fill="white" fill-opacity="0.54"/>
<g clip-path="url(#clip0_14_46)">
<path d="M243.341 99.5408C230.646 106.081 211.188 114.71 198.87 119.263C184.742 124.445 170.488 128.42 155.605 131.313C152.563 131.917 136.449 134.609 121.818 136.998C118.299 137.552 115.106 138.206 114.729 138.407L114 138.785V143.866C114 152.721 115.508 187.361 116.64 204.92C117.067 211.26 118.424 228.039 118.676 229.699C119.329 234.403 122.346 248.667 124.332 256.566C128.732 274.05 132.653 285.823 139.541 302.2C143.086 310.627 146.404 316.866 154.172 329.695C159.904 339.104 164.077 345.267 171.066 354.6C179.915 366.373 189.82 376.637 204.174 388.838C220.439 402.699 222.651 404.435 229.841 408.711C232.38 410.246 235.472 412.158 236.754 412.988C239.444 414.774 246.609 418.346 248.268 418.749C249.374 419.025 249.55 418.975 251.913 417.994C256.539 416.032 260.436 414.069 262.949 412.409C264.332 411.529 267.575 409.516 270.164 407.956C276.424 404.208 280.673 400.888 294.876 388.712C304.404 380.536 305.535 379.454 312.775 371.882C322.253 361.971 323.887 360.009 332.308 348.361C339.096 338.978 342.942 332.941 350.459 320.01C356.744 309.143 362.777 295.282 368.458 278.628C372.757 265.975 378.715 240.542 380.324 227.938C382.059 214.455 384.07 177.903 384.899 145.023C385.05 138.86 385.025 138.558 384.598 138.407C383.115 137.98 372.28 136.017 364.135 134.734C353.023 132.948 342.213 131.011 336.607 129.804C320.518 126.282 304.882 121.326 288.843 114.66C278.963 110.559 265.966 104.622 256.262 99.7672C249.148 96.195 249.827 96.195 243.341 99.5408Z" fill="#FF0000"/>
<mask id="mask0_14_46" style="mask-type:alpha" maskUnits="userSpaceOnUse" x="146" y="93" width="362" height="433">
<rect x="323.016" y="93" width="209.052" height="378.272" transform="rotate(27.9019 323.016 93)" fill="black"/>
</mask>
<g mask="url(#mask0_14_46)">
<path d="M243.341 99.5407C230.646 106.081 211.188 114.71 198.87 119.263C184.742 124.445 170.488 128.42 155.605 131.313C152.563 131.917 136.449 134.609 121.818 136.998C118.299 137.552 115.106 138.206 114.729 138.407L114 138.785V143.866C114 152.721 115.508 187.361 116.64 204.92C117.067 211.26 118.424 228.039 118.676 229.699C119.329 234.403 122.346 248.667 124.332 256.566C128.732 274.05 132.653 285.823 139.541 302.2C143.086 310.627 146.404 316.866 154.172 329.695C159.904 339.104 164.077 345.267 171.066 354.6C179.915 366.373 189.82 376.637 204.174 388.838C220.439 402.699 222.651 404.435 229.841 408.711C232.38 410.246 235.472 412.158 236.754 412.988C239.444 414.774 246.609 418.346 248.268 418.748C249.374 419.025 249.55 418.975 251.913 417.994C256.539 416.032 260.436 414.069 262.949 412.409C264.332 411.529 267.575 409.516 270.164 407.956C276.424 404.208 280.673 400.888 294.876 388.712C304.404 380.536 305.535 379.454 312.775 371.882C322.253 361.971 323.887 360.009 332.308 348.361C339.096 338.978 342.942 332.94 350.459 320.01C356.744 309.143 362.777 295.282 368.458 278.628C372.757 265.975 378.715 240.542 380.324 227.938C382.059 214.455 384.07 177.902 384.899 145.023C385.05 138.86 385.025 138.558 384.598 138.407C383.115 137.98 372.28 136.017 364.135 134.734C353.023 132.948 342.213 131.011 336.607 129.804C320.518 126.282 304.882 121.326 288.843 114.66C278.963 110.559 265.966 104.622 256.262 99.7672C249.148 96.195 249.827 96.195 243.341 99.5407Z" fill="black" fill-opacity="0.11"/>
</g>
</g>
<defs>
<clipPath id="clip0_14_46">
<rect width="271" height="322" fill="white" transform="translate(114 97)"/>
</clipPath>
</defs>
</svg>
